<svg id="Calque_1" data-name="Calque 1" xmlns="http://www.w3.org/2000/svg" viewBox="0 0 158.45 186.31"><title>amulet</title><path d="M200.82,172a16.84,16.84,0,0,1-5.16,3.55,1.19,1.19,0,0,0-1.15.29,3.1,3.1,0,0,0-2.33.89c-3.47,2.36-4.63,6.42-7.17,9.46a12.47,12.47,0,0,1-4.71,3.89,3.19,3.19,0,0,1-3.81-.52,1.63,1.63,0,0,0-2.3-.25,39.66,39.66,0,0,1-3.72,1.76c-1.59.67-3,1.14-3.54,3.3-.48,2-2.63,2.77-4.61,3a15.58,15.58,0,0,1-7.72-.9,3.2,3.2,0,0,0-1.64-.2c-2.47.32-5,.62-7.43.87a4.5,4.5,0,0,0-2,.93c-2.66,1.69-5.43,3.08-8.71,2.93-2.41-.11-3.35-.78-3.89-3.18-.22-1-.84-1.17-1.57-1.27a73.75,73.75,0,0,1-23.8-7.52,1.32,1.32,0,0,0-1.38-.16c-3.66,1.91-7.11,1-9.25-2.48-.89-1.46-1.71-2.37-3.67-2.5-3.18-.21-4.8-3.4-3.44-6.32.5-1.06-.31-1.36-.77-1.82a77,77,0,0,1-11.56-14.44,73.86,73.86,0,0,1-8.4-18.93c-.32-1.13-.7-1.8-2-2-2.1-.27-3.36-1.92-3.5-4.44-.23-4.17-.14-8.36-.67-12.52-.24-1.83.22-3.38,2.45-3.69,1-.14.77-1,.8-1.63A76.51,76.51,0,0,1,68.93,94.6,74.68,74.68,0,0,1,78,77.45c.65-.9,1-1.53-.13-2.45s-.72-2.2-.31-3.34a10.76,10.76,0,0,1,3-4.47c1.5-1.32,3-2.6,4.49-4a3,3,0,0,1,4.11-.31c1.1.79,1.68.49,2.53-.21a75.34,75.34,0,0,1,39.18-16.88c1.14-.14,1.9-.22,1.54-1.72a1.85,1.85,0,0,1,1-2.25c1.16-.42,1.44-1.33,2.07-2.16a3.07,3.07,0,0,0,.44-3.41,2.55,2.55,0,0,1,1.66-3.47,2,2,0,0,0,1.4-2.28c0-3.93.14-7.87.2-11.8a7.92,7.92,0,0,1,.37-2.58,2.08,2.08,0,0,1,2-1.43c2.3-.16,5.14,2.41,5.21,4.77.09,3.06.14,6.12.09,9.18,0,1.46.17,2.31,1.94,2.38s2.34,1.13,2.43,3.07a17.27,17.27,0,0,0,1.55,7.35,1.69,1.69,0,0,0,.72.55,2.52,2.52,0,0,1,1.27,3.19c-.39,1.24.12,1.47,1.13,1.69a74.86,74.86,0,0,1,31.25,14.64,1.43,1.43,0,0,0,1.82.22c2.65-1.34,5.08-.67,6.89,1.72a14.46,14.46,0,0,1,2.4,4.83,4.2,4.2,0,0,0,2.65,2.92,11,11,0,0,1,4.31,2.91c1.88,2.18,1.83,4.18-.27,6.16-.75.71-.07,1.21.18,1.59a70,70,0,0,1,8,18.06,74.7,74.7,0,0,1,2.95,17.12,2.19,2.19,0,0,0,1.22,2.22,3.84,3.84,0,0,1,1.82,4.53,29.19,29.19,0,0,0-.62,8c.09,2.7-.3,5.48-3.66,6.37-.67.18-.7.8-.84,1.34a75,75,0,0,1-10.71,24.19c-.34.5-.93,1-.45,1.66,1.39,1.89.62,3.53-.51,5.14A2.81,2.81,0,0,0,200.82,172ZM159,66.07a1,1,0,0,0-.89-.53c-.44-.37-.84-1-1.5-.32l-1.15,0L155,63.71a.94.94,0,0,0-1-.82h0c-1-1-1.14-1-1.47,0l-.45.7-1.12.05c-.41-.58-.19-1.26-.31-1.89.42-.67.43-1.21-.46-1.46-.51-.43-1-1.13-1.7-.88s-.62,1.22-.67,1.94a2.36,2.36,0,0,0,0,.37.66.66,0,0,0-.17.8l-.44.47-1.15-.14a5.66,5.66,0,0,1-.22-2.2,1.06,1.06,0,0,0,.22-1.15c.15-.49.52-.93.32-1.49,0-.64-.48-.81-1-.88l-1.31-.85c-.74-.66-.8-.65-1,.21l-.08.74a.58.58,0,0,0-.12.81,10.09,10.09,0,0,0-.26,3.49c0,.65,0,1.35-.88,1.34-.68,0-.87-.61-.89-1.21,0-1,0-2,0-3,0-.57.45-1.35-.23-1.69s-1.13.26-1.62.63c-1.13.38-.74,1.14-.48,1.88,0,.56,0,1.13-.11,1.68-.15,1-.64,1.49-1.68.92a.63.63,0,0,0-.29-.77l0-1.5c-.86-1.66-1.47-.09-2.19.16-1.05.78.21,2-.51,2.81a1.68,1.68,0,0,1-1.65-.58l-.16-.52c-.36-1.3-.87-.44-1.34-.09a.15.15,0,0,0-.21.1c-.5-.07-.87.06-1,.63l-.53.94-1.48-.14A2.39,2.39,0,0,0,125,64.65c-.31.8-.77.7-1.49.54-1.27-.3-2.49-.21-2.81,1.47-.18,1-.68,1.08-1.46.56a1.88,1.88,0,0,0-3,.84c-.42.84-.8.84-1.6.55-1.1-.39-2.33-.3-2.57,1.13-.26,1.61-1,1.39-1.85.65-.69-.58-1.27-.28-1.89,0-.78.35-.41.88-.22,1.4a.75.75,0,0,1-.28,1,.92.92,0,0,1-1.19-.14c-.24-.2-.43-.45-.65-.67-.86-.84-1.66-.14-2.39.2s-.22.94,0,1.4.35,1-.09,1.37-1.05,0-1.46-.37-.44-.6-.69-.89c-.77-.9-1.51-.2-2.16.14s-.25.94,0,1.4c.16.27.35.51.51.78.32.54.75,1.16,0,1.62s-1.16-.13-1.55-.63-.74-1-1.09-1.52c-.81-1.19-1.83-.62-2.65-.18s-.14,1.21.14,1.74c.5.93,1.15,1.78,1.7,2.68.38.61,1.08,1.32.14,1.92-.78.5-1.27-.24-1.64-.79a33,33,0,0,1-2.17-3.5c-.46-.9-.92-1.92-2-1.31-.84.48-.81,1.56-.28,2.5a25.89,25.89,0,0,0,3.08,4.89c.72.81,1,1.69-.54,1.94a3.6,3.6,0,0,0-1.42-1.2L90,82c0-.41-.17-.79-.61-.75S89,81.68,89,82c-.29,1-1.21,1.95-.27,3.06a1.66,1.66,0,0,0,1.12,1.14,2.39,2.39,0,0,0,1.36,1.2c.16.58.36,1,1.15.83,2.32-.49,4.7-.1,7-.32a2.34,2.34,0,0,1,2.44,1.28l.12,3.34a2.52,2.52,0,0,0,0,1.55l-.14,1.47a.45.45,0,0,0,0,.77c-.08.77.34,1.61-.33,2.3l-6.06.13-3.33-.21a3.77,3.77,0,0,0-2.29-.2,1.74,1.74,0,0,1-1-1.91c.08-.9,0-1.81,0-2.72.86-1.18,2.15-.69,3.27-.81.77-.09,1.76.21,1.83-1a2,2,0,0,0-1-2.26c-1.32-.78-3.19-.13-4.13-1.78-.25-.43-.87-1.48-1.5-.67S85.85,88.95,87,90c.32.29.73.48,1.06.77,1,.86,1,1.54-.42,1.88-.71-.05-1.16-1.76-2.1-.33-.32.83-1.62,1.61-.14,2.54.59.56,1.62.76,1.56,1.86-.68.75-1.46.25-2.21.17h-.78a.35.35,0,0,0-.26.48.14.14,0,0,0-.07.21c-.4.67-1.06,1.37.23,1.82h0a1.38,1.38,0,0,0,1.17.71l.37.38.07,1.14-1.18.33a1.29,1.29,0,0,0-1-.56l-.49-.13c-1.2.73-1.28,1.19-.36,2.15l1.37.88a1.7,1.7,0,0,1,.06,1.79H82.75c-.16-.29-.46-.48-.72-.34s-.15.5,0,.74c-.08.42-.17.83-.24,1.25a3.65,3.65,0,0,1-2.45,3.23c-.73,0-.78.53-.79,1s.33.62.78.52l.15.12c.79.54,2.56.37,2.08,1.79s-1.72.24-2.59,0c-1.18-.26-1.31.51-1.59,1.3-.36,1,.26,1.17,1,1.34s1.7.35,2.52.62c.57.18,1,.62.72,1.29s-.78.68-1.4.51c-.89-.25-1.8-.43-2.71-.64-1.35-.32-1.33.8-1.57,1.56-.37,1.14.6,1,1.2,1.11.85.17,1.71.27,2.57.39a.61.61,0,0,0,.8.15c.65.25,1.43.48,1.1,1.39-.27.75-1,.6-1.61.49-1.29-.23-2.57-.48-3.87-.65-1.5-.2-1.46,1.09-1.71,2-.3,1.06.69,1.06,1.27,1.17a19.81,19.81,0,0,0,4.44.62c.75,0,1.74-.06,1.75.92S80.83,129,80,129c-1.85-.22-3.69-.56-5.53-.84-.65-.51-1-.37-1.09.47-.16,1.2.3,2.57,1.39,2.46s2.27.38,3.41.24a.9.9,0,0,0,1.17.05l1.28,0c.66,0,1.55-.17,1.6.78s-.83.91-1.49,1.05c-1.48.32-2.94-.16-4.42-.13-.27-.19-.6-.33-.76,0s.07.58.4.72a3.54,3.54,0,0,0,1.09,1.89c0,.52.29.75.82.58a12.89,12.89,0,0,0,4,.06c.51-.06,1,0,1.22.56s-.34,1.08-.85,1.2a26.77,26.77,0,0,1-2.9.37c-.24-.17-.52-.14-.61.11a.54.54,0,0,0,.38.73,2.67,2.67,0,0,0,.8,1.35c.16.59.47.61.89.24.68-.06,1.36-.07,2-.18s1.63-.55,2,.38-.73,1.11-1.32,1.49a.65.65,0,0,0-.78.23l-.72.1c-.21,0-.51,0-.6.13a.34.34,0,0,0,.24.52,3.45,3.45,0,0,0,.92,1.61c.29.74.73.76,1.29.29.67-.08,1.32-.63,2-.05l0,1.19c-1,.62-2.37,1-1,2.64.72.87,1.36.56,2.11.27.59-.23,1.24-.51,1.68.11s-.13,1.11-.57,1.53c-.83.27-2.21.19-1,1.68l.61.87c.2.87.57.68,1,.15.28-.11.56-.2.84-.32.52-.23,1.06-.44,1.44.16s-.09,1-.48,1.37l-.53.48c-1.37.46-.84,1.12-.2,1.79.81,1.66,1.56.45,2.32,0,.55-.36,1.14-.73,1.65-.06s-.06,1-.43,1.46a1.82,1.82,0,0,1-.57.48c-1.34.59-1.26,1.4-.53,2.48.86,1.26,1.56.37,2.36,0s1.56-1.71,2.36-.67-.67,1.57-1.29,2.23a1,1,0,0,1-.31.21c-1.31.58-1.31,1.3-.51,2.45.94,1.35,1.53.44,2.22-.12.53-.43,1-.94,1.51-1.39s.92-1.26,1.67-.5.15,1.33-.3,1.83a13.84,13.84,0,0,1-2.09,1.87c-.86.62-1.08,1.15-.4,2.14.81,1.18,1.51.54,2.17,0,.94-.72,1.78-1.57,2.66-2.36.47-.42,1-1,1.59-.31s.14,1.16-.3,1.64a16.42,16.42,0,0,1-3.41,2.91c-1.17.7-.4,1.33,0,2s.8,1.11,1.7.33a44.88,44.88,0,0,0,4.8-4.16c.38-.43.82-.93,1.41-.47s.45,1.13,0,1.66-1,1.09-1.55,1.63c-.8.82-2,1.29-2.51,2.47,1.66.6,3.09.63,4.33-.75.62-.7,1.35-1.3,2-1.93.44-.4.95-.72,1.47-.19s.18,1-.14,1.51-1.68,1.08-1.24,1.83,1.72.42,2.62.54c1.07.14,1.16-1,1.62-1.57s.67-1.16,1.45-.78.43.92.28,1.48-.55,1,.14,1.29a1.51,1.51,0,0,0,1.76-.08c.23-.21.36-.52.59-.72.6-.52,1.11-.48,1.45.32.73,1.68,1.73,2,3.15.94.65-.49,1-.34,1.26.33.54,1.51,1.64,1.58,2.77.92.92-.53,1.25-.35,1.71.52s3.3,1.8,4.15,1.24,1.32-.55,1.85.45c.43.82,1.39,1.29,2.16.49,1.08-1.13,1.51-.69,1.95.47.32.86,1.2.78,1.9.95s.69-.34.72-.81.18-1.23.88-1.22c.91,0,1.1.84,1,1.5-.15,1.47,1,1.77,1.87,1.84,1.22.1.58-1.07.72-1.68s0-1.2.77-1.31,1,.39,1.08,1c.09,1.18.71,1.08,1.52.72s1.47-.52,1.42-1.65.51-1.29,1.48-.69c1.22.75,2.16.43,2.42-1.06.18-1,.65-1.27,1.56-.84.12.76.45,1,1.14.48l1.63-.65c1.13-.4.24-1.43.64-2.06,1.13-.8,1.45,1.42,2.57.69,1.89,0,1.53-1.35,1.54-2.49,1.11-.67,1.41.7,2.19.86.58.22,1-.08,1.29-.49a.71.71,0,0,0,.66-.92c-.1-.69-.21-1.45.66-1.71s1,.47,1.3,1c.17.33.47.35.79.26,1.72-.52,1.72-.52,1.29-1.61-.17-.69-.68-1.54.21-2s1.1.73,1.66,1.11c.39,1.88,1.42.59,2.07.33,1.3-.53.77-1.3.08-2l-.06-.09-.34-1.67c1.83-1,1.88.88,2.65,1.62.47,1.58,1.23.62,1.93.21.92-.25,1-.83.59-1.56-.29-.54-.62-1.06-.94-1.59s-1.06-1.28-.26-1.94,1.28.27,1.83.67c.15.68.49.9,1,.28.74-1,.94-2-.23-2.9l.42-1.1c.57.12,1.06.16,1.24-.6s.42-1.36.64-2l1.09-1.19a.76.76,0,0,0,.76-.33c2.1,0,2.3-.3,1.31-2.2l.55-1.17.39,0c.47.47,1,.88,1.51.12s1.09-1.28.3-2.14c-.33-.36-.69-.79-.34-1.31s.86-.31,1.33-.11q.93.38,1-.62h0c.67-.55,1.24-1.1.09-1.74a.14.14,0,0,0-.16-.16c-.15-.83-.35-1.89,1-1.39,1.17.44,1.39-.28,1.82-1s1-1.49-.09-2.2a.79.79,0,0,1-.32-1.13.82.82,0,0,1,1.17-.18c1.5.89,1.82-.46,2.32-1.26.69-1.11-.47-1.29-1-1.77s-2.1-.47-1.54-1.59,1.62-.16,2.44.13a2.23,2.23,0,0,1,.48.28c.59.41,1.16.78,1.77,0a1.5,1.5,0,0,0-.06-2.19,10.07,10.07,0,0,0-2.18-1.4c-.85-.44-1.05-1-.52-1.8a3.08,3.08,0,0,1,2.08.56c1.19.91,1.86.43,2.37-.71.38,0,.52-.24.52-.55a.35.35,0,0,0-.46-.37,17.77,17.77,0,0,0-4.06-2.27l.12-1.34.94-.17a1.07,1.07,0,0,0,1.14.34l2.41,1.33a1,1,0,0,0,.94.62.14.14,0,0,0,.18.13c.52.72,1,.81,1.3-.14a.16.16,0,0,0,.12-.2c.89-.72.89-1.39-.13-2a1.91,1.91,0,0,0-1.13-.78,2.41,2.41,0,0,0-1.87-1.06,1.48,1.48,0,0,0-1.1-.47,4.35,4.35,0,0,0-2.63-.73l-.4-.36c.12-1.21.87-1.28,1.87-1.17,1.55.17,2.84,1.11,4.77,1.57-.78-1.35-.44-2.74-1.71-3.49l-.1-.1c-1.21-1.16-2.8-1-4.24-1-1.21,0-.11,1.48-.94,1.88-.15.07-.25.27-.37.41l-1.49,0-14.66.05c-.48,0-.67.23-.53.7l0,2.91c0,.65-.67,1.52.56,1.79.81,0,1.62.08,2.42.09,4.43.07,8.86-.23,13.28.08l.36,1.06c-1.21,1-2.73.31-4,.71a32.33,32.33,0,0,0-7.53.12l-15,.16c-.55,0-1.11-.13-1.66-.13-1.8,0-3.61,0-5.41,0-.51,0-1.06-.16-1.08-.78s.5-.82,1-.89a13.67,13.67,0,0,1,1.49,0c2.92,0,5.85,0,8.77-.1.63,0,1.53.21,1.58-.82.06-1.36,0-2.74,0-4.1,0-.63-.53-.79-1.07-.78l-6.69.1-3-.1a1.44,1.44,0,0,1-.83-1.61l0,0,.78-.36c2.88-.1,5.74.6,8.62.16,1.48.33,2.19-.13,2.14-1.78-.12-4.42-.14-8.84-.22-13.26,0-.46.23-1.15-.33-1.33s-1,.39-1.23.89a15.84,15.84,0,0,0-3,3,5,5,0,0,0-2,1.79l-3.6,3.43c-.83.07-1.2,1.49-2.25.81-.67-.43,0-1,0-1.52l1.57-1.44a23.3,23.3,0,0,0,4-3.81,10,10,0,0,0,2.43-2.41,2,2,0,0,0,1.2-1.19.15.15,0,0,0,.19-.13,3.81,3.81,0,0,0,2-1.82c1.35-.74.88-2,.85-3.11,0-1.36-1.51-.38-2-1.11a.68.68,0,0,0-.37-.72c-.19-.72-.43-1.43-.57-2.16-.25-1.26-1.13-2.44-.69-3.77s1.86-1,2.84-1.45.71-1.51.58-2.28c-.15-1-.88-.36-1.32-.22a16.5,16.5,0,0,1-5.37.36c-.61,0-1.32.11-1.54-.7s.37-1.24,1-1.53a19.2,19.2,0,0,0,3.8-2.13,7.16,7.16,0,0,1,3.3-.77c.24,0,.29-.34.27-.59.72-.77,1.31-.54,1.84.23a45.26,45.26,0,0,0,0,6.17c0,.48,0,1.19.58,1.19s.51-.74.5-1.17c0-2.06-.09-4.12-.14-6.18a1.06,1.06,0,0,1,1.67,0,.66.66,0,0,0,.28.78c0,1.74.07,3.49,0,5.23,0,1.19.29,1.9,1.56,2.06,1.91.24,2.77,1.25,2.19,3.21a7.21,7.21,0,0,0-.56,3,3.08,3.08,0,0,1-.89,2c-2.15-.57-2.15-.57-2,1.73a3.81,3.81,0,0,0,.17.7l0,.74c.5,1.13,1.64,1.58,2.48,2.34l.31.35a1.11,1.11,0,0,0,.88,1l.43.42a1.32,1.32,0,0,0,.94.94l.51.58a1.46,1.46,0,0,0,1.1,1.1l.4.4a6.87,6.87,0,0,0,2.46,2.46l.68.68a3.35,3.35,0,0,0,1.7,1.71,3.5,3.5,0,0,0,1.32,1.27c.78,1.36,1.57,2.71,3.13,3.34l.35.35c.83,1.8,1.55.32,2.3-.08l1.14,0a.58.58,0,0,0,.79.16l.67.09c1.07-.9.21-1.44-.37-2a.77.77,0,0,0-.73-.4c-.32-.48-.83-.41-1.3-.47s-1.13-.11-1.31-.75.41-.8.72-1.14l1.12,0c.65.25.76-.08.68-.62a2.66,2.66,0,0,0-3.34-2.5L197,109l.84-.77.72-.13c1-.67.18-1.25-.09-1.86l-.07-.09c-.64-.74-1.73-.27-2.42-.88-.2-.58.35-.84.54-1.26.75,0,1.27-.09.76-1,0-1-.54-1.26-1.44-1.16a.93.93,0,0,1-1.13-.72.81.81,0,0,1,.64-1c1.1-.38.89-1,.28-1.63,0-.61.09-1.3-.79-1.42-.61-.14-1.44.28-1.76-.63s.24-1.14.78-1.49c1.2-.45.54-1,.1-1.58V93.3l-.1-.06c0-.79-.32-.9-.91-.41l-1.78.07,0-1.42h0a1.14,1.14,0,0,0,1-.54c1.65-.57.38-1.44.23-2.19-.3-1.45-1-.53-1.52-.23l-.52.18-1.48.25c-.91-.58-.8-1.19,0-1.72a11.18,11.18,0,0,1,1.51-.71c1.09.22,1.36-.23,1-1.21s-.41-2.44-2.12-1.41a3.35,3.35,0,0,0-1.86.79.61.61,0,0,0-.76.33l-.74,0c-1.27-1-.06-1.54.45-2.2l1-.49c.47-.1.95-.16,1.41-.3s1.18-.18,1.13-.95-.58-1-1.18-1.25a1.27,1.27,0,0,0-1.62.42,13.43,13.43,0,0,0-3.44,1.53c-.86,0-1.76,0-1.57-1.28L184,79.37c.47.06,1-.08,1-.52s-.58-.46-.89-.68c-1.66-1.16-3.29.35-4.94.05h0c.33-1.85-.65-2.44-2.28-2.26a2.31,2.31,0,0,1-1.57-.29.83.83,0,0,0-.5-.92,1,1,0,0,0-1-.55l-1.23-.64a2.3,2.3,0,0,0-1.77-.85,6.65,6.65,0,0,0-2.35-1.1,4.53,4.53,0,0,0-1.92-1l-.07,0a1,1,0,0,0-.9-.54,3,3,0,0,0-1.62-1,2.76,2.76,0,0,0-1.74-.92A5.19,5.19,0,0,0,160.41,67a1.76,1.76,0,0,0-1.3-.92Zm-5.8,117.08c-1-.09-1.75.56-2.6.9a.58.58,0,0,0-.73.32c-5.23,1.79-9.82,4.76-14.34,7.85a5.3,5.3,0,0,0-.94,1.14,1.38,1.38,0,0,0-1,1.63c-.65,1-1.18,2.2-.53,3.32s2.1.88,3.25.81a6.77,6.77,0,0,0,3.14-1.1c.35.05.9,0,.86-.29-.08-.52-.56-.43-1-.24-.74,0-1.48-.12-2.22-.14-2.2,0-2.47-.38-2-2.56a1.1,1.1,0,0,0,.68-.83,94.89,94.89,0,0,1,14.41-8.46l.18,0,.13-.12,2.81-1.2a.58.58,0,0,0,.72-.28c2.3-1,4.61-1.88,6.89-2.88,9.72-4.23,19.6-8.1,29.18-12.66a12.22,12.22,0,0,1,5.44-1.65c1.33,0,2.83,0,3.55,1.21s-.7,2-1.12,3a5.89,5.89,0,0,0-2,2.07c1.17-.13,1.74-.53,2.82-1.91.73-.76,1.5-1.49,2.19-2.29.87-1,.77-1.81-.39-2.62a6.63,6.63,0,0,0-5.36-.87c-2.43.47-4.56,1.72-6.84,2.59-3.13,1.2-6.18,2.62-9.26,3.94a.86.86,0,0,0-1,.43c-6.79,2.82-13.59,5.62-20.37,8.47-1.58.66-3.31,1.09-4.54,2.43Zm-25.7-2.24a.17.17,0,0,0-.24-.09,2.87,2.87,0,0,0-2.21-.63l-1.08-.26a.62.62,0,0,0-.79-.2l-.71-.17a.61.61,0,0,0-.79-.19l-3.7-.58c-.23-.25-.48-.39-.8-.16l-1.09-.18a1.1,1.1,0,0,0-1.17-.16,3.57,3.57,0,0,0-1.82-.25,1,1,0,0,0-1.18-.12l-1.46-.23a.91.91,0,0,0-1.17-.13l-2.58-.25a5.91,5.91,0,0,0-3.41-.22l-6-.21a4.21,4.21,0,0,0-3.75.07l-.72.14a.9.9,0,0,0-1,.32,3.76,3.76,0,0,0-2,1c-1.14.39-.95,1.08-.41,1.84.45,1.87,1.88,1.86,3.36,1.75L95,183.13c.45.74.91,1.48,1.35,2.22a5.76,5.76,0,0,0,4.19,2.83,2,2,0,0,0,1.78-.3c1.22-1.1,1.29-5.48.13-6.74a1.34,1.34,0,0,0-1.5-.49c-.7.27-.25.84-.21,1.29a10.15,10.15,0,0,0,.23,1.29,1.54,1.54,0,0,1-.59,1.79c-.72.54-1.25.25-1.87-.11-1.11-.66-2-1.65-3.32-2A5.88,5.88,0,0,0,92.9,181l-.24-.29,0-.84.91-.82a1.74,1.74,0,0,0,1.52-.31l3.72-.12a1.62,1.62,0,0,0,1.58-.06l1.41,0a2.27,2.27,0,0,0,1.6,0l1.83.25a2.6,2.6,0,0,0,1.91.25,18.14,18.14,0,0,0,4.84.5.6.6,0,0,0,.8.15l1.83.2c.23.31.51.26.8.11a4.12,4.12,0,0,0,1.83.27,1.12,1.12,0,0,0,1.16.23,5,5,0,0,0,2.2.2.62.62,0,0,0,.8.18l1.08.19a1,1,0,0,0,1.17.18l.72.13a13.35,13.35,0,0,0,3.75.74l.89.23q6.33,1.64,12.66,3.28c.64.16,1.18,0,1.68-.94L130,181.5a3.85,3.85,0,0,0-1.87-.46A.44.44,0,0,0,127.52,180.91ZM95.91,95.55c0,2.37,1.82,1,2.76,1.17s1.4-.54,1-1.54C98,94.3,96.57,94.45,95.91,95.55Zm120.68,25.66a.9.9,0,0,0-1,.06.63.63,0,0,0-.79.19c-.85,0-1.32.58-1.86,1.08a35.91,35.91,0,0,0-6.25,8.58c-.51.28-.78.63-.35,1.18.19.25.49.53.77.37a1.41,1.41,0,0,0,.68-1.42l3.62-5c.53,0,.69-.3.74-.74L214,124l1.21-.16.92,1c-.14,1.74-.19,3.49-.46,5.21-.18,1.1.3,2.71-1,3.17-1.59.57-1.81-1.33-2.65-2.13-.33-.32-.51-1.08-1.11-.66a1.37,1.37,0,0,0-.59,1.79,7.68,7.68,0,0,0,1.32,1.8c1,1,1.75,2.73,3.39,2.16s2-2.55,1.79-4a21.44,21.44,0,0,1,.38-8.09,2.29,2.29,0,0,0,0-1.8C217.26,121.72,217.16,121.34,216.58,121.21ZM188.9,69.68A27.32,27.32,0,0,0,191.26,79a.6.6,0,0,0,.26.78,23.62,23.62,0,0,0,1.6,4.85.62.62,0,0,0,.28.77l.51,1.47a3.56,3.56,0,0,0,.73,2.17l3.8,11a1,1,0,0,0,.34,1l1.51,4.22a1,1,0,0,0,.34,1l2.13,6.12a4.76,4.76,0,0,0,.86,2.51l.79,2.33a.62.62,0,0,0,.26.78l1.58,4.48a.6.6,0,0,0,.26.78l.52,1.46c-.1.47,0,.94.54.93s.69-.44.68-.93c.25-1.12-.4-2-.8-2.93a1,1,0,0,0-.36-1L206,117.72a1,1,0,0,0-.35-1l-1.14-3.09a3.27,3.27,0,0,0-.74-2.15c-2.66-7.77-5.54-15.47-7.92-23.33a2.49,2.49,0,0,0-.66-1.89l-.85-2.6a3,3,0,0,0-.76-2.14l-2.3-6.85c.24-.33.09-.57-.17-.79a31.86,31.86,0,0,1-.39-6.13,1.57,1.57,0,0,1,.81-1.56c.75-.36,1.15.16,1.59.6.71.7,1.4,1.41,2.12,2.11.25.25.54.6.93.32s.15-.57,0-.86a12.57,12.57,0,0,0-2.37-4.2c-1.32-1.46-3.47-1.4-4.29.08a4.71,4.71,0,0,0-.61,2.87A3.48,3.48,0,0,0,188.9,69.68Zm-19.72,111c-.2-1.81-1-.71-1.67-.35-1.46.21-1,1.31-1,2.2a1.52,1.52,0,0,1-1.63.77l-.4-.78c-.4-1.49-1.07-.59-1.69-.2l-.84.39a1.71,1.71,0,0,0-1.52.65c-.5-.06-.84.26-1.22.52-1,1.34-.71,2.5.85,3,2,1,4.31,1.65,6.13,3.13a1.25,1.25,0,0,0,1.39.2c2.38-1.08,4.75-2.17,7.11-3.28a.91.91,0,0,0,.59-1.05,2.34,2.34,0,0,0,.3-1.89l.5-3c.37-1.1.77-2.19,1.11-3.3.14-.45.56-.9.19-1.39-.23-.3-.57-.07-.84,0-.68.28-.65.78-.46,1.38.32,1,.08,1.71-1.07,1.9l-.51-.48c-.2-.47.27-1.23-.62-1.38-1.53.36-3.28.47-2.86,2.84.08.46,0,1.06-.62,1.18C169.5,182,169.4,181.29,169.18,180.72Zm30.21-17.38c.22.29.5.24.79.14,1,.55,1.19-.32,1.54-.84a74.2,74.2,0,0,0,10.59-24,1.59,1.59,0,0,0-.31-1.71c-.82-.85-1.58-1.76-2.38-2.62-.28-.31-.56-.75-1.08-.47s-.28.63-.21,1c.4,2.08-.65,3.25-2.41,4.1-1.21.58-2.35,1.3-1.46,3,.41.76,0,1.17-.74,1.35-2.5.63-2.85,1.38-1.73,3.74.24.52.53,1.07-.06,1.52s-1.08.07-1.44-.39c-.51-.66-.81-.46-1.28.09-1,1.23-.52,2.12.44,3,.53.51.81,1.19.13,1.79s-1,.08-1.45-.31-.59-1.43-1.36-.63c-.55.57-1.26,1.3-.49,2.29a10.66,10.66,0,0,1,1.07,1.75.89.89,0,0,1-.23,1.19A.84.84,0,0,1,196,157c-1.19-2.07-1.75-.9-2.3.42-.61.39-.82.84-.2,1.41.62,1.09,1.68,2,1.32,3.47-1.71.82-1.55-1.62-3.07-1.7.88,3.18-2.59,3.19-3.5,5.24l6.57-2.49ZM187,66.82c1.15-2.33-.74-3.66-2.7-5.07a77.89,77.89,0,0,0-28.06-12.87c-2.65-.63-4.5-.29-6.21,1.81-1.22,1.5-1.28,2.25.34,3.27,3.81,2.39,7.64,4.74,11.43,7.15,1,.62,1.8,1.12,2.64-.17a.82.82,0,0,1,1.18-.19.8.8,0,0,1,.25,1c-.32.74-.83,1.34.25,2s1.41-.18,1.94-.71.9-.79,1.47-.39.43,1,0,1.46c-1.22,1.23-.13,1.66.69,2.21s1.56,1.06,2.13-.35c.24-.58.84-1.3,1.62-.83s.28,1.18-.09,1.75c-.27.42-1.08.82-.25,1.31.6.35,1.28,1.23,2.11.31a3.51,3.51,0,0,1,1.5-1.07,1,1,0,0,1,1.19.24.78.78,0,0,1-.17,1.16c-1.92,1.33-.24,1.44.6,1.86s1.56-.08,2.28-.41c1-.47,1.84-.44,1.52,1-.19.83.21,1,.76,1.16.89.3,1.78.59,2.66.91s1.43.14,1.18-1A16.63,16.63,0,0,1,187,66.82Zm-96.12.86c0,2.71,0,2.73,2.49,2,1.68-.48,3.35-1,5-1.49.85-.25,1.63-.46,1.75-1.62.08-.77.69-.89,1.42-.48,1.84,1,3,.46,3.3-1.6.06-.45.12-.9.62-1a.89.89,0,0,1,1,.41c.35.46.1,1.61,1.23,1.18s.45-1.28.52-2a7.91,7.91,0,0,1,0-.93c.15-.64.12-1.53,1.06-1.48s.69.85.78,1.45-.42,1.75.75,1.71c1,0,2.15-.3,1.91-1.91a7.2,7.2,0,0,1,.27-2.39.78.78,0,0,1,1-.65.83.83,0,0,1,.64.83,11,11,0,0,1-.07,1.3c-.1,1.22.4,1.3,1.47,1,1.81-.53,1.26-2,1.55-3.21.15-.61.26-1.34,1.09-1.24s.69.74.75,1.32-.38,1.45.66,1.39a1.27,1.27,0,0,0,1.21-1.57,7.72,7.72,0,0,1,0-1.31c0-.63.1-1.37.94-1.35s.88.7.85,1.38c0,.53-.15,1.31.68,1.23s1.57-.19,1.74-1.13a10.63,10.63,0,0,0,0-1.49c0-.7.05-1.5,1-1.53s.85.75.89,1.37.06,1.31.9.91c1.14-.54,2.82-.5,2.8-2.49,0-.81.86-1.47,1.33-.64.87,1.54,1.69.67,2.57.28,3.82-1.7,3.74-1.64,1.14-4.81a3.82,3.82,0,0,0-3.85-1.53,74.23,74.23,0,0,0-40,17.14C91.24,65.58,90.63,66.49,90.9,67.68ZM214.14,116c-1.25-13.17-4.54-23.32-10.94-33.68-.42-.68-.71-1.44-1.78-1.39-1.56.07-3.12.06-4.68,0-1,0-1.21.37-.89,1.25.51,1.41.93,2.85,1.48,4.25.47,1.18.32,2.82,2.18,3.1.42.06.49.65.29,1.12-1,2.46-.85,2.91,1.52,3.65.43.13.86.28,1,.77a.72.72,0,0,1-.43.93c-.75.25-1.56.48-1,1.5s.06,2.63,2,2.38a1,1,0,0,1,1.07.59c.13.31.12.75-.17.83-2.09.59-.91,1.86-.58,2.87.57,1.78,1.25,3.53,1.88,5.29,1.42,3.94,2.83,7.88,4.28,11.8.17.47.1,1.45,1.13,1A6.07,6.07,0,0,0,214.14,116ZM66,118.44c-.85,2,1.39,2.52,2.36,3.74s1.42.91,1.82-.42c1.18-4,2.43-8,3.63-12a1.69,1.69,0,0,0,.08-1.08c-1.23-2.48,0-4.08,1.78-5.65.75-.65,1.73-1.64.21-2.69-.69-.48-.65-1.33.15-1.35,1.74-.05,2-1.39,2-2.41,0-1.58.75-2.71,1.26-4.07,1.64-4.37,3-8.88,4.3-13.35.63-2.09,0-2.74-2.18-2.39-.8.13-1.08.79-1.47,1.33A74.17,74.17,0,0,0,66,118.44Zm73.4,68.72a7.24,7.24,0,0,0-2.47-.82c-1.9-.59-3.78-1.33-4.8,1.35a1,1,0,0,1-1.57.53c-.78-.57-.26-1.21.21-1.74.87-1,1-1.44-.59-1.92-1.92-.59-2.72.12-3.35,1.72-.26.66-.8,1.25-1.61.81s-.31-1-.07-1.62,1-1.14.4-1.65a2.77,2.77,0,0,0-2.31-.51c-.74.12-.75.93-1.18,1.36s-.8,1.12-1.54.7-.49-.95-.17-1.47c.6-1,0-1.16-.8-1.26s-1.49-.3-2.07.67c-.49.81-1.36.81-1.49-.36-.1-.9-.66-1-1.27-1-2.91-.35-5.82-.66-8.72-1-1-.12-1.47,0-1.11,1.16a7,7,0,0,1,.18,3.34c-.18,1,.27,1.44,1.08,1.86a75.09,75.09,0,0,0,23.79,7.57,1.76,1.76,0,0,0,2.09-1,11.93,11.93,0,0,1,5-4.91A4.79,4.79,0,0,0,139.41,187.16Zm-68.5-50.34c-.92.13-2.49,3.51-2.15,4.67a75,75,0,0,0,19.61,33,3.12,3.12,0,0,0,3.92.84c.95-.41,1.16-.67.54-1.55-3.53-5.08-6.48-10.52-9.58-15.86-3.88-6.7-7.69-13.44-11.54-20.15C71.51,137.37,71.5,136.82,70.91,136.82ZM98.23,175a1.23,1.23,0,0,0-.35-1.18c-4.68-6.49-8.6-13.45-12.67-20.33-5.74-9.7-11-19.7-17.46-29a5.33,5.33,0,0,0-2.9-2.47c-1.83-.52-2.43-.12-2.19,1.78a58.14,58.14,0,0,1,.62,8.39,28.69,28.69,0,0,0,.13,3.93c.22,1.89,1.54,2.94,3,2.54,1.21-.33,3.3-3,3.32-4.3a1.31,1.31,0,0,0-.49-1.16c-.56-.36-.69.26-1,.56-.41.47-.81,1-1.24,1.4-.86.89-1.51.87-1.69-.5q-.49-3.71-.93-7.43c-.07-.56-.08-1.16.54-1.48a1.7,1.7,0,0,1,1.92.3A9.17,9.17,0,0,1,69,128.85c3.45,6.15,6.83,12.33,10.35,18.44,5.17,9,9.9,18.2,15.94,26.66C96.18,175.2,97.09,175,98.23,175ZM180,104.78l.48-.67a1.5,1.5,0,0,0-.17.49c.11,4.8.25,9.6.34,14.4,0,.82.37,1.13,1.1,1.15,4.65.09,9.3.31,14.51-.55ZM88.93,69.57a26.26,26.26,0,0,0,0-3.73c-.25-1.7-1.31-2.09-2.63-1-1.68,1.38-3.29,2.87-4.9,4.34a7.48,7.48,0,0,0-2.06,3.29c-.2.63-.29,1.34.38,1.66A7.71,7.71,0,0,0,84,75c1.35-.18,1-1.45,1-2.28-.05-1.16-.81-.1-1.24-.21s-1,.11-1.17-.35.28-.77.56-1.08c.63-.69,1.24-1.41,1.9-2.07.42-.42.78-1.3,1.4-1a1.84,1.84,0,0,1,.73,2,42.25,42.25,0,0,1-1.08,6.64q-4,12.79-7.89,25.58c-.19.61-.7,1.36.32,1.72s1.06-.6,1.26-1.18c2.35-6.72,4.73-13.43,7-20.17A38.62,38.62,0,0,0,88.93,69.57ZM135,43.24c-.24.15-.51.22-.63.4s0,.59.21.84c2.68,3.25,5.26,6.61,8.76,9,4.42,3.05,8.94,6,13.43,8.9C166.22,68.58,176,74,186.89,77.24c.51.15,1.25.88,1.58,0S188,76,187.35,75.78l-1.41-.51c-5.2-1.79-10.38-3.64-15.1-6.51-4.11-2.5-8.18-5.06-12.26-7.6-8.14-5.06-16.58-9.72-22.82-17.29A5.62,5.62,0,0,0,135,43.24ZM91.72,74.05c1.43-.41,3.39-.85,5.27-1.52,9.29-3.32,18.63-6.54,27.72-10.38C129.88,60,135.19,58,140,54.94c.29-.18,1-.14.8-.78s-.76-.28-1.16-.22a3.47,3.47,0,0,0-.87.31c-5.11,2.18-10.22,4.33-15.31,6.54a235.08,235.08,0,0,1-30.87,11,6.51,6.51,0,0,0-1.57.6c-.48.28-.46.86-.44,1.35S90.85,74.22,91.72,74.05Zm46.12,121.19a65.17,65.17,0,0,0,22.49-2.61c-3.37-2.1-6.8-2.52-10.15-3.14-1-.18-2-.81-2.92-.32A45,45,0,0,0,137.83,195.25Zm43.56-12.87.47.26c1.3-.94,2.64-1.82,3.89-2.83a71.93,71.93,0,0,0,10-9.48c.37-.44,1.23-.84.76-1.49-.34-.49-1.2-.34-1.77-.16a90.14,90.14,0,0,0-9.74,4.25.81.81,0,0,0-.39.39A83.32,83.32,0,0,0,181.39,182.37ZM177.1,112h.33c0,4.49,0,9,0,13.48,0,.68-.52,1.9.76,1.92s.78-1.2.76-1.88q-.28-13.57-.67-27.14c0-.58.39-1.65-.65-1.59s-.55,1.1-.55,1.72C177.08,103,177.1,107.51,177.1,112ZM184,184.18c-1-.49-1.41.5-2.08.71s-1.34,1.19-2.18.59-.51-1.68-.31-2.58a51.11,51.11,0,0,1,2.32-7.1c.17-.43.64-1,.16-1.36s-1.15.16-1.62.53a2,2,0,0,0-.49.78,33.64,33.64,0,0,0-2.61,10.67c-.16,2,1.06,2.72,2.88,1.79A11,11,0,0,0,184,184.18Zm6.57-25.76c.45-.08.62-.43.82-.74,3.91-6.23,7.47-12.68,11.73-18.7.27-.38.5-.79,0-1.14s-.78.08-1,.43c-4.54,6-7.95,12.68-12,19C189.64,157.81,189.75,158.29,190.53,158.41Zm-31.9,36.82a6.24,6.24,0,0,0,5.05-.1c.81-.39,1.72-.87,1.66-2a2.52,2.52,0,0,0-1.56-2.37c-3.51-1.5-6.94-3.26-10.79-3.84a1.67,1.67,0,0,0-2.05.84c1.92.43,3.69.77,5.43,1.24a17,17,0,0,1,6.07,2.78c1.39,1.06,1.24,1.63-.38,2.22ZM198.84,72.4c.16,1.52,1.24,2,1.8,2.86.3.46.88.83.58,1.45s-1,.67-1.63.62c-1.3-.09-2.6-.24-3.9-.3-.49,0-1.27-.33-1.31.55A1.2,1.2,0,0,0,195.53,79a33.35,33.35,0,0,0,7.81-.18c1.63-.31,1.9-1.08,1.05-2.55C203.2,74.22,201.2,73.3,198.84,72.4ZM146.56,32.55c-2.58.32-5.16.45-7.5,1.59-.75.36-1.63,1-1.26,2s1.34.55,2.07.27a33.83,33.83,0,0,1,6.91-1.6c.93-.15,2.58.33,2.43-1.23C149.08,32.29,147.47,32.9,146.56,32.55ZM71,125c0,.72,0,1.42.62,1.55s.66-.63.8-1.06c1.49-4.68,3-9.37,4.43-14.06.2-.63.41-1.3-.43-1.54s-.95.58-1.12,1.14q-1.36,4.36-2.69,8.74Zm72.65-81.8v-.27c-1.24,0-2.49,0-3.73,0-.75,0-2-.6-2.09.35s1,1.62,1.93,2a4.13,4.13,0,0,0,1.3.08c1.31.05,2.61.09,3.92.15.81,0,1.61.17,2.42.16a2,2,0,0,0,2-1.8c0-.92-1.18-.62-1.86-.66C146.29,43.15,145,43.2,143.68,43.2ZM141,23.81c-.12,2.41-.23,4.52-.32,6.63,0,.53.05,1,.75,1a.62.62,0,0,0,.69-.69c0-4.29.07-8.58.08-12.87,0-.46,0-1.14-.72-1.05-.52.07-.47.66-.47,1.08C141,20,141,22,141,23.81Zm2.22,17.39c2.51.19,4.32.36,6.12.46.5,0,1.3.44,1.42-.34.09-.62-.67-.78-1.24-.9a46,46,0,0,0-6.72-.52c-1.49-.09-3,0-4.5,0-.54,0-1.35.12-1.34.76,0,.83.86.48,1.32.49C140.2,41.23,142.08,41.2,143.25,41.2ZM192.51,69c.07,1.33.06,2.23.17,3.12.35,2.74,1.85,3.79,4.56,3.34.69-.12.93-.41.48-1A33.68,33.68,0,0,0,192.51,69ZM153,44.48a.62.62,0,0,0-.42-.66c-.53-.16-.8.25-1.05.59a28.08,28.08,0,0,1-5,5.2c-.35.28-1,.62-.46,1.18s.91.07,1.3-.21a34.32,34.32,0,0,0,5.12-4.86A2,2,0,0,0,153,44.48ZM144.44,18.3c-.51.35-.44.82-.45,1.23q-.11,5.05-.18,10.11c0,.51-.25,1.32.57,1.32s.64-.79.63-1.32q0-5.06-.07-10.11A1.22,1.22,0,0,0,144.44,18.3ZM98.12,92.87c1.17.12,2.07-.06,2-1.63-.08-1-.18-1.93-1.4-1.57-1,.3-2.87-.83-3,1.47C95.65,92.9,96.82,92.95,98.12,92.87ZM141.81,38l6.8.52c.75.06,1.21-.22,1.22-1s-.32-1.07-1-1.05A15.67,15.67,0,0,0,141.81,38Zm-64.9,67.2c-1.32,0-1.42.79-1.52,1.43s2.06,2.09,3.18,2.06,1.23-.78,1.32-1.52S77.59,105.2,76.91,105.22Zm113.27,56.13c0-.73-1.83-2.52-2.71-2.59s-1.31.59-1.45,1.35c-.1.54,2.3,2.68,2.93,2.64C189.79,162.69,189.95,162,190.17,161.35Zm13.73-28.23a1.61,1.61,0,0,0-1.09,1.82c.31,1.25,1.57,1.69,2.7,1.87.55.09,1.07-.56,1.06-1.27S204.73,133.07,203.91,133.12Zm-19.65,34.44c.81,0,2.86-3.34,2.44-4-.3-.48-.81-.69-1.2-.13a13,13,0,0,0-1.77,3.45C183.6,167.3,183.72,167.62,184.26,167.56Zm-92-72.9c-.58.1-1.6-.29-1.6.88,0,1.31,1.18,1,2,1.16s1.25,0,1.26-.91C93.93,94.7,93.2,94.64,92.31,94.67Zm87.55-1.9c.37.68-.39,2.15.86,2s.84-1.6,1-2.51-.51-1.31-1.24-1.23C179.45,91.21,180.1,92.17,179.86,92.76Zm-4.6.24h0c0-.25,0-.5,0-.75.07-.81-.12-1.3-1.12-1.2s-.69.91-.61,1.39a9,9,0,0,0,.78,2.07c.08.18.37.27.56.4.13-.2.35-.39.38-.6A9.5,9.5,0,0,0,175.26,93Zm3-.35c-.21-.56.45-1.82-.68-1.82-1,0-.42,1.19-.54,1.85a4.36,4.36,0,0,0,0,.92c0,.48-.12,1.13.55,1.18s.64-.61.67-1.08C178.28,93.4,178.26,93.09,178.26,92.65ZM141.81,47.42c.51.54.86,1,1.25,1.33a1.17,1.17,0,0,0,1.8-.12c.33-.32,1.06-.49.78-1.08s-1-.31-1.53-.35A4.16,4.16,0,0,0,141.81,47.42ZM213.71,130a6.3,6.3,0,0,0,.28-3.4C212.12,128.18,212.1,128.38,213.71,130ZM66.89,132.07c1.15-1.67,1-2.35-.47-3.31A6.54,6.54,0,0,0,66.89,132.07Zm29.34,48.71a4.12,4.12,0,0,0,2.62,1.88C98.43,181,98.28,180.9,96.23,180.77Zm100-111.41-.24.13s.09.12.12.12a1.17,1.17,0,0,0,.25-.12Z" transform="translate(-60.83 -14.74)"/><path d="M162.92,121a1.74,1.74,0,0,0,0,1.52l-.24,3c-.31.22-.25.5-.14.79a1.38,1.38,0,0,0-.18,1.09l-1.78,4.77-.77,1.35a1,1,0,0,0-.53,1A24.9,24.9,0,0,1,149.12,143c-1,.41-2,.73-3,1.09a1,1,0,0,0-1,.34c-3.63.56-7.24.87-10.84-.31-.79-.26-1.7-.55-2.4.63a2.3,2.3,0,0,1-2.74.67,4.83,4.83,0,0,0-3.58,0,3.29,3.29,0,0,1-2.2-.23,1.73,1.73,0,0,0-1.61,0,6.16,6.16,0,0,1-5.25.16c-.06,0-.13-.08-.17-.07-2.7.89-5.52-.14-8.2.46a7.61,7.61,0,0,1-5.27-.27,2.66,2.66,0,0,0-2.46-.16,4.93,4.93,0,0,1-4.52-.28,3.35,3.35,0,0,0-3.16-.21,4.15,4.15,0,0,1-4.05-.76c-.46-.35-.81-.87-.46-1.46s1-.47,1.48-.17,1.32.9,1.89.61c2.18-1.11,4.09-.64,6,.57a1.31,1.31,0,0,0,1.08.14c2.16-1.11,4.11-.47,6.19.36,1.7.68,3.25-1.13,4.75-1s2.89,1.29,4.56.31c1-.58,2.06.11,3.1.1.29,1,.8.93,1.44.31,2.12,0,4.16-1,6.37-.35,1,.28,1.63-1,2.66-1.1a15.6,15.6,0,0,0,1.42,1.08c.44.26,1.08.34,1.33-.11s-.36-.67-.7-.85c-.65-.34-1.32-.64-2-1-7.16-4.87-10.91-11.57-10.82-20.28a23.65,23.65,0,0,1,3.05-10.84,1.66,1.66,0,0,0,.74-1.13l.05-.08,1.1-1.5a17.44,17.44,0,0,1,2.86-3.06,3.86,3.86,0,0,0,1.66-1.31l2.38-1.52a3.57,3.57,0,0,0,2-1l4.75-1.45c.29.1.57.16.79-.15l3-.24a1.81,1.81,0,0,0,1.53,0l1.84.14c.24.14.65.11.61-.09-.29-1.54.54-2.86.73-4.3A21.83,21.83,0,0,0,146,88.3c.6-.59.4-1.35.42-2.06,0-1.11.56-1.54,1.64-1.22l.16.37a4.71,4.71,0,0,0,.2,2.29l.15,1.47a1,1,0,0,0,.23,1.16l.2,1.46a.56.56,0,0,0,.15.8L149.3,94a.6.6,0,0,0,.23.78l.12.72a5.07,5.07,0,0,0,.61,2.66L150.2,100c-1.16.42-1.54-.2-1.75-1.21-.39-1.83-.85-3.64-1.36-5.82-1.52,2.21-1.51,4.6-3,6.43l6,2,0,0a.8.8,0,0,0,.91.48l2.59,1.65a1,1,0,0,0,.78.66l3.39,3.4a1,1,0,0,0,.65.78l1.72,2.75a1.1,1.1,0,0,0,.55,1l.36.77a4.32,4.32,0,0,0,.84,2.21l.16.71a.62.62,0,0,0,.25.78l.22,1.09a.61.61,0,0,0,.16.79Zm-3,7.48a16.85,16.85,0,0,0,1-7.42,8.58,8.58,0,0,0-.92-4.92c-1.14-7.18-9.33-14.28-17.23-14.94a2.18,2.18,0,0,0-1.91-.22,10.65,10.65,0,0,0-4.41.32,15.81,15.81,0,0,0-9.1,3.92c-1.78.95-2.78,2.68-4.13,4.07a14.56,14.56,0,0,0-3.2,5.79c-1.31,4.07-1.85,8.2-.24,12.35a1.22,1.22,0,0,0,0,.37c2.59,8.06,8,13.2,16.3,14.76,8.65,1.63,15.66-1.47,21-8.4.86-1.11.69-1.65-.8-1.56a2.18,2.18,0,0,1-1.69-.67c.3-1.25,1.34-1.3,2.18-1C159.1,131.7,159.6,130.31,159.89,128.53Z" transform="translate(-60.83 -14.74)"/><path d="M86.91,115.6c-2.13-.49-1.1-2.21-1.18-3.37s.92-1.31,1.89-1.31c2.64,0,5.2-.68,7.89-.58,2.38.09,4.49,1.19,6.87,1.16,1,0,1.62,2.84.84,4.11-.4.65-.42.77.2,1.22a3.62,3.62,0,0,1-.62,6.52c-1,.45-.88,1-.76,1.79.29,1.78-.28,2.59-2.25,2.7-3.57.19-7.1-.4-10.65-.4-1.27,0-1.33-1.07-1.36-2.05-.1-3.18-.21-6.36-.32-9.54.66-.87,1.12-2,2.57-1.76a.51.51,0,0,0,.62-.53c0-.38-.23-.54-.54-.65a1.89,1.89,0,0,0-2.65,1.52A6.17,6.17,0,0,1,86.91,115.6Zm12,10.32.73-.07c.71-1,1.4-2,.25-3.06a3.57,3.57,0,0,1-.86-4.66l1-.95c.43-.15,1.05-.23.94-.82-.06-.32-.59-.26-.93-.1l-1.11-.06c-2.83-.5-5.71,0-8.55-.34-.94-.12-1.18.58-1.2,1.48-.07,2.43.6,4.81.37,7.24,0,.43-.05.94.55,1,.42,0,1,.14,1.25-.08.53-.45-.1-.9-.31-1.27-.91-1.63-1.32-3.26-.3-5h0a.92.92,0,0,0,.59-.84l.83-.81c1.78-.7,3.56-1.08,5.33,0,.05.36.26.9-.08,1-1.7.73-.68,1.61-.12,2.35a5.18,5.18,0,0,1,1.07,3.44L98,125c-.44.11-1,.48-.74.81C97.63,126.39,98.31,126.19,98.87,125.92Zm-4.52-13.76c-.68.32-1.87-.69-1.93.73,0,1.06.8,1.42,1.82,1.33s2.07.29,2.06-1.16C96.28,111.46,94.92,112.64,94.35,112.16Zm8.87,7.89c-.05-.84-.39-1.61-1.4-1.56a1.56,1.56,0,0,0-1.5,1.63,1.4,1.4,0,0,0,1.57,1.49C102.8,121.59,103.19,121,103.22,120Zm-3.35-5.67c.55-.21,1.55.34,1.54-.55s-1.08-.77-1.76-.8-1.52-.28-1.51.56C98.16,114.67,99.29,114.1,99.87,114.38Z" transform="translate(-60.83 -14.74)"/><path d="M132.41,153.19c1.41.14,2.87-.27,4.25.34.46.2.82-.15,1.19-.38,5.86-3.65,11.76-3.11,17.52.13a23.65,23.65,0,0,0,5.16,2c3.35,1,5,4.24,3.62,7A2.74,2.74,0,0,1,161.9,164a5.47,5.47,0,0,0-3.38,1.67c-3.62,3-7.88,3.1-12.26,2.3-1.56-2.27-3.54-.7-5.28-.45-6.08.88-12.07,1.23-17.68-2a15.84,15.84,0,0,1-1.89-1.22c-.5-.39-1-.94-.5-1.6s1.1-.29,1.62.08a17.78,17.78,0,0,0,10.71,3.39c3.8,0,7.61-.23,11.25-1.57.88-.33,1.66-.38,1.85.77.15.9.87.85,1.42.9,4,.39,7.78.28,10.55-3.25a2.56,2.56,0,0,1,2-.81c1-.07,2.08-.18,2.29-1.46a3,3,0,0,0-1.2-3,7.13,7.13,0,0,0-3.69-1.21,4.87,4.87,0,0,1-2.65-1.18c-4.09-3.5-12-3.8-16.25-.54-1.46,1.11-2.89.22-4.26.19a25.23,25.23,0,0,0-8.51.91,8.71,8.71,0,0,0-5.61,4.85c-.26.58-.46,1.3-1.29,1s-.73-1.16-.46-1.78a10.57,10.57,0,0,1,6.7-5.85A16.57,16.57,0,0,1,132.41,153.19Z" transform="translate(-60.83 -14.74)"/><path d="M185.87,130.37c3.57.29,7.16-.32,10.73.17-.71,4-1.61,8-4.34,11.21-.61.73-1.53,1.26-.61,2.49.46.61-.33,1.24-.83,1.69-1.36,1.23-3,1-4.59.74a.33.33,0,0,0-.3-.15c-.53-.67-1.07-.77-1.6,0a.3.3,0,0,0-.29.16.69.69,0,0,0-.77.28l-1.5-.06a3.09,3.09,0,0,0-3.28-.38,3.17,3.17,0,0,1-3.17-.49c-1.12-.83-1.9-.54-2.59.51l-1.06.53-2,.08-.71-.2c-.84-.44-1.57-1.61-2.57-1.1a5.18,5.18,0,0,1-5.15,0,1,1,0,0,0-1.07,0c-1.33.8-2.63.38-3.93-.09a1.11,1.11,0,0,0-.76-.62c-.31-.32-.57-.22-.8.09l-1.06.34a1.66,1.66,0,0,0-1.19,0l-1.08-.2-1.13-.73c-.17-1.1.31-1.56,1.37-1.32.8.18,1.68.49,2.36,0,1.52-1.13,2.6-.53,3.61.69.59.81,1.24.63,1.91.11,1.56-.57,1.86-1.32.54-2.56a10.29,10.29,0,0,1-1.62-2.27c-.34-.57-.73-1.32.08-1.8s1.13.21,1.48.74a14.84,14.84,0,0,0,4.93,5c.36.21.61.65,1.13.34,1-.56,1.6,0,2.3.59,1.56,1.36,2.57,1.38,4.07,0a2,2,0,0,1,3-.27c1.12.86,2.28,1.29,3.57.32.67-.51,1.31-.14,1.91.19,1.05.57,2,.92,3-.21a1.32,1.32,0,0,1,1.74-.16,1.6,1.6,0,0,0,2.17-.29c3.12-2.71,5.61-5.81,6.17-10.09.32-.73.66-1.52-.65-1.5-3.46.06-6.94-.23-10.39.25l-10.85.12a1.07,1.07,0,0,0-1.21,0l-5.53.05a10.24,10.24,0,0,0-3.47-.09l-.34-.21c-.25-1.64.87-1.65,2-1.66q10.19-.05,20.38-.11A4.18,4.18,0,0,0,185.87,130.37Z" transform="translate(-60.83 -14.74)"/><path d="M144.5,82.65a6,6,0,0,0,3.22-1.94.86.86,0,0,0,.71-.88,3.52,3.52,0,0,0,1-1.91,4.82,4.82,0,0,0-.31-3.75A3.45,3.45,0,0,0,148,71.93c-.2-1.17-1.16-1.54-2.08-1.9a9.22,9.22,0,0,0-8.09.56l-.36-.14,0-1.53a8.92,8.92,0,0,1,3.38-1.27,2.17,2.17,0,0,0,1.54-.2l4.12.78a2.37,2.37,0,0,0,1.51.72l1.13,1.13a2.19,2.19,0,0,0,1.14,1.5l.85,2.22a.6.6,0,0,0,.22.79l.19,1.46-.07,2.69-.51,1a1.52,1.52,0,0,0-.77,1.17.12.12,0,0,0-.13.15,1.12,1.12,0,0,0-.63,1l-.69.77a.82.82,0,0,0-.83.68l.08.08-.07-.08A8.23,8.23,0,0,0,145,84.67a2.55,2.55,0,0,0-1.46.16,8.76,8.76,0,0,1-3.26-.34c-.4-.15-.9-.28-1,.38a.74.74,0,0,0,.74.87,4.72,4.72,0,0,1,2.3.49l0,.7-.77.73-3.12-.19c-1-.31-.6-1.83-1.78-1.95l-1.81,0c-.88-.12-1,.28-.71,1-.08,1.08-.81,1.22-1.68,1.2-1.46,0-2.93-.05-4.4-.08a.8.8,0,0,0-.76-.37l-.48-.74c.06-.75-.08-1.3-1-1.08l-1.45,0c-.82,0-.67.55-.51,1.06l-1,1.54a25.16,25.16,0,0,0-4.56.09l-.72-.11a.76.76,0,0,0-.75-.41c-.23-2-1.52-2.49-3.32-2.22-.63.09-1.12.23-1,1a1.59,1.59,0,0,0-.2,1.17l-.38.42a1.22,1.22,0,0,1-1.29-1.41A9.2,9.2,0,0,1,111,84c1.42-.69,3-.12,4.42-.42a2.25,2.25,0,0,0,1.52.31l1.17.42a.7.7,0,0,0,.28.77l.07.73c1.67,1.23,3.15.81,3.64-1a9.3,9.3,0,0,1,.49-1.19.33.33,0,0,0,.3-.11,23.06,23.06,0,0,0,4.93-.1l.82.51a.71.71,0,0,0,.25.8c.22,2,1.64,1,2.63,1.07,1-.42.88-1.81,1.88-2.24l2.23-.08c.46.12,1.2.29,1.27-.13.12-.71-.62-1-1.23-1.24l-.36-.38a1.92,1.92,0,0,0-.94-1.36l-.69-1.61a.6.6,0,0,0-.22-.79c0-.12,0-.25,0-.37,0-.66-.31-1.53.53-1.76,1-.28,1.09.74,1.41,1.36a1.35,1.35,0,0,0,.37,1.42,6.31,6.31,0,0,0,4.39,3.87A4.11,4.11,0,0,0,144.5,82.65Z" transform="translate(-60.83 -14.74)"/><path d="M113.85,106.89l-.53-.79a1.22,1.22,0,0,0-.24-1.16c.05-.55,0-1-.71-1.1-1-.47-2.07-.17-3.11-.17-.55,0-1,.23-.71.94-.51,2.65-.51,2.66-3.36,2.67-1.61,0-3.22,0-4.83,0A2.82,2.82,0,0,1,99.26,105c0-.75-.12-1.45-1.17-1-.31,0-.61-.08-.92-.07-1.85,0-4.1-.64-4.18,2.46,0,.31-.55.61-.84.91a3.94,3.94,0,0,0-2.32.17l-.65,0-3.5-.12c-.91-2.68,1.43-1.35,2.28-1.86,3.45.29,3.45.29,3.77-2.84l.73-.53c2-.19,4,.29,6-.27l1.53,0a.84.84,0,0,0,.77.38c.5.7.31,1.53.44,2.29-.25.65.1,1,.67,1,1.43-.07,2.89.3,4.28-.31l.09-.07a.82.82,0,0,0,.42-.94c-.39-2,.62-2.54,2.37-2.4h.67a5.77,5.77,0,0,0,2.33-.07c1,.32,2.27.1,2.87,1.32a.61.61,0,0,0,.1.8l.12.72c.92,1.34,2.16.53,3.29.49l.73,0c.64,0,.68-.45.61-.88a2.33,2.33,0,0,1,1.6-2.59,5.89,5.89,0,0,0,2.59-.16l1.56.18.39,1.15c-.63.65-1.57.36-2.27.76l-1.46.15c-1.26.61-.28,1.69-.52,2.51a3,3,0,0,1-1.72.92Z" transform="translate(-60.83 -14.74)"/><path d="M142.21,71.91c3,0,3.86,1,3.37,3.71a2,2,0,0,0,.31,1.21c.84,2,.23,3.36-1.85,4a7.21,7.21,0,0,1-3.14.12,1.44,1.44,0,0,1-1.41-1.63c0-1.93-.07-3.86,0-5.79C139.54,72.16,140,71.91,142.21,71.91Zm-1,6c0,.72-.1,1.57,1,1.42.82-.11,2-.1,2.07-1.15.05-1.35-1.33-1.24-2.23-1.44C140.88,76.53,141.34,77.5,141.18,77.94Zm1.37-4.15c-.62,0-1.29-.08-1.33.83,0,.56.26.81.8.62s1.56.12,1.71-.72S143.09,73.84,142.56,73.79Z" transform="translate(-60.83 -14.74)"/><path d="M113.4,121.33c0-1.25,0-2.5,0-3.75a2.67,2.67,0,0,0-1-2.57c-1-.79-.53-2.33-.28-3.52.21-1,1.17-1,2-1s1.5,0,2.25,0,1.41,0,1.43.84-.8,1-1.5,1c-.5,0-1,0-1.5.05-.7,0-1,.46-.94,1.13s.49.88,1.13.81a4,4,0,0,1,1.11,0c.5.09,1,.29,1,.9a.85.85,0,0,1-.82.87c-.86.06-.95.6-1,1.29,0,2.18-.13,4.36-.17,6.55,0,.55-.12,1.14.35,1.59s.87.82.39,1.43a1.58,1.58,0,0,1-1.72.4,1.2,1.2,0,0,1-1-1.38c0-1.56,0-3.12,0-4.68Z" transform="translate(-60.83 -14.74)"/><path d="M148.71,157.32c.51.79,1.25.86,1.82,1.2s.91.52.65,1.14-.76.57-1.27.51a1.47,1.47,0,0,1-.72-.18c-2.62-2.13-4.68-.53-6.84.93-.75.5-1.65,2.08-2.57.72-.81-1.2.89-1.63,1.59-2.3a5.64,5.64,0,0,1,1.24-.82c1-.52,1.35-1,.18-1.81a1,1,0,0,1-.33-1.46,1,1,0,0,1,1.52,0c1.64,1.28,3.14,1.05,4.71-.17.54-.42,1.37-1,1.95-.16s-.34,1.29-.91,1.73C149.44,156.85,149.12,157,148.71,157.32Z" transform="translate(-60.83 -14.74)"/></svg>