<svg id="Calque_1" data-name="Calque 1" xmlns="http://www.w3.org/2000/svg" viewBox="0 0 224.83 203.48"><title>qrnarchy</title><path d="M224.83,121.16l-7.78-7,5,.26.2-1.4c-9.07-2.52-18.58-2.6-27.39-3.49-1.65-6.28-3.6-12.09-4.68-18.05-3.8-20.83-15-37-31-50.18-10.63-8.77-22-15.76-36.4-15.85L127,14.21l-2.69,1.58,1.53-3.89-5,2c-.62-1.84-1.64-3.45-1.61-5,.07-3.56-1.19-4.65-4.43-3l-.75-5-5.4,5.81c-2.44-3.74-5-3.48-7.88.35L95.15,0,90.59,12.71l-3.7-3.45-1.07.56c-.19,6.94,4,12.76,5.66,18.73-7.64,5-15,10-22.53,14.7A81.39,81.39,0,0,0,43,69.34c-10.18,16.33-13.1,34.45-13.25,53.55L0,127.3l10.51,6.24L5,133.8c2,7.08,9.89,2.34,12.74,7.17H35.9L40,150.85h0c-.33,3.46,1.29,6,5.38,7.07l-4-7.57.07,0-1.22-6.67c3.51,4.95,3.37,11.58,9.6,14-.39,1.3-.79,2.61-1.17,3.92-3.41,11.87-6.85,23.73-10.18,35.63-.33,1.17,0,2.54.06,3.82l1.17,0L41.83,197l2.65,6.48,1.3-.06.75-5.07-.73,0,4.38-4q-.52,1-1.06,2l1.19.62,4-6.56-1,8.27c6.35-3.11,7.28-9.71,11.1-14.39,3.41,4.08,7.49,5.93,12.34,7.07,6.26,1.48,12.12,5,18.41,6,25.11,4.14,48.46-1.33,70.29-14.22l7.32,15,1.1-2.58,3.59,5.37,1-.23.28-4.13,2.74,3.27.81-.33-1.19-6.05,2.89.37.38-4.81,3.64,2.29-8-16.41c-2.5-5.11-2.68-9.18,1.86-14.07,7.58-8.16,9.81-19.17,12.35-29.74.62-2.59,1.57-3.37,4.19-3.4,5.86,0,11.72-.46,17.57-.85,1-.07,1.93-.78,3.9-1.64l-5.24-1.63ZM109.24,58.77a32,32,0,0,1,1.94,3c4.31,9,8.84,17.89,12.78,27,2.23,5.18,3.41,10.82,5.23,16.19.79,2.34,2,4.54,3.22,7.25l-44.55,3.13ZM64,115.54c-.87,2.28-2,3.4-4.51,3.59-4,.31-7.89.92-12.33,1.47-.28-3.28-.77-6.22-.73-9.16.19-16,4.87-30.82,14.82-43.13,5.51-6.82,13.53-11.65,20.56-17.19C84.69,48.84,88,47.06,91.11,45l.7.69C87.9,55.29,83.9,64.82,80.08,74.42Q71.9,94.93,64,115.54Zm92.29,55.69a62.5,62.5,0,0,1-5.5,4.1,9.67,9.67,0,0,1-2.17.83s-3.35.89-5,1.43c-18,6-36.21,7-54.39,1a39.8,39.8,0,0,1-11.45-6.13c-2.55-2-4.21-5.15-6-8-.42-.64-.06-2,.25-2.86,2.88-8.51,5.73-17,8.84-25.44a4.75,4.75,0,0,1,3.35-2.52q26.31-2.08,52.65-3.73a5.1,5.1,0,0,1,3.73,2c7.27,10.2,11.66,21.92,17.21,33C159.17,167.73,158.57,169.43,156.27,171.23Zm14.4-21.1-10.18-21.41H178.4C177.69,136.09,174.71,142.81,170.68,150.14Zm-16.82-39.19c-.85,0-2-1.62-2.51-2.72C146.17,95.79,141.13,83.29,136,70.83c-4.65-11.29-9.36-22.55-14.29-34.41a57.83,57.83,0,0,1,33.41,21.74c6.83,8.85,11.56,18.9,15,29.55.32,1,1.69,0,2.43,1.71a6.9,6.9,0,0,1,.87,1.54c1.65,6.24,3.26,12.49,5.05,19.41C169.72,110.63,161.79,110.94,153.85,110.95Z"/></svg>