<svg id="Calque_1" data-name="Calque 1" xmlns="http://www.w3.org/2000/svg" viewBox="0 0 53 68.97"><title>b-blackwell-white</title><path d="M19.43,11.54V29.46h15l4-4v-10l-3.93-3.92Zm16,12.85-2.18,2.18H22.49V14.43H33.38l2.08,2.06Z" transform="translate(0 0)"/><path d="M19.43,37.35V57.29h15l4-4.48V41.71l-3.93-4.36Zm16,15-2,2H22.49V40.24H33.44l2,2Z" transform="translate(0 0)"/><path d="M53,27.82,53,9.25,43.75,0H0V14.92H4v39H0V69H43.72L53,59.7V38l-5.09-5.09Zm-3.5,29.47-8,8.16H3.54V57.29H7.45V11.45H3.56v-8H41.35l8.09,8.09V26.45L43,32.91l6.48,6.5Z" transform="translate(0 0)"/></svg>