<svg id="Calque_1" data-name="Calque 1" xmlns="http://www.w3.org/2000/svg" viewBox="0 0 53 68.97"><title>b-blackwell</title><path d="M49.45,26.45V11.54L41.35,3.45H3.56v8H7.46V57.29H3.54v8.16H41.44l8-8.16V39.41L43,32.91l6.46-6.46m-11,26.37-4,4.48h-15V37.35H34.56l3.93,4.36Zm0-27.38-4,4h-15V11.54H34.56l3.93,3.92Z"/><path d="M33,41.24l1.44,1.42V52L33,53.4H23.49V41.24H33m.41-1H22.49V54.4H33.44l2-2V42.25l-2-2Z"/><path d="M33,15.43l1.49,1.48V24l-1.59,1.59H23.49V15.43H33m.41-1H22.49V26.57H33.29l2.18-2.18V16.5l-2.08-2.06Z"/><path d="M43.72,69H0v-15H4v-39H0V0H43.75L53,9.25l0,18.57-5.08,5.09L53,38V59.7ZM1,68H43.3L52,59.29V38.42l-5.51-5.5L52,27.41,52,9.67,43.33,1H1V13.92H5v41H1Z"/></svg>