<svg id="Calque_1" data-name="Calque 1" xmlns="http://www.w3.org/2000/svg" viewBox="0 0 138.11 290.5"><title>bae</title><path d="M23,49.59c2.78,1.65,4.82,3,7,4.13,11.83,6.13,15,19.16,7.07,29.86-6.64,8.93-16.8,13-26.14,18.12-3.32,1.81-6.28-1-6.22-5.64.16-12.14.56-24.28.81-36.43,0-1.59.36-3.71-.49-4.69-2.65-3.08-2.44-5.25.82-7.65.94-.69,1.44-2.48,1.48-3.78.29-9.42.62-18.84.41-28.26,0-1.92-2.32-3.78-3.58-5.67L0,3.34C2.07,2.18,4.13.07,6.23,0,19.48-.3,31.24,4,40.71,13.37c6.45,6.41,6.88,13.94,1.14,21-2.92,3.6-6.78,6.47-10.4,9.45C29.1,45.78,26.42,47.31,23,49.59ZM18.25,9.31v31.4c6.87-3.88,13.44-7.12,15.49-14.51.78-2.81.26-7.45-1.61-9.18C28.76,13.89,23.94,12.31,18.25,9.31ZM16.17,89C21,84.63,24.89,81.9,27.75,78.31c6.66-8.36,3-18.06-7.36-20.1-1.25-.25-4,1-4,1.62C16.09,69,16.17,78.1,16.17,89Z"/><path d="M21.4,219.55c2.21,1.28,4,2.4,5.85,3.36,10.92,5.63,14.19,18.15,6,27.35-4.67,5.26-11.31,8.82-17.18,13-8.91,6.3-12.57,4.67-11.89-6.75.55-9.2.68-18.43.75-27.65,0-2.11-1.13-4.21-1.44-6.35-.19-1.3-.29-3.46.42-3.9,3.1-2,2.93-4.92,3-7.83.15-7.57.22-15.14.3-22.71A5.2,5.2,0,0,0,4,182.66c-1.78-.9-2.67-3.58-4-5.46,2-1.07,4.06-3,6.12-3.06a41.69,41.69,0,0,1,30.16,11.39c6.9,6.44,7.28,14.44.55,21.34C32.4,211.41,27,215,21.4,219.55Zm-4.84-8c3.84-2.71,7.24-4.62,10-7.21,3.55-3.33,6.27-7.4,4.42-12.68-1.21-3.45-9.48-7.47-14.43-7.08Zm-1.9,43.4c4.29-3.86,7.87-6.32,10.48-9.56,6.21-7.71,2.61-17-7-18.45-1.05-.16-3.34,1.22-3.36,1.94C14.58,237,14.66,245.13,14.66,254.92Z"/><path d="M109.62,242.51c1.63-1.91,4-3.57,4.74-5.77,2.18-6.14,3.87-12.48,5.46-18.82.79-3.16.53-6.63,1.57-9.68.51-1.48,3.24-3.5,4.37-3.18,1.77.51,4.34,2.8,4.32,4.31-.23,16.75-.49,33.53-1.6,50.24a37.72,37.72,0,0,1-10.15,23.16c-3.07,3.3-7.6,5.42-11.79,7.4-1.57.74-4.32.11-6-.82-2.71-1.45-3.49-3.84.14-5.28,18.43-7.34,19.26-23.45,20.56-40.69-2.35,2.27-3.84,3.82-5.45,5.23-6,5.28-12,4.39-15.85-2.65A22.81,22.81,0,0,1,97,237.16c-.63-8.19-.67-16.42-.93-24.63a4.44,4.44,0,0,1,.21-1.46c.78-2.42,1-6.08,4.52-5.12,1.86.51,4.12,3.43,4.31,5.43.64,6.86.21,13.81.65,20.69.22,3.42,1.42,6.77,2.18,10.15Z"/><path d="M81.95,61.81c-2,3.67-3.09,6.91-5.22,9.11-4.45,4.6-9,9.55-14.39,12.69-5.79,3.34-11.62-.39-12.92-7a19.85,19.85,0,0,1-.28-7A53.46,53.46,0,0,1,65.89,38.61C74.77,30.38,90,37.22,90.8,47.94c.94,12,4,23.87,6,35.83.22,1.35-1,4.07-1.86,4.22-2,.35-5.14.22-6.1-1A24.32,24.32,0,0,1,85,78.09C83.79,73.09,83.08,67.95,81.95,61.81ZM59.46,76c11.25-8.86,15.61-20.15,19.1-32.47-3.07.47-6.65,1.14-7.73,3.16C66.62,54.56,63.14,62.84,59.52,71,59.09,72,59.46,73.37,59.46,76Z"/><path d="M74.39,230.22a34.22,34.22,0,0,1-2.24,4.19c-3.28,4.28-6.31,8.82-10.08,12.63-3.46,3.49-8,5.64-13,2.85-4.83-2.69-5.11-7.61-4.43-12.2a46.48,46.48,0,0,1,15.71-28.86c7.91-7,21.26-.64,22.07,8.46,1,11.08,3.74,22,5.5,33,.19,1.2-.9,3.52-1.83,3.78-1.6.45-4.21.32-5.19-.71a14.85,14.85,0,0,1-3.19-6.52C76.46,241.77,75.63,236.56,74.39,230.22Zm-2.27-15.48-1.43-1.87C68.4,214.2,65.08,215,64,217c-3.73,6.85-6.73,14.11-9.85,21.28-.45,1-.06,2.41-.06,4.68C64.4,235.31,67.94,224.83,72.11,214.74Z"/><path d="M20.76,139.68c.61-5.69,2.47-11,6.52-15.46,2-2.14,4.16-3.08,6.92-1.13a16.26,16.26,0,0,0,3.86,1.72c7.42,2.7,10.66,10.88,6.81,17.7A25.54,25.54,0,0,1,40,148.67c-3.37,3.11-7.34,4.75-11.9,2.49A12.53,12.53,0,0,1,20.76,139.68Zm5.29-.18c1,1.81,1.76,4.13,3.26,5.85a4.71,4.71,0,0,0,4.21.84c5.24-2,7.84-8.27,5.91-13.51-1.18-3.18-2.55-3.58-5.05-1.34-1.36,1.22-2.5,2.71-4.6,1.1-.24-.18-1.73.61-2,1.23A51.06,51.06,0,0,0,26,139.51Z"/><path d="M113.38,62.24c-.63,5.8.78,10.51,5.54,13.48,4.58,2.86,8.92,1.25,13.18-1.5,1.65-1.06,4-1,6-1.51-.47,2.61,0,6-1.54,7.7-8.7,9.85-27.29,5.79-31.72-7.09-3.65-10.6-2.64-21.18,3.69-30.74,4.89-7.39,13.26-9.83,20.4-6.38,5.45,2.64,7.81,8.28,6.18,14.72-2,7.69-9.45,12.73-17.83,12C116.09,62.76,114.91,62.49,113.38,62.24Zm-.16-7.61c8,1.2,12.26-.31,13.1-4.85a8.57,8.57,0,0,0-2.16-6.86c-.91-.83-5.14.27-6.27,1.73C115.77,47.41,114.8,51.06,113.23,54.63Z"/><path d="M80.59,144.57c-.34,3.38.46,6,3.21,7.57s5,.49,7.33-1c.88-.56,2.2-.43,3.32-.62-.28,1.38-.11,3.15-.91,4.08-4.77,5.53-15.12,3.38-17.69-3.76A18.66,18.66,0,0,1,78,133.46c2.65-4,7.24-5.28,11.13-3.49,3,1.4,4.44,4.53,3.62,8.13a9.14,9.14,0,0,1-9.51,6.82C82.41,144.88,81.63,144.71,80.59,144.57Zm-.12-4.26c4.54.69,7-.29,7.36-2.94.16-1.17-.37-3.05-1.22-3.56s-2.91.11-3.53.93C81.89,136.28,81.35,138.32,80.48,140.31Z"/><path d="M60.07,144.93c1.18-2.75,2.3-5.53,3.56-8.25a45.54,45.54,0,0,1,2.84-5.33,4.32,4.32,0,0,1,5.26-1.93c2.15.63,2.47,1.92,1.41,3.87-3.26,6-6.4,12.06-9.55,18.12-1.15,2.21-1.81,5.42-4.71,5.29s-3.79-3.11-4.38-5.56c-1.39-5.77-2.61-11.58-3.82-17.4-.3-1.45-.68-3.23,1.7-3.37,2.05-.11,4.16-.18,4.62,2.63.65,3.94,1.34,7.88,2,11.81Z"/><path d="M105.11,137.88a78.23,78.23,0,0,1,5.2-7.07,6.6,6.6,0,0,1,4-2c1-.07,2.39,1.06,3,2,.32.51-.49,2-1.08,2.77-2.83,4-6,7.78-8.54,12-1.2,2-1.18,4.77-1.64,7.2-.22,1.17.11,2.68-.51,3.5-.85,1.11-2.35,2.32-3.61,2.37-1.81.07-2.41-1.57-2.45-3.45-.17-7.93-.55-15.86-.67-23.79a4.33,4.33,0,0,1,1.6-2.62c1.36.47,3.19,1.09,3.69,2.2C104.87,132.74,104.73,134.9,105.11,137.88Z"/></svg>