<svg id="Calque_1" data-name="Calque 1" xmlns="http://www.w3.org/2000/svg" viewBox="0 0 345.34 472.21"><title>beans</title><path d="M451.93,301.19c3.12-3.17,2.24-6.92,2.21-10.35-.1-10.46,2.09-12.88,12.49-14,8.34-.89,16,2.08,23.71,4.19,3.88,1.06,7.55,2.86,11.33,4.28,8.43,3.16,14.89,9,21.14,15.24,8.85,8.81,16.78,18.2,19.8,30.74.79,3.27,1.43,6.58,2,9.89.61,3.64,2.7,5.54,6.34,5.78,1.12.07,2.25.13,3.37.1a72.6,72.6,0,0,1,26.44,4.23c12,4.23,24.83,6.24,36.13,12.65,11.55,6.56,23,13.5,32.32,22.89,6.9,6.92,13.14,14.78,15.64,24.76a36.34,36.34,0,0,0,2.45,7c8.4,17.36,5.08,34.95,1.78,52.78-2.38,12.92-7.78,25.37-6.44,38.93a14.79,14.79,0,0,1-.49,4.67c-4.72,20.4-6.18,41.28-9,62-2.11,15.57-4.46,31.12-6.32,46.73-1.32,11.13-1.78,22.37-3,33.51-1.06,9.36-2,19-7.12,27.15-4.37,7-10,13.17-15.29,19.59-8.28,10.14-19.27,16.79-30.65,22.69-4.52,2.34-9.69,3.55-14.69,4.8-7.17,1.78-14.4,4-21.71,4.44a123.66,123.66,0,0,1-24.79-1.29C520.69,733.29,512,731,503.22,729c-20.1-4.65-36.13-16.47-49-31.58-11.52-13.48-19.47-29.24-20.6-48-1-16.77-4.07-33.41-6.32-50.1s-4.54-33.37-7-50c-1.77-12.21-3.9-24.37-5.65-36.58-1.4-9.78-3-19.57-3.52-29.41-.34-6.78-2.87-12.66-5.2-18.66-5.64-14.54-6.76-29.22-2.31-44.2a22.83,22.83,0,0,1,3.07-6.67c2.82-4,3.23-8,2.25-12.74a117.54,117.54,0,0,1-1.55-39.53,45.66,45.66,0,0,1,9.82-22.54,54.46,54.46,0,0,0,4.41-5.94c2.38-4.07,1.45-6.37-3.21-7.18a161.35,161.35,0,0,0-18-2.22,203.42,203.42,0,0,1-49.57-9c-6-1.89-11.63-4.46-16.13-9.3-6.35-6.83-8-14.92-7.24-23.7.58-6.47,7.52-13.35,13.58-15.24,12.91-4,25.35-2.76,38.4.37,16.43,3.94,30.54,12.72,45.81,19a97.6,97.6,0,0,1,23.71,14A16.86,16.86,0,0,0,451.93,301.19ZM426.52,529.26,425,530a28.09,28.09,0,0,0-.24,5.09q3.39,25.71,6.95,51.39c1.57,11.34,3.36,22.65,4.87,34a80.48,80.48,0,0,0,8.57,28c5.84,11,11.89,21.39,20.28,30.68a78.53,78.53,0,0,0,37,23.47c7.11,2.08,14.31,3.87,21.53,5.52,13.67,3.12,27.37,5.21,41-.45a24.29,24.29,0,0,1,5.88-1.45c8.44-1.2,15.84-4.77,22.77-9.55a113.17,113.17,0,0,1,10.71-7c9.34-5,16.43-12.41,23-20.46,5.36-6.58,7.7-14.69,9.48-22.62,2.3-10.25,3.11-20.84,4.55-31.28q3.22-23.35,6.41-46.7c1.25-9.12,2.55-18.23,3.7-27.36.31-2.47,1.44-5.25-1.47-7.58a30.5,30.5,0,0,0-3.6,3.11,54.72,54.72,0,0,1-22.43,15.63c-6.25,2.44-12.72,4.33-18.95,6.83a124.4,124.4,0,0,1-33.79,8.46c-11.6,1.17-23.21,2.25-34.85,2.87-6.22.33-12.69.5-18.71-.78-13.57-2.89-27-6.43-40.37-10.27-17.28-5-32.9-13.06-45.5-26.3A41,41,0,0,0,426.52,529.26Zm28.89-78.59,1.91,1.38c2.8-3.11,5.66-6.17,8.4-9.32,13.39-15.39,26.58-31,40.19-46.14,9-10,18.61-19.45,27.81-29.28,1.62-1.73,3.27-4,3.7-6.19,3.41-17.44.5-33.49-11.42-47.24a160.77,160.77,0,0,0-11.52-12.25c-12.16-11.36-27.23-16.16-43.33-18-6.56-.74-9.5,2.23-10.33,8.76-.39,3.11-.21,6.32-.82,9.38-2.28,11.54-7.73,20.72-18.84,26.15a51.81,51.81,0,0,0-19.55,16.15,42.51,42.51,0,0,0-8.35,21.67A111.15,111.15,0,0,0,423,421.46c5,11.2,11.35,21.93,14,34.15.38,1.76,1.65,3.33,3.14,6.2,2.4-3.46,4.25-5.63,5.54-8.09,13-24.9,30.21-46.61,50.48-65.95a56.19,56.19,0,0,1,5.46-4.1l1.18,1.27C485.12,405.55,467.35,426.1,455.41,450.67Zm198.51,51.69a53.16,53.16,0,0,0-4.34,3.48c-4.66,4.55-9.37,9.06-13.79,13.83A36.84,36.84,0,0,1,616.29,531c-24.33,5.26-48.73,10.24-73.1,15.29a19.44,19.44,0,0,1-4,.3c-9.87-.05-19.75.08-29.61-.33a44.65,44.65,0,0,1-11.81-2.44,201.29,201.29,0,0,1-48.49-23c-8.22-5.42-16.64-10.66-22.71-18.78-1-1.37-3-2-4.56-3l-1.43.89c.23,2.05-.12,4.42.79,6.11,3.19,5.91,6.29,12,10.39,17.26,12.48,16.08,29.74,25,48.85,30.52,10.76,3.13,21.72,5.62,32.64,8.15A69.13,69.13,0,0,0,527.16,564a284.05,284.05,0,0,0,45-3,113.44,113.44,0,0,0,18.34-4.2c8.56-2.68,16.83-6.28,25.38-9,20-6.3,30.75-21.55,38.87-39.45C655.49,506.64,656.57,504.64,653.92,502.36ZM413.27,419.77c-2.58.24-3.25,2.17-3.62,4.15-1.52,8.2-2.39,16.43-1,24.76,2.2,13.25,7.44,25.5,13.92,37,4.57,8.11,10.36,15.87,18.4,21.17C456.3,517,471.58,527.29,489.34,533a32.8,32.8,0,0,1,3.64,1.73c5.74,2.66,11.49,5.14,18.1,3.85a9.17,9.17,0,0,1,4,.38,58.7,58.7,0,0,0,33.8-.66,58.76,58.76,0,0,1,5.93-1.19q28.67-5.87,57.33-11.76c6.35-1.31,11.82-4.06,15.81-9.45,1-1.38,2.8-2.18,4.18-3.3,3.12-2.52,6.34-4.94,9.31-7.63,7.32-6.63,11-15.69,15.9-24,5.08-8.56,7.38-17.7,8.36-27.42,1.31-13,.17-25.74-6-37.3-3.77-7-8.23-13.69-11.55-21a8.81,8.81,0,0,0-2.13-2.59,159.35,159.35,0,0,0-33.45-23.58c-14.61-7.82-31-10.29-46.73-14.74-3.58-1-7.57-.77-11.38-.78-4.94,0-7,1.16-6.74,3.66.39,4,3.65,3.89,6.56,4.23,6.9.8,14.06.74,20.62,2.67a164.15,164.15,0,0,1,28.11,11c8.53,4.35,16.48,10,24.21,15.7,15,11.12,24.1,26.1,28.06,44.45,3.59,16.62,0,32.51-3.72,48.46-.33,1.45-1.52,2.71-2.34,4-3.76,6.13-10,9.53-15.22,14.09-20.34,17.79-45,24.66-70.93,27.83-16.46,2-33.13,2.18-49.67,3.69a56.89,56.89,0,0,1-30.06-5.63c-10.1-4.8-19.73-10.61-29.49-16.12a26.67,26.67,0,0,1-5.2-4.21q-8.2-7.93-16.24-16a14.31,14.31,0,0,1-2.89-3.64c-3.81-7.87-8.25-15.55-11-23.78-4.13-12.3-7.92-24.9-3.92-38.18C415.17,423.73,415.82,421.42,413.27,419.77Zm33.07,247.64c3.67,16.88,13.51,29.13,26.68,38.74A128.73,128.73,0,0,0,493,718.45c13.72,6.58,28.82,8.3,43.67,10.5,4.24.63,8.79-.77,13.19-1.27,2.21-.25,4.42-.88,6.61-.77,12.45.62,23.91-2.88,35-8.15,14.81-7.06,25.6-18.66,35.26-31.49a30.66,30.66,0,0,0,2.48-4.84c-2-.3-3.09,0-3.77.72-8.67,9-20.12,14.14-30.21,21.15a53.3,53.3,0,0,1-14.53,6.77c-8.12,2.52-16.52,4.11-24.75,6.28a31.57,31.57,0,0,1-15.28.68c-12.25-2.75-24.58-5.16-36.79-8.08a86.86,86.86,0,0,1-23.52-9.74c-12.32-7.17-20.9-18.11-30.13-28.44C448.88,670.33,447.61,668.87,446.34,667.41Zm37-198.35c8.92,1.06,16.7-2.17,23.88-7.12,5.28-3.65,5.44-7.07,1-11.52a15.76,15.76,0,0,0-10.1-4.8,113.75,113.75,0,0,1-11.37-1.08c-1.46-.27-3.65-1.78-3.79-2.93-.32-2.61,2.18-2.92,4.24-3.08a19.67,19.67,0,0,1,4,0c4.22.55,8.68.54,12.58,2,6.05,2.25,11.51.42,17-1.15,4.3-1.22,8.27-7.11,8.16-11.37-.13-5.2-3.27-8.4-7.82-9.81-3.1-1-6.56-.86-9.87-.94-2.66-.06-5.5,1-8,.38-5.75-1.45-9.34.89-12.63,5.23-4.44,5.86-9.24,11.46-13.91,17.15s-9.54,11.29-14.07,17.12c-2.66,3.42-2,5.13,2,7.38C470.4,467.77,476.43,470,483.3,469.06ZM361.6,269.4a39.61,39.61,0,0,0-19.85,5.44c-8.89,4.93-9.91,9.9-5.35,21a14.18,14.18,0,0,0,4.8,6.33c11.46,7.43,23.36,13.08,37.47,7,7.25-3.12,12.88-11.47,12.86-19.72,0-6.88-4.27-13.12-11.74-15.58C373.25,271.72,366.37,270.54,361.6,269.4ZM645.26,448.69c-2.45-11.29-8.64-18.18-17.83-22.54-10.58-5-18.19-1.1-20.9,10.42-.31,1.31-1.89,3.48-2.4,3.35a7.74,7.74,0,0,1-4-2.75,5.88,5.88,0,0,1-.59-3.88,7.28,7.28,0,0,0-3.79-7.88c-1.86-1.14-3.25-3-4.86-4.6-6.77-6.53-15.11-7.38-23.78-6.11-4,.59-5.89,3.17-5.43,7.25,1.77,15.42,7.32,23.42,23.06,23,9.53-.23,17,2.4,23.68,8.79,4.78,4.55,5.65,4.44,11.18,1.32,6.15-3.47,12.51-6,19.78-5.56C641.05,449.63,642.78,449.06,645.26,448.69Zm-113.16-7c-3.1,1.3-6.7,3-10.45,4.32-3.45,1.18-4.66,3.16-3.5,6.61a10.19,10.19,0,0,1-2.27,10.59c-.15.17-.35.34-.39.54-.36,1.84-1.51,4.09-.85,5.45,1.17,2.42,3.82,1.66,6,.89a49.14,49.14,0,0,0,5.59-2.25,15.9,15.9,0,0,1,11-1.24c7.32,1.58,13.58-.31,18.2-6.69a61.06,61.06,0,0,1,6.64-7.49c4.29-4.23,3.91-7.51-1.26-10.52-2.66-1.55-5.12-1.07-7.65.15a20.94,20.94,0,0,1-15.68.92C536,442.52,534.45,442.24,532.11,441.69ZM538.9,525c5.64.4,12.16.54,15.09-7.4.4-1.1,2.07-1.67,3-2.66,2-2.15,4.13-4.2,5.61-6.66,3.79-6.29,1.88-12-4.92-14.67-2.44-1-5.33-1.75-7.83-1.38-13.18,2-24.87,9.17-24.63,25,.1,6.32,2.14,8.29,8.68,8.1C535.19,525.34,536.53,525.2,538.9,525Zm105.35-61c.19-3.44-1.47-5.88-4.69-6.4-3-.48-6.41-.74-9.19.21-5,1.73-9.65,4.6-14.56,6.7-8.64,3.69-12.54,11.1-15.37,19.28-1.6,4.63,1.92,8.7,6.75,8,10.51-1.62,20.65-4.27,28.26-12.47C639.53,474.92,643.95,470.64,644.24,464Zm-187.35,1.18a104.78,104.78,0,0,0-15.54,19.5c-1.67,2.65-.35,5.25,1.62,7.33,2.15,2.29,4.46,4.42,6.67,6.66,4.59,4.67,8.59,5.29,15.26,2.52,5.23-2.17,6.58-6.51,6.33-11.5a26.36,26.36,0,0,0-1.81-7.78A37.43,37.43,0,0,0,456.89,465.22ZM495,505.51c5.41.14,7.18-2.27,7.05-7.82A39.29,39.29,0,0,1,503.78,486c.85-2.93,3-5.46,4.33-8.28s-.15-5.43-3.42-5.55a20.59,20.59,0,0,0-3.91.72c-4.81.79-9.62,1.65-14.46,2.3-2.2.3-4.48,0-6.7.24-3.08.29-4.26,2-3.56,5.09.85,3.7,1.48,7.46,2.42,11.13C480.16,498.23,488.77,505.34,495,505.51Zm66.47,17.22c3.48,0,5.64.29,7.7-.06,4.62-.79,9.22-1.78,13.76-2.93a33.5,33.5,0,0,0,8.18-2.88c6-3.38,7.57-9.62,8.45-15.74.27-1.87-1.68-4.71-3.42-6.08-4.29-3.36-9.21-4.38-14.39-1.62a47,47,0,0,1-6,2.83c-2.59.94-4.14,2.56-4.41,5.31-.6,6-3.43,11-7,15.75A47.79,47.79,0,0,0,561.52,522.72ZM590,451.34c-5.71.8-10.15,1.31-14.55,2.08-2.17.38-4.56.8-6.29,2s-3.48,3.27-3.68,5.13c-.29,2.65,2.57,3.42,4.76,3.77a14.7,14.7,0,0,1,9.82,6.48,111.93,111.93,0,0,1,6.32,11c1.16,2.1,2.62,3.68,5.22,3.48,2.87-.22,3.08-2.5,3.87-4.67a73.86,73.86,0,0,1,5.65-12.74c3.9-6.55,3.67-9.56-2.87-13.53C595.53,452.67,592.14,452.07,590,451.34ZM504.64,409.9c1.58.49,2.83,1.29,4,1.18a42,42,0,0,1,16.61,1.23A6.22,6.22,0,0,0,530.1,411c2.77-2.27,5.62-2.37,8.82-1.58,2.17.54,4.38.95,6.59,1.28,4.93.74,6.35-.69,5.4-5.32-1.33-6.53-8.58-12.78-15.22-13.11-4.23-.21-8.46-.6-12.68-.56a7.64,7.64,0,0,0-4.84,1.6c-4.2,4-8.16,8.28-12.05,12.59C505.32,406.82,505.21,408.29,504.64,409.9ZM466.93,511.21a31,31,0,0,0,3.52,2.36c7.26,3.51,14.4,7.31,21.88,10.28,6.23,2.47,12.81,4.23,19.73,3.13,4.79-.76,6.15-2.18,6.43-7a25.4,25.4,0,0,0-.11-4.7c-.59-4.51-2.87-6.24-7.39-5.59a40.28,40.28,0,0,0-4.55,1.18c-8.9,2.37-17.12,1.71-24.86-4.1C475.78,502.42,472.46,503.54,466.93,511.21Zm-48.14-192c5.4.22,13-4,14.76-8.46a11.23,11.23,0,0,0,.57-6.47c-1.3-5.25-4.29-9.83-9.72-11.08a16.68,16.68,0,0,0-15.66,4c-3.5,3.38-5.58,8.07-3.83,12.86a12.76,12.76,0,0,0,10.33,8.63C416.57,318.91,417.91,319.07,418.79,319.19ZM538.51,482.76c-.08-7.83-3.81-10.86-10.34-8.23-4.89,2-9.37,5-13.9,7.81-3.23,2-4.65,5.33-5.48,8.9-1,4.45.51,8.14,4.24,10.32s6.3.29,9-1.92c3.82-3.06,7.55-6.33,11.73-8.81C537.41,488.68,538.78,486,538.51,482.76Zm21.65-13.06c-1.24.21-3.66.59-6.06,1.05-4.78.93-7.19,4.11-8.1,8.69-.86,4.37,0,5.81,4.42,6.23a37,37,0,0,1,14.67,4.23,10.44,10.44,0,0,0,5.78,1c7.36-.76,10-6.58,6.25-13C573.55,471.81,568,469.78,560.16,469.7ZM545.3,437.28a29.39,29.39,0,0,0,5.33-1.43c4.39-1.92,5.85-6.34,3.78-10.59-2.47-5.05-10.56-9.73-16.1-9.3-3.25.25-4.35,1.57-3.9,4.69s1,6.15,1.35,9.24C536.39,435.16,538.66,437.19,545.3,437.28Zm93.42,49.5c-8.19,6.05-17.08,9.71-27.27,9.44-2.66-.07-4.14,1.4-4.4,4.06-.13,1.34-.32,2.68-.41,4-.35,5.52,1.14,6.59,6.11,4.27,10.35-4.82,18.36-12.63,26.18-20.67C639,487.82,638.87,487.52,638.72,486.78ZM431.19,471.36c2.54-2.88,1.89-6.27.88-9.35-2.61-8-3.14-16.95-11.22-24.19-1.42,10.94,1.84,19.56,5,28.18C426.7,468.44,427.37,471.22,431.19,471.36Zm149.5-81.08h-.13c0-4.23.15-8.46-.07-12.68-.11-2-1-4.2-3.53-4.07s-3.28,2.29-3.2,4.36c.32,8,.75,16,1.4,24,.1,1.21,1.65,2.29,2.53,3.43,1-1.23,2.72-2.38,2.85-3.7A109.64,109.64,0,0,0,580.68,390.28Zm11.14,19.11c2.28-8.86.85-17.91.87-26.84,0-1.13-1.4-2.26-2.32-3.65-2.7,4.09-3.79,17.15-2.58,26C588.06,406.88,588.25,409,591.82,409.39Zm13-23.65c0-.95-1.56-1.86-2.4-2.79-1,.95-2.93,1.88-2.95,2.84-.18,8.42,0,16.85,0,25.28l2.08.19M443,306.21l-6,14.26c5.65-.35,10.39-3.86,11.13-7.72C448.78,309.39,447.37,307.25,443,306.21Zm-44.05-23.38c-.72,4.2-1.52,8.34,1.1,13.38l9-8.66C406.33,283.75,403.63,281.93,398.94,282.83ZM613.63,394.76l-1.56-.12c-.92,5.9-1.85,11.79-2.73,17.69a4.22,4.22,0,0,0,.13,2.61,14.08,14.08,0,0,0,2.67,2.48c.66-1,1.84-1.92,1.89-2.92.19-4.65.11-9.31,0-14C614,398.61,613.78,396.69,613.63,394.76Zm-48,8.84c3.91-5.34,3.46-16.68-.77-22.59C563.93,389.25,563.31,396.43,565.63,403.6ZM395.09,304.11c-2.75,3.06-4.86,4.88-6.29,7.13s-.35,4.24,2.23,5.11c4.37,1.48,6.75-.55,6-5.27C396.74,309.24,396,307.46,395.09,304.11Zm150.36,80.5c.75-5.87,2-11.59-.49-17.36-1.66,1.18-3.43,2.75-3.19,3.89C542.72,375.68,541.81,380.72,545.45,384.62Zm87.25,35.73c5.3-6.87,5.33-8.84.37-11.89m-10.57-1.56c-2.34,2.57-2.11,5.32-1,8,.28.69,1.73,1.18,2.66,1.21.51,0,1.52-1.14,1.51-1.74C625.58,411.64,625.84,408.66,622.51,406.9Zm-86.16-25.18c-1.62-.92-2.95-2-3.25-1.79a24.12,24.12,0,0,0-3.22,3.54c.9.49,2,1.58,2.66,1.33C533.78,384.32,534.73,383.1,536.35,381.71Zm18.8,12.93c1.23-2.32,1.54-4.11-.65-5.35a2.33,2.33,0,0,0-2.2.65C551.13,392.24,552.27,393.62,555.15,394.65Zm89.17,34,1.35,1.22c.17-.37.52-.76.47-1.1a1.43,1.43,0,0,0-.77-.93C645.21,427.77,644.8,428.27,644.32,428.65Z" transform="translate(-327.24 -263.79)"/><path d="M590.56,627.52q.13-4.23.27-8.47c.15-4.7.09-9.42.55-14.09.25-2.53,1.69-4.83,4.75-4.78,3.31,0,4,2.63,4,5.19.05,10.33,0,20.65-.17,31a11.07,11.07,0,0,1-1.77,5.68c-4.4,6.5-8.8,6.51-13.72.28-2.91-3.69-5.76-7.42-8.69-11.1-.22-.27-.82-.24-1.85-.49a21.44,21.44,0,0,0-1,4.09,45.71,45.71,0,0,0,0,8.75c1.08,7.94-5.43,12.85-13.1,9.06-1.74,1.24-3.39,2.82-5.35,3.73-4,1.88-6.69,1.08-8.8-3-1.45-2.8-3.3-4-6.34-3.9a12.79,12.79,0,0,1-4.68-.29c-4.19-1.49-7-1.23-9,3.62-1.47,3.61-6.09,4.32-9.21,2.31s-3.56-4.84-1.61-8.81c4.24-8.64,8.54-17.25,12.69-25.94,1.28-2.68,2.1-5.71,5.89-5.42,4.12.31,8.14,1.06,10.11,5.41,3.41,7.56,6.69,15.17,10.17,22.7a65.88,65.88,0,0,0,3.91,6.47l1.74-.41a67.56,67.56,0,0,0,.93-7.55c.11-7.18-.25-14.38.12-21.55a14,14,0,0,1,2.8-7.89c3.95-4.68,10-4.27,13.86.53,2.94,3.68,5.58,7.6,8.43,11.36,1,1.38,2.26,2.61,3.4,3.92Zm-53.61,12.16,1.5-1.5-2.39-8c-3.94,4.77-4.6,6-3.26,7.51C533.75,638.77,535.53,639.06,536.95,639.68Z" transform="translate(-327.24 -263.79)"/><path d="M446.83,597.93c0-5.16-.2-10.33.07-15.47.21-4,2.51-5.71,5.76-3.79,8.64,5.12,17.44,10.48,20.61,20.9a24.48,24.48,0,0,1,.52,10.51,16.08,16.08,0,0,0,1.25,9,22.88,22.88,0,0,1,1.92,9.7c-.36,5.42-5,7.72-9.65,4.93-5-3-9.49-6.65-14.41-9.71s-6-7.59-6.19-12.65c-.18-4.48,0-9,0-13.46Zm10.53,11.71c-2.61,7.15-.25,10.6,8.35,12.93C466.3,616.65,465.7,615.71,457.36,609.64ZM457,590.52c-2.3,7.87-.25,11,6.41,9.9A12.16,12.16,0,0,0,457,590.52Z" transform="translate(-327.24 -263.79)"/><path d="M490.26,641c4.94,1.6,9.16,3,13.4,4.32,1.28.4,2.84.26,3.88,1a21.45,21.45,0,0,1,3.44,3.67c-1.31,1-2.55,2.75-3.93,2.87-7.75.66-15.46-.11-21.67-5.19a12.21,12.21,0,0,1-3.93-8c-.45-10.51-.3-21.06-.08-31.59.08-3.64,1.58-4.61,5.34-4.2a53.84,53.84,0,0,1,5.86,1.44c3.48.79,7,1.51,10.47,2.27a24.12,24.12,0,0,1,4.55,1.11,4.49,4.49,0,0,1,2.79,5.49c-.63,2.55-2.81,2.54-4.9,2.25-4.39-.61-8.77-1.28-13-1.9-1.94,5.88-1.71,6.74,2.53,8.41a55.68,55.68,0,0,0,7.12,2c2.78.68,5.46,1.65,4.91,5.17-.57,3.68-3.7,3.33-6.37,3.24-2.86-.09-5.72-.4-9.22-.67Z" transform="translate(-327.24 -263.79)"/><path d="M620.71,610.52c-2.59.31-5.17.78-7.77.9-5.87.28-8.05-2-8.5-7.79s3.11-10.29,6-14.55c2.58-3.76,6.75-6.43,10.23-9.57a1.92,1.92,0,0,1,.56-.37c2.5-1,5.15-2.25,7.48,0,1.66,1.6.27,5.23-2.66,7.35-1.63,1.18-3.57,2-5.08,3.25-2.31,2-5.13,3.7-5.43,7.14,1.8,3.07,4.48,1.61,6.75,1.54,8.59-.28,12.88,5.46,9.25,13.23-3.19,6.84-6.66,13.73-13.28,18.1a47.21,47.21,0,0,1-8.77,4.75c-1.33.52-4,.1-4.68-.86s-.47-3.67.39-4.82c1.55-2.06,3.84-3.58,5.88-5.25,2.76-2.25,5.77-4.22,8.31-6.69,1.27-1.23,1.73-3.3,2.56-5Z" transform="translate(-327.24 -263.79)"/></svg>