<svg id="Calque_1" data-name="Calque 1" xmlns="http://www.w3.org/2000/svg" viewBox="0 0 817.55 338.72"><title>blackwellacademy</title><path d="M456.62,338.72H360.55V149.34h6.18V82.55h11.21V21.94h12.32L408.6,0l17.72,21.78h12.31V82.55h12.66v66.79h5.34ZM363.3,336h90.58V152.08h-5.34V85.29H435.88V24.53H425L408.57,4.31l-17,20.37H380.68V85.29H369.47v66.79h-6.18Z"/><path d="M433,338.72H384V222.12l.15-.29c.26-.52,6.68-12.64,24.4-12.64s24,12.14,24.26,12.65l.14.29ZM386.78,336h43.46V222.8c-1-1.73-6.89-10.87-21.66-10.87s-20.8,9.19-21.8,10.88Z"/><path d="M427.87,338.72h-38.2V305.33l.16-.3c.24-.46,6.13-11.37,18.14-11.37s19.35,10.78,19.66,11.24l.24.35ZM392.42,336h32.71V306.12c-1.29-1.72-7.8-9.71-17.15-9.71s-14.6,8-15.55,9.63Z"/><path d="M424.37,163.82H392.65V132.11h31.72Zm-29-2.74h26.23V134.85H395.39Z"/><path d="M398.52,196.53h-8.23v-24.4h8.23ZM393,193.79h2.74V174.88H393Z"/><path d="M407.82,196.53h-8.23v-24.4h8.23Zm-5.49-2.74h2.74V174.88h-2.74Z"/><path d="M417.12,196.53h-8.23v-24.4h8.23Zm-5.49-2.74h2.74V174.88h-2.74Z"/><path d="M426.42,196.53h-8.23v-24.4h8.23Zm-5.49-2.74h2.74V174.88h-2.74Z"/><rect x="379.31" y="75.31" width="57.94" height="2.74"/><path d="M398.37,134.85h-7.93V110.53h7.93Zm-5.18-2.74h2.44V113.27h-2.44Z"/><path d="M407.67,134.85h-7.93V110.53h7.93Zm-5.18-2.74h2.44V113.27h-2.44Z"/><path d="M417,134.85H409V110.53H417Zm-5.18-2.74h2.44V113.27h-2.44Z"/><path d="M426.27,134.85h-7.93V110.53h7.93Zm-5.18-2.74h2.44V113.27h-2.44Z"/><path d="M419.41,249.14H408.47V231.3h10.94Zm-8.2-2.74h5.45V234h-5.45Z"/><path d="M429.78,249.14H418.84V231.3h10.94Zm-8.2-2.74H427V234h-5.45Z"/><path d="M409,249.14H398.06V231.3H409Zm-8.2-2.74h5.45V234h-5.45Z"/><path d="M398.61,249.14H387.67V231.3h10.94Zm-8.2-2.74h5.45V234h-5.45Z"/><path d="M398.61,263.62H387.67V249.14h10.94Zm-8.2-2.74h5.45v-9h-5.45Z"/><path d="M409,263.62H398.06V249.14H409Zm-8.2-2.74h5.45v-9h-5.45Z"/><path d="M419.39,263.62H408.45V249.14h10.94Zm-8.2-2.74h5.45v-9h-5.45Z"/><path d="M429.78,263.62H418.84V249.14h10.94Zm-8.2-2.74H427v-9h-5.45Z"/><path d="M429.78,275.33H418.84V264.39h10.94Zm-8.2-2.74H427v-5.45h-5.45Z"/><path d="M429.78,231.3H418.84v-8.54h10.94Zm-8.2-2.74H427v-3h-5.45Z"/><path d="M419.41,231.3H408.47v-8.54h10.94Zm-8.2-2.74h5.45v-3h-5.45Z"/><path d="M409,231.3H398.1v-8.54H409Zm-8.2-2.74h5.45v-3h-5.45Z"/><path d="M398.67,231.3H387.73v-8.54h10.94Zm-8.2-2.74h5.45v-3h-5.45Z"/><path d="M398.61,275.33H387.67V264.39h10.94Zm-8.2-2.74h5.45v-5.45h-5.45Z"/><path d="M361.92,223.83H84.58l-.75-.23L42.25,196.31l.75-2.52H361.92l1.37,1.37v27.29ZM85,221.08H360.54V196.53h-313Z"/><path d="M363.29,338.72h-280V220.87h280ZM86,336H360.55V223.61H86Z"/><path d="M314.88,272.93H287.74v-39h27.14Zm-24.4-2.74h21.65V236.63H290.48Z"/><path d="M280.72,272.93H253.58v-39h27.14Zm-24.4-2.74H278V236.63H256.33Z"/><path d="M246.57,272.93H219.43v-39h27.14Zm-24.4-2.74h21.65V236.63H222.17Z"/><path d="M314.88,317.46H287.74v-39h27.14Zm-24.4-2.74h21.65V281.17H290.48Z"/><path d="M280.72,317.46H253.58v-39h27.14Zm-24.4-2.74H278V281.17H256.33Z"/><path d="M246.57,317.46H219.43v-39h27.14Zm-24.4-2.74h21.65V281.17H222.17Z"/><path d="M202,272.93H174.9v-39H202Zm-24.4-2.74H199.3V236.63H177.64Z"/><path d="M202,317.46H174.9v-39H202Zm-24.4-2.74H199.3V281.17H177.64Z"/><path d="M167.28,272.93H140.13v-39h27.14Zm-24.4-2.74h21.65V236.63H142.88Z"/><path d="M167.28,317.46H140.13v-39h27.14Zm-24.4-2.74h21.65V281.17H142.88Z"/><path d="M132.51,272.93H105.37v-39h27.14Zm-24.4-2.74h21.65V236.63H108.11Z"/><path d="M132.51,317.46H105.37v-39h27.14Zm-24.4-2.74h21.65V281.17H108.11Z"/><path d="M86,338.72H0V220.87H86ZM2.74,336H83.26V223.61H2.74Z"/><path d="M84.63,223.61H1.37l-.75-2.52L42.25,194h1.5l41.63,27.08ZM6,220.87H80L43,196.8Z"/><path d="M183.9,196.53H171.55V165.12H183.9Zm-9.61-2.74h6.86V167.86h-6.86Z"/><path d="M732.92,223.83H455.24l-1.37-1.37V195.16l1.37-1.37h319.3l.75,2.52L733.67,223.6Zm-276.3-2.74H732.51L770,196.53H456.62Z"/><path d="M734.29,338.72H453.87V220.87H734.29ZM456.62,336H731.55V223.61H456.62Z"/><path d="M529.81,272.93H502.67v-39h27.14Zm-24.4-2.74h21.65V236.63H505.41Z"/><path d="M564,272.93H536.82v-39H564Zm-24.4-2.74h21.65V236.63H539.57Z"/><path d="M598.12,272.93H571v-39h27.14Zm-24.4-2.74h21.65V236.63H573.72Z"/><path d="M529.81,317.46H502.67v-39h27.14Zm-24.4-2.74h21.65V281.17H505.41Z"/><path d="M564,317.46H536.82v-39H564Zm-24.4-2.74h21.65V281.17H539.57Z"/><path d="M598.12,317.46H571v-39h27.14Zm-24.4-2.74h21.65V281.17H573.72Z"/><path d="M642.65,272.93H615.51v-39h27.14Zm-24.4-2.74H639.9V236.63H618.25Z"/><path d="M642.65,317.46H615.51v-39h27.14Zm-24.4-2.74H639.9V281.17H618.25Z"/><path d="M677.41,272.93H650.27v-39h27.14ZM653,270.18h21.65V236.63H653Z"/><path d="M677.41,317.46H650.27v-39h27.14ZM653,314.72h21.65V281.17H653Z"/><path d="M712.18,272.93H685v-39h27.14Zm-24.4-2.74h21.65V236.63H687.78Z"/><path d="M712.18,317.46H685v-39h27.14Zm-24.4-2.74h21.65V281.17H687.78Z"/><path d="M817.55,338.72h-86V220.87h86ZM734.29,336H814.8V223.61H734.29Z"/><path d="M816.18,223.61H732.92l-.75-2.52L773.8,194h1.5l41.63,27.08Zm-78.63-2.74h74l-37-24.07Z"/><path d="M646,196.53H633.65V165.12H646Zm-9.61-2.74h6.86V167.86H636.4Z"/><path d="M405.72,71h-7.09V47.67h7.09Zm-4.35-2.74H403V50.41h-1.6Z"/><path d="M411.33,71h-7.09V47.67h7.09ZM407,68.25h1.6V50.41H407Z"/><path d="M416.93,71h-7.09V47.67h7.09Zm-4.35-2.74h1.6V50.41h-1.6Z"/><path d="M393.18,78.05H377.93V21.94h15.25Zm-12.5-2.74h9.76V24.68h-9.76Z"/><path d="M438.78,78.05H423.53V21.94h15.25Zm-12.5-2.74H436V24.68h-9.76Z"/><rect x="391.81" y="28.34" width="33.09" height="2.74"/><path d="M380.68,159.78h-8.93v-7.7h-5V82.55h14ZM374.5,157h3.44V85.29h-8.46v64h5Z"/><path d="M374.5,338.72h-14V149.34h14ZM363.29,336h8.46V152.08h-8.46Z"/><path d="M456.62,338.72h-14V149.34h14ZM445.41,336h8.46V152.08h-8.46Z"/><path d="M445.41,159.78h-9.53V82.55h15.55v69.53h-6ZM438.62,157h4v-7.7h6v-64H438.62Z"/></svg>