<svg id="Calque_1" data-name="Calque 1" xmlns="http://www.w3.org/2000/svg" viewBox="0 0 94.21 358.21"><title>bottle2</title><path d="M92.93,156.68c-1.94-20.09-7-34.2-16.26-45.77a18.61,18.61,0,0,1-4.08-10.61c-.73-9.72-1.42-19.61-2.09-29.17q-.7-10-1.42-20.07c-.11-1.55-.31-3.1-.49-4.6A57.4,57.4,0,0,1,68,39.89a39.74,39.74,0,0,0-1-7.37c-.74-3.73-1.44-7.26-.39-10.84,1.49-5.1,0-9.73-1.37-14.21L65,6.66c-1-3.08-1.85-5.51-3.82-6.35S56.82.48,53.67,2a44.78,44.78,0,0,1-21,4.68c-4.38-.11-6.22,1.2-7.32,5.17a44,44,0,0,0-1.24,9.38l0,.8c-.2,3.39,1.69,4.48,3.32,4.8l.5.1,0,.14c-.09.22-.2.43-.3.64a7.12,7.12,0,0,0-.73,2A497.36,497.36,0,0,0,20,101.47a25.9,25.9,0,0,1-4.57,14.44c-7,10.54-14.13,23.43-14.16,39.19,0,2.34-.06,4.73-.11,7-.07,3.22-.14,6.55-.09,9.85.09,5.72,0,11.56-.15,17.21-.13,6.35-.27,12.91-.1,19.37.23,9.23.11,18.62,0,27.69q0,3.32-.08,6.64c-.08,7.34-.21,14.81-.33,22-.34,19.65-.7,40,0,60,.64,18.16,9.84,28.57,28.14,31.82a105.82,105.82,0,0,0,18.56,1.46c6.49,0,12.95-.41,19.3-.8l.82-.05C77.71,356.7,84,349.84,90,343.21a5.24,5.24,0,0,0,1.15-4.43,105.19,105.19,0,0,1-.22-15.06c.08-2.36.16-4.79.16-7.2,0-28.78.64-57.81,1.78-86.28q.16-4.1.34-8.21C94.1,200.62,95,178.49,92.93,156.68ZM75.19,350l-.27-4.49-16.85,2.13.43,3.82,1,.25a14.89,14.89,0,0,0,1.88.33c-14,1.32-25.87.68-36.81-1.92a30.64,30.64,0,0,1-5-1.65l.29.09A79.93,79.93,0,0,0,44.51,352c3.63,0,7.16-.15,10.52-.32l.12-3c-7.07-.94-14.28-1.44-21.25-1.93-4.4-.31-9-.62-13.42-1l-6.58-.63a20.22,20.22,0,0,1-6-9L9,337c4.92,4.07,14.39,6.61,22.33,6.61a23.17,23.17,0,0,0,8.86-1.47l6.85-2.94-7.45.06h-.51c-10.32,0-20.29-2.45-28.7-4.86l-3.27-.94a32.93,32.93,0,0,1-.7-4.07l1.87,2.21c3.16,3.73,7.12,4.06,10.62,4.36.65.05,1.31.11,2,.19l1.38.16.63-3.14,4.54,2.51A13.47,13.47,0,0,0,34,337.51a13.19,13.19,0,0,0,6.52-1.82l5-2.81H23l.18-.93L6.35,328.48c0-.23-.05-.46-.07-.69-.07-1-.12-2-.18-3.06l3.73,2.37A22.17,22.17,0,0,0,21.76,331a18,18,0,0,0,6.11-1.09l5.76-2.06L27.57,327l-2.94-.4c-4.51-.6-9.16-1.22-13.65-2.26l-5-1.15c-.21-4-.33-8-.41-12.06l7.82,3.29a35.16,35.16,0,0,0,13.71,3,29.71,29.71,0,0,0,6.65-.76l9.45-2.16-9.66-.8c-3.48-.29-7-.72-10.45-1.14-2.94-.36-6-.73-9-1l-8.54-.8c-.13-7-.12-14-.11-20.89q0-4,0-7.93A65,65,0,0,1,6,275c.05-.48.1-1,.15-1.45l.35.2c1.56.88,3.43,1.92,5.69,1.63l-.69.2-.18.9c-1.92,9.81,1.08,15,10.34,17.89.79.25,1.58.42,2.34.59a22,22,0,0,1,2.43.64,16.89,16.89,0,0,0,5.44,1.11,7.28,7.28,0,0,0,3.43-.79c2.26-1.17,3.81-3.58,5-7.82a2.74,2.74,0,0,1,1.35-1.84l0,.22a4.24,4.24,0,0,0,.57,1.69c.89,1.33,3,4.44,6.38,2.43.44-.26.46-.27,1.27.37a5.67,5.67,0,0,0,2.11,1.19l1.53.4.32-1.55a3.63,3.63,0,0,0-2.32-4.41c-.64-.28-1.28-.52-1.91-.76-2.16-.81-4-1.52-5.49-3.51-1.85-2.52-4.49-.62-5.77.29a8.12,8.12,0,0,1-1.57,1l-.12,0c1.22-2.19.9-4.81.61-7.1l-.29-2.34-2,1.26a7,7,0,0,0-2.41,2.48,7.06,7.06,0,0,0-2.7-3.76l3.15-2.48c3.54-2.79,5.49-1.86,7.49.56a4,4,0,0,0,3.73,1.13,5.86,5.86,0,0,1,.73,0c4.88.06,8.58-2.41,11-4.29,2.11-1.66,4.15-1.62,7.26-1.36,1.43.12,1.85.78,2.68,2.25a8.16,8.16,0,0,0,2.84,3.32l.61.37-.06,0a5.21,5.21,0,0,0-1.89,4.12c0,5.49-3.66,8.14-7.86,11.22l-.59.43a5.26,5.26,0,0,1-.84.44,4.13,4.13,0,0,0-2.89,3.47l-.14,1.59,1.6,0c6.07.11,13.37-6.13,15.09-12.89.85-3.33,1.88-4.27,4.82-4.37,2.71-.09,5.35-1.57,7.86-4.37.31-.34.89-.89,1.25-.75a3.44,3.44,0,0,1,0,.91c0,.17,0,.34,0,.5q-.07,9-.15,18c-.1,12.11-.21,24.63-.26,36.94,0,1.67-.72,2.54-2.74,3.36s-4,1.44-6.16,2.13c-1,.32-2,.65-3.13,1l-2.74.91,2.32,1.71c3.12,2.31,5.9,1.34,7.92.64a12.9,12.9,0,0,1,1.86-.55,5.3,5.3,0,0,0,2-.95,6.8,6.8,0,0,1,.71-.44l.08.11a3.18,3.18,0,0,1-.07,3.52C82.8,344.16,79.35,348.41,75.19,350ZM42.79,11.23l1.67-.36c3.49-.73,5.6-1.17,6.54-.69s1.74,2.39,3.09,5.59a2.76,2.76,0,0,0,3.49,1.7l.86-.25.19-.88c.69-3.19-.65-6-1.88-8-.6-1-.51-1.31-.51-1.31s.13-.34,1.48-.89c.77-.31,1.16-.3,1.27-.25s.32.21.63,1.37c.25.94.51,1.87.78,2.81A61.51,61.51,0,0,1,62,16.76c.33,2,.15,3.39-.54,4.16s-2.17,1.18-4.31,1.1l-2-.07-4.59-.16c1-.13,2-.28,3-.45l7.65-1.26L53.68,18.4a36.06,36.06,0,0,0-17.14.46l-6.46,1.66,6.54,1.27,1,.16c-1,.07-2.08.16-3.12.28a8.13,8.13,0,0,0-5.24,2.24l.21-2.24c.24-2.51.46-4.88.73-7.27.25-2.15.93-2.7,2.23-2.7.2,0,.41,0,.64,0A31,31,0,0,0,42.79,11.23Zm-18.55,100c1.79-1.59,1.62-4.53,1.34-6.6a34.17,34.17,0,0,1-.42-4.75c0-.08,0-.16,0-.24l.26.15a11.14,11.14,0,0,0,5.42,1.71,7.42,7.42,0,0,0,5.28-2.26l2.17-2.09-3.9-.63c-2.73-.46-5.82-1-8.92.64l-.37.19a15.69,15.69,0,0,1,.46-5.87c.38-1,1-1.17,3.22-1.13a8.93,8.93,0,0,0,4-.55,7.55,7.55,0,0,0,1.64-1.13c.24-.2.5-.41.8-.64l1.68-1.27-1.76-1.17a7.23,7.23,0,0,0-5.92-.84c-.39.07-.77.15-1.15.18a5.87,5.87,0,0,0-1.73.53l-.06,0a10.59,10.59,0,0,0-.2-2.12c-.15-1-.33-2,0-2.49a2.38,2.38,0,0,1,1.53-.61,3,3,0,0,1,.52.06,4.43,4.43,0,0,0,1.48.08l.48,0a3.57,3.57,0,0,0,2.66-1,2.84,2.84,0,0,0,.58-2.21,2.74,2.74,0,0,0-1.12-2,3.87,3.87,0,0,0-3.06-.45c-1.74.39-2.23.1-2.34,0s-.47-.59-.26-2.49c.09-.83.35-3.05,1-3.46.2-.11.85-.29,2.63.49a5,5,0,0,0,4.24-.05A3.13,3.13,0,0,0,36,66.64c.25-2.63-2.41-2.93-3.28-3a5.2,5.2,0,0,1-.85-.13A6.38,6.38,0,0,0,29,63.41a5.21,5.21,0,0,1-1.5.06,2.19,2.19,0,0,1-.13-1.22l0-.77c.06-1.5.13-3.19.87-3.8a3.57,3.57,0,0,1,2.54-.29,3.5,3.5,0,0,0,2.4-.75,5.84,5.84,0,0,1,.55-.32l1.61-.77-1-1.45a3.93,3.93,0,0,0-4.15-1.63,4.8,4.8,0,0,1-.51,0c-.69,0-.94-.13-1-.19s-.15-.41,0-1.2a66,66,0,0,0,1.38-9.32,48.86,48.86,0,0,1,2-11.31,3.69,3.69,0,0,0,0-2.76,13.36,13.36,0,0,1,3.66-.33h.42c7,0,14.53-.06,21.91.17h.8c2.29,0,3,.1,3,2.12,0,.59.08,1.19.15,1.78.3,2.8.28,3.55-2.17,4a2.74,2.74,0,0,0-1.58,1.05,3,3,0,0,1-.22.24l-.67.61.23.88c.61,2.3,3,2.19,4.28,2.13a9.3,9.3,0,0,1,1.07,0,4.69,4.69,0,0,1-.26,1.11,5.81,5.81,0,0,0,.42,3.85c.62,1.72.7,2.06-.59,2.71a2.14,2.14,0,0,0-1,1.53,1.88,1.88,0,0,0,.36,1.67c3.42,4,3.23,8.62,3,13.55a36.78,36.78,0,0,0,.3,8.38,138.64,138.64,0,0,1,2,23.56,28.25,28.25,0,0,0,5.24,16.66c8.36,11.38,13.22,25,14.86,41.53a297.12,297.12,0,0,1,.85,47.52,8.77,8.77,0,0,0,0,1.26c0,.25.05.61,0,.87A5.67,5.67,0,0,1,85.4,203c-.34-.26-.67-.51-1-.75a1.67,1.67,0,0,1-.27-.22,5.43,5.43,0,0,1,.32-.62c.13-.22.25-.44.36-.67,1.79-3.76,3.59-8.2,2.25-13.22l-.08-.29.75-3.38c.76-3.44-2.87-12.06-5.85-14.1a5.58,5.58,0,0,0,.67-1.6c2-8,.3-12-6.84-16.1l-.67-.35-.52-.27c-.2-4.58-3.65-6.08-6.45-7.29l-1-.45a16.33,16.33,0,0,0-13.77-.2,36.15,36.15,0,0,1-4.11,1.4c-3.19.95-6.49,1.93-9.23,4.7l-.91.92c-2.87-3.23-10.44-6-15.28-7l1.14,0c2.66,0,5.3-.17,7.9-.34,1.89-.12,3.84-.25,5.75-.31l1.47,0,0-4.68h-26l.14,4.06,1.1.27a33.93,33.93,0,0,0,3.78.68c-4.56.54-7,3.79-9.08,6.69a24.54,24.54,0,0,1-2.94,3.54c.23-11.21,5.14-21.07,9.92-30.65l.82-1.68C19.41,117.58,21.19,113.91,24.24,111.2ZM71.07,271.9c-.19-4-.37-7.69-6.21-9.24-6.38-1.7-10.47,1.29-14.43,4.19l-.39.28c-3,2.18-5.25,2.07-7.79-.39-2.09-2-3.89-3.3-5.88-3-2.19.36-3.74,2.58-5.53,6.06l-1.94,3.76a7.65,7.65,0,0,0-2.75-.64A5.56,5.56,0,0,0,25,273l-3.21-2.51c-1.92-1.5-3.12-2.66-3.52-4.13a9.88,9.88,0,0,0-9.21-7.64c-2.11-.19-2.55-.77-2.61-3.45,0-.8-.07-1.61-.12-2.41-.28-4.54-.26-7.41,3.19-9.21a26.35,26.35,0,0,1,.1,2.94c0,2.65,0,5.65,2,8.42l.45.61a3.08,3.08,0,0,0-.33,1.79c.25,1.49,1.4,2.28,3.41,2.35h.33a17.45,17.45,0,0,0,6.39-1.56c.66-.25,1.29-.5,1.92-.71l.06.11,1.05-.4c1,0,1.9,0,2.86,0s2,.06,3.07.06a29.53,29.53,0,0,0,8.2-1l2.69-.76c3.59,1.61,7.17,1.23,10.63.85a21.62,21.62,0,0,1,7.38,0L70.46,259l-4.94-2.73a2.73,2.73,0,0,0,.66-2.12,14.23,14.23,0,0,1,0-2.25c.14-2,.31-4.34-1.41-6.69l-2.21-3-.72,5.51-1.26-.58a14.16,14.16,0,0,1-2-1.26c-2.21-1.54-5-3.46-9.23-1.46l-2.73,1.28L49.29,247c4.93,2.6,6.9,3.64,8.51,3.64a6.48,6.48,0,0,0,2.85-.89l1-.49c-.2,1.49-.39,3-.55,4.51l-.3-.16c-4.59-2.54-9.15-2-13.56-1.54a44.91,44.91,0,0,1-5.37.38l-5.29-.06a18.4,18.4,0,0,0-4.56-.1c-3.82.25-5.93.39-6.3-4.46l-3,.18.22,4.69c-2.34-.92-4.68-.08-6.52.58a19.06,19.06,0,0,1-2.09.67c0-1.37,0-2.74.08-4.12a64.25,64.25,0,0,0-.22-9.94c-.57-4.55.87-6.71,5.16-7.7a6.87,6.87,0,0,0,3.13-1.8l0,0,0,.36.25.33c1.42,1.88,3.38,1.24,4.33.94l.4-.12c10.21-2.68,20.9-2.18,34.66,1.6a8.07,8.07,0,0,0,4.27-.15l.26-.06c2-.46,3.47-.32,4.41.4s1.55,2.31,1.63,4.58a16.78,16.78,0,0,0,.3,2.59l-3.68,1.08L71,247.33a9.83,9.83,0,0,0-1.17-.9l-3.45-2.28L70.27,257c.24.8,1,3.22,3.58,2.89a4.36,4.36,0,0,0,2.1-.89l2.44,2.26-1.17-3.87a3.16,3.16,0,0,0,.27-1.3,35.82,35.82,0,0,0-1.71-9.73,10.25,10.25,0,0,0,3.77,2.47l.87.36.95,3c2.37,7.54-1.06,12-7.35,16.84l1.6,2.53.44-.23c3.91-2,7.92-4.08,9.69-8.59a19.71,19.71,0,0,0,0,3.28,2.86,2.86,0,0,1-.12.88,16.52,16.52,0,0,0-4.48,3c-2.15,1.8-4,3.36-6.9,2.75a6.25,6.25,0,0,0-3.08.09ZM40.27,152.45l1.13-.34c1.39-.41,2.78-.81,4.18-1.2,3.15-.88,6.41-1.8,9.54-3,4.33-1.62,8.08-.26,12.42,1.81a12.54,12.54,0,0,0-10.69,1.5c-8.14,5.4-15.22,8.06-23.29,3.49a32.57,32.57,0,0,0-5.35-2.24l-1.8-.64a4.81,4.81,0,0,0-3.74-.3,3.14,3.14,0,0,0-1.62,1.89c-.68,1.9-2.11,2.5-4.39,3.33-.45.16-.91.33-1.35.51l-.78.31a16.23,16.23,0,0,0-4,2c.18-.43.35-.87.51-1.29A13.59,13.59,0,0,1,13.4,154c3.28-3.64,5.56-5.45,8.68-5.45a15.76,15.76,0,0,1,6,1.54c2.07.88,4.2,1.61,6.46,2.38l2,.67-.7.7,1.46-.44.61.22,4,1.42Zm43.34,29.32c.38.73.81,1.55,1.29,2.48l.52,1-1.13,1.91-.24.42A24.39,24.39,0,0,0,83.62,181.77ZM86.68,215l0-.19.1,0Zm-2-1-.75,2.27a9.29,9.29,0,0,1-.4,1,12.93,12.93,0,0,0-.34-2.84L82.83,213A20.19,20.19,0,0,0,84.64,214Zm-4,11.67a10.27,10.27,0,0,0,.16,1.43v0l-.88-.36ZM30.76,211.57c-1.55-3.2-1.57-6.26-.05-8.59s4.09-3.54,7.45-3.79a2.55,2.55,0,0,0-.77,1.86v.14c-1.61,1.8-2.55,3-2.25,4.49S36.95,208,39,208.94a3.42,3.42,0,0,1,.81.47.77.77,0,0,1-.06.21,12.74,12.74,0,0,0-.51,1.85c-.34,1.54-.54,2.29-1.61,2.73A5.54,5.54,0,0,1,30.76,211.57ZM41.41,218a11.91,11.91,0,0,0,2.32-5.79c.15-.76.3-1.47.5-2.14a5,5,0,0,0-.3-3.87,3.65,3.65,0,0,0-2.39-1.74l-.47-.13c.12-.14.28-.31.5-.52a2.92,2.92,0,0,0-.6-4.56l-.11-.06c2,.12,4.06.42,6.19.73,1.33.19,2.7.39,4.07.54a3.42,3.42,0,0,1,.7.13,4.06,4.06,0,0,1-.17.91c-.84,3.12-1.46,6.32-2.06,9.42-.22,1.12-.43,2.23-.66,3.34-.18.87-.71,3.46,1.4,5-1.95-.23-3.9-.49-5.81-.83-.65-.11-1.31-.21-2-.31Zm-30.6-2.6.17,1.5a3.44,3.44,0,0,0,1.3,2.48,3.23,3.23,0,0,0,.77.42c-1,.23-1.89.49-2.76.75l-.55.16a3.55,3.55,0,0,0,.95-3.11A2.33,2.33,0,0,0,9,216c-2.39-.68-2.48-1.87-2.46-4.5a11.41,11.41,0,0,0-.35-3.56c-.8-2.53,0-3,2.71-4l1.16-.46a4,4,0,0,0,0,.44A98.63,98.63,0,0,0,10.81,215.4Zm6.79,3.84a3.51,3.51,0,0,0,1.32-3.6c-.23-1.81-.42-3.68-.6-5.48l-.08-.81h.21v-1.4c0-.34,0-.68,0-1a15.24,15.24,0,0,0-.07-2.66,4.79,4.79,0,0,1,0-.83,4.17,4.17,0,0,0-.47-2.83L19,200.2a8.33,8.33,0,0,1,3.75-.87,10.37,10.37,0,0,0,2.13-.07,9.66,9.66,0,0,1,1.52-.08c-3.23,7.08-2.49,13.35,2.19,18.71l-8,1.52-2-.13C18.27,219.25,17.94,219.24,17.6,219.24Zm35.94.43-.55-.06a3.59,3.59,0,0,0,1.11-.55,2.6,2.6,0,0,0,1.13-1.88,2.72,2.72,0,0,0-1-2.09l-.17-.17c.48-5,.94-9.71,4.16-13.41.33-.38.77-.4,2.08-.25a6.14,6.14,0,0,0,4.23-.63l1.1-.71.24.53c.06.14.13.27.21.4l-.15,0a3.61,3.61,0,0,0-2.81.67,4.16,4.16,0,0,0-1.18,3.14,4.37,4.37,0,0,1-.15,1.06L61.23,207l1.23.66a2.66,2.66,0,0,0,2.74,0h0c-.27,2-.56,4-1,6-.07.32-.11.68-.15,1-.17,1.42-.3,1.44-.54,1.48h0c0-.12-.06-.25-.08-.36a3.9,3.9,0,0,0-2.3-3.23l-1.24-.5-.64,1.17c-.55,1-2.23,4.1-.25,6.79.08.1.16.18.24.27C57.33,220.1,55.43,219.88,53.55,219.67ZM8,165.83a2.53,2.53,0,0,1-1.36,2.74c-.15-.89-.54-3.28-.08-3.59a9.1,9.1,0,0,0,1.51-1.26A8.86,8.86,0,0,0,8,165.83ZM77.85,163c-.06.41-.11.83-.15,1.26a7,7,0,0,1-.42,2.15,1.63,1.63,0,0,1-.62.61c-.31-.59-.65-1.17-1-1.74-1.16-2-2.26-3.91-2.12-6,.05-.75.22-1.67.72-1.77h.1c.29,0,.59.25,1.25.91.22.22.44.43.66.63A4.36,4.36,0,0,1,77.85,163ZM7,184.41c.54-3.32,1.09-6.76.33-10.35a5.69,5.69,0,0,1,1-.53l.51-.25a7,7,0,0,0,4-7.26c-.29-2.35.44-3.25,3.42-4.17l1.26-.37c2.58-.74,5.49-1.58,7.62-4.52.42-.58,1.55,0,3.25,1l.1.07C36,162.78,44,163.18,53.1,159.3l.94-.38a11.4,11.4,0,0,0,4.34-2.58c2.43-2.63,4.62-2,8.29-.61l1.47.53c-1.78,3.49-.1,6.3,1.26,8.6A10.31,10.31,0,0,1,71,168.32l0,.24c.19,1.36.45,3.14,1.52,4.09a7.19,7.19,0,0,0-.75-.71A8.19,8.19,0,0,0,63,170.76l-1.25.53.33,1-2.05-.75c-5-1.82-10.94-3.37-17.25-1.08l-1.32-.5c-2.21-.83-4.75-1.52-6.91-.41-1.83.94-3,2.94-4.13,6.1l-2.91-8.62-1.23,5A19.46,19.46,0,0,0,28.88,187c1.09,1.79,3.81,6.25,8.46,6.25a7.77,7.77,0,0,0,1.57-.16,33.7,33.7,0,0,1,13.67-.38,3.48,3.48,0,0,0,2.85-.43,3.2,3.2,0,0,0,1.18-2.42l.11-1.31-1.06-.23h1l-.32-1.77c-.4-2.21-1.14-3.55-2.33-4.24-1.55-.89-3.23-.27-4.57.22-.73.27-1.72.64-2,.41L46,181.84l-.83,1.61c0,.09-.11.18-.16.27a3.43,3.43,0,0,0-.61,1.52,2.66,2.66,0,0,0,.62,2.08c-.56,0-1.1,0-1.68,0-3.92.17-5.89-.11-6.82-1-1.09-1-1.31-3.58-1.31-7.07,0-4.28,1.55-6,5.9-6.37h0l1.79.47A44.12,44.12,0,0,0,54.13,175a30.76,30.76,0,0,0,5.69-.52l3-.57a3.64,3.64,0,0,0,3.06,1.35,3.47,3.47,0,0,1,.49,0,3.22,3.22,0,0,1,2.29,1.26,1.91,1.91,0,0,1,0,1.65,15.9,15.9,0,0,0-1.13,8.53c-.05-.17-.1-.36-.15-.54-.34-1.25-.81-3-2.36-3.56a3.88,3.88,0,0,0-3.5.63A4.35,4.35,0,0,0,59.39,186c-.39,1.79.52,3.51,1.47,5l.47.72.86,0a2.67,2.67,0,0,0,2.45-1.37,6.48,6.48,0,0,0,2.64,4.1,6.49,6.49,0,0,1,.83.72,4.74,4.74,0,0,0,3.18,1.66,4,4,0,0,0,2.22-.76c2.85-1.91,1.54-4.62.92-5.92l-.19-.4c-1.33-2.89-1.93-5.47-.55-8.67a7.58,7.58,0,0,0-1.12-8.31,2.48,2.48,0,0,0,.51.33,2.38,2.38,0,0,0,1.57.17,4.36,4.36,0,0,0,.12,2l.19.65a17.93,17.93,0,0,0,1.91,4.86c2.16,3.4,1.6,6.7.94,10.52-.2,1.19-.42,2.42-.54,3.69-.3,3-1,3.87-1.41,4.13-.76.5-2.31,0-4-.54-.53-.17-1.08-.35-1.67-.51a3.8,3.8,0,0,0-4,.74l-.8.7-.41-.76c-.07-.13-.13-.28-.19-.42-.24-.56-.64-1.51-1.69-1.61-3.33-.32-6.72-.75-10-1.17a166.8,166.8,0,0,0-21-1.76,71.06,71.06,0,0,0-9,.54,22,22,0,0,0-10.36,3.89c-2.35.44-4,.61-4.75.11s-1.16-2.37-1.6-5.35A27.63,27.63,0,0,1,7,184.41Zm5,46c-.53-2.19-.72-3.53-.27-4.3.67-1.14,3.21-2.22,7.42-4l1.38-.59,3.65.18c7.28.36,14.63,1.31,21.74,2.23,4.53.59,9.21,1.2,13.83,1.65,4.44.43,8.52,1.93,12.83,3.52l2.6.95c1.18.42,1.59.57,1.33,2-3-2.69-6.65-3-10.2-3.32-.83-.07-1.68-.14-2.52-.25-2.32-.29-4.65-.62-7-1-4.68-.66-9.52-1.35-14.35-1.73q-1.95-.15-4-.15a67.16,67.16,0,0,0-13.24,1.43,3.86,3.86,0,0,0-1.86.84l-1.79-.11A13.53,13.53,0,0,0,12,230.46ZM85.29,229c-.22-.08-.48-.19-.64-.27l-.48-.21-1-.39.29-.4a16,16,0,0,0,3.37-9.45L88.08,217a21.44,21.44,0,0,1-1.41,6.74A33.82,33.82,0,0,0,85.29,229Zm-6.7-22.25-6-.57,5,3.31c.69.46,1.37.94,2.05,1.42l1.57,1.1-1,2.42c-1.34,3.13-2.74,6.36-2,10.27l.28,1.47c-1.14-.5-2.28-1-3.41-1.54a41.91,41.91,0,0,0-8-2.82,2.48,2.48,0,0,0,.78-.49,4,4,0,0,0,.9-3.16,5.24,5.24,0,0,1,0-.88c.5-2.14.81-4.33,1.12-6.45.17-1.15.33-2.3.53-3.44A6.27,6.27,0,0,0,70,203.7a16.62,16.62,0,0,0,2.55.38l.27,0a24.88,24.88,0,0,1,9.35,3.2A26.64,26.64,0,0,0,78.59,206.74ZM14,274.83l1.07-.47-.19-1.15c-.41-2.45-2.39-2.92-3.46-3.18a3.87,3.87,0,0,1-.94-.3l-.22-.14c-2.77-1.74-4.45-2.94-4.14-5.67a2,2,0,0,1,.13-.58h.07l.59,0c3.53.29,5.74.61,6.82,3.46.11.28.2.57.3.86.72,2.14,1.82,5.37,6.8,5.44l3.33,0A5.27,5.27,0,0,0,22,274.59a4.65,4.65,0,0,0-1.28,3.68c.38,3.58,3.25,5.89,7.47,6h.2a4.6,4.6,0,0,0,2.24-.56,5.67,5.67,0,0,1-.68,1.12l-3,3.74,4.59-1.37a11.75,11.75,0,0,0,2.66-1.14,3.84,3.84,0,0,0,.15,1.84,2.69,2.69,0,0,1-.14,2.52c-.65.79-2.2,1-3.36.9a28.13,28.13,0,0,1-13.07-5.06c-1.57-1.12-1.78-3.38-2-5.77a28.59,28.59,0,0,0-.39-3l0-.15a2.58,2.58,0,0,0-1.07-1.88,2.13,2.13,0,0,0-1.28-.31A7,7,0,0,0,14,274.83Zm72.92-30.91a6.17,6.17,0,0,1,0,1.16h-.2a13.89,13.89,0,0,1-5.37-1.3,34.66,34.66,0,0,0,5-6.28l.69-1c0,2.34,0,4.57,0,6.76C86.92,243.45,86.93,243.68,86.93,243.92Z" transform="translate(0 0)"/><path d="M44,89.26a6.13,6.13,0,0,0,1.26.13,7,7,0,0,0,5-2.23c4.49-4.57,4.23-10.36,3.5-14.88L53,67.71l-2.08,4.13c-.24.47-.5.93-.75,1.38-1,1.83-2.2,3.9-1.94,6.57.38,4-1.65,4.26-2.52,4.38-1.79.24-2.18-.43-2.76-3.26-.06-.3-.12-.6-.19-.89-1.14-4.89-.68-9.94,0-14.52a9.09,9.09,0,0,0,5.38,6.43L50,72.8l.3-2a4.8,4.8,0,0,0-.68-3.3,4.34,4.34,0,0,0,2-.28l1.27-.46-.33-1.31a11.51,11.51,0,0,0-2.84-4.81c-.21-.22-.43-.46-.65-.7C47.7,58.45,45.87,56.41,43,56.7c-2,.21-3.65,1.86-4.19,4.33-1.45,6.67-2.7,15.42.53,23.94A6.54,6.54,0,0,0,44,89.26Z" transform="translate(0 0)"/><path d="M12.81,196l.82-3.74a8.24,8.24,0,0,1,2.82-4.57,4.18,4.18,0,0,0,2,4l1.72,1.15.56-2a29.35,29.35,0,0,0,1.51-10.57L22,176.95l-2.36,2.29c-.4.39-.79.8-1.17,1.2A16.51,16.51,0,0,1,16.91,182c-2-2-3.33-3.78-2.25-6.7l2-5.47-4.41,3.81c-3.6,3.12-4,14.68-1.4,19.08Z" transform="translate(0 0)"/><path d="M74.3,141.31a4,4,0,0,0,1.42,2.8,2.48,2.48,0,0,0,1.39.41,3.09,3.09,0,0,0,.68-.08c1.74-.39,2.39-1.75,1.94-4l0-.2a61.51,61.51,0,0,0-11.76-26.28c-.73-1-2-2.09-4.72-.93l-1.75.75,1.14,1.53A60.32,60.32,0,0,1,74.3,141.31Z" transform="translate(0 0)"/><path d="M18.61,133.51c2.31,1.52,5.7,2.26,9.29,2.26a24.46,24.46,0,0,0,13-3.5l4.75-3.15-5.69.4-4.79.36c-5.16.4-10.5.81-15.76.88l-4.88.07Z" transform="translate(0 0)"/><path d="M37.68,301.36a5.84,5.84,0,0,1-1.1-.1c-2.14-.54-4.33-.94-6.45-1.33-5.51-1-10.72-2-15.26-5.16a5.12,5.12,0,0,1-.65-.69,3.8,3.8,0,0,0-3-1.77,3.69,3.69,0,0,0-2.63,1.9c-.94,1.46-3.16,4.87.76,8a23.5,23.5,0,0,0,3.24,2.14,4.24,4.24,0,0,0-.45.23l-1.72,1L11.86,307a12.46,12.46,0,0,0,9.79,4c3.45,0,8-.76,14.57-2.11l3.61-.73L38.06,307c2.08.33,3.42-.44,4-2.31l.19-.62-.32-.56C40.8,301.48,38.92,301.41,37.68,301.36Z" transform="translate(0 0)"/><path d="M72.32,305.26c4.6-1,7.29-3.82,9.44-6.35.73-.85,1.69-2.64,0-5-1.12-1.57-2.58-1.73-4.37-.49a3.63,3.63,0,0,1-.46.3l-2.24,1.09c-8.25,4-16,7.87-25.26,7.34a4.77,4.77,0,0,0-3.59,1.24,4.68,4.68,0,0,0-.7.82l-2.73-.37,2.12,1.66a5.51,5.51,0,0,0-.24,1.53c-.05,3,2.55,3.32,3.67,3.46a7.61,7.61,0,0,1,.81.13,16,16,0,0,0,3.73.43c4.19,0,8-1.55,11.46-3l5.24-2.14,0,0Zm-7.91,0c2.23-.8,4.41-1.72,6.57-2.65-.11.17-.22.35-.32.54l-1.22,2.33Z" transform="translate(0 0)"/><path d="M59.59,233.72a5.33,5.33,0,0,1-.71-.09,24.28,24.28,0,0,0-5.71-.83c-2-.11-3.94,0-5,1.4s-.53,3.56.23,5.61l1.09,3,1.6-2.71.37-.62a7.16,7.16,0,0,0,4.46,1.75,5.66,5.66,0,0,1,1.23.21,3.85,3.85,0,0,0,3-.05,5.15,5.15,0,0,0,2.34-3.26c0-.14.09-.26.13-.37a2.86,2.86,0,0,0-.07-2.62A3.63,3.63,0,0,0,59.59,233.72Z" transform="translate(0 0)"/><path d="M10.82,322.12l1.22.31A40,40,0,0,0,21.77,324,19,19,0,0,0,29,322.59l5.69-2.29L11.11,318Z" transform="translate(0 0)"/><path d="M61.5,281.46l.31,0,.3-.08c2.52-.66,3.68-2.42,3.19-4.83,0-.18-.06-.37-.09-.57-.13-1-.47-3.66-3.45-3.39a4.4,4.4,0,0,0-4.2,4.25C57.46,279.39,58.89,281.05,61.5,281.46Z" transform="translate(0 0)"/></svg>