<svg id="Calque_1" data-name="Calque 1" xmlns="http://www.w3.org/2000/svg" viewBox="0 0 91.21 355.22"><title>bottlesvg</title><path d="M27.69,26.28c.7-2.87,2.75-3.75,5.47-4.06,7.49-.85,15-.46,22.46-.19,5.15.18,7.21-2,6.39-7-.54-3.27-1.6-6.45-2.45-9.67C59,3.28,58.14,2.21,55.64,3.23S52.53,5.23,54,7.6c1.26,2.1,2.25,4.38,1.7,6.92A1.27,1.27,0,0,1,54,13.68c-3.18-7.52-3.16-7.49-11.4-5.76C39,8.67,35.39,9.66,31.7,9.3c-3.12-.3-4.2,1.37-4.5,4-.39,3.45-.69,6.91-1.05,10.6C24.21,23.51,24,22.05,24,20.66a46.61,46.61,0,0,1,1.23-9.87c.91-3.28,2.13-4.16,5.84-4.07A46.39,46.39,0,0,0,52.84,1.87c6.26-3.08,7.24-2.71,9.25,3.74,1.42,4.55,3.07,9.19,1.62,14.15C61.86,26.11,65,32.15,65,38.4c0,3.76.79,7.5,1.06,11.27,1.19,16.41,2.27,32.84,3.51,49.24A20.19,20.19,0,0,0,74,110.35c10.54,13.11,14.36,28.71,15.93,45,2.36,24.44.9,48.92-.08,73.35Q88.13,271.84,88.08,315c0,7.48-.77,15,.07,22.43a3.75,3.75,0,0,1-.77,3.26c-6,6.58-11.93,13-21.74,13.66-12.8.8-25.6,1.67-38.32-.59C11,350.86,1.07,342.26.41,323.38c-1-27.33,0-54.65.33-82,.12-11.47.36-22.91.08-34.39-.31-12.18.44-24.38.25-36.56-.09-5.63.19-11.24.2-16.86,0-14.44,6.25-26.8,13.91-38.36A27.38,27.38,0,0,0,20,100a493,493,0,0,1,6.77-71.55,11.14,11.14,0,0,1,.94-2.27c1.85-.12,1.92,1.25,1.55,2.31-2.32,6.73-1.74,13.93-3.42,20.76-.47,1.9,0,3.28,2.42,3.25,1.06,0,2.3-.61,3.42,1-.73.35-1.46,1-2.08.94-5.31-.82-5,3.13-5.18,6.27-.24,4.54,3.5,2.09,5.45,2.74,1.18.39,3.26,0,3.11,1.59-.18,1.94-2.46,1.83-3.67,1.3-4.55-2-5.34.43-5.77,4.18s.84,4.92,4.41,4.12c.94-.21,2.23-.13,2.36,1.16.18,1.76-1.41,1.49-2.45,1.65-.64.1-1.34-.23-2-.14-4.68.64-2.49,4.45-2.64,6.71-.22,3.23,2.06,1.05,3.43.93,1.83-.17,3.76-1.14,6.1.41a14.74,14.74,0,0,1-2.16,1.61c-2.59,1.2-6.67-.95-7.95,2.52-1,2.67-.47,5.92-.49,8.92a36,36,0,0,0,.43,5c.25,1.88.34,4.21-.86,5.27-3.75,3.34-5.63,7.85-7.72,12.06C8.72,131.27,3.36,142,4,154.76c6-2.78,6.85-11.89,15.26-11.6,4,.14,15.34,3.76,17.61,7.5-3.59-1.28-6.71-2.23-9.7-3.5-7.64-3.24-10.91-1.77-16.37,4.29-3,3.31-2.6,8.15-6.57,10.78-1.43.95-.78,3.77-.46,5.74.12.77.83.85,1.57.62A4,4,0,0,0,8,164.23c-.35-4.78,3.22-5.74,6.41-7,2.61-1.06,5.44-1.54,6.59-4.72.62-1.73,2.17-1.16,3.43-.69a48.27,48.27,0,0,1,6.94,2.79c9.25,5.23,17.16,1.55,24.85-3.55,3.17-2.1,6.44-2.2,9.91-1.18.87.25,1.88,1.47,2.58.26s-.11-2.27-1.28-2.84c-4.53-2.2-9-4.18-14.29-2.2-4.44,1.66-9.08,2.78-13.62,4.13,3.65-3.68,8.58-3.92,12.87-5.77a14.79,14.79,0,0,1,12.56.19c3.18,1.45,6.71,2.41,6.6,7,0,.42,1.24.91,1.94,1.3,6.6,3.75,8,7.16,6.13,14.42-.87,3.42-4.25,2.54-6.31,3.74-1.79,1-2.12-2-2.33-3.46-.59-4-5.75-7.1-2.51-11.94.08-.12-.7-1.11-1.22-1.29-3.84-1.31-7.71-3.58-11.43.44-1.23,1.33-3.07,1.88-4.77,2.6-8,3.41-15.65,3.64-23.23-1.13-1.58-1-4-2.59-5.37-.72-2.14,3-5.16,3.42-8.12,4.34S9.36,161,9.82,164.71a5.57,5.57,0,0,1-3.24,5.74c-1,.51-2.56,1-2.27,2.34,1.38,6.36-1.78,12.46-.84,18.82,1,6.92,1.8,7.71,8.48,6.42-.83.58-1.67,1.13-2.47,1.73-2.58,2-8,1.56-6.25,7.13,1,3.1-1.34,7.58,3.82,9.05,1.19.34.69,1.53-.08,2.41-.93,1.06-3,1-3,3.2,4.11-.14,7.83-2.63,13-2.28-9.61,4.08-9.61,4.08-7.37,12.57,2.73-3.28,6.29-4.27,10.33-4a5.43,5.43,0,0,1-2.44,1.43c-5,1.16-7,4-6.31,9.35.58,4.61.12,9.34.12,14-2.9-3.93-1-8.47-2.22-12.56-7.43,2.55-5.8,8.32-5.68,13.74.07,3,.71,4.62,4,4.91a8.34,8.34,0,0,1,7.89,6.54c.51,1.89,1.89,3.24,4,4.92-4.49-.06-4.83-3-5.72-5.33-1.56-4.12-5.2-4.18-8.69-4.47-1.24-.11-1.69.77-1.82,1.89-.46,3.91,2.36,5.56,5,7.25,1.24.78,3.36.28,3.72,2.46-3.38,1.47-5.65-1.16-8.53-2.24-.33,3.81-.88,7.27-.88,10.73,0,15.31-.24,30.62.79,45.93.86,12.79,7.08,20.79,19.45,23.74,16.3,3.89,32.82,3,49.1.47,5.48-.86,9.88-5.94,13.31-10.77a4.67,4.67,0,0,0,.07-5.26c-1.4-2-2.83.41-4.28.67-2.68.48-5.27,2.65-8.63.17,3.48-1.16,6.49-2,9.38-3.18,2-.82,3.67-2,3.68-4.75.07-18.32.27-36.64.4-55,0-1,.25-2.17-.78-2.69-1.22-.61-2.34.17-3.1,1-1.86,2.08-4.16,3.78-6.79,3.87-3.92.14-5.29,1.87-6.22,5.5-1.62,6.36-8.45,11.88-13.61,11.76.17-1.92,2-2,3.12-2.83,4.45-3.27,9-6.32,9.06-12.85,0-2.77,2.28-4.23,4.92-3.67,5.8,1.24,8.17-4.45,12.59-5.94.46-.15.78-1.51.72-2.27a33.1,33.1,0,0,1,.42-6.41c.69-6.2-1.74-9.84-7.52-12.07-4.25-1.64-5.66-5.19-5.8-9.24-.18-5.23-2.72-7.57-7.87-6.39a7.17,7.17,0,0,1-3.8.23c-11.68-3.21-23.45-4.75-35.44-1.6-.94.25-2.23,1-3.16-.27-.12-1.15.68-1.46,1.5-1.62a61,61,0,0,1,16.8-1.25c7.13.55,14.17,1.78,21.25,2.67,5.07.64,10.18.1,13.62,5.19,1.35-4.51,1.25-5.49-1.54-6.48-5.16-1.84-10.22-4-15.79-4.55-11.88-1.15-23.66-3.3-35.64-3.89l7.47-1.42c-6.86-6.14-7.07-13.13-3.11-20.58-2-1.12-3.87-.25-5.63-.42-3.41-.33-6.15,2.69-9.62,1.8a20.37,20.37,0,0,1,10-3.9c13.37-1.71,26.46,1.11,39.65,2.38.25,0,.43.74.71,1.25-2.16,1.38-4.94-.77-6.63,1.16-3.6,4.13-4.05,9.34-4.55,14.52-.11,1.1,2.23,1.6.64,2.84a2.08,2.08,0,0,1-1.85.31c-1.27-.85-1.22-2.26-.95-3.61.86-4.23,1.58-8.51,2.7-12.67.54-2,.12-2.71-1.81-2.92-3.79-.42-7.57-1.21-11.37-1.32-9.46-.28-14.33,6.62-10.49,14.57a7,7,0,0,0,8.85,3.37c2.51-1,2.21-3.52,2.94-5.44.48-1.26-.21-2-1.54-2.58-3.93-1.8-4-2.3-1-5.58.48-.53-.26-2.48,1.54-1.44a1.42,1.42,0,0,1,.29,2.2c-1.53,1.53-2.12,2.5.68,3.17,1.85.44,2,2.36,1.6,3.72-1,3.33-.65,7.47-5.18,9.12,2.4.64,4.53.83,6.63,1.2,10.11,1.76,20.63,1.44,30.19,6,3,1.43,6.08,2.7,9.17,3.94,1.11.45,2.84,1.53,3.16-.64.76-5.17,4.09-10,2.3-15.5l-.12.12c1-1.95,1.41-3.92-.91-5.13-4.82-2.51-9.37-5.63-15.08-6.16-2-.19-4.59-.31-5.71-2.78a2.37,2.37,0,0,1,2.61-.41c4.22,1.19,8.09,3.63,8.9-4.38.54-5.29,2.59-10.12-.63-15.17a19.65,19.65,0,0,1-1.91-5.13,3.15,3.15,0,0,1,1.4-3.48,2.76,2.76,0,0,1,3.24-.34c2.45,1.33,6,9.69,5.39,12.64-3.81-7.41-4.43-8.26-8-9.62,6.46,7.93,4.33,16.67,2.45,25.38,3.49-3.36,2.83-7.84,4.92-11.39,1.18,4.42-.32,8.34-2.15,12.19-.54,1.14-1.63,2.19.09,3.39s3.24,2.82,5.22,2.51c1.55-.24.85-2.26.93-3.5a297.83,297.83,0,0,0-.86-47.76c-1.5-15.16-5.87-29.64-15.15-42.27A26.62,26.62,0,0,1,67.23,95.2a139.91,139.91,0,0,0-2-23.82c-1.43-7.52,2.18-15.87-3.66-22.63a1,1,0,0,1,.22-.89c4-2,.12-5,.92-7.43,1.82-5.53-4.35-1.37-5.07-4.09.37-.34.67-.86,1-.92,4.79-.82,3.38-4.14,3.28-7.29-.14-4-3-3.51-5.27-3.58-7.32-.23-14.64-.22-22-.17C32.26,24.42,29.67,24.31,27.69,26.28ZM87,230.44c-3.17,3.8-5,7.92-8.34,10.91a2.32,2.32,0,0,0-.52,1.64,14.16,14.16,0,0,0,7,2.08c2.23.16,1.81-1.94,1.84-3.31C87,238.21,87,234.64,87,230.44Zm-9.12-68.75a5.89,5.89,0,0,0-2.05-5.32c-1-.85-1.83-2.16-3.29-1.87s-1.85,2-1.92,3.14c-.24,3.41,2,6.1,3.46,9,.59,1.19,2.54.15,3.1-1A14.62,14.62,0,0,0,77.84,161.69Z"/><path d="M51.85,18.37c-5.46.9-10.91,1.52-16.44.45A34.85,34.85,0,0,1,51.85,18.37Z"/><path d="M44.71,62.58c-.36,2.61,3.07,3.53,2.62,6.5-4.67-2.22-5.26-6-4.47-10.37-2.2.13-2.45,1.57-2.66,2.82-1,5.75-1.74,11.56-.4,17.33.56,2.43.76,5.83,4.62,5.29,3.31-.46,4.08-3.1,3.81-6s1.38-4.84,2.54-7.13c.8,5,.68,9.75-3.09,13.59-2.87,2.92-7,2.16-8.47-1.66-2.87-7.59-2.14-15.37-.46-23.1.32-1.45,1.24-3,2.87-3.15,2.55-.26,4.08,2,5.49,3.49a10,10,0,0,1,2.46,4.13c-2.51.92-3.15-1.53-4.68-2.07A2.19,2.19,0,0,0,44.71,62.58Z"/><path d="M29,179.17c2.61-9.86,4.38-11.52,10.42-9.25-5.54.53-7.25,3.27-7.25,7.86,0,8.42,1.31,10,9.7,9.57a45.14,45.14,0,0,1,11.69.88c-.15,1.82-1.37,1.68-2.23,1.5a35.35,35.35,0,0,0-14.26.38c-4.29.88-6.92-2.9-8.44-5.39a18,18,0,0,1-2.4-13.77Z"/><path d="M60.61,188.66c-1.17-1.79-2.33-4.05.18-5.61,3.29-2,3.31,1.66,4,3.23a6.11,6.11,0,0,0,5,4.19c-3.06-4.59-3-8.77-1.22-13.21,1-2.57-.54-4.41-3.38-4.93-1-.19-2.42.31-3-1.68a6.67,6.67,0,0,1,7.2,1c2.45,2,2.52,5,1.5,7.31-1.56,3.6-.94,6.63.56,9.89.64,1.39,1.76,3.13-.2,4.44-2.2,1.48-3.14-.69-4.58-1.63-2.43-1.59-1.78-4.52-3.27-6.75C60.64,185,63.45,188.51,60.61,188.66Z"/><path d="M19.22,178.82a28.07,28.07,0,0,1-1.45,10.08c-2.15-1.43-.83-3.2-1.51-4.19-1.59-1.22-4.8,2.18-5.58,5.73-2.21-3.77-1.91-14.6,1.08-17.19-1.52,4.1.82,6.54,2.9,8.58C15.73,182.9,17.32,180.66,19.22,178.82Z"/><path d="M62.3,112.86c1.83-.78,2.44-.18,2.94.47A59.75,59.75,0,0,1,76.71,139c.18.95.53,2.22-.75,2.51s-1.52-1-1.68-1.93A62.05,62.05,0,0,0,62.3,112.86Z"/><path d="M59.06,212.52c2.24.9.51,4.16,3.23,3.67,1.85-.33,1.61-2.35,1.89-3.69.61-2.88.93-5.81,1.34-8.54-1.94-1.28-1.91,1.88-3.86.84.65-1.49-.47-4.32,2.6-4,2.24.24,3.61,2.18,3.16,4.81-.56,3.26-.88,6.58-1.63,9.8-.29,1.25.55,3.73-1.54,3.57-1.82-.14-4.24.48-5.56-1.29C57.55,216.14,58.07,214.33,59.06,212.52Z"/><path d="M38.57,129.51c-5.66,3.75-15.92,4.35-20.63,1.24C24.85,130.66,31.72,130,38.57,129.51Z"/><path d="M14,138.23h23V140c-7.64.22-15.26,1.52-22.92-.35Z"/><path d="M58,171.5c-5.51,1-10.9.33-16.25-1.07C47.32,168.42,52.7,169.56,58,171.5Z"/><path d="M53.36,185.31c-2.62,0-5,0-7.42,0-.87,0-1.66-.35-1.55-1.41a4,4,0,0,1,.61-1.25C47.48,184.56,52.08,178.23,53.36,185.31Z"/><path d="M87.56,212.27c-4.21-.49-7.26-3.33-10.62-5.53,4.25.4,8.2,1.4,10.5,5.66Z"/><path d="M78.19,222.91c-.68-3.56.69-6.59,2-9.65A12.08,12.08,0,0,1,78.19,222.91Z"/><path d="M24.67,97c3-1.55,5.93-.81,8.92-.33C30.76,99.35,27.72,98.7,24.67,97Z"/><path d="M83.82,215.24a14.25,14.25,0,0,1-3,10.1C80,220.9,82.8,218.34,83.82,215.24Z"/><path d="M34.42,305.86c-15.18,3.09-18.6,2.84-23-1.48,2.34-1.34,4.27,1.88,6.9.41-3.32-1.76-6.66-3-9.49-5.26-2.68-2.15-1.63-4.2-.44-6,1.85-2.86,2.88.1,4.14,1,6.67,4.68,14.69,4.82,22.2,6.72,1.5.38,3.4-.3,4.41,1.5-.5,1.63-1.78,1.43-2.86,1.15-8.32-2.07-17.18-2.38-24.58-7.45-.79-.54-1.72-1.44-2.4,0-.57,1.18.46,1.82,1.3,2.33a43.51,43.51,0,0,0,18.31,5.91C30.46,304.8,32.14,304.39,34.42,305.86Z"/><path d="M51,289.18c-1.7-.45-2.42-2.65-4.52-1.41s-3.25-.3-4.37-2c-.62-.92,0-3.22-2.15-2.57a4,4,0,0,0-2.5,2.91c-2.09,7.26-5.13,8.87-12,6.5-1.56-.54-3.24-.75-4.82-1.24-8.52-2.66-11.09-7.14-9.32-16.17,1-.28,1,.48,1.13,1.08.68,3.37.07,7.64,3,9.71a29.62,29.62,0,0,0,13.78,5.33c2.51.26,6.49-.7,5.09-5.34-.49-1.61.41-2.11,1.57-2.53,1.92-.7,4.19-3.75,5.62-1.8,2.19,3,5.15,3.52,8,4.76A2.16,2.16,0,0,1,51,289.18Z"/><path d="M70.49,302.29c1.53-2.92,5.05-2.66,6.38-6-10.23,4-19.51,9.76-30.7,8.26,5.16,4,10.48.4,15.71.63-4.59,1.87-9.15,3.68-14.27,2.46-1.42-.34-3.36,0-3.32-2.1a3.29,3.29,0,0,1,3.56-3.41c10.49.6,19.28-4.23,28.24-8.58,1-.47,1.89-1.78,3-.28a2.35,2.35,0,0,1,.09,3.18C76.88,299.07,74.48,301.4,70.49,302.29Z"/><path d="M68.08,270.47c-2.78-1.68-2.27-5.45-6.17-5.78-3.21-.27-5.74-.36-8.31,1.67-2.91,2.29-6.11,4-10,4-1.16,0-2.54.41-3.33-.55-2.61-3.15-5.53-4-9.58-.78,3.25-6.29,4.89-6.7,9-2.68,3.2,3.1,6.26,3,9.71.52,4-2.91,7.67-5.8,13.55-4.23C67.62,263.84,67.88,266.36,68.08,270.47Z"/><path d="M15.09,206.46c.27,2.63.5,5.26.84,7.88.21,1.65-.37,2.41-2,2.68s-2.75-.19-2.92-1.78a111.89,111.89,0,0,1-1-12.81c0-1.91,2.17-3.1,4-3,2.25.11,1.25,2.26,1.43,3.56a25.26,25.26,0,0,1,0,3.47Z"/><path d="M38.14,339.27c-7.36,3.16-23.15.46-29.64-4.91C18.16,337.13,27.91,339.35,38.14,339.27Z"/><path d="M53.45,348.64c-11.67.61-23.3.68-34.61-3C30.37,346.77,42,347.12,53.45,348.64Z"/><path d="M30,277.9c-.12,1.95-1,3.48-3.25,3.41-3-.11-5.69-1.52-6-4.7a3.56,3.56,0,0,1,3.86-3.68C27.44,273.06,29.4,274.78,30,277.9Z"/><path d="M67.55,246.18c3.63,2.4,3.21,5.87,6.3,8.74l-4.06-13.47,1.64-.48c1.5,4.41,3,8.86,3.06,13.67a2.65,2.65,0,0,1-2.33,2.29c-1.26.16-1.65-.85-1.95-1.84Z"/><path d="M50.88,236.73l3.69-.85c-4.29-1.44-4.29-1.44-6.26,1.9-1.52-4.12-.84-5.22,3.27-5a22.84,22.84,0,0,1,5.35.77c1.13.34,3.72-.15,2.84,2.1-.41,1.05-.92,3.77-3.62,2.81C54.65,237.94,52.83,238.53,50.88,236.73Z"/><path d="M73.42,268.74c6-4.58,10.65-9.66,7.87-18.48,2.79,2.33,2.88,3.65,2.22,8C82.6,264.2,78,266.37,73.42,268.74Z"/><path d="M23.12,254.26l-.36-7.8c.77,10.22,9.72,3.33,14.4,6.9-5.08,1.43-9.59.8-14.05.83Z"/><path d="M25.87,327c-6,2.16-11.51.64-16.73-2.68C14.66,325.61,20.27,326.24,25.87,327Z"/><path d="M23.1,254.19c-3.14.8-6,2.67-9.38,2.56-.85,0-1.81-.15-2-1.1-.08-.5.45-1.54.81-1.6,3.51-.52,7.1-3.79,10.55.18C23.12,254.26,23.1,254.19,23.1,254.19Z"/><path d="M27,319.7c-5.58,2.25-10.82,1.1-16.05-.22l.09-1.32Z"/><path d="M58.6,253.44c-6-1.44-12.28,2-18.22-1C46.48,252.54,52.62,250.14,58.6,253.44Z"/><path d="M32,313.72c-6.73,1.54-13.18.49-19.45-2.15C19,312.17,25.45,313.18,32,313.72Z"/><path d="M72.14,347.71c-4.58.52-9,2.24-13.77,1.08l-.15-1.31L72,345.74Z"/><path d="M8,329.15l11.92,2.47-.31,1.55C15.5,332.69,11.26,333,8,329.15Z"/><path d="M34.37,275.2c.51,4.1.82,7.44-4.74,9.11C32.13,281.18,30.74,277.49,34.37,275.2Z"/><path d="M48.49,244.2c4.72-2.21,7,1.36,10,2.73C56,248.15,56,248.15,48.49,244.2Z"/><path d="M38.28,332.89a11.2,11.2,0,0,1-11.61,0Z"/><path d="M60.23,278.48c-1.87-.29-2.74-1.34-2.67-3a2.91,2.91,0,0,1,2.84-2.82c1.85-.17,1.68,1.57,1.93,2.77C62.71,277.22,61.73,278.09,60.23,278.48Z"/><path d="M62.11,244.54c2,2.75.84,5.51,1.08,8.2a1.07,1.07,0,0,1-1.11,1.3c-.93,0-1-.86-1-1.43C61.37,249.91,61.76,247.23,62.11,244.54Z"/></svg>