<svg id="Calque_1" data-name="Calque 1" xmlns="http://www.w3.org/2000/svg" viewBox="0 0 239.2 191.68"><title>bubble-swear</title><path d="M237,86.8C230.62,76,224.78,64.57,219.13,53.56c-2.17-4.23-4.34-8.46-6.54-12.67a10.52,10.52,0,0,0-6.66-5.53c-10.91-3.4-22-7-32.63-10.5l-9.78-3.19-19.74-6.43q-17-5.55-34-11.07c-2.92-.95-5.83-1.81-8.91-2.73L96.46.11,96.11,0l-.34.15-1,.44c-.87.36-1.85.77-2.8,1.27C81.38,7.38,72.75,11.92,64.76,16.15l-.7.37C48,25,31.44,33.8,15.19,42.54a5.86,5.86,0,0,0-2.7,3.77C10.05,59.82,7.62,73.57,5.27,86.86Q2.72,101.22.16,115.59c-.57,3.18.36,5.34,3,7q11.29,7.07,22.54,14.19c9.13,5.76,18.56,11.71,27.87,17.52a15.45,15.45,0,0,0,6,2.07c3.69.51,7.44.95,11.07,1.37,4.29.5,8.73,1,13.06,1.65s8.57,1.38,12.75,2.11,8.46,1.48,12.72,2.1c2.21.32,2.75,1,2.52,3.1-.78,7.13-1.59,14.51-6.61,20.46a3.48,3.48,0,0,0-.53,2.43,7.12,7.12,0,0,1,0,.81l-.12,1.29,1.28-.21a6.51,6.51,0,0,1,.75-.06,3.26,3.26,0,0,0,2.3-.69c7.93-8,14.92-15.36,20.2-24.31a5.21,5.21,0,0,1,4.26-2.75c10.81-1.73,20.48-3.42,29.55-5.14,11.91-2.26,23-4.51,33.78-6.88a10.09,10.09,0,0,0,5.68-3.5c4.31-5.93,8.62-12,12.79-17.88,6.69-9.43,13.61-19.18,20.68-28.56C239.48,96.63,240.65,93.11,237,86.8ZM115.33,175.29a92.07,92.07,0,0,0,1.16-9.6c.29-5.82-.93-6.21-6.21-6.95-4.49-.63-9-1.39-13.44-2.12s-9-1.51-13.53-2.14-9.25-1.12-13.77-1.58c-2.92-.3-5.93-.61-8.88-1a8.45,8.45,0,0,1-3.4-1.07q-11.58-7.26-23.12-14.58l-15.21-9.61c-1.51-1-3-1.87-4.57-2.78-2.5-1.49-5.08-3-7.49-4.7a4.49,4.49,0,0,1-1.79-3c3.83-22.3,7.85-44.71,12-66.63a6.43,6.43,0,0,1,2.83-3.82C35.63,37,51.5,28.51,66.3,20.6c8-4.26,17.42-9.27,27.22-14.16a8.64,8.64,0,0,1,3.69-.87,5,5,0,0,1,1.48.2c21,6.62,42.44,13.59,61.32,19.74,13.4,4.37,28.6,9.31,43.39,14.38a9.1,9.1,0,0,1,4.77,3.59c7.7,14.14,16,29.79,26.13,49.26a3.76,3.76,0,0,1-.45,2.93c-6.4,9-13,18.16-19.39,27l-5.53,7.65c-1,1.35-1.93,2.7-2.89,4.06-2.31,3.26-4.69,6.63-7.22,9.79a8.55,8.55,0,0,1-4.47,2.92c-24.88,4.93-43.94,8.55-61.81,11.75-3.9.7-6,2.68-7.94,5.44-2.57,3.65-5.32,7.27-8,10.77L115,177.1Z"/><path d="M184.42,135.56c1,0,2,.08,2.82.08,2.37,0,4-.26,5.11-1.27,1.5-1.38,1.6-3.8,1.77-8.19.19-4.76-.67-5.71-5.42-5.95l-1.52-.07a130.42,130.42,0,0,1-14-1.19c-7.27-1.16-12.59-4.7-15.8-10.52-5.78-10.46-5.41-21.55,1.17-34.91a18.61,18.61,0,0,1,6.64-7.09c7.38-4.56,23.64-2.11,29.5,4.44,6.39,7.15,9.19,16.23,8.8,28.58a2.54,2.54,0,0,1-.66,1.95,1.6,1.6,0,0,1-1.07.23v-.16a10.55,10.55,0,0,1,0-1.8,32.55,32.55,0,0,0-2.88-19.52,19.81,19.81,0,0,0-12.75-10.1,18.86,18.86,0,0,0-15.33,2c-5.31,3.5-9.21,10-10.68,17.9s-.18,15.46,3.41,20.51c4.76,6.7,15.07,11.31,23.4,7.08a11.42,11.42,0,0,1,10.35-.36A14.78,14.78,0,0,0,211,116,17.06,17.06,0,0,0,218.78,103l.11-1.88a77.58,77.58,0,0,0,.06-12.47c-1.58-15.21-7.33-26-17.57-33.1C187,45.63,161.18,45.42,147.26,61c-14.81,16.58-14.63,44.31.39,61.81C157.6,134.4,171.85,135,184.42,135.56ZM214.35,96.7a35.12,35.12,0,0,1,0,3.72c-.42,5-2.53,9-5.93,11s-7.65,2.13-12.17.28c-3.27-1.34-6.06-1.71-9.8.63a12.81,12.81,0,0,1-10.11,1.49,14.67,14.67,0,0,1-9.07-7.14,23.62,23.62,0,0,1,5.18-29.42c2.44-2.19,6.82-3.22,11.17-2.64,4.15.56,7.56,2.47,9.35,5.25A25.06,25.06,0,0,1,197,97.76c0,.3-.12.59-.19.88a9.26,9.26,0,0,0-.26,1.38c0,.24,0,.48-.07.72-.16,1.58-.35,3.37.72,4.67a4.72,4.72,0,0,0,3.41,1.5c4.58.42,6.9-1.36,7.53-5.78,1-7,0-14.16-3.3-23.21-2.81-7.75-7.53-12.92-14-15.37-10.36-3.9-21.34-6.35-31.44,2A20.77,20.77,0,0,0,154,71.29c-6.31,12.91-7.39,24-3.38,34.77,3.9,10.52,12,16.59,24,18.05,1.88.23,3.8.4,5.65.57,2.42.22,4.93.44,7.36.8a3.32,3.32,0,0,1,1.63,1.26,10.84,10.84,0,0,1-1.17,3.33l-.32.68h-.28l-1.28,0c-11.42-.39-23.23-.79-32.39-8.77-7.06-6.15-11.08-14.81-12.66-27.25A38.24,38.24,0,0,1,149,66.47a33.69,33.69,0,0,1,22.68-13,53.09,53.09,0,0,1,6.09-.36c14.37,0,25,6.52,31.6,19.43a45.06,45.06,0,0,1,5,22.31v0C214.32,95.5,214.33,96.1,214.35,96.7Z"/><path d="M80.29,63.61c-.91,0-1.5-.15-1.72-.44s-.32-.8,0-2.19c.42-1.58.79-3.18,1.16-4.77.5-2.13,1-4.33,1.63-6.46a4,4,0,0,0-.14-3.23,3.25,3.25,0,0,0-2.34-1.36c-3.34-.58-6.75-1.1-10-1.6l-1.06-.16c-2.79-.42-4.55.85-5.07,3.68-.29,1.58-.66,3.18-1,4.74-.46,2-.94,4.17-1.28,6.29a3.48,3.48,0,0,1-1.08,2.38,3.08,3.08,0,0,1-2.33.27,21.58,21.58,0,0,0-3.13-.27,2.52,2.52,0,0,1-1.93-.6,3.06,3.06,0,0,1-.14-2.39c.29-1.4.5-2.83.71-4.21.26-1.77.54-3.6,1-5.33a4.59,4.59,0,0,0-.42-3.86c-.72-1-2-1.6-3.85-1.79-2.12-.21-4.27-.31-6.34-.41-1.59-.08-3.23-.15-4.84-.28-2.85-.22-4.28,1-4.64,4a33,33,0,0,1-.85,4.06,29.2,29.2,0,0,0-1,5.16c-.1,1.56-.48,2.57-1.11,3s-1.74.44-3.32,0a4.29,4.29,0,0,0-3.76.27c-1,.68-1.53,1.89-1.66,3.72-.09,1.18-.17,2.37-.25,3.56-.17,2.63-.35,5.34-.66,8-.17,1.48-.24,3.6,1,4.93.92,1,2.36,1.34,4.38,1.17a2.12,2.12,0,0,1,1.66.35c.4.4.54,1.29.43,2.73A2,2,0,0,1,28,83.74c-.27.22-1.06.12-1.81,0l-.32,0c-4.77-.6-6.54.69-7.32,5.29a38.45,38.45,0,0,0-.68,9.12,5.9,5.9,0,0,0,3.6,4.31c4.4,1.43,4.4,1.43,3.54,5.83-.1.51-.23,1-.37,1.51-.09.33-.18.66-.25,1a4.9,4.9,0,0,0,.44,4,4.57,4.57,0,0,0,3.32,1.79l5.48.75c2,.27,4,.54,6,.83a4.43,4.43,0,0,0,3.57-.71A4.55,4.55,0,0,0,44.69,114c.13-1.83.37-3.65.63-5.59.08-.58.16-1.17.23-1.77l4.73.39-.07.88c-.09,1.18-.18,2.25-.3,3.31-.17,1.48-.36,2.73-.54,3.83-.46,2.88-.73,4.62.32,6,1.27,1.62,3.92,2,10.63,2.55q.39,0,.76,0c2.55,0,4-1.24,4.49-3.87.18-.91.38-1.82.59-2.72a47.35,47.35,0,0,0,1-5c.19-1.64.62-2.67,1.33-3.15a3.91,3.91,0,0,1,3.14-.11c2.85.75,5-.52,6.06-3.57.37-1.07.72-2.15,1.06-3.24,2.7-8.72,2.52-9.55-5.29-12.41.21-1.61.4-2.74.74-3.06s1.59-.25,3.46-.14l.32,0a4.42,4.42,0,0,0,3.77-2.75c.93-3.63,1.66-7.35,2.37-11q.3-1.5.59-3c.41-2,.19-3.54-.66-4.58A4.5,4.5,0,0,0,80.29,63.61ZM68.94,86.92a10.93,10.93,0,0,1-.21,1.7c-.29,1.26-.55,3.08.49,4.38.75.94,2,1.4,3.82,1.4h0c1.26,0,2.11.25,2.4.71s.16,1.29-.34,2.39a18.61,18.61,0,0,0-1,3c-.1.36-.19.72-.3,1.08-.59,2-1.6,2.63-3.59,2.15a6,6,0,0,0-5,.55c-1.3.9-2.07,2.46-2.35,4.77a30.42,30.42,0,0,1-.86,4c-.28,1.06-.57,2.16-.76,3.27-.46,2.6-1.57,2.53-4,2.12a15.17,15.17,0,0,0-1.75-.22,1.91,1.91,0,0,1-1.4-.46c-.41-.5-.24-1.68-.08-2.71l.07-.46c.32-2.32.75-4.67,1.17-6.94l.14-.76a4.17,4.17,0,0,0-.62-3.58,4,4,0,0,0-3.23-1.21h0c-1.11,0-2.2-.09-3.29-.18l-.38,0c-3.19-.27-4.79-.4-5.9.54s-1.26,2.63-1.53,6l-.06.7c-.07.77-.13,1.56-.15,2.36a2.45,2.45,0,0,1-.55,1.79,3,3,0,0,1-2.18.09,26.24,26.24,0,0,0-3-.45c-1.89-.21-3.84-.43-4.55-1.3s-.39-3.09-.11-5c.12-.83.24-1.68.3-2.47.09-1.32.08-3.21-1.07-4.45a4.32,4.32,0,0,0-3.3-1.21h-.07A3.48,3.48,0,0,1,23,97.52c-.54-.62-.69-1.73-.46-3.37.15-1,.27-2.15.37-3.41a2.66,2.66,0,0,1,.68-1.88,3,3,0,0,1,2.15-.3c3,.36,4.84.58,6-.39s1.31-2.65,1.6-6c0-.19,0-.39,0-.59a8.58,8.58,0,0,1,.12-1.17c.36-1.81.14-3.21-.68-4.15A4.53,4.53,0,0,0,29,75c-1.42.08-2.39-.15-2.87-.68a3.44,3.44,0,0,1-.36-2.83,16.12,16.12,0,0,0,.14-2.91,18.88,18.88,0,0,1,0-2c.17-1.84.31-3.29.74-3.64s1.92-.27,3.81-.16a4,4,0,0,0,3.41-.11c1.45-.85,1.93-2.69,2.23-4.54.14-.84.27-1.69.4-2.54A73,73,0,0,1,38,47.9a3.22,3.22,0,0,1,2.06-1.58c4.06-.27,6.58-.24,7.48.73s.72,3.35.16,7.19c-.73,5-1.09,7.44.19,9.06s3.8,1.85,8.83,2.32l.61,0a5.08,5.08,0,0,1,1.36.19,4.49,4.49,0,0,0,3.93,0c1.4-.83,1.84-2.62,2.07-4.09.33-2.15.8-4.33,1.25-6.44.37-1.73.75-3.52,1.06-5.3s.77-2,2.44-1.8l.2,0c3.17.42,5.08.67,5.59,1.37s.17,2.71-.43,6c-.28,1.53-.59,3.06-.9,4.58q-.24,1.19-.48,2.37c-.41,2-.19,3.5.65,4.48s2.06,1.33,3.86,1.24c1,0,1.61.09,1.84.38s.21,1-.09,2a65.16,65.16,0,0,0-1.85,8.93,2.58,2.58,0,0,1-.8,1.72,2,2,0,0,1-1.56.08c-1.94-.49-3.41-.35-4.51.45C69.39,83,69.05,85.18,68.94,86.92Z"/><path d="M111.09,104.63l.22,0c.74.06,1.47.13,2.21.21a25.43,25.43,0,0,0,2.71.17c4.41,0,5.33-1.91,6.4-7.27,3.68-18.47,7.53-37.06,11.44-55.26.44-2,.31-3.42-.41-4.44a4.69,4.69,0,0,0-3.52-1.7l-29.41-3.59h-.07c-1.73,0-2.91.13-3.68,1s-.79,2-.62,4l.44,5.36c1.41,17.19,2.86,35,4.58,52.43C102.17,103.66,103.08,104,111.09,104.63Zm-9.23-65.87c.75-.7,3.09-.5,6.63-.2,5.58.47,11.3,1.07,17.47,1.82,1.26.15,2.58.37,2.88.78s0,1.84-.28,3.36c-3.89,18.44-7.38,35.33-10.65,51.64-.38,1.9-.66,3.28-1.16,3.67s-1.92.28-3.86.08h-.11c-3.16-.32-4.9-.5-5.65-1.19s-.92-2.24-1.23-5.2c-1.2-11.4-2.32-23-3.41-34.23q-.67-6.89-1.34-13.78C101.12,41.75,101.1,39.47,101.86,38.77Z"/><path d="M121.61,121.66c.21-6.21-4-10.28-11-10.61a11.79,11.79,0,0,0-12.64,11.57,11,11,0,0,0,2.82,8.15,12.53,12.53,0,0,0,8.89,3.81h.55a10.7,10.7,0,0,0,7.46-2.75C120.09,129.57,121.46,126,121.61,121.66Zm-11.5,8.08h-.05a7.64,7.64,0,0,1-5.52-2.16,6.23,6.23,0,0,1-1.71-4.61,7.13,7.13,0,0,1,7.54-7.09,6.48,6.48,0,0,1,4.57,1.87,6.22,6.22,0,0,1,1.83,4.49,8,8,0,0,1-2.05,5.34A6.21,6.21,0,0,1,110.11,129.75Z"/><path d="M180.72,81.76c-4.33.21-7.12,2.35-8.07,6.2-.42,1.69-.72,3.43-1,5.11-.13.75-.26,1.5-.4,2.25l0,.15c-.22,6.49,2.64,10,8.76,10.84a10.85,10.85,0,0,0,1.43.1,8.05,8.05,0,0,0,5-1.62,9.86,9.86,0,0,0,3.42-6.84A29.18,29.18,0,0,0,189,87.7C188.07,83.77,185,81.55,180.72,81.76Zm4.08,16.12c-.14,1.49-.9,3.94-4.25,3.63-2.56-.23-3.91-1.68-4.25-4.56a10.94,10.94,0,0,1,0-1.49c0-.37,0-.79,0-1.31,0-.32.07-.7.1-1.12a7.13,7.13,0,0,1,.67-3.15c1-1.57,2.69-3,3.68-3h0a5.09,5.09,0,0,1,3.62,2.56A22.48,22.48,0,0,1,184.8,97.88Z"/><path d="M59.21,82.44c0-.07-.09-.2-.16-.35-.42-1-1.12-2.57-2.45-2.87a41.31,41.31,0,0,0-8.86-.66H47.1c-1.19,0-2.33,1.25-2.77,2-1.87,3.37-1.49,5.61-.84,6.89s2.21,2.91,6,3.4l.37,0c.23,0,.47.05.7.1a24.15,24.15,0,0,0,4.1.53,4.08,4.08,0,0,0,2.62-.75c1.48-1.15,1.78-3.36,2.08-7.79V82.7Zm-5.3,3.09a2,2,0,0,1-1.21.86A24.94,24.94,0,0,1,48.86,86L48,85.9l.25-.56A8.25,8.25,0,0,1,49,83.78a15.1,15.1,0,0,1,5,.39A3.82,3.82,0,0,1,53.91,85.53Z"/></svg>