<svg id="Calque_1" data-name="Calque 1" xmlns="http://www.w3.org/2000/svg" viewBox="0 0 239.2 191.68"><title>bubble</title><path d="M237,86.8C230.62,76,224.78,64.57,219.13,53.56c-2.17-4.23-4.34-8.46-6.54-12.67a10.52,10.52,0,0,0-6.66-5.53c-10.91-3.4-22-7-32.63-10.5l-9.78-3.19-19.74-6.43q-17-5.55-34-11.07c-2.92-.95-5.83-1.81-8.91-2.73L96.46.11,96.11,0l-.34.15-1,.44c-.87.36-1.85.77-2.8,1.27C81.38,7.38,72.75,11.92,64.76,16.15l-.7.37C48,25,31.44,33.8,15.19,42.54a5.86,5.86,0,0,0-2.7,3.77C10.05,59.82,7.62,73.57,5.27,86.86Q2.72,101.22.16,115.59c-.57,3.18.36,5.34,3,7q11.29,7.07,22.54,14.19c9.13,5.76,18.56,11.71,27.87,17.52a15.45,15.45,0,0,0,6,2.07c3.69.51,7.44.95,11.07,1.37,4.29.5,8.73,1,13.06,1.65s8.57,1.38,12.75,2.11,8.46,1.48,12.72,2.1c2.21.32,2.75,1,2.52,3.1-.78,7.13-1.59,14.51-6.61,20.46a3.48,3.48,0,0,0-.53,2.43,7.12,7.12,0,0,1,0,.81l-.12,1.29,1.28-.21a6.51,6.51,0,0,1,.75-.06,3.26,3.26,0,0,0,2.3-.69c7.93-8,14.92-15.36,20.2-24.31a5.21,5.21,0,0,1,4.26-2.75c10.81-1.73,20.48-3.42,29.55-5.14,11.91-2.26,23-4.51,33.78-6.88a10.09,10.09,0,0,0,5.68-3.5c4.31-5.93,8.62-12,12.79-17.88,6.69-9.43,13.61-19.18,20.68-28.56C239.48,96.63,240.65,93.11,237,86.8ZM115.33,175.29a92.07,92.07,0,0,0,1.16-9.6c.29-5.82-.93-6.21-6.21-6.95-4.49-.63-9-1.39-13.44-2.12s-9-1.51-13.53-2.14-9.25-1.12-13.77-1.58c-2.92-.3-5.93-.61-8.88-1a8.45,8.45,0,0,1-3.4-1.07q-11.58-7.26-23.12-14.58l-15.21-9.61c-1.51-1-3-1.87-4.57-2.78-2.5-1.49-5.08-3-7.49-4.7a4.49,4.49,0,0,1-1.79-3c3.83-22.3,7.85-44.71,12-66.63a6.43,6.43,0,0,1,2.83-3.82C35.63,37,51.5,28.51,66.3,20.6c8-4.26,17.42-9.27,27.22-14.16a8.64,8.64,0,0,1,3.69-.87,5,5,0,0,1,1.48.2c21,6.62,42.44,13.59,61.32,19.74,13.4,4.37,28.6,9.31,43.39,14.38a9.1,9.1,0,0,1,4.77,3.59c7.7,14.14,16,29.79,26.13,49.26a3.76,3.76,0,0,1-.45,2.93c-6.4,9-13,18.16-19.39,27l-5.53,7.65c-1,1.35-1.93,2.7-2.89,4.06-2.31,3.26-4.69,6.63-7.22,9.79a8.55,8.55,0,0,1-4.47,2.92c-24.88,4.93-43.94,8.55-61.81,11.75-3.9.7-6,2.68-7.94,5.44-2.57,3.65-5.32,7.27-8,10.77L115,177.1Z"/></svg>