<svg id="Calque_1" data-name="Calque 1" xmlns="http://www.w3.org/2000/svg" viewBox="0 0 326.39 330.92"><defs><style>.cls-1{fill:#0cf;}</style></defs><title>butterfly2</title><path d="M240.95,242.44c1.07,2.58,2,5.2,3.23,7.73,1.52,3.23,2.69,6.18.8,9.9-2.53,5-7.63,6-11.5,2-2.06-2.12-4.64-3.71-6.83-5.72-3.27-3-6.22-6.38-9.67-9.14a5.85,5.85,0,0,0-5.05-.38c-1.21.53-2.27,2.52-2.48,4-.37,2.56.28,5.27-.08,7.84-.46,3.23-1.53,6.37-2.32,9.56-.71,2.87-1.42,5.74-2.09,8.62-.52,2.27-1,4.56-1.46,6.84-1,4.68-2.21,9.33-2.92,14.06-1.52,10.05-4.61,19.18-13.07,25.71-1.32,1-1.94,2.92-3.24,4-4.15,3.34-8.92,4.43-14,2.59-7.72-2.79-15.42-5.64-23-8.76-6.29-2.58-13-4.7-18.47-8.58-9.81-7-18.79-15.19-28.14-22.85-5.64-4.62-11.72-9-14.73-15.84a39.77,39.77,0,0,1-3.06-13.87c-.35-7,.25-14.07.55-21.1.12-2.78-2.23-6.23-4.74-5.56-5.94,1.59-10.86-.41-15.35-3.63-5.4-3.87-10.52-8.16-15.57-12.5-3.55-3.05-7.24-6.12-10.05-9.81Q23.55,189,10.06,170c-6.69-9.45-11.23-19.84-9.79-31.8.53-4.41.82-9.42,6.3-11.33a2.59,2.59,0,0,0,1.28-1.32c2.88-6.45,8.47-8.64,14.88-9.64,5.24-.82,10.44-2.21,15.7-2.48a139,139,0,0,1,19.07.52c12.07,1,24.15,2.2,36.14,3.86,4.58.63,8.88,3.12,13.44,4.18,7.17,1.67,13.88,4.07,19.92,8.47,2.85,2.08,6.55,3,9.67,4.74a117.87,117.87,0,0,1,13.17,8.22c4.23,3.2,7.82,4,11.81,1.61,5.61-3.43,7-6.06,5.2-11.94s-4.18-11.69-6.1-17.58c-1.85-5.66-3.52-11.38-5.09-17.12a14.29,14.29,0,0,1-.11-4.79c.63-7.66-1.07-15.66,3.41-22.78a5.9,5.9,0,0,0,.92-3.57c-1-8.3,3-15.08,7-21.5,6.23-9.83,12.42-19.93,20.21-28.47,6.73-7.38,15-13.86,25.1-16.74,3.45-1,6.37-.72,9.45,2.22C226.1,7,231.67,10,236.43,14c3.47,2.88,6.45,6.37,9.59,9.64.85.88,1.37,2.09,2.26,2.93,5.8,5.43,8.56,12.66,11.77,19.63,1.61,3.51,3.32,7,4.68,10.6,1.08,2.87,1.7,5.92,2.5,8.89,1.51,5.63,2.91,11.29,4.51,16.89,1.1,3.86,2.7,7.6,3.57,11.51.37,1.67-.44,3.66-.93,5.45-1.06,3.88-2.45,7.69-3.25,11.62-.17.84,1.38,2.53,2.5,3,6.34,2.89,12.88,5.37,19.17,8.36a47.27,47.27,0,0,1,8.34,5.6c5.26,4.08,11.11,7.47,14.59,13.6,2,3.6,5.11,6.61,7.29,10.16a13.52,13.52,0,0,1,1.77,6.33c.43,11.56.6,23.14.94,34.71.15,5.32.82,10.64.65,15.94a121.45,121.45,0,0,1-1.75,16.61c-1.13,6.56-2.77,13-4.25,19.54-1.7,7.47-6.36,11-14,10.77-8.23-.22-16.47-.3-24.7-.51-13.7-.35-25.82-5.73-37.63-12-.76-.41-1.49-.87-2.23-1.31Zm-71.19-45c3.7.84,5.74-.84,6-3.23.11-1.19-2.26-3-3.84-3.87a12.21,12.21,0,0,0-5-1.24c-13.51-1.07-27-2.21-40.53-3-8.46-.49-17-.74-25.43-.4-5.21.21-10.37,1.7-15.53,2.7-3.65.7-7.24,1.83-10.91,2.26-7.8.9-15.69,1.17-23.45,2.32-3.22.48-7.83,1.1-8.29,5-.25,2.15,2.45,5.16,4.53,7,6.38,5.54,12.77,11.18,19.8,15.8,4.54,3,10.14,4.77,15.68,1,1-.68,2.63-.4,4-.65s3-.17,3.72-1c2.29-2.71,5.31-2.52,8.29-2.86a17.76,17.76,0,0,0,4-1c14.44-5.21,28.85-10.54,43.35-15.6,2.36-.82,5.16-.32,7.72-.68C159.29,199.15,164.88,198.2,169.75,197.42ZM191.44,128a88.61,88.61,0,0,0,.09,9.17c.17,1.53,1.21,3,1.86,4.45,1.34-.93,3.17-1.56,3.93-2.83,2.21-3.73,3.83-7.8,6-11.57,4.21-7.43,8.66-14.73,12.91-22.14,1.39-2.42,2.14-5.25,3.74-7.5,2.6-3.64,5.59-7,8.53-10.39,6.77-7.84,13.78-15.46,22.76-20.87,5-3,6.1-4.93,3.93-10.3-2.78-6.88-6-13.6-9.11-20.32-1.08-2.31-3.42-3.63-5.58-2.28a76.7,76.7,0,0,0-13,9.6,95.58,95.58,0,0,0-11,13.56c-3.78,5.36-7.68,10.78-10.39,16.69-3.5,7.62-5.78,15.8-8.77,23.67C193.35,107.22,190.81,117.76,191.44,128ZM9.12,142.3c-.31.14,2,8.72,3.93,12.65a5.69,5.69,0,0,0,4.23,2.45,100.88,100.88,0,0,0,11.24-.62c5.82-.44,11.65-.77,17.45-1.42,5.39-.6,10.72-1.89,16.11-2.18,2.78-.15,5.63,1.24,8.46,1.86,3.15.69,6.32,1.27,9.47,2,4.84,1.06,9.62,2.4,14.5,3.2,8.44,1.37,16.91,2.5,25.4,3.53a57.13,57.13,0,0,0,9.54.2c1.39-.07,2.74-.9,4.11-1.39-.7-1.18-1.11-2.79-2.14-3.48-4.6-3.11-9.07-6.63-15.1-6.6a5.74,5.74,0,0,1-2.69-1.15c-3.84-2.39-8.54-3.46-11.25-7.6a4.75,4.75,0,0,0-2.6-1.31c-7-2-14-3.94-21-5.78-2.72-.71-5.53-1.08-8.3-1.58-2.42-.43-4.88-.72-7.27-1.26-3.24-.73-6.39-2.18-9.65-2.4-11.23-.74-22.48-1.05-33.72-1.59-5.52-.26-8.06,1.32-9.7,6.65A43.66,43.66,0,0,0,9.12,142.3ZM264.68,93.74c-.88-4.7-1.63-10.5-3.13-16.11-1.23-4.61-3.73-5.2-7.67-2.37-1.71,1.22-3.15,2.8-4.77,4.15-5.75,4.78-12.41,8.82-13.65,17.2a2.83,2.83,0,0,1-1.06,1.44,69.08,69.08,0,0,0-15.35,18.64c-4.1,7.19-7.31,14.9-11.56,22-6,10.07-8.85,21.22-12,32.28-.34,1.19.47,2.72.74,4.09,1.49-.54,3.51-.64,4.38-1.69,3.13-3.8,5.66-8.09,8.8-11.87,6.81-8.17,12.82-17.06,21.59-23.46,5.18-3.79,10-8.05,15.18-11.87,2.78-2.05,6.28-3.21,8.82-5.48C262.66,113.83,264.59,104.55,264.68,93.74ZM120.25,292.92c.89,1.71,1.39,4,2.81,5.13a181.75,181.75,0,0,0,15,10.31c.93.58,3.13.17,4.09-.6,2-1.57,3.32-3.89,5.23-5.55,4.56-4,6.95-9.17,9-14.61s3.31-11.52,6.64-16.05c3.5-4.76,2.81-9.48,3.1-14.43a54.7,54.7,0,0,1,.6-6.27c.25-1.43,1.15-2.76,1.38-4.19,1.27-7.86,2.43-15.74,3.61-23.62.37-2.45-.3-3.29-3.09-2.89-4.88.69-5.68,5.84-9.58,7.93-4.58,2.45-8.17,6.89-11.91,10.73-3.43,3.52-7.4,6.94-9.53,11.2-5.11,10.2-9.36,20.83-13.76,31.36C122.44,284.89,121.58,288.67,120.25,292.92ZM111.11,286c1.42-1.39,2.91-2.24,3.45-3.49,1.81-4.22,3.06-8.68,4.93-12.86,4-8.92,7.92-17.9,12.56-26.49,2.06-3.81,6-6.54,8.71-10.05,4.08-5.3,7.82-10.88,11.74-16.31.42-.58,1.16-.91,1.63-1.46.87-1,1.65-2.12,2.47-3.19-1.22-.61-2.49-1.82-3.66-1.73-4.81.39-9.61,1.08-14.38,1.86a24.38,24.38,0,0,0-6,1.77c-5.48,2.46-10.87,5.11-16.29,7.7-4.88,2.33-9.65,5-14.68,6.92-4.41,1.72-6.41,3.64-6.57,8.23s-.26,9.17-.27,13.75a17.94,17.94,0,0,0,.52,5.19c1.49,4.92,3.57,9.67,4.77,14.65C101.62,277.14,105.62,281.79,111.11,286ZM216.4,184.44c2.85-1.44,5.05-3.1,7.51-3.7,9.61-2.32,19.27-4.41,29-6.34,3.14-.63,6.46-.28,9.65-.77,4.5-.69,8.91-2,13.42-2.57a96.12,96.12,0,0,1,34.15,1.49c.78.18,2.64-.92,2.65-1.45.09-4.34.41-8.81-.46-13-.59-2.83-2.44-6.14-4.76-7.69-3-2-6.93-2.85-10.59-3.44a49.42,49.42,0,0,0-26,3.08c-8.37,3.27-16.4,7.43-24.54,11.27a111.56,111.56,0,0,0-10.23,5.22A102.65,102.65,0,0,0,225.32,174C222,176.67,217,177.91,216.4,184.44Zm3.76,11.36,0,1.34c1.27.6,2.49,1.54,3.83,1.75,5.39.83,10.8,1.65,16.23,2.08,8.41.67,16.84,1.26,25.27,1.47,14.57.35,29.14.4,43.71.53,2.61,0,4-1.27,4.54-3.95,1.45-7.68-1.94-13-9.71-13.4-11.14-.51-22.31-.36-33.47-.15-6.58.12-13.32.13-19.68,1.56C240.53,189.38,230.4,192.83,220.16,195.81Zm4.66,12.51-.44,1.62c2.15,3.59,5.93,4.91,9.66,6.05,10,3.06,20,5.94,30,8.9,6.54,1.94,13,4.31,19.63,5.75,8,1.72,16.12,2.52,24.15,3.95,4.14.73,8.38-1.21,8.8-4.72a110.15,110.15,0,0,0,.8-11.15c.08-4.16-3.74-6.78-7.88-6.71q-20.18.34-40.37,0c-6.34-.09-12.67-.76-19-1.27-3.34-.27-6.66-.8-10-1.12C235,209.16,229.92,208.75,224.82,208.32ZM129.93,176.1l0-1.88c-9.51-1.81-19-3.77-28.53-5.38a155.22,155.22,0,0,0-17.26-2c-7-.39-14.09-.18-21.14-.39-2.19-.06-4.37-.93-6.56-.94-7.56,0-15.12.08-22.68.26a46.44,46.44,0,0,0-8.53.85c-2.31.49-3.89,1.93-2,4.56,3.22,4.56,6.33,9.2,9.74,13.61a5.43,5.43,0,0,0,3.95,1.79,35,35,0,0,0,9.72-1.39c5.83-2,11.44-4.59,17.19-6.83a12.07,12.07,0,0,1,4.23-.85c5.42,0,10.84.24,16.25.17q16-.23,32-.75C120.83,176.83,125.38,176.4,129.93,176.1Zm57.9-87.94c1-1.24,2.06-2,2.45-3.07,1.73-4.63,2.85-9.54,5-14a149.56,149.56,0,0,1,9.37-16.25c2.12-3.27,5.2-5.92,7.34-9.19a76.32,76.32,0,0,1,16.86-18.17c4.17-3.28,3.73-6.18-1.16-8.57a47.8,47.8,0,0,1-6.58-3.43c-3.78-2.65-8-2.05-10.43,1.89-4.55,7.42-9.22,14.78-13.47,22.37-2.9,5.18-5.77,10.51-7.56,16.13s-2.43,11.85-3.33,17.84C185.59,78.34,184.43,83.07,187.83,88.16ZM217,166.52l.66.52a15.64,15.64,0,0,1,2.31-1.83c5.2-2.75,10.52-5.28,15.64-8.15,6.69-3.75,13-8.24,19.92-11.5a145.3,145.3,0,0,1,21.24-7.71c4.46-1.3,9.29-1.29,13.9-2.15,1.43-.27,2.68-1.47,4-2.24-.72-1-1.21-2.55-2.2-3-6.69-3.21-13.47-6.25-20.28-9.21a3.83,3.83,0,0,0-2.84.43c-6.53,3.49-13.23,6.75-19.44,10.76-4.61,3-8.67,6.87-12.77,10.58A191.61,191.61,0,0,0,223,156.68C220.43,159.49,218.92,163.21,217,166.52Zm-35.88,80-1.32-.12a32.8,32.8,0,0,0-1,4.58,101.88,101.88,0,0,1-6.8,28.75c-1.3,3.34-3.84,6.49-4.1,9.86s-2,5.22-3.79,7.46c-3.27,4.12-6.52,8.28-9.51,12.61-.5.73-.08,3.08.61,3.48a132.88,132.88,0,0,0,13.19,6.74c2.5,1.09,4.87.62,5.85-2.62s1.46-6.86,5.23-8.48c.45-.19.55-1.33.71-2.06,1.28-5.88,2.35-11.82,3.85-17.64,2.23-8.64,1.41-17.34.57-26C184,257.58,182.27,252.1,181.07,246.57Zm12-222.43-1.3-.67c-1.59,1.28-3.53,2.31-4.72,3.89-3.92,5.24-7.94,10.36-10.79,16.39-2.36,5-5.78,9.36-6.74,15.14-1.41,8.54-3.46,17-5.51,25.4-2.18,9-2.46,17.71,2,26.1a10.16,10.16,0,0,0,1.94,2c.68-.78,1.7-1.46,2-2.37a39.93,39.93,0,0,0,2-7.87c.55-5,.44-10.16,1.13-15.18.84-6.12,2.23-12.16,3.39-18.23.81-4.26,1-8.8,2.6-12.71,3.85-9.09,8.47-17.86,12.66-26.81A27.81,27.81,0,0,0,193.06,24.14ZM238.62,224l-.81,1.72c2.9,2.41,5.45,5.63,8.77,7.1,10.54,4.66,20.17,11.16,32.73,11.4,9.16.17,18.3,1.82,27.47,0A8.6,8.6,0,0,0,309,243c-.62-.68-1.13-1.78-1.87-2a57.43,57.43,0,0,0-8.4-1.65A168.65,168.65,0,0,1,253.47,228C248.75,226.14,243.58,225.32,238.62,224Zm-41.48,38.83c.82-1,1.16-1.26,1.26-1.59,3.18-9.81,2.67-19.86,1-29.74-.54-3.2-3.69-6-5.65-8.92l-1.38.58C192,236.39,192.15,249.55,197.14,262.84ZM121.2,140.16c-4.88-6.79-23.54-13.42-29.81-11.15C101,133,109.5,139.56,121.2,140.16Zm56.73-17.82c3.16-4.95,4.59-10,3.27-15.61-.24-1-1.39-2.5-2.19-2.54s-2.13,1.14-2.68,2.11C173.24,111.74,172.76,117.08,177.93,122.34Zm5.42,27.87c.11-.06.31-.12.31-.18-.06-5.44-.1-10.88-.29-16.31,0-.32-1.2-.84-1.82-.82a2.35,2.35,0,0,0-1.72,1C177.23,138.52,179.13,147.09,183.36,150.22Z" transform="translate(0 0)"/><path class="cls-1" d="M169.75,197.42c-4.87.77-10.46,1.73-16.07,2.52-2.56.36-5.36-.14-7.72.68-14.5,5.06-28.9,10.39-43.35,15.6a17.76,17.76,0,0,1-4,1c-3,.34-6,.15-8.29,2.86-.68.8-2.44.73-3.72,1s-3,0-4,.65c-5.54,3.8-11.13,2-15.68-1-7-4.62-13.43-10.26-19.8-15.8-2.08-1.81-4.79-4.82-4.53-7,.46-3.93,5.08-4.55,8.29-5,7.76-1.15,15.65-1.41,23.45-2.32,3.67-.42,7.26-1.56,10.91-2.26,5.17-1,10.33-2.49,15.53-2.7,8.46-.34,17-.09,25.43.4,13.52.78,27,1.92,40.53,3a12.21,12.21,0,0,1,5,1.24c1.58.92,4,2.68,3.84,3.87C175.49,196.58,173.45,198.26,169.75,197.42Z" transform="translate(0 0)"/><path class="cls-1" d="M191.44,128c-.63-10.21,1.9-20.75,5.83-31.08,3-7.87,5.27-16,8.77-23.67,2.72-5.91,6.62-11.34,10.39-16.69a95.58,95.58,0,0,1,11-13.56,76.7,76.7,0,0,1,13-9.6c2.15-1.35,4.5,0,5.58,2.28,3.14,6.72,6.33,13.45,9.11,20.32,2.17,5.37,1.12,7.26-3.93,10.3-9,5.41-16,13-22.76,20.87-2.93,3.39-5.93,6.75-8.53,10.39-1.6,2.25-2.35,5.08-3.74,7.5-4.25,7.41-8.7,14.71-12.91,22.14-2.14,3.77-3.76,7.85-6,11.57-.75,1.27-2.59,1.91-3.93,2.83-.65-1.48-1.68-2.92-1.86-4.45A88.61,88.61,0,0,1,191.44,128Z" transform="translate(0 0)"/><path class="cls-1" d="M9.12,142.3a43.66,43.66,0,0,1,1-5.87c1.64-5.33,4.18-6.92,9.7-6.65,11.24.54,22.5.85,33.72,1.59,3.25.22,6.41,1.67,9.65,2.4,2.4.54,4.85.83,7.27,1.26,2.77.5,5.58.87,8.3,1.58,7,1.83,14,3.81,21,5.78a4.75,4.75,0,0,1,2.6,1.31c2.71,4.14,7.41,5.21,11.25,7.6a5.74,5.74,0,0,0,2.69,1.15c6,0,10.5,3.49,15.1,6.6,1,.7,1.45,2.3,2.14,3.48-1.37.49-2.72,1.32-4.11,1.39a57.13,57.13,0,0,1-9.54-.2c-8.48-1-17-2.16-25.4-3.53C89.64,159.4,84.85,158,80,157c-3.15-.69-6.32-1.27-9.47-2-2.83-.62-5.69-2-8.46-1.86-5.39.29-10.72,1.58-16.11,2.18-5.8.64-11.63,1-17.45,1.42a100.88,100.88,0,0,1-11.24.62,5.69,5.69,0,0,1-4.23-2.45C11.12,151,8.81,142.44,9.12,142.3Z" transform="translate(0 0)"/><path class="cls-1" d="M264.68,93.74c-.09,10.81-2,20.09-9.72,26.94-2.55,2.27-6,3.43-8.82,5.48C241,130,236.14,134.25,231,138c-8.77,6.41-14.78,15.3-21.59,23.46-3.15,3.78-5.67,8.07-8.8,11.87-.87,1.05-2.89,1.15-4.38,1.69-.28-1.37-1.09-2.9-.74-4.09,3.2-11.05,6-22.21,12-32.28,4.25-7.1,7.46-14.81,11.56-22A69.08,69.08,0,0,1,234.4,98.06a2.83,2.83,0,0,0,1.06-1.44c1.24-8.38,7.9-12.42,13.65-17.2,1.62-1.35,3.07-2.93,4.77-4.15,3.94-2.83,6.44-2.24,7.67,2.37C263,83.24,263.8,89,264.68,93.74Z" transform="translate(0 0)"/><path class="cls-1" d="M120.25,292.92c1.32-4.25,2.19-8,3.66-11.55,4.4-10.54,8.66-21.17,13.76-31.36,2.13-4.26,6.11-7.68,9.53-11.2,3.74-3.84,7.33-8.27,11.91-10.73,3.9-2.09,4.69-7.24,9.58-7.93,2.79-.39,3.46.44,3.09,2.89-1.19,7.88-2.34,15.76-3.61,23.62-.23,1.43-1.12,2.76-1.38,4.19a54.7,54.7,0,0,0-.6,6.27c-.3,4.95.4,9.67-3.1,14.43-3.33,4.53-4.55,10.62-6.64,16.05s-4.48,10.65-9,14.61c-1.91,1.66-3.27,4-5.23,5.55-1,.77-3.16,1.18-4.09.6a181.75,181.75,0,0,1-15-10.31C121.64,296.95,121.15,294.63,120.25,292.92Z" transform="translate(0 0)"/><path class="cls-1" d="M111.11,286c-5.49-4.2-9.49-8.85-11.1-15.52-1.2-5-3.28-9.74-4.77-14.65a17.94,17.94,0,0,1-.52-5.19q0-6.88.27-13.75c.16-4.59,2.17-6.5,6.57-8.23,5-2,9.79-4.59,14.68-6.92,5.42-2.58,10.81-5.24,16.29-7.7a24.38,24.38,0,0,1,6-1.77c4.77-.77,9.57-1.47,14.38-1.86,1.17-.09,2.44,1.12,3.66,1.73-.82,1.07-1.6,2.17-2.47,3.19-.47.55-1.21.88-1.63,1.46-3.92,5.43-7.66,11-11.74,16.31-2.71,3.52-6.65,6.25-8.71,10.05-4.64,8.58-8.56,17.57-12.56,26.49-1.87,4.18-3.12,8.64-4.93,12.86C114,283.75,112.53,284.6,111.11,286Z" transform="translate(0 0)"/><path class="cls-1" d="M216.4,184.44c.63-6.53,5.58-7.77,8.92-10.43a102.65,102.65,0,0,1,10.83-7.46,111.56,111.56,0,0,1,10.23-5.22c8.15-3.84,16.17-8,24.54-11.27a49.42,49.42,0,0,1,26-3.08c3.66.59,7.6,1.45,10.59,3.44,2.32,1.54,4.17,4.85,4.76,7.69.88,4.19.56,8.66.46,13,0,.53-1.88,1.63-2.65,1.45a96.12,96.12,0,0,0-34.15-1.49c-4.51.59-8.92,1.89-13.42,2.57-3.18.49-6.5.14-9.65.77-9.69,1.93-19.36,4-29,6.34C221.45,181.34,219.25,183,216.4,184.44Z" transform="translate(0 0)"/><path class="cls-1" d="M220.16,195.81c10.24-3,20.37-6.43,30.75-8.76,6.36-1.43,13.1-1.43,19.68-1.56,11.15-.21,22.33-.36,33.47.15,7.77.35,11.16,5.72,9.71,13.4-.51,2.68-1.94,4-4.54,3.95-14.57-.14-29.14-.18-43.71-.53-8.43-.2-16.86-.79-25.27-1.47-5.43-.43-10.84-1.25-16.23-2.08-1.33-.21-2.55-1.15-3.83-1.75Z" transform="translate(0 0)"/><path class="cls-1" d="M224.82,208.32c5.1.44,10.21.84,15.31,1.32,3.34.32,6.66.85,10,1.12,6.33.51,12.66,1.18,19,1.27q20.18.3,40.37,0c4.14-.07,8,2.55,7.88,6.71a110.15,110.15,0,0,1-.8,11.15c-.42,3.51-4.66,5.45-8.8,4.72-8-1.42-16.19-2.23-24.15-3.95-6.65-1.43-13.09-3.81-19.63-5.75-10-3-20-5.84-30-8.9-3.74-1.15-7.51-2.46-9.66-6.05Z" transform="translate(0 0)"/><path class="cls-1" d="M129.93,176.1c-4.55.3-9.1.73-13.65.87q-16,.5-32,.75c-5.42.08-10.84-.19-16.25-.17a12.07,12.07,0,0,0-4.23.85c-5.74,2.24-11.36,4.85-17.19,6.83a35,35,0,0,1-9.72,1.39,5.43,5.43,0,0,1-3.95-1.79c-3.41-4.41-6.53-9-9.74-13.61-1.86-2.64-.28-4.07,2-4.56a46.44,46.44,0,0,1,8.53-.85c7.56-.19,15.12-.3,22.68-.26,2.19,0,4.37.87,6.56.94,7,.21,14.11,0,21.14.39a155.22,155.22,0,0,1,17.26,2c9.54,1.61,19,3.57,28.53,5.38Z" transform="translate(0 0)"/><path class="cls-1" d="M187.83,88.16c-3.4-5.08-2.24-9.81-1.54-14.41.9-6,1.51-12.12,3.33-17.84s4.66-10.95,7.56-16.13c4.25-7.59,8.92-15,13.47-22.37,2.42-3.94,6.65-4.54,10.43-1.89a47.8,47.8,0,0,0,6.58,3.43c4.89,2.38,5.32,5.29,1.16,8.57A76.32,76.32,0,0,0,212,45.69c-2.14,3.26-5.22,5.91-7.34,9.19a149.56,149.56,0,0,0-9.37,16.25c-2.13,4.43-3.25,9.33-5,14C189.89,86.12,188.84,86.92,187.83,88.16Z" transform="translate(0 0)"/><path class="cls-1" d="M217,166.52c2-3.31,3.47-7,6-9.84A191.61,191.61,0,0,1,237.11,143c4.1-3.71,8.16-7.59,12.77-10.58,6.2-4,12.91-7.27,19.44-10.76a3.83,3.83,0,0,1,2.84-.43c6.81,3,13.59,6,20.28,9.21,1,.48,1.48,2,2.2,3-1.33.77-2.59,2-4,2.24-4.61.86-9.44.84-13.9,2.15a145.3,145.3,0,0,0-21.24,7.71c-6.91,3.26-13.23,7.75-19.92,11.5-5.13,2.87-10.44,5.41-15.64,8.15a15.64,15.64,0,0,0-2.31,1.83Z" transform="translate(0 0)"/><path class="cls-1" d="M181.07,246.57c1.2,5.53,2.92,11,3.46,16.6.84,8.63,1.67,17.33-.57,26-1.5,5.82-2.57,11.76-3.85,17.64-.16.72-.26,1.86-.71,2.06-3.77,1.63-4.26,5.23-5.23,8.48s-3.35,3.71-5.85,2.62a132.88,132.88,0,0,1-13.19-6.74c-.69-.4-1.12-2.75-.61-3.48,3-4.33,6.23-8.49,9.51-12.61,1.78-2.24,3.52-4.06,3.79-7.46s2.8-6.52,4.1-9.86a101.88,101.88,0,0,0,6.8-28.75,32.8,32.8,0,0,1,1-4.58Z" transform="translate(0 0)"/><path class="cls-1" d="M193.06,24.14a27.81,27.81,0,0,1-1.32,5.1c-4.19,9-8.82,17.71-12.66,26.81-1.65,3.9-1.79,8.45-2.6,12.71-1.16,6.07-2.54,12.11-3.39,18.23-.69,5-.57,10.14-1.13,15.18a39.93,39.93,0,0,1-2,7.87c-.3.91-1.31,1.59-2,2.37a10.16,10.16,0,0,1-1.94-2c-4.5-8.39-4.22-17.13-2-26.1,2-8.42,4.1-16.86,5.51-25.4,1-5.78,4.38-10.14,6.74-15.14,2.85-6,6.87-11.15,10.79-16.39,1.19-1.59,3.12-2.61,4.72-3.89Z" transform="translate(0 0)"/><path class="cls-1" d="M238.62,224c5,1.31,10.13,2.13,14.85,4a168.65,168.65,0,0,0,45.3,11.29,57.43,57.43,0,0,1,8.4,1.65c.75.2,1.26,1.29,1.87,2a8.6,8.6,0,0,1-2.27,1.26c-9.18,1.83-18.31.18-27.47,0-12.55-.24-22.18-6.74-32.73-11.4-3.32-1.47-5.87-4.68-8.77-7.1Z" transform="translate(0 0)"/><path class="cls-1" d="M197.14,262.84c-5-13.29-5.18-26.45-4.77-39.67l1.38-.58c2,3,5.11,5.72,5.65,8.92,1.67,9.88,2.18,19.93-1,29.74C198.29,261.58,198,261.82,197.14,262.84Z" transform="translate(0 0)"/><path class="cls-1" d="M121.2,140.16C109.5,139.56,101,133,91.39,129,97.66,126.74,116.32,133.38,121.2,140.16Z" transform="translate(0 0)"/><path class="cls-1" d="M177.93,122.34c-5.17-5.26-4.69-10.61-1.59-16,.55-1,1.81-2.15,2.68-2.11s1.95,1.52,2.19,2.54C182.52,112.32,181.09,117.4,177.93,122.34Z" transform="translate(0 0)"/><path class="cls-1" d="M183.36,150.22c-4.23-3.13-6.12-11.69-3.53-16.33a2.35,2.35,0,0,1,1.72-1c.63,0,1.81.5,1.82.82.19,5.44.23,10.88.29,16.31C183.66,150.1,183.46,150.16,183.36,150.22Z" transform="translate(0 0)"/></svg>