<svg id="Calque_1" data-name="Calque 1" xmlns="http://www.w3.org/2000/svg" viewBox="0 0 97.67 105.17"><title>camera-b</title><rect x="65.48" y="48.33" width="20.45" height="9.33"/><rect x="10.3" y="62.33" width="11.49" height="2"/><rect x="23.89" y="62.33" width="7.92" height="2"/><path d="M94.58,20.67a3.08,3.08,0,0,0,3.08-3.08V3.08A3.08,3.08,0,0,0,94.58,0H3.08A3.08,3.08,0,0,0,0,3.08v14.5a3.08,3.08,0,0,0,3.08,3.08h5.7V40.41a4.76,4.76,0,0,0-4.06,4.67V70.33h0L.33,77.67V100.5a4.7,4.7,0,0,0,4.73,4.67H92.94a4.7,4.7,0,0,0,4.73-4.67V77.67l-3.38-7.33V45.08a4.77,4.77,0,0,0-4.56-4.72V20.67ZM90.4,99.33H7.77a3,3,0,1,1,0-6H90.4a3,3,0,1,1,0,6ZM5.77,1.33H93.1V8.67H5.77ZM7.56,43.46H37.47V67.21H7.56Zm34,11.88a8,8,0,1,1,8,7.88A7.93,7.93,0,0,1,41.52,55.33ZM91.46,43.46V67.21H61.55V43.46ZM5.77,19.33v-9H93.1v9Z"/></svg>