<svg id="Calque_1" data-name="Calque 1" xmlns="http://www.w3.org/2000/svg" viewBox="0 0 99.67 107.17"><title>camera</title><path d="M8.78,101.33H91.39a4,4,0,1,0,0-8H8.78a4,4,0,1,0,0,8Zm0-6H91.39a2,2,0,1,1,0,4H8.78a2,2,0,1,1,0-4Z"/><path d="M50.51,47.46a8.88,8.88,0,1,0,9,8.87A8.95,8.95,0,0,0,50.51,47.46Zm0,15.75a6.88,6.88,0,1,1,7-6.87A6.93,6.93,0,0,1,50.51,63.21Z"/><path d="M87.92,48.33H65.46V59.67H87.92Zm-2,9.33H67.48V50.33H85.9Z"/><rect x="10.3" y="62.33" width="13.51" height="4"/><rect x="23.88" y="62.33" width="9.95" height="4"/><path d="M95.58,22.67a4.09,4.09,0,0,0,4.08-4.08V4.08A4.09,4.09,0,0,0,95.58,0H4.08A4.09,4.09,0,0,0,0,4.08v14.5a4.09,4.09,0,0,0,4.08,4.08h4.7V40.61a5.77,5.77,0,0,0-4.05,5.48v25L.47,78.16a1,1,0,0,0-.14.51h0V101.5a5.71,5.71,0,0,0,5.74,5.67H93.92a5.71,5.71,0,0,0,5.74-5.67V78.67h0a1,1,0,0,0-.08-.41l-3.29-7.14v-25a5.78,5.78,0,0,0-4.56-5.61V22.67ZM95.1,2h.48a2.09,2.09,0,0,1,2.08,2.08v14.5a2.09,2.09,0,0,1-2.08,2.08H95.1ZM7.77,3.33H93.1V8.67H7.77Zm-2,17.33H4.08A2.09,2.09,0,0,1,2,18.58V4.08A2.09,2.09,0,0,1,4.08,2H5.77ZM97.64,101.5a3.7,3.7,0,0,1-3.72,3.67H6.08a3.7,3.7,0,0,1-3.72-3.67V91.25H97.64Zm0-12.25H2.36V79.67H97.64Zm-3-16.92,2.46,5.33h-94l3.19-5.33ZM93.17,43.46H61.53V69.21H93.46V43.78a3.7,3.7,0,0,1,.8,2.3V70.33H6.75V46.08a3.7,3.7,0,0,1,.8-2.3V69.21H39.48V43.46H7.84a3.82,3.82,0,0,1,2.71-1.12H90.46A3.82,3.82,0,0,1,93.17,43.46Zm-1.74,2V67.21H63.56V45.46ZM9.58,67.21V45.46H37.46V67.21Zm1.22-26.87V22.67H89.7V40.33Zm-3-21v-7H93.1v7Z"/></svg>