<?xml version="1.0" encoding="utf-8"?>
<!-- Generator: Adobe Illustrator 21.1.0, SVG Export Plug-In . SVG Version: 6.00 Build 0)  -->
<svg version="1.1" id="Calque_1" xmlns="http://www.w3.org/2000/svg" xmlns:xlink="http://www.w3.org/1999/xlink" x="0px" y="0px"
	 viewBox="0 0 1000 1000" style="enable-background:new 0 0 1000 1000;" xml:space="preserve">
<g id="Calque_1_1_">
	<g>
		<path d="M133.1,534.9c17.3,1.2,34.7,3.5,52,4.6c10.4,1.2,15-2.3,13.9-12.7c-1.2-25.4,6.9-49.7,13.9-74c4.6-17.3,4.6-16.2-11.6-22
			c-20.8-8.1-40.5-15-60.1-25.4c-22-11.6-27.7-27.7-19.6-50.9c5.8-15,11.6-30,27.7-38.1c4.6-2.3,8.1-8.1,11.6-12.7
			c11.6-16.2,23.1-33.5,38.1-46.2c5.8-4.6,10.4-4.6,15-1.2c19.6,13.9,39.3,24.3,62.4,32.4c16.2,5.8,19.6,13.9,11.6,30
			c-2.3,4.6-5.8,6.9-8.1,11.6c-3.5,5.8-6.9,12.7-11.6,18.5c-3.5,4.6-1.2,5.8,3.5,8.1c24.3,11.6,49.7,19.6,75.1,27.7
			c26.6,8.1,54.3,17.3,79.7,26.6c20.8,6.9,35.8,20.8,45.1,40.5c16.2,34.7,34.7,68.2,42.8,106.3c2.3,8.1,5.8,16.2,8.1,25.4
			c5.8,18.5,2.3,35.8-8.1,50.9c-17.3,24.3-38.1,48.5-56.6,71.7c-2.3,3.5-2.3,5.8,0,9.2c6.9,6.9,13.9,13.9,22,20.8
			c3.5,2.3,8.1,3.5,11.6,5.8c1.2,0,2.3,0,3.5,0c24.3,2.3,33.5,12.7,33.5,35.8c0,12.7-1.2,25.4-1.2,37c-1.2,17.3-13.9,27.7-33.5,28.9
			c-13.9,1.2-24.3,6.9-34.7,15c-1.2,1.2-2.3,1.2-2.3,2.3c0,11.6-9.2,13.9-17.3,17.3c-20.8,10.4-41.6,19.6-63.6,27.7
			c-12.7,4.6-27.7,5.8-41.6,8.1c-10.4,1.2-20.8,2.3-31.2,2.3c-30,2.3-32.4-9.2-31.2-32.4c1.2-20.8,6.9-42.8,11.6-63.6
			c3.5-13.9,8.1-28.9,12.7-42.8c2.3-10.4,4.6-19.6,6.9-30c1.2-5.8-1.2-9.2-6.9-10.4c-22-4.6-45.1-9.2-67-13.9
			c-3.5-1.2-6.9,0-10.4,1.2c-20.8,6.9-40.5,11.6-60.1,19.6c-28.9,11.6-57.8,25.4-80.9,46.2c-4.6,4.6-6.9,17.3-2.3,22
			c0,1.2,3.5,0,4.6,0c24.3-30,56.6-47.4,91.3-58.9c28.9-10.4,57.8-16.2,89-15c4.6,0,10.4,0,15,2.3c9.2,2.3,11.6,6.9,9.2,15
			c-5.8,24.3-12.7,49.7-19.6,74c-5.8,24.3-11.6,48.5-17.3,71.7v1.2c-3.5,13.9-3.5,13.9-18.5,13.9c-37,0-74-4.6-108.6-19.6
			c-12.7-5.8-22-8.1-30,4.6c-1.2,1.2-2.3,1.2-2.3,2.3c-15,10.4-27.7,8.1-39.3-6.9c-9.2-13.9-13.9-28.9-16.2-46.2
			c-3.5-35.8-9.2-71.7-12.7-107.5c-3.5-33.5-5.8-67,4.6-99.4c0-2.3,0-5.8-1.2-5.8c-32.4-19.6-15-75.1,16.2-86.7
			C69.6,540.7,100.8,536.1,133.1,534.9z M207.1,666.7c1.2,0,2.3,0,3.5,0c0-3.5,1.2-6.9,1.2-9.2c1.2-16.2,1.2-32.4,3.5-47.4
			c1.2-9.2,5.8-18.5,8.1-27.7c1.2-2.3,4.6-3.5,5.8-3.5c2.3,0,3.5,3.5,4.6,5.8c1.2,1.2,0,3.5,0,5.8c-2.3,25.4-4.6,49.7-6.9,75.1
			c0,2.3,1.2,6.9,2.3,8.1c16.2,9.2,33.5,12.7,52,13.9h1.2c2.3-1.2,5.8-3.5,8.1-4.6c-1.2-2.3-2.3-5.8-4.6-6.9
			c-10.4-11.6-22-23.1-32.4-35.8c-3.5-3.5-4.6-6.9-1.2-11.6c13.9-22,27.7-43.9,41.6-65.9c3.5-5.8,2.3-8.1-4.6-8.1
			c-10.4,0-20.8,0-32.4,0c-5.8,0-10.4-1.2-10.4-8.1c0-5.8,3.5-8.1,10.4-9.2c11.6,0,23.1,0,35.8-1.2c6.9,0,9.2-2.3,8.1-10.4
			c-1.2-16.2-3.5-32.4-4.6-48.5c-1.2-6.9-3.5-11.6-10.4-13.9c-5.8-2.3-12.7-4.6-18.5-6.9c-4.6-2.3-8.1-1.2-10.4,3.5
			c-11.6,22-17.3,46.2-18.5,71.7c0,5.8-2.3,9.2-8.1,10.4c-4.6,1.2-10.4-4.6-9.2-9.2c1.2-13.9,2.3-27.7,5.8-41.6
			c2.3-11.6,8.1-23.1,11.6-34.7c1.2-4.6,2.3-9.2-2.3-11.6c-4.6-2.3-8.1,1.2-10.4,5.8c-1.2,4.6-3.5,8.1-4.6,12.7
			c-3.5,25.4-6.9,50.9-9.2,75.1c-1.2,5.8-2.3,10.4-8.1,12.7c-4.6,2.3-10.4,3.5-16.2,2.3c-30-3.5-61.3-4.6-91.3-1.2
			c-19.6,1.2-38.1,4.6-55.5,13.9c-26.6,13.9-28.9,41.6-5.8,61.3c2.3,2.3,4.6,4.6,8.1,5.8c18.5,10.4,35.8,20.8,55.5,30
			c64.7,32.4,135.2,48.5,205.7,62.4c25.4,4.6,52,5.8,77.4,8.1c4.6,0,9.2,1.2,13.9,3.5c2.3,1.2,3.5,3.5,3.5,5.8s-2.3,4.6-4.6,5.8
			c-4.6,3.5-10.4,6.9-15,11.6c-3.5,3.5-5.8,6.9-9.2,10.4c-9.2,8.1-10.4,17.3-4.6,27.7c3.5,5.8,8.1,10.4,13.9,15
			c13.9,12.7,27.7,25.4,42.8,39.3c-4.6,2.3-8.1,9.2-13.9,4.6c-11.6-8.1-22-17.3-32.4-26.6c-11.6-9.2-22-20.8-28.9-33.5
			c-2.3-3.5-5.8-6.9-9.2-8.1c-6.9-3.5-15-5.8-22-6.9c-2.3-1.2-6.9,0-9.2,2.3c-3.5,3.5-5.8,8.1-6.9,12.7c-6.9,30-16.2,60.1-15,92.5
			c0,4.6,1.2,8.1,6.9,8.1c37,1.2,71.7-3.5,105.2-18.5c11.6-4.6,23.1-12.7,34.7-19.6c2.3-1.2,2.3-4.6,3.5-6.9
			c-2.3-1.2-3.5-1.2-5.8-2.3c-2.3-1.2-5.8-1.2-8.1-2.3c-20.8-15-25.4-37-23.1-61.3c1.2-8.1,5.8-15,13.9-18.5
			c6.9-2.3,13.9-5.8,20.8-9.2c2.3-1.2,4.6-3.5,4.6-5.8c-1.2-2.3-4.6-3.5-6.9-3.5c-8.1-1.2-20.8-1.2-25.4-5.8c-3.5-3.5-2.3-5.8,0-8.1
			c6.9-10.4,15-20.8,23.1-30c20.8-25.4,42.8-50.9,63.6-76.3c12.7-16.2,15-34.7,9.2-53.2c-11.6-33.5-24.3-67-37-100.5
			c-11.6-28.9-32.4-48.5-61.3-58.9c-34.7-11.6-68.2-23.1-101.7-34.7c-45.1-15-90.1-32.4-134.1-54.3c-9.2-4.6-13.9-4.6-20.8,4.6
			c-4.6,5.8-6.9,13.9-9.2,22c-4.6,13.9-1.2,24.3,10.4,32.4c10.4,6.9,20.8,12.7,31.2,17.3c39.3,17.3,79.7,33.5,121.4,45.1
			c15,3.5,30,8.1,45.1,10.4c8.1,1.2,15-1.2,20.8-8.1s12.7-13.9,19.6-19.6c1.2-1.2,5.8-2.3,6.9-1.2c17.3,9.2,34.7,16.2,46.2,31.2
			c11.6,12.7,18.5,28.9,24.3,45.1c4.6,11.6,9.2,24.3,12.7,35.8c4.6,12.7,9.2,24.3,12.7,37c3.5,20.8,1.2,40.5-11.6,57.8
			c-4.6,5.8-9.2,12.7-13.9,18.5c-15,18.5-30,35.8-46.2,53.2c-3.5,3.5-9.2,8.1-13.9,8.1c-24.3,1.2-48.5,1.2-70.5-11.6
			c-15-9.2-16.2-9.2-10.4-25.4c19.6-63.6,34.7-127.1,60.1-188.4c4.6-10.4,9.2-19.6,15-30c6.9,4.6,12.7,8.1,18.5,11.6
			c-2.3,2.3-4.6,2.3-4.6,3.5c-1.2,1.2-2.3,3.5-3.5,5.8c2.3,1.2,3.5,2.3,5.8,2.3c3.5,0,6.9,0,11.6,0c2.3,0,4.6-2.3,6.9-2.3
			c-1.2-2.3-2.3-4.6-3.5-5.8c-9.2-6.9-19.6-13.9-28.9-20.8c-5.8-4.6-10.4-3.5-13.9,2.3c-5.8,8.1-12.7,17.3-16.2,26.6
			c-6.9,19.6-12.7,40.5-19.6,61.3c-9.2,28.9-18.5,57.8-27.7,86.7c-5.8,19.6-12.7,39.3-19.6,58.9c-2.3,6.9-6.9,11.6-13.9,11.6
			c-9.2,0-19.6,0-28.9-2.3c-33.5-9.2-67-18.5-101.7-28.9c-39.3-11.6-75.1-30-109.8-52c-2.3-1.2-4.6-3.5-5.8-4.6
			C28,603.1,29.1,590.4,45.3,580c2.3-1.2,5.8-3.5,8.1-3.5c13.9-2.3,27.7-6.9,41.6-8.1c37,0,72.8,1.2,109.8,2.3
			c8.1,0,10.4,4.6,6.9,11.6c-2.3,4.6-4.6,8.1-4.6,12.7c-1.2,22-2.3,43.9-3.5,65.9C206,662.1,207.1,664.4,207.1,666.7z M85.8,884
			c5.8-4.6,3.5-2.3,6.9-4.6c4.6-3.5,11.6-5.8,16.2-2.3c3.5,2.3,8.1,4.6,11.6,5.8c16.2,5.8,32.4,11.6,48.5,15
			c18.5,3.5,38.1,3.5,56.6,5.8c5.8,1.2,9.2-1.2,11.6-8.1c5.8-23.1,11.6-46.2,17.3-69.3c4.6-19.6,9.2-40.5,13.9-60.1
			c2.3-10.4,0-13.9-10.4-13.9c-6.9,0-13.9,1.2-20.8,2.3c-37,3.5-70.5,15-102.9,32.4c-22,10.4-37,28.9-52,45.1
			c-1.2,1.2-2.3,4.6-2.3,6.9c1.2,9.2,2.3,17.3,3.5,26.6C83.4,871.3,84.6,877,85.8,884z M193.2,625.1L193.2,625.1
			c0-8.1,0-16.2,0-25.4c0-13.9-3.5-17.3-17.3-17.3c-28.9,0-57.8,0-86.7,1.2c-8.1,0-16.2,2.3-23.1,5.8c-8.1,2.3-9.2,9.2-3.5,15
			c3.5,3.5,8.1,8.1,12.7,10.4c32.4,13.9,65.9,27.7,98.2,41.6c2.3,1.2,5.8,1.2,9.2,2.3c10.4,1.2,11.6,1.2,11.6-10.4
			C193.2,641.3,193.2,633.2,193.2,625.1z M66.1,669c-1.2,0-1.2,0-2.3,1.2c0,37,1.2,72.8,6.9,111c3.5-2.3,5.8-3.5,6.9-5.8
			c9.2-11.6,20.8-19.6,32.4-25.4c22-11.6,45.1-20.8,68.2-25.4c2.3-1.2,5.8-2.3,8.1-3.5c0-1.2,0-1.2,0-2.3c-3.5-1.2-6.9-2.3-10.4-4.6
			c-31.2-11.6-63.6-23.1-94.8-35.8C76.5,675.9,71.9,672.5,66.1,669z M516.8,786.9C516.8,786.9,515.7,786.9,516.8,786.9
			c-1.2-4.6-1.2-10.4-2.3-15c-1.2-13.9-10.4-19.6-23.1-15c-19.6,6.9-38.1,15-57.8,23.1c-10.4,4.6-15,11.6-13.9,23.1
			c0,6.9,1.2,13.9,3.5,20.8c4.6,13.9,24.3,20.8,37,13.9c9.2-5.8,19.6-10.4,32.4-9.2c9.2,1.2,16.2-3.5,18.5-12.7
			C514.5,805.4,515.7,796.1,516.8,786.9z M29.1,687.5c-3.5,48.5,3.5,87.8,9.2,132.9c2.3,18.5,4.6,37,11.6,54.3
			c3.5,6.9,8.1,13.9,12.7,19.6c2.3,2.3,6.9,4.6,10.4,3.5c2.3-2.3,2.3-6.9,1.2-9.2c-3.5-18.5-6.9-37-11.6-55.5
			c-9.2-42.8-15-85.5-16.2-129.4c0-13.9,1.2-27.7,1.2-41.6c0-2.3-1.2-8.1-3.5-8.1c-2.3-1.2-5.8,2.3-6.9,4.6
			C34.9,666.7,31.4,664.4,29.1,687.5z M207.1,272.6c-1.2,1.2-3.5,1.2-4.6,3.5c-9.2,10.4-19.6,20.8-28.9,31.2
			c-3.5,3.5-2.3,6.9,2.3,9.2c2.3,1.2,4.6,2.3,5.8,3.5c19.6,9.2,40.5,18.5,60.1,27.7c4.6,2.3,6.9,1.2,9.2-2.3
			c4.6-9.2,10.4-17.3,16.2-25.4c5.8-9.2,4.6-11.6-4.6-17.3c-1.2-1.2-3.5-1.2-4.6-2.3c-15-6.9-30-15-46.2-22
			C210.6,274.9,208.3,273.7,207.1,272.6z M365.4,626.2c5.8-8.1,11.6-10.4,23.1-5.8c22,9.2,46.2,6.9,69.3,10.4
			c3.5,1.2,8.1-1.2,11.6-2.3c0-1.2,0-2.3,0-3.5c-8.1,0-17.3,0-25.4,0c-23.1,0-45.1-6.9-67-11.6c-9.2-2.3-11.6-1.2-15,8.1
			c-1.2,3.5-2.3,6.9-3.5,10.4c-2.3,4.6,0,6.9,4.6,8.1c9.2,1.2,18.5,3.5,28.9,4.6c16.2,3.5,32.4,5.8,48.5,9.2
			c4.6,1.2,9.2,1.2,12.7-4.6c-2.3-1.2-4.6-2.3-5.8-2.3c-12.7-1.2-25.4-2.3-38.1-3.5C390.9,641.3,377,636.6,365.4,626.2z
			 M367.8,597.3c3.5,1.2,5.8,1.2,8.1,1.2c15,0,28.9,3.5,42.8,8.1c17.3,5.8,35.8,2.3,53.2,1.2c1.2,0,2.3-2.3,3.5-4.6
			c0-1.2-2.3-2.3-3.5-3.5c-4.6-1.2-10.4-1.2-15-2.3c-16.2-2.3-31.2-3.5-47.4-5.8c-12.7-1.2-26.6-4.6-39.3-5.8
			C370.1,590.4,368.9,592.7,367.8,597.3z M394.3,671.3c4.6,1.2,13.9,3.5,22,5.8c3.5,1.2,8.1,1.2,11.6,0c1.2,0,3.5-2.3,3.5-3.5
			s-2.3-3.5-3.5-3.5c-3.5-1.2-8.1-2.3-11.6-2.3c-19.6-3.5-39.3-8.1-58.9-11.6c-2.3,0-5.8,0-6.9,1.2c-2.3,4.6-3.5,9.2-3.5,13.9
			c0,1.2,6.9,2.3,10.4,3.5c2.3,0,3.5,0,5.8,0C371.2,672.5,380.5,672.5,394.3,671.3z M464.8,558.1c0-5.8-3.5-6.9-8.1-8.1
			c-6.9,0-12.7-1.2-19.6-2.3c-15-2.3-31.2-4.6-46.2-5.8c-4.6,0-10.4,0-10.4,6.9c0,6.9,5.8,5.8,10.4,5.8c17.3,1.2,35.8,2.3,53.2,3.5
			C451,559.2,457.9,558.1,464.8,558.1z M333.1,509.5c10.4,0,15-3.5,18.5-13.9c1.2-3.5,2.3-5.8,2.3-9.2c0-2.3-1.2-5.8-3.5-5.8
			c-10.4-2.3-20.8-3.5-30-4.6c-4.6-1.2-5.8,2.3-4.6,5.8c1.2,4.6,1.2,9.2,1.2,12.7C318.1,507.2,321.5,509.5,333.1,509.5z
			 M343.5,688.7c0,1.2,0,1.2-1.2,2.3c1.2,1.2,2.3,2.3,4.6,3.5c16.2,8.1,34.7,6.9,52,8.1c4.6,0,10.4,0,10.4-6.9
			c0-5.8-6.9-4.6-10.4-4.6c-13.9,0-27.7,0-41.6,0C351.6,689.8,347,688.7,343.5,688.7z M403.6,519.9
			C403.6,519.9,403.6,518.8,403.6,519.9c-1.2-1.2-2.3-1.2-3.5-1.2c-2.3,1.2-4.6,3.5-6.9,4.6c2.3,1.2,4.6,3.5,6.9,3.5
			c9.2,1.2,17.3,3.5,26.6,3.5c8.1,1.2,15,1.2,23.1,1.2c2.3,0,3.5-1.2,5.8-2.3c-1.2-1.2-1.2-3.5-3.5-4.6c-1.2-1.2-3.5-2.3-4.6-2.3
			C432.5,522.2,418.6,521.1,403.6,519.9z M475.2,584.6c-3.5-8.1-3.5-8.1-10.4-9.2c-10.4-1.2-19.6-2.3-30-2.3c-16.2,0-31.2,0-43.9,0
			C416.3,576.5,445.2,581.2,475.2,584.6z M319.2,744.1c3.5,2.3,4.6,4.6,5.8,4.6c11.6,3.5,23.1,6.9,33.5,9.2
			c6.9,1.2,13.9-2.3,17.3-9.2c-1.2,0-1.2,0-2.3,0c-16.2-1.2-31.2-3.5-47.4-4.6C325,743,323.8,743,319.2,744.1z M446.3,726.8
			c-2.3,1.2-5.8,2.3-9.2,4.6c-1.2,1.2-2.3,2.3-3.5,3.5c1.2,1.2,3.5,3.5,4.6,3.5c6.9,0,13.9,2.3,18.5,8.1c1.2,1.2,4.6,3.5,6.9,2.3
			c2.3,0,4.6-3.5,4.6-4.6C468.3,739.5,452.1,726.8,446.3,726.8z M303,608.9L303,608.9c3.5,0,8.1,0,10.4-1.2c2.3-1.2,3.5-4.6,4.6-6.9
			c0-1.2-2.3-4.6-4.6-4.6c-4.6-1.2-9.2-1.2-13.9,0c-4.6,2.3-6.9,5.8-10.4,9.2c3.5,1.2,6.9,2.3,10.4,2.3
			C301.9,608.9,303,608.9,303,608.9z M312.3,623.9c-12.7,0-24.3-1.2-34.7,2.3c-1.2,0-2.3,3.5-2.3,4.6s2.3,2.3,4.6,2.3
			c6.9,0,15,0,22,0C306.5,633.2,310,630.9,312.3,623.9z M400.1,500.3c0,1.2,0,2.3,0,3.5c3.5,1.2,5.8,1.2,9.2,2.3
			c10.4,1.2,22,1.2,33.5,1.2c1.2,0,3.5-2.3,4.6-3.5c-1.2-1.2-3.5-2.3-4.6-2.3c-11.6-1.2-23.1-1.2-34.7-2.3
			C404.7,499.1,402.4,499.1,400.1,500.3z M290.3,647c-1.2,0-3.5,1.2-4.6,2.3c-1.2,1.2,0,3.5,1.2,4.6c2.3,3.5,3.5,5.8,6.9,8.1
			c3.5,3.5,5.8,3.5,8.1-1.2c5.8-10.4,4.6-11.6-6.9-13.9C294.9,647,293.8,647,290.3,647z M356.2,773c-13.9-3.5-26.6-5.8-39.3-9.2
			C321.5,771.9,347,777.6,356.2,773z M320.4,528c5.8,4.6,18.5,4.6,20.8-1.2C335.4,523.4,323.8,524.5,320.4,528z M325,551.1
			c-3.5,1.2-5.8,2.3-8.1,3.5c2.3,1.2,5.8,3.5,8.1,3.5c3.5,0,5.8-2.3,9.2-2.3C331.9,553.4,328.5,552.3,325,551.1z M327.3,575.4
			c-5.8,0-10.4,0-16.2,0c0,0-1.2,3.5,0,3.5C313.4,582.3,325,581.2,327.3,575.4z"/>
		<path d="M858.9,360.4c8.1,8.1,15,15,22,20.8c24.3,19.6,31.2,46.2,27.7,76.3c-3.5,32.4-22,54.3-47.4,70.5
			c-16.2,10.4-34.7,13.9-54.3,11.6c-43.9-5.8-86.7-10.4-130.6-15c-10.4-1.2-12.7-3.5-11.6-13.9c1.2-8.1,1.2-16.2,2.3-24.3
			c0-5.8,3.5-9.2,10.4-9.2c1.2,0,3.5,0,4.6,0c5.8,0,6.9-2.3,8.1-6.9c4.6-37,11.6-74,11.6-112.1c0-20.8,3.5-40.5,4.6-61.3
			c0-12.7-2.3-25.4-3.5-38.1c0-2.3-4.6-5.8-6.9-5.8c-15-2.3-18.5-12.7-19.6-25.4c-1.2-5.8-1.2-11.6-1.2-18.5
			c-1.2-6.9,2.3-10.4,9.2-11.6c9.2-2.3,18.5-2.3,27.7,0c18.5,4.6,38.1,8.1,56.6,11.6c15,2.3,28.9,4.6,42.8,12.7
			c5.8,3.5,13.9,4.6,20.8,5.8c22,2.3,40.5,11.6,54.3,28.9c10.4,12.7,15,26.6,15,42.8c0,9.2-1.2,19.6-4.6,28.9
			c-4.6,12.7-13.9,22-26.6,27.7C867,357,863.6,358.1,858.9,360.4z M721.4,284.1c0,1.2,0,2.3,0,2.3c1.2,1.2,1.2,1.2,2.3,1.2
			c15,3.5,30,6.9,46.2,10.4c4.6,1.2,6.9,2.3,6.9,6.9c0,4.6-2.3,5.8-5.8,5.8c-16.2,2.3-31.2-4.6-46.2-8.1c-2.3,0-5.8,0-6.9,1.2
			c-1.2,2.3-2.3,5.8-1.2,8.1c2.3,5.8,6.9,8.1,12.7,8.1c9.2,0,18.5-1.2,26.6-2.3c4.6,0,11.6-4.6,12.7,2.3c2.3,5.8-5.8,8.1-10.4,10.4
			c-12.7,4.6-25.4,4.6-39.3,2.3c-2.3,0-4.6,2.3-6.9,2.3c2.3,1.2,3.5,3.5,5.8,4.6c9.2,0,17.3,0,26.6,0c32.4-1.2,64.7-3.5,95.9,9.2
			c2.3,1.2,6.9,0,9.2,0c1.2,0,2.3-2.3,2.3-3.5c0-1.2-1.2-2.3-2.3-2.3c-6.9-3.5-13.9-5.8-20.8-8.1c-3.5-1.2-8.1,0-11.6,0
			s-6.9,1.2-10.4,1.2c-5.8,0-10.4-1.2-16.2-1.2c-9.2,0-11.6-2.3-10.4-11.6c0-6.9,1.2-13.9,0-19.6c-2.3-16.2-5.8-17.3-20.8-17.3
			c-9.2,0-17.3-1.2-26.6-1.2C730.7,284.1,726,284.1,721.4,284.1z M805.8,444.8h-1.2c1.2-16.2,1.2-31.2,3.5-47.4
			c1.2-8.1-3.5-12.7-8.1-17.3c-3.5-2.3-6.9-2.3-8.1,2.3c-1.2,2.3-1.2,5.8-1.2,8.1c3.5,23.1,2.3,45.1-3.5,68.2
			c-2.3,9.2-2.3,19.6-2.3,28.9c0,2.3,2.3,4.6,3.5,5.8s4.6-1.2,5.8-2.3c3.5-6.9,8.1-12.7,10.4-19.6
			C805.8,462.1,804.6,452.9,805.8,444.8z M820.8,529.2L820.8,529.2C820.8,529.2,822,529.2,820.8,529.2c5.8-1.2,11.6,1.2,12.7-4.6
			c0-1.2-8.1-4.6-12.7-5.8c-23.1-1.2-45.1-2.3-68.2-2.3c-26.6,0-50.9-5.8-71.7-23.1c-3.5-2.3-4.6-1.2-5.8,2.3
			c-4.6,12.7,0,19.6,12.7,22c1.2,0,1.2,0,2.3,0c33.5,3.5,68.2,5.8,101.7,9.2C803.5,528,811.6,529.2,820.8,529.2z M686.7,210.2
			c0,1.2,0,1.2,0,2.3c1.2,0,3.5,0,4.6,0c8.1-1.2,13.9,0,20.8,3.5c6.9,3.5,16.2,8.1,23.1,8.1c17.3-1.2,32.4,4.6,46.2,12.7
			c16.2,10.4,33.5,12.7,52,10.4c3.5,0,6.9-2.3,10.4-4.6c-3.5-1.2-6.9-3.5-10.4-3.5c-12.7-1.2-25.4-2.3-38.1-8.1
			c-9.2-4.6-18.5-6.9-27.7-9.2c-20.8-4.6-42.8-2.3-62.4-13.9C700.6,204.4,692.5,205.6,686.7,210.2z M838.1,395.1
			C838.1,395.1,838.1,393.9,838.1,395.1c-3.5-1.2-6.9-1.2-11.6-1.2c-4.6,0-8.1,5.8-6.9,11.6c1.2,5.8,5.8,2.3,8.1,2.3
			c6.9,0,13.9,0,20.8,0c10.4,0,19.6,1.2,30,2.3c3.5,0,6.9-1.2,4.6-5.8c-3.5-6.9-13.9-12.7-22-11.6
			C854.3,392.8,846.2,393.9,838.1,395.1z M796.5,292.2C796.5,292.2,795.4,292.2,796.5,292.2c0,6.9,0,15,0,22c0,2.3,3.5,4.6,4.6,6.9
			c2.3-2.3,5.8-3.5,6.9-5.8c1.2-1.2,1.2-3.5,1.2-5.8c0-11.6,1.2-22,1.2-33.5c0-3.5-2.3-6.9-4.6-10.4c-1.2-1.2-4.6-3.5-5.8-3.5
			s-3.5,3.5-3.5,5.8C795.4,277.2,796.5,284.1,796.5,292.2z M819.7,262.2c0,1.2,0,2.3,1.2,2.3c8.1,9.2,43.9,13.9,54.3,5.8
			c1.2-1.2,1.2-3.5,1.2-4.6c-5.8-4.6-10.4-9.2-16.2-13.9c-1.2-1.2-4.6,0-6.9,1.2C842.8,261,832.4,263.3,819.7,262.2z M827.7,357
			c-2.3-1.2-3.5-2.3-5.8-2.3c-9.2-1.2-19.6-1.2-28.9-1.2c-25.4,0-49.7,1.2-75.1,2.3c-2.3,0-3.5,1.2-6.9,1.2
			C717.9,361.6,822,361.6,827.7,357z M840.5,489.9c11.6,0,23.1-1.2,33.5,6.9c1.2,1.2,5.8-1.2,6.9-2.3s2.3-4.6,2.3-6.9
			c-2.3-1.2-4.6-2.3-6.9-2.3c-8.1-1.2-15-2.3-23.1-3.5c-10.4-1.2-20.8-3.5-31.2-4.6c-4.6-1.2-8.1,2.3-6.9,6.9c0,2.3,3.5,4.6,5.8,5.8
			C827.7,491,834.7,489.9,840.5,489.9z M838.1,456.3v1.2c-4.6,0-10.4,0-15,0c-1.2,0-3.5,1.2-3.5,1.2c0,1.2,1.2,3.5,2.3,3.5
			c1.2,1.2,2.3,1.2,4.6,2.3c15,2.3,30,4.6,46.2,6.9c4.6,1.2,9.2,0,13.9,0c4.6,0,8.1-1.2,8.1-5.8c0-1.2-5.8-2.3-8.1-3.5
			c-5.8-1.2-11.6,0-17.3-1.2C857.8,461,848.5,458.7,838.1,456.3z M776.9,444.8c0-1.2,0-2.3,0-2.3c-2.3,0-5.8-1.2-8.1-1.2
			c-13.9,1.2-26.6-1.2-40.5-5.8c-3.5-1.2-8.1-2.3-11.6-2.3c-5.8-1.2-10.4,3.5-10.4,9.2c0,6.9,5.8,10.4,12.7,8.1
			c15-5.8,31.2-3.5,46.2-3.5C770,445.9,773.4,444.8,776.9,444.8z M783.8,249.5c0-1.2,1.2-2.3,1.2-3.5c-2.3-1.2-4.6-2.3-6.9-2.3
			c-9.2-2.3-19.6-4.6-28.9-6.9c-2.3-1.2-5.8-2.3-8.1-2.3c-13.9,0-27.7-4.6-40.5-10.4c-3.5-2.3-8.1-3.5-9.2,2.3
			c-1.2,4.6,0,8.1,4.6,9.2c5.8,1.2,11.6,2.3,17.3,2.3c16.2-1.2,31.2,0,45.1,5.8C767.6,248.3,775.7,248.3,783.8,249.5z M764.2,429.8
			c0-1.2,0-1.2,0-2.3c5.8,0,11.6,0,12.7-5.8c0-1.2,0-4.6-1.2-5.8c-1.2-1.2-4.6-1.2-5.8,0c-8.1,5.8-16.2,4.6-24.3,2.3
			c-10.4-3.5-19.6-8.1-28.9-11.6c-2.3-1.2-4.6,0-8.1,1.2c1.2,2.3,1.2,5.8,2.3,8.1c1.2,1.2,3.5,2.3,4.6,2.3
			C734.1,422.8,749.2,426.3,764.2,429.8z M712.2,390.5c0,1.2,0,1.2,0,2.3c9.2,3.5,18.5,6.9,27.7,10.4c11.6,3.5,22,3.5,33.5-1.2
			c2.3-1.2,3.5-4.6,5.8-5.8c-2.3-1.2-4.6-2.3-6.9-2.3c-3.5,0-6.9,0-9.2,0c-11.6,0-23.1-1.2-34.7-1.2
			C721.4,391.6,716.8,390.5,712.2,390.5z M886.7,307.3c-1.2-1.2-2.3-3.5-4.6-3.5c-15-3.5-30-6.9-46.2-10.4c-3.5-1.2-8.1-2.3-9.2,3.5
			c-1.2,4.6,3.5,5.8,6.9,6.9c15,3.5,30,6.9,45.1,11.6C884.4,315.3,886.7,314.2,886.7,307.3z M749.2,380.1L749.2,380.1
			c5.8,0,11.6,0,18.5,0c3.5,0,10.4,2.3,10.4-3.5s-5.8-4.6-10.4-4.6c-17.3,0-33.5,0-50.9,0c-1.2,0-3.5,1.2-3.5,2.3s0,3.5,1.2,4.6
			c2.3,1.2,4.6,2.3,6.9,2.3C729.5,380.1,738.8,380.1,749.2,380.1z M770,484.1c0-1.2,0-1.2,0-2.3c-4.6-1.2-9.2-1.2-12.7-2.3
			c-16.2-5.8-31.2-11.6-47.4-16.2c-2.3-1.2-4.6,0-6.9,0c1.2,3.5,1.2,6.9,2.3,9.2c1.2,1.2,3.5,2.3,4.6,2.3
			c18.5,3.5,35.8,6.9,54.3,10.4C765.3,486.4,767.6,485.2,770,484.1z M893.6,424c0-1.2-1.2-1.2-1.2-2.3c-2.3,0-4.6,1.2-5.8,1.2
			c-11.6,0-23.1,2.3-33.5-1.2c-10.4-3.5-18.5-4.6-27.7,0c-2.3,1.2-3.5,2.3-5.8,4.6c2.3,1.2,4.6,2.3,5.8,2.3c18.5,0,37,0,55.5-1.2
			c2.3,0,5.8,0,8.1-1.2C891.3,426.3,892.5,425.1,893.6,424z M697.1,485.2c9.2,11.6,65.9,22,82.1,15c-3.5-2.3-6.9-4.6-10.4-4.6
			c-15,1.2-28.9-1.2-42.8-4.6c-6.9-2.3-13.9-3.5-22-5.8C702.9,485.2,700.6,485.2,697.1,485.2z M818.5,441.3c0,1.2,0,2.3,0,2.3
			c3.5,0,6.9,1.2,10.4,1.2c16.2,1.2,33.5-1.2,49.7,4.6c3.5,1.2,8.1,1.2,10.4,0c2.3-1.2,4.6-4.6,6.9-6.9c-3.5-1.2-5.8-3.5-9.2-3.5
			c-18.5,0-35.8,1.2-54.3,1.2C828.9,441.3,823.1,441.3,818.5,441.3z M798.8,503.7c0,1.2,0,1.2,0,2.3c2.3,0,3.5,1.2,5.8,1.2
			c8.1,0,16.2,0,23.1,1.2c6.9,1.2,12.7,3.5,19.6,4.6c3.5,1.2,8.1,1.2,11.6,0c2.3,0,3.5-3.5,5.8-4.6c-2.3-1.2-3.5-3.5-5.8-4.6
			c-1.2-1.2-3.5-1.2-4.6-1.2c-16.2,0-33.5-1.2-49.7-1.2C802.3,501.4,800,502.6,798.8,503.7z M779.2,262.2c0-1.2,0-1.2,0-2.3
			c-4.6-1.2-9.2-1.2-13.9-2.3c-11.6-2.3-24.3-4.6-35.8-5.8c-4.6-1.2-10.4-1.2-12.7,4.6c-1.2,3.5,1.2,8.1,3.5,11.6
			c1.2,2.3,4.6,3.5,8.1,3.5c16.2,1.2,31.2,2.3,47.4,3.5c2.3,0,3.5,0,5.8-1.2c-1.2-2.3-2.3-2.3-3.5-2.3c-15-1.2-30-2.3-45.1-3.5
			c-2.3,0-5.8,0-8.1-1.2c-2.3-2.3-3.5-5.8-5.8-8.1c2.3-1.2,4.6-3.5,6.9-3.5c2.3-1.2,4.6,0,8.1,0c12.7,2.3,26.6,3.5,39.3,5.8
			C774.6,262.2,776.9,262.2,779.2,262.2z M832.4,314.2c-2.3,2.3-4.6,3.5-6.9,5.8c2.3,1.2,4.6,3.5,6.9,4.6c3.5,1.2,8.1,2.3,11.6,3.5
			c6.9,2.3,15,5.8,22,8.1c2.3,1.2,4.6-1.2,6.9-1.2c-1.2-2.3-1.2-5.8-3.5-6.9C857.8,322.3,845.1,318.8,832.4,314.2z M813.9,373.1
			c0,1.2-1.2,2.3-1.2,3.5c3.5,1.2,8.1,3.5,11.6,3.5c6.9,1.2,15,1.2,22,0c3.5,0,6.9-1.2,10.4-2.3c-2.3-2.3-4.6-5.8-8.1-8.1
			c-4.6-4.6-9.2-5.8-15-1.2c-3.5,2.3-9.2,2.3-13.9,3.5C818.5,374.3,816.2,373.1,813.9,373.1z M734.1,458.7c0,1.2,0,1.2,0,2.3
			c11.6,3.5,23.1,5.8,35.8,8.1c1.2,0,4.6-3.5,4.6-3.5c0-2.3-2.3-5.8-4.6-5.8C757.2,458.7,745.7,458.7,734.1,458.7z M887.8,289.9
			c0-1.2,0-2.3,0-2.3c-6.9-5.8-17.3-8.1-26.6-1.2C871.7,287.6,879.8,288.8,887.8,289.9z"/>
		<path d="M785,785.7c9.2-4.6,19.6-9.2,27.7-15c11.6-8.1,22-18.5,32.4-28.9c12.7-12.7,27.7-23.1,37-38.1
			c13.9-20.8,25.4-42.8,35.8-65.9c12.7-31.2,23.1-63.6,33.5-95.9c4.6-12.7,8.1-26.6,12.7-39.3c5.8-19.6,8.1-39.3,6.9-58.9
			c0-10.4,0-19.6-1.2-30c-1.2-16.2-2.3-33.5-4.6-49.7c-2.3-12.7-6.9-25.4-12.7-37c-10.4-23.1-22-45.1-33.5-68.2
			c-15-30-38.1-53.2-61.3-76.3c-28.9-28.9-61.3-53.2-95.9-74c-26.6-16.2-54.3-25.4-84.4-32.4c-16.2-3.5-31.2-8.1-47.4-9.2
			c-24.3-1.2-48.5-1.2-72.8,0c-10.4,0-20.8,1.2-31.2,3.5c-28.9,3.5-56.6,11.6-82.1,25.4c-22,11.6-43.9,23.1-64.7,35.8
			c-41.6,25.4-76.3,57.8-107.5,93.6c-8.1,10.4-17.3,19.6-26.6,30c-3.5,3.5-6.9,5.8-10.4,2.3c-3.5-3.5-3.5-8.1,0-11.6
			c17.3-18.5,33.5-38.1,50.9-56.6c8.1-9.2,17.3-17.3,25.4-25.4c15-16.2,33.5-27.7,50.9-40.5c27.7-19.6,58.9-34.7,89-48.5
			c16.2-6.9,32.4-11.6,49.7-16.2c43.9-11.6,87.8-9.2,132.9-6.9c16.2,0,32.4,5.8,47.4,10.4c33.5,9.2,68.2,19.6,98.2,38.1
			c38.1,24.3,74,52,105.2,84.4c24.3,26.6,42.8,55.5,62.4,85.5c28.9,46.2,38.1,97.1,41.6,150.2c1.2,23.1,0,46.2-3.5,69.3
			c-1.2,9.2-4.6,19.6-8.1,28.9c-10.4,31.2-19.6,62.4-32.4,93.6c-11.6,30-23.1,60.1-40.5,87.8c-2.3,4.6-4.6,8.1,0,13.9
			c6.9,9.2,5.8,22,1.2,32.4c-6.9,18.5-19.6,33.5-34.7,47.4c-26.6,24.3-60.1,34.7-92.5,47.4c-5.8,2.3-12.7,3.5-19.6,3.5
			c-3.5,0-6.9-2.3-11.6-3.5c2.3-3.5,4.6-8.1,8.1-10.4c2.3-2.3,6.9-2.3,10.4-3.5c20.8-4.6,40.5-13.9,58.9-24.3
			c17.3-9.2,33.5-18.5,47.4-33.5c10.4-11.6,15-25.4,18.5-39.3c0-2.3-1.2-4.6-2.3-6.9c-2.3,1.2-4.6,2.3-5.8,3.5
			c-23.1,19.6-45.1,40.5-68.2,60.1c-9.2,6.9-19.6,11.6-31.2,16.2c-2.3,1.2-5.8-1.2-8.1-2.3c-3.5-2.3-4.6-2.3-6.9,1.2
			c-6.9,9.2-13.9,16.2-22,24.3c-9.2,9.2-18.5,18.5-28.9,27.7c-1.2,1.2-3.5,2.3-4.6,2.3c-22,1.2-39.3,11.6-55.5,23.1
			c-13.9,9.2-26.6,20.8-39.3,32.4c-9.2,8.1-18.5,13.9-32.4,12.7c-27.7-2.3-53.2-6.9-78.6-17.3c-8.1-3.5-15-9.2-23.1-13.9
			c-4.6-2.3-6.9-2.3-11.6,0c-20.8,11.6-42.8,24.3-64.7,33.5c-28.9,12.7-61.3,18.5-92.5,20.8c-11.6,1.2-23.1,2.3-35.8,2.3
			c-32.4,1.2-62.4-4.6-94.8-8.1c-28.9-3.5-56.6-12.7-84.4-22c-4.6-1.2-10.4-3.5-8.1-9.2c2.3-5.8,8.1-4.6,12.7-3.5
			c12.7,3.5,24.3,8.1,35.8,10.4c16.2,4.6,32.4,8.1,48.5,10.4c27.7,5.8,56.6,6.9,84.4,6.9c33.5-1.2,67-3.5,99.4-11.6
			c30-8.1,57.8-22,83.2-39.3c13.9-9.2,27.7-19.6,41.6-30c2.3-1.2,5.8-3.5,9.2-2.3c2.3,1.2,2.3,6.9,1.2,9.2
			c-2.3,3.5-4.6,8.1-8.1,10.4c-4.6,3.5-4.6,6.9,0,9.2c4.6,3.5,10.4,6.9,15,9.2c23.1,9.2,46.2,17.3,71.7,15c3.5,0,6.9-2.3,8.1-3.5
			c5.8-6.9,13.9-12.7,17.3-20.8c8.1-16.2,19.6-27.7,31.2-40.5c26.6-27.7,52-56.6,79.7-83.2c19.6-18.5,41.6-34.7,62.4-53.2
			c5.8-4.6,10.4-10.4,15-17.3c3.5-5.8,10.4-8.1,17.3-3.5c11.6,8.1,20.8,18.5,31.2,27.7c3.5,3.5-3.5,15-10.4,15
			c-6.9,0-10.4,2.3-15,6.9c-10.4,12.7-22,24.3-32.4,35.8c-3.5,3.5-6.9,8.1-9.2,12.7C783.8,784.6,785,785.7,785,785.7z M640.5,871.3
			c0,1.2,1.2,1.2,1.2,2.3c4.6-2.3,9.2-3.5,12.7-6.9c16.2-12.7,33.5-19.6,53.2-24.3c3.5-1.2,6.9-3.5,9.2-5.8
			c9.2-11.6,18.5-23.1,27.7-34.7c24.3-26.6,48.5-53.2,74-78.6c3.5-3.5,6.9-8.1,3.5-12.7c-3.5-5.8-9.2-3.5-12.7,0
			c-8.1,5.8-16.2,11.6-24.3,17.3c-16.2,13.9-32.4,26.6-48.5,40.5c-6.9,6.9-12.7,15-19.6,22c-24.3,25.4-48.5,50.9-72.8,76.3
			C642.8,867.8,641.7,868.9,640.5,871.3z"/>
		<path d="M644,702.5c0-10.4,5.8-17.3,11.6-24.3c6.9-9.2,16.2-18.5,23.1-28.9c5.8-9.2,13.9-11.6,24.3-11.6c13.9,0,27.7,0,40.5,0
			c5.8,0,11.6-3.5,17.3-5.8c10.4-4.6,20.8-5.8,31.2-3.5c8.1,2.3,10.4,10.4,6.9,18.5c-10.4,18.5-23.1,37-42.8,48.5
			c-16.2,10.4-33.5,20.8-49.7,31.2c-16.2,11.6-31.2,10.4-47.4,1.2C647.4,722.2,644,715.2,644,702.5z M717.9,650.5L717.9,650.5
			c-4.6,0-9.2,0-12.7,0c-2.3,0-4.6,0-6.9,1.2c-12.7,13.9-25.4,28.9-38.1,43.9c-1.2,1.2-1.2,2.3-1.2,3.5c0,4.6,1.2,6.9,5.8,6.9
			c2.3,0,5.8-1.2,6.9-2.3c8.1-5.8,17.3-11.6,25.4-17.3c11.6-9.2,23.1-20.8,34.7-31.2c1.2-1.2,2.3-2.3,1.2-3.5c0-1.2-2.3-2.3-3.5-2.3
			C727.2,650.5,722.6,650.5,717.9,650.5z M779.2,639c-5.8,2.3-8.1,3.5-13.9,5.8c-4.6,2.3-6.9,4.6-12.7,9.2c-3.5,2.3-4.6,4.6-1.2,8.1
			c4.6,4.6,13.9,4.6,19.6,0c4.6-4.6,9.2-8.1,13.9-12.7c1.2-1.2,2.3-3.5,3.5-5.8C785,641.3,782.7,640.1,779.2,639z M714.5,706
			c5.8-3.5,10.4-5.8,15-10.4c3.5-2.3,1.2-4.6-2.3-5.8c-9.2-3.5-12.7-3.5-18.5,4.6c-1.2,2.3-3.5,5.8-2.3,6.9
			C708.7,703.7,711,704.8,714.5,706z M681,724.5c4.6-2.3,9.2-4.6,12.7-6.9c1.2-1.2,3.5-3.5,2.3-4.6c-1.2-2.3-4.6-2.3-5.8-1.2
			c-3.5,1.2-6.9,2.3-10.4,4.6c-1.2,1.2-4.6,2.3-3.5,4.6C675.2,722.2,678.7,722.2,681,724.5z M746.8,681.7c1.2,0,6.9,0,6.9-3.5
			c0-2.3-4.6-3.5-6.9-3.5c-3.5-1.2-8.1-1.2-12.7-1.2c-2.3,0-4.6,0-4.6,2.3s2.3,3.5,4.6,4.6C737.6,680.6,741.1,681.7,746.8,681.7z"/>
		<path d="M946.8,448.3c1.2,3.5,2.3,6.9,3.5,10.4c1.2,15,1.2,30-3.5,43.9c-15,42.8-30,85.5-45.1,128.3c-1.2,2.3-2.3,4.6-3.5,6.9
			c-5.8,6.9-6.9,6.9-11.6,0c-1.2-2.3-3.5-3.5-4.6-4.6c-8.1-3.5-16.2-6.9-24.3-11.6c-2.3-1.2-3.5-4.6-4.6-5.8
			c2.3-1.2,4.6-4.6,6.9-4.6c5.8,1.2,11.6,3.5,16.2,4.6c2.3,1.2,4.6,2.3,6.9,3.5c3.5,1.2,8.1,2.3,9.2-2.3c0-2.3-2.3-5.8-4.6-8.1
			s-5.8-2.3-8.1-4.6c-2.3-2.3-3.5-5.8-4.6-9.2c3.5-1.2,5.8-2.3,9.2-2.3c2.3,0,4.6,1.2,6.9,1.2c2.3,0,4.6,0,6.9,0
			c0-3.5,0-6.9-1.2-9.2c-1.2-2.3-4.6-3.5-5.8-4.6c-1.2-2.3-1.2-5.8-2.3-9.2c2.3,0,5.8-2.3,8.1-1.2c4.6,2.3,9.2,4.6,13.9-1.2
			c3.5-5.8,3.5-10.4-2.3-16.2c-1.2-1.2-3.5-3.5-4.6-5.8c-2.3-4.6,0-8.1,4.6-6.9c10.4,1.2,10.4,0,13.9-9.2
			c5.8-19.6,11.6-40.5,17.3-60.1c1.2-4.6,1.2-9.2,2.3-12.7c1.2-3.5,2.3-5.8,3.5-8.1C945.6,447.1,946.8,448.3,946.8,448.3z"/>
		<path d="M675.2,99.2c12.7,1.2,22,5.8,32.4,10.4c22,10.4,45.1,18.5,65.9,31.2c10.4,6.9,11.6,8.1,15,13.9c3.5,5.8-1.2,9.2-6.9,8.1
			c-3.5,0-6.9-2.3-9.2-3.5c-30-18.5-62.4-32.4-97.1-42.8c-2.3-1.2-3.5-1.2-5.8-1.2c-4.6,0-6.9-2.3-6.9-6.9
			C661.3,105,664.8,98.1,675.2,99.2z"/>
		<path d="M951.4,385.8c0,3.5-1.2,8.1-1.2,12.7c0,1.2-2.3,4.6-3.5,4.6s-4.6-1.2-4.6-2.3c-1.2-3.5-2.3-6.9-3.5-10.4
			c-1.2-17.3-3.5-33.5-12.7-48.5c-1.2-1.2-1.2-3.5-1.2-4.6c1.2-3.5,2.3-5.8,3.5-9.2c2.3,1.2,5.8,2.3,6.9,4.6
			C945.6,347.7,951.4,365,951.4,385.8z"/>
		<path d="M597.8,84.2c8.1,1.2,15,1.2,20.8,2.3c3.5,1.2,6.9,2.3,10.4,4.6c2.3,1.2,3.5,4.6,3.5,5.8c-1.2,6.9-9.2,5.8-10.4,5.8
			c-10.4-1.2-22-2.3-32.4-3.5c-4.6-1.2-8.1-2.3-12.7-3.5c-1.2-1.2-3.5-4.6-2.3-5.8c1.2-2.3,3.5-3.5,5.8-4.6
			C587.3,83,593.1,84.2,597.8,84.2z"/>
		<path d="M827.7,194c0,5.8-2.3,8.1-6.9,4.6c-6.9-4.6-12.7-10.4-18.5-16.2c-1.2-1.2-2.3-5.8-1.2-6.9c1.2-2.3,4.6-3.5,8.1-3.5
			C817.3,173.2,827.7,185.9,827.7,194z"/>
		<path d="M877.4,677.1c-2.3,1.2-4.6,4.6-6.9,4.6c-3.5,0-8.1-3.5-8.1-5.8c0-4.6,2.3-9.2,8.1-8.1c3.5,1.2,5.8,3.5,8.1,5.8
			C877.4,674.8,877.4,675.9,877.4,677.1z"/>
		<path d="M833.5,590.4c3.5,4.6,6.9,6.9,5.8,8.1c0,3.5-3.5,5.8-5.8,8.1c-2.3-2.3-5.8-4.6-6.9-6.9C826.6,598.5,830.1,595,833.5,590.4
			z"/>
		<path d="M868.2,581.2c-4.6,2.3-6.9,5.8-9.2,5.8c-1.2,0-3.5-2.3-5.8-4.6c2.3-2.3,3.5-5.8,6.9-6.9
			C861.3,574.2,864.7,577.7,868.2,581.2z"/>
		<path d="M345.8,439c-3.5,0-10.4-3.5-12.7-4.6c-16.2-6.9-27.7-11.6-45.1-17.3c-39.3-13.9-78.6-25.4-115.6-43.9
			c-4.6-2.3-9.2-4.6-12.7-6.9c-2.3-2.3-4.6-5.8-4.6-9.2c0-8.1,3.5-9.2,10.4-6.9c2.3,0,3.5,1.2,4.6,2.3
			c49.7,25.4,102.9,42.8,156,62.4c8.1,3.5,16.2,6.9,24.3,11.6c4.6,3.5,3.5,8.1,2.3,9.2C350.4,439,349.3,439,345.8,439z"/>
		<path d="M333.1,486.4c2.3,1.2,10.4-1.2,11.6,6.9c1.2,5.8-5.8,9.2-13.9,8.1c-5.8,0-8.1-3.5-8.1-8.1
			C323.8,489.9,325,484.1,333.1,486.4z"/>
	</g>
</g>
</svg>
