<svg id="Calque_1" data-name="Calque 1" xmlns="http://www.w3.org/2000/svg" viewBox="0 0 261.61 180.34"><title>crow</title><path d="M261.24,59.29c-.27-.32-.7-.23-1.07-.14l-.17,0-.13,0a1.67,1.67,0,0,0-1.33-.36h-.34L252,58.33l-5.6-.48-.92-.09,6.13-2.26h0c0,.44.08,1.22.92,1.29.62.05,1.12-.67,1.26-.93a12.68,12.68,0,0,0,.51-1.17c.14-.36.29-.72.46-1.06q1.34-2.61,2.7-5.22,1.87-3.61,3.73-7.23a1.79,1.79,0,0,0,0-1.52,1.43,1.43,0,0,0-1.41-.48c-.76.17-1.51.41-2.24.64l-.26.08L253.91,41c-2.39.78-4.87,1.6-7.32,2.31-.75.22-1.51.4-2.27.57,1.74-1.19,3.46-2.46,5.12-3.69l2.13-1.57.14-.11.06-.05a1.59,1.59,0,0,0,1.58-1.19l1-2.25,2-4.63c.15-.35.32-.7.48-1,.25-.53.5-1.07.71-1.61a1.43,1.43,0,0,0-.07-1.42,1.54,1.54,0,0,0-1.46-.58,9.4,9.4,0,0,1-1.26-.09c-.32,0-.64-.08-1-.09h-.13a2.3,2.3,0,0,0-1.38.21,14.08,14.08,0,0,0-1.38,1.06c-.26.22-.53.44-.8.65a40.17,40.17,0,0,1-9.16,5.39l-3.51,1.44c-2.65,1.09-5.39,2.21-8.11,3.26-1.33.51-2.71.95-4.06,1.37q2.4-1.75,4.78-3.52a4,4,0,0,0,.9-.94,1.76,1.76,0,0,0,.07-1.68l-.07-.1.56-.08.66-.1a1.81,1.81,0,0,1,.73,0,1.81,1.81,0,0,0,1.46.15,1.42,1.42,0,0,0,.66-1,2,2,0,0,1,.75-1l.38-.35A11.64,11.64,0,0,0,237.31,29c3.62-5,7.15-10.32,10.8-16.26a5.18,5.18,0,0,0,.56-2,5.75,5.75,0,0,0,0-1,5.72,5.72,0,0,1,0-.74c.06-.69.14-1.38.22-2.07.11-.95.21-1.89.28-2.84a10,10,0,0,0-.13-2.39,1.61,1.61,0,0,0-1-1.1c-.52-.15-1.14.45-1.3.83a19.36,19.36,0,0,1-3,4.71,79.41,79.41,0,0,1-10.32,11.05c-3.82,3.2-7.76,6.39-11.58,9.46l-4.73,3.82A136.86,136.86,0,0,1,194.2,45.24a11.53,11.53,0,0,0-1.11.7,8,8,0,0,1-1.28.77l-1.17.52a20.92,20.92,0,0,1-5.51,1.9,27.15,27.15,0,0,0-4.07,1.05c-.61.19-1.22.38-1.83.56a2.12,2.12,0,0,1-.37.05l-.31,0-.54.06a4.36,4.36,0,0,0-1.42.31,18,18,0,0,0-2.06,1.18l-.64.4-9.4,5.77A1.6,1.6,0,0,0,163.42,57l-.61-.3-.48,3a20,20,0,0,1-11.7-2.07,1.64,1.64,0,0,0-.75-.15h-.21l-1-.12.17.29a1,1,0,0,0-.41,0,3.51,3.51,0,0,0-.73.3l-.74.36v-.11a7.31,7.31,0,0,0-.22-1.94,1.24,1.24,0,0,0-1.08-1,2.13,2.13,0,0,1-1-.35l-.1-.11h.09v-.45c0-.1,0-.19,0-.29a2,2,0,0,0-.07-.93l-.16-.41a36,36,0,0,0-1.58-3.57,17.34,17.34,0,0,1-1.64-6,.88.88,0,0,0,.76-1.25,3.75,3.75,0,0,0-.95-1.43c-.2-.21-.42-.41-.63-.61a4.18,4.18,0,0,1-1.58-2.34c-.26-1.5-.62-3-1-4.45-.22-1-.45-1.91-.65-2.87a2.82,2.82,0,0,1,0-.92c0-.12,0-.23,0-.35a4,4,0,0,1,.11-.52,2.16,2.16,0,0,0-.13-1.89l-.45-.7c-.83-1.27-1.69-2.59-2.57-3.85a1.51,1.51,0,0,0-2.14-.36,14.32,14.32,0,0,0-4.8,5,2.74,2.74,0,0,0-.28,1.17,3.77,3.77,0,0,0,.89,2.4c.12.18.24.36.35.55a.66.66,0,0,1,.1.25l-.06.37A13,13,0,0,1,128,33.2c-.21.65-.46,1.3-.7,1.94-.35.94-.72,1.91-1,2.9a2.58,2.58,0,0,1-1.3,1.47l-.35.24a8.12,8.12,0,0,0-1.4,1.27,1.26,1.26,0,0,0,0,1.28,1.75,1.75,0,0,0,.92,1,1.22,1.22,0,0,0,.54,0c-.1.35-.2.7-.31,1a20.54,20.54,0,0,0-.62,2.42,5.16,5.16,0,0,1-1,2.34,8.73,8.73,0,0,0-.67,1.08l-.17.29a.73.73,0,0,0,0,.58l.07.5.34-.05a17.76,17.76,0,0,1-2.46,3.9l-.68.9.69.2a1.79,1.79,0,0,0,.56.08l0,.06a3.18,3.18,0,0,0-.5,2.56.88.88,0,0,0-.06.23l-.06.48c-.07.53-.14,1.07-.18,1.61,0,.17,0,.34,0,.52l-.8-.84a4.94,4.94,0,0,0-4.62-1.63l-1,.18a41.89,41.89,0,0,1-5.18.7,34.38,34.38,0,0,1-4.45-.17l-1.61-.12a1,1,0,0,1-.21-.1,1.74,1.74,0,0,0-.53-.21,2.12,2.12,0,0,0-.58,0,1.13,1.13,0,0,1-.31,0l-1-.37a35.23,35.23,0,0,1-3.81-1.55,17.29,17.29,0,0,1-2.27-1.45l-.1-.2c-.54-1.09-5.16-4.58-6.24-4.51l-1,.09-.37-.23a9.32,9.32,0,0,0-1.17-.58l-.51-.23-.42-.2-.61,1.08.41.3a7.62,7.62,0,0,1-2.4-.58c-2.34-1-4.69-2-7-3l-2-.85c-.2-.09-.42-.15-.63-.22l-.73-.24-.38,1-.07,0c-1.23-.64-2.5-1.29-3.67-2-1-.63-2-1.35-2.9-2l-1.08-.79L59,41q-4.65-3.34-9.28-6.69A169.1,169.1,0,0,1,32.41,20c-2.25-2.14-4.45-4.42-6.58-6.62-1.08-1.12-2.16-2.24-3.25-3.35L19.73,7.17c-1.44-1.45-2.89-2.9-4.31-4.36a6.81,6.81,0,0,1-.76-1c-.16-.25-.33-.5-.51-.73a3.88,3.88,0,0,0-.91-.9A1.22,1.22,0,0,0,12,.18a1.25,1.25,0,0,0-.37,1.12,2.83,2.83,0,0,0,.22.7c0,.09.08.18.11.28l.08.24c.28.85.56,1.7.81,2.51a1.05,1.05,0,0,1,0,.13c0,.07,0,.15,0,.22a1.42,1.42,0,0,1,0,.14,1.12,1.12,0,0,0,0,.7,11.65,11.65,0,0,1,.7,4.89,3.14,3.14,0,0,1-.27,1.17,1.49,1.49,0,0,0,.38,1.78,3,3,0,0,1,.64,1.15,4,4,0,0,1,.13.86c0,.23,0,.46.08.68a4.24,4.24,0,0,0,.21.71l.22.67L16,17.94,16,16.75l2.32,2.59L22.1,23.6l1.63,1.81c1.39,1.53,2.82,3.12,4.15,4.74A31.08,31.08,0,0,0,33,35.35c2,1.51,4,3,6,4.49l3.6,2.68h0l-.16.27-.15-.06-5.76-2.8a1.52,1.52,0,0,0-1.16-.19,1.16,1.16,0,0,0-.58.5l-.45-.11c-.6-.15-1.2-.29-1.8-.42a37.16,37.16,0,0,1-10.77-4.14c-3.09-1.73-6.18-3.6-9.17-5.41L8.52,27.71l-.26-.16c-.55-.33-1.11-.67-1.7-1a2.38,2.38,0,0,0-1.73.1,1.08,1.08,0,0,0-.67.63,2,2,0,0,0,.19,1.44C6.5,32.52,8.44,35.86,10.28,39c.73,1.23,1.55,2.54,2.6,4.12A6.37,6.37,0,0,0,15.17,45l.4.24c1.41.85,2.79,1.8,4.13,2.73.74.51,1.49,1,2.24,1.53l.09.06c.21.14.43.29.46.32a1.05,1.05,0,0,1-.06.28L22,50a127.23,127.23,0,0,1-16.56-5.5L5,44.36a6.15,6.15,0,0,1-3-2,1.22,1.22,0,0,0-1-.38l-.31,0-.53-.09L0,42.65a4.69,4.69,0,0,0,0,.78,1.18,1.18,0,0,0,.26.6l1,1.7c.79,1.32,1.58,2.63,2.4,3.93C4.77,51.4,5.91,53.13,7,54.82a2.34,2.34,0,0,0,.39.43,1.21,1.21,0,0,1,.23.25,2.56,2.56,0,0,0,1.64,1.62l.43.19c2,.88,4,1.76,6.07,2.62.66.28,1.33.54,2,.81a43.25,43.25,0,0,1-7.73.89c-1.57,0-3.18,0-4.73,0l-2.2,0A1.39,1.39,0,0,0,1.91,62a1.26,1.26,0,0,0,0,1.19,20,20,0,0,0,1.2,2.33l.42.69a9.41,9.41,0,0,0,3.23,3.7c.18.1.35.22.49.32l.69.46.22-.53a1.56,1.56,0,0,0,.26.84,1.5,1.5,0,0,0,.6.52L11,72.69,13.21,74l.6.37h-.06a4.15,4.15,0,0,0-.66,0l-2.18.25c-1.21.15-2.47.3-3.71.4S5.46,75.43,5,76.8l-.12.39,13.94,7.43a4.56,4.56,0,0,1-.46.2,11.79,11.79,0,0,1-1.22.34l-.76.19-3.35.84a1.52,1.52,0,0,1-.3,0A1.11,1.11,0,0,0,11.5,87c-.23.9.54,1.37.95,1.63l.13.08a33.37,33.37,0,0,0,8.36,4.18c.33.1.67.18,1,.26l-.71.49c-.85.58-1.7,1.17-2.54,1.78-.24.17-.83.82-.61,1.37a2.12,2.12,0,0,0,1.06,1.08c.82.35,1.65.67,2.49,1l1.41.54.26.09c.46.15.53.22.56.44a.9.9,0,0,0,.63.68,2.27,2.27,0,0,0,2.38-.21,1.59,1.59,0,0,1,.26-.17v1.3c0,.23,0,.47,0,.71,0,.57,0,1.16,0,1.75A2,2,0,0,0,29,105.85c1.1.27,2.2.56,3.31.87l1,.27,0,.26a4.09,4.09,0,0,1-.21,1.13,1.58,1.58,0,0,0-.15,1.23,1.39,1.39,0,0,0,.86.68c.82.31,1.65.57,2.46.81l.86.26c1.28.39,2.61.8,3.94,1.13a4.34,4.34,0,0,0,1.88-.05c.39-.08.53-.46.64-.76l.07-.19.08-.08a2.31,2.31,0,0,1,2-.58l-.41,2,.9.75.29-.54a1.23,1.23,0,0,1,1.06-.66c-.49.68-1,1.3-1.48,1.88a1.72,1.72,0,0,0-.55,1.56c.21.65,1,.83,1.28.9.87.2,1.73.35,2.65.5l.86.15a6.21,6.21,0,0,1,.07,1,4.1,4.1,0,0,0,.68,2.62l.17.23.49-.06.31,0,1.12,0c.88,0,1.78-.06,2.67-.18.41-.05.43,0,.51.14a2.47,2.47,0,0,0,.26.41l.08.11c.52.74,1.06,1,1.74.74l.05.13c.19.48.39,1,.64,1.46l.12.24a2.41,2.41,0,0,0,1.62,1.56,18.14,18.14,0,0,0,6.47.34.62.62,0,0,1,.22,0,.43.43,0,0,1,.09.14,3.26,3.26,0,0,0,3.63,2.11l.61,0c.83,0,1.67-.1,2.5-.17.65-.06,1.31-.14,2-.23l.66-.08c.15.22.32.49.49.76,1,1.63,1.27,1.72,3,.88a30.33,30.33,0,0,1,8.93-2.73l.38.94.53-.75c.08-.12.18-.23.27-.35A5.32,5.32,0,0,0,91,126l0,.07c.18.7.33,1.41.48,2.12.1.48.2,1,.31,1.42a1.82,1.82,0,0,0,1.81,1.58l.13.07.24.12.7.32v-.77c0-.66.29-.76,1.11-1l.48-.13c1.85-.56,3.51-1.15,5.06-1.78l.35-.13c.81-.3,2-.74,1.84-2.31l.34-1.39c.31-1.28.63-2.55.93-3.83.08-.32.13-.65.18-1,.37.21.73.41,1.07.63a.55.55,0,0,1,.19.22c.08.53.14,1.06.2,1.6s.14,1.26.24,1.89l.05.34a11,11,0,0,0,1.64,5l.91,1.25.76-.36.11.14A2.21,2.21,0,0,0,112,131a1.75,1.75,0,0,0,1.27-1.06c.3-.58.54-1.18.78-1.76.13-.31.25-.62.38-.92q1.68-3.86,3.37-7.71a.7.7,0,0,1,.17-.28,3.26,3.26,0,0,0,.57-.47l.26,1.43a.78.78,0,0,1,0,.37,11,11,0,0,0-.42,1.19,4.62,4.62,0,0,1-1.07,2.1.89.89,0,0,0-.31.65,1.12,1.12,0,0,0,.45.8l.11.1c.38.46,1.18,0,1.32-.1s.39-.32.58-.49a4.28,4.28,0,0,1-.34,1.53.78.78,0,0,0-.4-.1,1.33,1.33,0,0,0-1,.77c-.38.63-.74,1.27-1.11,1.91l-.31.55-.41.75-1.05,1.92.08,0a19.27,19.27,0,0,0-1.9,1.65l-.3.31.75,1,1.81-1.24c-.35.45-.71.9-1.09,1.31-2.34,2.51-4.75,5-7.09,7.46l-1.69,1.76-.5.51a8.76,8.76,0,0,0-2.23,3,5.45,5.45,0,0,1-.52.95l-.27.43-.28.49a9.66,9.66,0,0,1-.7,1.13,1.5,1.5,0,0,0-.29,1.37,1.36,1.36,0,0,0,.94.87,3.6,3.6,0,0,0,1,.14l6.11.07h1a30.26,30.26,0,0,1-3.84,5.27,1.8,1.8,0,0,0-.5,1.85,14.78,14.78,0,0,1,.39,2.51c0,.13,0,.26,0,.4.08.62.07.88-.29,1.11l-.66.44.68.41.26.13c.75,1.07,1,1.23,2.32.73,2.11-.82,4-1.59,5.89-2.37.51-.22,1-.47,1.52-.74-.28.63-.54,1.21-.81,1.79a1.67,1.67,0,0,0,.28,2,4.27,4.27,0,0,1,.67,1.19c.13.3.23.61.33.92a10.15,10.15,0,0,0,.57,1.44,2.39,2.39,0,0,0,1.37,1.15,5.46,5.46,0,0,0,2,0c1-.13,2-.29,2.95-.46l.6-.1v.05a2.63,2.63,0,0,0,1.92,2.66c2.56.64,3.86,2.54,5,5.19a1.88,1.88,0,0,0,1.13.93c.62.18,1.13-.79,1.19-1A3.12,3.12,0,0,0,133,178c0-.11,0-.21,0-.31l.08-.88a11.85,11.85,0,0,1,1.19,2.34,2.61,2.61,0,0,0,.44.81,1.13,1.13,0,0,0,.83.43,1.31,1.31,0,0,0,.83-.36,3.26,3.26,0,0,0,.82-1.18,5,5,0,0,1,.25-.47,35.48,35.48,0,0,1,2.45-3.45,2.26,2.26,0,0,0,.58-2.07,10.53,10.53,0,0,1-.21-1.66s0-.13,0-.1a4.33,4.33,0,0,1,2.68-.92l.59,1.58.54-.81.64-.92a9.2,9.2,0,0,0,2.11-4.62l.38,0c.7.08,1.42.16,2.13.19a3.23,3.23,0,0,0,3.32-1.61,5.9,5.9,0,0,1,.63-.88c.14-.17.28-.34.41-.52s.4-.37.72-.27c1.37.41,2.42.7,3.41.93a2.08,2.08,0,0,0,2.69-2.55,35.64,35.64,0,0,0-2.45-7.32l3,1.59c.65.35,1.29.71,2,1a1.66,1.66,0,0,0,1.11,0,.62.62,0,0,0,.37-.33l.06-.13a7.71,7.71,0,0,0,.69-2.2,19.07,19.07,0,0,0,0-2.42v-.4a.93.93,0,0,0,1.15-.75,1.13,1.13,0,0,0-.13-.92l.07,0,.72-.35-.63-.49c-.18-.14-.37-.27-.55-.4a3.69,3.69,0,0,1-.91-.77,3.63,3.63,0,0,1-.42-1.11c-.06-.24-.13-.48-.22-.74l-.37-1.11-.57,1.07-2.4-2.42c-2-2-4-4.07-6-6.12s-4-4.14-6-6.37a4,4,0,0,1-.71-1.39c-.18-.56-.34-1.14-.49-1.71l.28.31,0-1.19a1.24,1.24,0,0,0,.37.33c.54.3,1.31-.27,1.4-.34a9.92,9.92,0,0,0,.77-.68c.21-.2.42-.4.64-.57l.05,0a.51.51,0,0,1,0,.08,7.89,7.89,0,0,1-.05,1.23l0,.17a1.39,1.39,0,0,0,.32,1.18,1.3,1.3,0,0,0,1.08.3,2.21,2.21,0,0,0,1.38-.62l.22-.25a14.38,14.38,0,0,0,1.94-2.55l.15-.27a4.8,4.8,0,0,0,.86-3.76,5.58,5.58,0,0,1,1.71-1.64l.29,1.37c.32,1.51.65,3,1,4.54a2.5,2.5,0,0,0,1.46,1.89,20.73,20.73,0,0,1,2.62,1.35c2.41,1.48,4.38,2.74,6.21,4l.12.08a1.88,1.88,0,0,0,1.15.43c.44,0,.92-.07,1.09-.46a1.92,1.92,0,0,0,0-1.1,4.39,4.39,0,0,0-.14-.52,2.37,2.37,0,0,1-.12-.51,5.71,5.71,0,0,1,1-3.52c0-.05.1-.15,0-.13a1.11,1.11,0,0,0,.84-.69,1.17,1.17,0,0,0,.73.45,2.42,2.42,0,0,1,1.47,1.06c.7.94,1.36,1.94,1.93,2.8a2.17,2.17,0,0,0,1.46,1.07,2,2,0,0,0,1.39-.36c.19.14.38.3.58.47a5.25,5.25,0,0,0,2.09,1.26l.31.08.66-.83-2.42-2,.46-.17c.88-.33,1.77-.66,2.64-1,.32-.13.33-.12.46.13a1.81,1.81,0,0,0,2,1c3.26-.54,5.9-1,8.31-1.32a1.49,1.49,0,0,0,1.33-1.27c.09-.4.17-.8.26-1.22l0-.1h0a4.53,4.53,0,0,0,1.08,0c1.4-.17,2.8-.36,4.2-.55l3.22-.43a1.16,1.16,0,0,1,.31,0l.34.06.15,0a1.08,1.08,0,0,0,.87-.13,1.24,1.24,0,0,0,.36-1.17,4.18,4.18,0,0,0-.35-.82c-.06-.12-.12-.23-.17-.35l-1.09-2.49-.1-.23h6.42l.55,0a6.7,6.7,0,0,0,.9,0,1.57,1.57,0,0,0,1.56-2.16,6.09,6.09,0,0,1-.19-1c0-.35,0-.71-.05-1.06s0-1-.09-1.53c0-.14,0-.29,0-.4h.43l3.28,0c2.32,0,4.65.06,7,.08a5.22,5.22,0,0,0,1.08-.15l.57-.12.62-.11-2.68-6.26h0c.42-.08.81-.15,1.18-.25l1.43-.39c1.57-.42,3.18-.85,4.75-1.37a17,17,0,0,0,3.15-1.56,1.41,1.41,0,0,0,.73-1.06,1.79,1.79,0,0,0-.61-1.48,10.07,10.07,0,0,1-.85-1c.32,0,.61-.09.9-.15A39,39,0,0,0,249,94.76l.14-.08a1,1,0,0,0,.62-1.29,1.94,1.94,0,0,0-1.1-1.07,4.46,4.46,0,0,0-1.07-.14,4.53,4.53,0,0,1-.73-.08c-1.91-.42-3.81-.87-5.72-1.31l.34-.05.45-.07,2.5-.41c1.41-.23,2.81-.46,4.22-.68a1.55,1.55,0,0,0,1.16-.65,1.41,1.41,0,0,0,.07-1.22q-.68-2.08-1.4-4.15c-.27-.79-.56-1.57-.85-2.38l-.19-.53.47-.11c.71-.17,1.41-.33,2.11-.47,1.94-.39,3.88-.75,5.82-1.12l.79-.15a1.26,1.26,0,0,0,1-1.54,1.11,1.11,0,0,0-.36-.79,1.37,1.37,0,0,0-1.06-.22.88.88,0,0,0-.47.13.67.67,0,0,1-.09-.15c-.22-.41-.46-.81-.7-1.21s-.56-.93-.8-1.41a3.88,3.88,0,0,0-2.77-2.08c-.47-.11-.94-.25-1.43-.4l1.05-.56c1.09-.58,2.17-1.16,3.25-1.77.19-.11,1.14-.82.85-1.42s-.49-.92-.76-1.38c.26.09.52.19.78.3a1.91,1.91,0,0,0,.79.18,1.61,1.61,0,0,0,1.19-.55l.24-.25c1.19-1.25,2.37-2.5,3.53-3.78a3,3,0,0,0,.69-1.27A1.66,1.66,0,0,0,261.24,59.29ZM133.51,24.71a3.56,3.56,0,0,0-1,0l.37-.25.29-.19ZM35.25,108.88h0ZM50,114.94l-.24.24-.56-.24.4-.54.95-1.28.09.48C50.71,114.18,50.44,114.47,50,114.94Zm57.75-1.57-1.14.14v3.79l-1.53-.8.61-6.43-1-.19c-.26.88-.47,1.77-.67,2.64-.1.44-.2.88-.31,1.31-.19.76-.39,1.51-.6,2.26-.26.94-.51,1.88-.73,2.83-.13.55-.24,1.11-.36,1.66a21.11,21.11,0,0,1-1.33,4.67,1.6,1.6,0,0,1-.16.29h0c-1.44.58-2.89,1.15-4.4,1.74l-.37.15,2.37-12.33-1.2-.27L94,126.27a8.27,8.27,0,0,0-.36-1.05,7.2,7.2,0,0,1-.29-.89,3.4,3.4,0,0,0-1.66-2.47l1.35-6.4-1.07.81a1.57,1.57,0,0,0-.57.9l-.27,1.05c-.48,1.83-1,3.65-1.4,5.48-.07.31-.1.31-.29.34a35.33,35.33,0,0,0-9.77,3l-.08-.12-.55-.77a2.17,2.17,0,0,0-2.13-.83l-2.25.2c-1.37.13-2.74.25-4.1.36a.44.44,0,0,1-.23-.11,3.32,3.32,0,0,1-.52-1,1.58,1.58,0,0,0-1.67-1.15c-1.81,0-3.77-.11-6.17-.24a.79.79,0,0,1-.29-.12c-.54-1.39-.94-2.56-1.26-3.67a3.86,3.86,0,0,1-.1-.95c0-.24,0-.48,0-.71a2.22,2.22,0,0,0-.18-.6l-.07-.19-.13-.37-1.05.1,0,.41c0,.18,0,.37-.07.56a4.59,4.59,0,0,0-.06,1.48.79.79,0,0,1-.07.59,3,3,0,0,0-.26-.5,1.77,1.77,0,0,0-1.06-.92,16.29,16.29,0,0,0-2.12-.14H53A6.37,6.37,0,0,1,53,116.8v-.27a4.62,4.62,0,0,0-1.2-2.95L51,112.5l.24-.32c.51-.66,1-1.31,1.54-2l1.41-1.8a2,2,0,0,0,.29-.58l.07-.19.16-.37-.83-.58-.41.33a2.72,2.72,0,0,0-.35.3l-.59.65c-.35.4-.71.79-1.08,1.17a.85.85,0,0,1-.39.1c-.26,0-.52,0-.79,0a10.08,10.08,0,0,0-1.16.08l-.43.09a.64.64,0,0,0-.1-.4,2,2,0,0,0-1.39-.82,14.31,14.31,0,0,0-2.48,0A6.1,6.1,0,0,0,41,109.79a.67.67,0,0,1-.43.1c-1.35-.35-2.69-.73-4-1.12l-.73-.21.13-1.4h0c.28,0,.55,0,.82,0l1.65-.05-1-.84-.22-.21a2,2,0,0,0-.78-.54c-1.66-.51-3.33-1-5-1.46l-1.27-.36-.25-.07c0-.34,0-.68,0-1a21.65,21.65,0,0,0-.06-3.1,2.42,2.42,0,0,0-1.2-2,2.71,2.71,0,0,0-2.54.2.58.58,0,0,1-.36,0c-.6-.24-1.2-.5-1.79-.76l-1.6-.68c-.25-.1-.52-.19-.78-.27l.47-.31a18.23,18.23,0,0,0,4.33-3.6l.22-.27L26,91l-1.33.46-.16-.09a4.63,4.63,0,0,0-.79-.37c-.47-.15-.94-.29-1.42-.42-.78-.22-1.59-.46-2.34-.76-1-.38-1.88-.84-2.86-1.33l-.46-.23,0,0c3.72-1.93,7.23-3.76,10.06-6.76l1.11-1.18-1.59.35a5.68,5.68,0,0,0-1.56.6l-.5.27a16.25,16.25,0,0,0-1.93,1.17c-.5.37-.95.37-1.71,0q-4.45-2.24-8.88-4.5l-.82-.42c.22,0,.43,0,.66,0a3.36,3.36,0,0,0,1.65-.56,3.24,3.24,0,0,1,1.68-.6c1.53-.07,2.76-.16,3.87-.29,3-.36,6.05-.74,9.07-1.13l1.76-.22a2.64,2.64,0,0,0,.54-.14l.18-.06.41-.32-.21-.88-11,1.05a76.47,76.47,0,0,0,9.18-4.15L30,69.72l-1.47-.22a1.67,1.67,0,0,0-.82.09L26,70.17q-4.11,1.46-8.21,2.93a1.18,1.18,0,0,1-1.07,0l-.54-.3c-1.73-1-3.45-1.91-5.19-2.84a8.52,8.52,0,0,0-1.31-.58v-.68c0-.37,0-.75,0-1.12,0-.16,0-.32,0-.48l.06-1-.74.32-.23.09a2.13,2.13,0,0,0-.7.36,7.06,7.06,0,0,0-.69.71L5.2,64.13l1.13.05c1.21.06,2.46.12,3.69.06a67,67,0,0,0,6.68-.65c1.64-.24,3.27-.63,4.85-1l1-.24a1.42,1.42,0,0,0,1.28-1.69l0-.07v0l2.77,2.25-.61-1.69a3.57,3.57,0,0,0-.16-.36c1.1.49,2.2,1,3.31,1.45a1.81,1.81,0,0,0,.76.1h.23l.36,0,.38-1-.37-.22-.74-.43c-.57-.32-1.14-.65-1.68-1a9.46,9.46,0,0,1-1.51-1.23,1.52,1.52,0,0,0-2.2-.22,1.26,1.26,0,0,0-.48.91,2.23,2.23,0,0,0-.37,0H22.41l-1-.25-.5-.13A51.37,51.37,0,0,1,11,54.88a4.7,4.7,0,0,1-1.11-.81,21.67,21.67,0,0,1-3.7-5.14l-.74-1.26-.9-1.48,1.09.37c.58.19,1.16.38,1.72.6.76.29,1.5.61,2.25.92,1.2.5,2.45,1,3.71,1.46A123.73,123.73,0,0,0,30,54l1.81.36a32.12,32.12,0,0,0,9.53.94L44,55l3.3-.36-2-.74a3.31,3.31,0,0,0-1-.17l-.3,0q-4.09-.37-8.18-.76a1.69,1.69,0,0,1-.48-.21l-.45-.26A5.57,5.57,0,0,0,34,52c-.6-.23-1.21-.44-1.83-.64l-1.24-.42-2.15-.78c-1.25-.46-2.5-.91-3.75-1.34l-.24-.09.12-.18A4.74,4.74,0,0,1,27,46.74a5.45,5.45,0,0,0,1-.54l.37-.23.37-.22-.42-1-.37,0h-.21a1.79,1.79,0,0,0-.68.13l-.26.12c-1.31.59-2.67,1.2-4,1.86-.24.12-.26.1-.43,0L21.1,46c-1.33-.91-2.7-1.86-4.12-2.7a9.46,9.46,0,0,1-3.34-3.54q-2.8-4.8-5.57-9.61c.2.15.4.3.61.43L10.8,32a82.41,82.41,0,0,0,9.75,5.78L21,38c4,1.9,8.13,3.87,12.73,4.36l.19,0a2.57,2.57,0,0,0,1.61-.15l1.21.6c1.3.65,2.58,1.28,3.87,1.88a2.77,2.77,0,0,0,1.86.22,1.27,1.27,0,0,1,.76,0l.12,0,1.4.25.6.1.45,0,.22-.72a12.86,12.86,0,0,1,1.91.61,10.27,10.27,0,0,0,2.77.76l2.56.22L51,45a71,71,0,0,1-10.62-7.11c-1.86-1.42-3.78-2.88-5.77-4.23.38-.19.72-.36,1-.56a1.29,1.29,0,0,0,.46-.57l.08-.15.33-.52-.57-.22-.14-.07a1.26,1.26,0,0,0-.67-.18l-.28,0a6.51,6.51,0,0,0-1.71.28c-.54.19-.81.08-1.33-.51C26.06,24.64,21,18.88,16.29,13.63c-.5-.56-.57-.88-.33-1.4a2.69,2.69,0,0,0,.19-1.31c-.11-1.29-.26-2.58-.42-4l0-.28A255.13,255.13,0,0,0,44.54,33.79a187.43,187.43,0,0,0,17,12.46c1.62,1,3.32,1.93,4.83,2.73.7.37,1.41.71,2.12,1s1.56.74,2.32,1.15a23.74,23.74,0,0,0,6.91,2.67,37.35,37.35,0,0,0,5,.45c.79,0,1.58.07,2.37.13a1.67,1.67,0,0,1,.74.19c.54.36,1.07.73,1.6,1.11s.94.67,1.42,1,.93.6,1.41.89.89.55,1.33.84a26.67,26.67,0,0,0,11.75,4.31,14.1,14.1,0,0,0,2.24.1c1.53-.06,3.11-.13,4.67-.31l.49-.05a10,10,0,0,0,4.13-1.07.83.83,0,0,1,.4,0,5.27,5.27,0,0,1,3.46,2.19c.28.36.57.7.9,1.07l1,1.15.33-.7.14-.29a1.73,1.73,0,0,0,.19-.48c.07-.37.14-.74.2-1.12v0h.41l.34,0,.15-.27a1,1,0,0,0,.17-.38c.08-.42.16-.85.25-1.27a32.87,32.87,0,0,0,.57-3.49,4.27,4.27,0,0,1,.42-1.65,16.65,16.65,0,0,0,1.49-4.25l.47-2c.49-2.07,1-4.14,1.43-6.21a7.25,7.25,0,0,0,0-2.22c0-.23,0-.26.13-.37a7.4,7.4,0,0,0,1.61-1.78v0l1.24.09.25-2.71-.73,0c.16-.69.36-1.38.58-2.09.17-.56.34-1.11.49-1.67a6.87,6.87,0,0,0-.12-4.76l0,0a10.51,10.51,0,0,0,1.08-1,1.54,1.54,0,0,1,1.7-.62,4.07,4.07,0,0,1,1.4.64,1.07,1.07,0,0,1,.25.74c-.09.83-.21,1.65-.34,2.48s-.24,1.58-.33,2.38a7.1,7.1,0,0,0,0,1.49c0,.21,0,.41.05.61l0,.49,1.18,0,0-.53.6,2.6-1-.39v.75c0,.07,0,.14,0,.21a2.15,2.15,0,0,0,0,.73c.25.95.54,1.89.82,2.83l.18.59a3.1,3.1,0,0,0,.15.39l.23.55,1.12-.31-.29-1.43a.87.87,0,0,0,.26.09c.72.12.79.33.76.8a3.1,3.1,0,0,0,0,.72L139,44.3c.23,1.33.47,2.71.76,4.05a14.2,14.2,0,0,0,.63,2l.16.42a.91.91,0,0,0-.26.56,2.75,2.75,0,0,0,.13,1.11c.69,1.73,1.41,3.45,2.13,5.17a1.18,1.18,0,0,0,.3.4l.13.13.75.82.05-.52,0,.07a11.12,11.12,0,0,0,.48,1.18,3.76,3.76,0,0,0,.41.61c.27.36.43.58.4.88a.83.83,0,0,0,.3.65l.27.28a3.65,3.65,0,0,1,.41.45,5.53,5.53,0,0,1,.38.66l.17.32.38.31.82-.29-.1-.44c0-.1,0-.19-.06-.29a4.11,4.11,0,0,0-.2-.77,5.87,5.87,0,0,0-.32-.65l-.14-.26,1.29.13-.91-.84a1.41,1.41,0,0,1,.28-.32,8.47,8.47,0,0,1,.79-.48c.26-.14.51-.29.76-.45a.85.85,0,0,0,.3-.38,1,1,0,0,0,.3.31,10.93,10.93,0,0,0,1.86,1,23,23,0,0,0,10.2,1.57,4.61,4.61,0,0,0,.52-.07,1.83,1.83,0,0,1,.56-.05,2.33,2.33,0,0,0,1.21.35,3.72,3.72,0,0,0,1.55-.43c1.26-.57,2.5-1.18,3.75-1.78l.33-.16c.42-.21.65-.46.67-.76s.08-.24.4-.43l.28-.18,1.35-1c1-.73,2.05-1.47,3.1-2.18a6.21,6.21,0,0,1,1.72-.92c1.45-.4,2.91-.69,4.28-.94a18.83,18.83,0,0,0,4.28-1.52l1.17-.52,3.41-1.42c2.48-1,5.05-2.08,7.52-3.26a93.69,93.69,0,0,0,12.82-7.74c2.37-1.64,4.71-3.41,7-5.12,1.09-.83,2.19-1.65,3.29-2.47.42-.31.85-.61,1.28-.92.76-.53,1.54-1.08,2.28-1.69,2.19-1.82,4.31-3.67,6.66-5.72l1.15-1c1.31-1.13,2.66-2.29,3.88-3.56,1.93-2,3.84-4.1,5.68-6.13q1.51-1.66,3-3.32c.4-.43.81-.84,1.2-1.22,0,1.13,0,2.34-.08,3.54a.59.59,0,0,1-.09.18l-2.23,3.38c-2,3-4.09,6.19-6.18,9.24-1.17,1.71-2.45,3.4-3.69,5l-1.14,1.51a.73.73,0,0,1-.38.23c-.87.15-1.74.28-2.61.4l-1.65.25a5.69,5.69,0,0,0-.69.17l-1,.27.47.6a.91.91,0,0,0,.58.37h.08l-.1.64.64.28-.89.66c-1.25.92-2.42,1.79-3.67,2.62-1,.65-2,1.22-3,1.78l-1.12.62-3.9,2.18L211,44a2.74,2.74,0,0,0-.49.38l-.16.14-.34.28.56.91.37-.12A20.13,20.13,0,0,0,214,44.24l.77-.39.9-.17,1.21-.2a20.48,20.48,0,0,0,2.47-.5c2.1-.6,4.22-1.26,6.26-1.9l2.71-.84a4,4,0,0,1,.4-.12l1-.19a12.69,12.69,0,0,0,2.18-.51c2.83-1,5.28-2,7.48-2.94A57.55,57.55,0,0,0,246,33.31c1.7-1,3.33-2.17,4.91-3.3.71-.5,1.41-1,2.12-1.49l.12-.09.09-.07c.43,0,.86.09,1.29.14a8.3,8.3,0,0,1-.33,1c-.83,1.86-1.69,3.72-2.54,5.57a1.41,1.41,0,0,1-.29.45l-1.69,1.23c-2.26,1.65-4.61,3.35-7,5-1.22.83-2.12,1.34-3.34.74a6.79,6.79,0,0,0-2.15-.53l-.61-.09a5,5,0,0,0-1,0h-.39l-.48.19-.05.87.08,0a1.17,1.17,0,0,0,.49,1.18c.59.49,1.17,1,1.77,1.5l.36.3a1.35,1.35,0,0,0-.21.79,1.24,1.24,0,0,0,.51.91,2.17,2.17,0,0,0,1.56.53c.91-.15,1.81-.37,2.69-.58l1.33-.31,1.08-.24c1.06-.24,2.16-.49,3.24-.66a28.5,28.5,0,0,0,6.3-1.58c.89-.36,1.79-.69,2.7-1l.63-.23.08,0-1.17,2.14c-.87,1.59-1.75,3.18-2.58,4.78a5,5,0,0,1-2.94,2.49c-1.81.65-3.6,1.32-5.4,2-1.57.59-3.13,1.17-4.71,1.74a3.53,3.53,0,0,1-1,.14l-.57,0-.33,0a3.14,3.14,0,0,0-1,.17,11.7,11.7,0,0,0-1.11.53c-.26.13-.51.27-.78.39l-.12,0a.9.9,0,0,0-.66,1.17c.19.65.67.9,1.42.75l.16,0a5.49,5.49,0,0,1,1.48-.18,24.06,24.06,0,0,1,2.87.44,80.56,80.56,0,0,0,15.19,1.23h1.73c-.38.44-.72.83-1.08,1.21A18.07,18.07,0,0,1,255.22,64a1.93,1.93,0,0,1-.71.28,5.14,5.14,0,0,1-.71.11l-.37,0-.27-.45-.42.76a1.55,1.55,0,0,0,0,1.64,26.72,26.72,0,0,0-5.69,3.09,1.69,1.69,0,0,0-.93,1.78,2.51,2.51,0,0,0,1.63,2l.78.23,3.44,1,.07,0c.41.71.8,1.43,1.22,2.18l0,.07-2.56.56L243.14,79c-1.31.29-1.28,1.22-1.2,1.6a1.24,1.24,0,0,0,.54.83,1.64,1.64,0,0,0,1.3.14c.44-.11.88-.23,1.32-.36l.12,0,2,5.9-8.15,1.19-3.5.52-2.1.31a1.17,1.17,0,0,0-1.1,1.29c0,.44.27,1,1.19,1.15.32.05.62.13.93.21l.56.14,1.48.34L244.3,94l.27.05a46.5,46.5,0,0,1-8.2,2.59l-.68.16c-.72.17-1.44.34-2.16.55-.42.12-.87.29-1,.71s.12.83.42,1.23.79,1.08,1.2,1.65l.22.31a2.73,2.73,0,0,1-.45.21q-1.79.58-3.59,1.09-2.94.84-5.9,1.64a1.24,1.24,0,0,0-1,1.43,10,10,0,0,0,.55,2.17c.33.82.72,1.64,1.09,2.42l.15.31-2.7-.07c-2.12-.06-4.25-.12-6.37-.16-1.8,0-2,.22-2.57,1.68l0,.13a5.77,5.77,0,0,0,.08,3.94c.06.2.12.4.17.61l-2.16,0c-2.08,0-4.18-.05-6.3,0a2,2,0,0,0-2.1,1.12l-.32.65.72.06c.64.06.76.38.95,1.12.05.2.1.39.17.58.19.53.4,1.05.62,1.61l.07.17-.46.07-5.24.41-2,.16a2,2,0,0,0-2,1.84l0,.22a3.53,3.53,0,0,0-.09.58c0,.24,0,.3-.4.35-1.3.16-2.59.34-3.88.52l-3.23.44a.52.52,0,0,1-.22-.13c-.86-.9-1.71-1.81-2.56-2.72l-1.34-1.43a1.2,1.2,0,0,0-.68-.44l-.13,0,.08-.09a1,1,0,0,0,.09-1,.83.83,0,0,0-.62-.4l-.35,0-.18.2-.22.23a2.29,2.29,0,0,0-.72,1c-.08.32-.12,1.1,1.14,1.51l.17.05.26.08c.14.19.28.38.43.56a5,5,0,0,1,1,1.7l-.3.1a11.1,11.1,0,0,0-3.69,1.81,3.89,3.89,0,0,1-.26-.37c-.94-1.55-1.91-3.16-3.64-4a.48.48,0,0,1-.06-.15,12.7,12.7,0,0,0-2.56-5.25,2.86,2.86,0,0,1-.52-.94l-.12-.41a9.58,9.58,0,0,1-.47-2.23,2.89,2.89,0,0,0-.9-1.87c-.14-.17-.29-.34-.43-.54l-.66-.94-.24,1.12c0,.11,0,.2-.07.28a1.55,1.55,0,0,0-.08.59l0,.17c.1,1,.2,1.95.34,2.92.2,1.32.41,2.63.62,3.95s.44,2.79.65,4.17a.61.61,0,0,1-.11.24,8.17,8.17,0,0,0-1.59,4.25,28.09,28.09,0,0,0-7.76-4.38L158.93,108v5.62c0,.66,0,1.26,0,1.85a.86.86,0,0,1,0,.21,9.48,9.48,0,0,0-3.5,2.51,2,2,0,0,0-.58,1.86,1.71,1.71,0,0,1,0,.65c-.46.92-1,1.8-1.49,2.73l-.06.11a2.66,2.66,0,0,0-.45-.7.42.42,0,0,1-.13-.46l.18-1.18c.3-2,.62-4,.87-6a12.15,12.15,0,0,0,0-1.92c0-.27,0-.55,0-.82v-.47l-1.09-.08-.1.41c-.06.24-.12.48-.18.72a15.85,15.85,0,0,0-.37,1.67c-.23,1.53-.44,3.06-.65,4.59L151,121.7c0,.06,0,.15,0,.21-.51.33-1,.64-1.58,1l-.22.13-.11-.12c-.37-.42-.75-.85-1.12-1.29a.26.26,0,0,1,0-.11c0-.35,0-.7,0-1a19.46,19.46,0,0,1,.08-2.6,32,32,0,0,1,.62-3.22,24.82,24.82,0,0,0,.74-4.43,11.22,11.22,0,0,1,.27-1.75,14.76,14.76,0,0,0,.27-1.53c.13-1.23.21-2.48.29-3.69,0-.52.07-1,.1-1.56l.44-6-1.28,3.93a19.39,19.39,0,0,0-.76,3.28c-.07.47-.1,1-.13,1.43s-.06.92-.12,1.37a66.14,66.14,0,0,1-3.57,12.64c-.77,2.17-1.61,4.37-2.43,6.49L142,126c-.14.36-.31.71-.48,1.06s-.22.46-.32.69a1.18,1.18,0,0,0,.5,1.63c.33.18,1,.35,1.48-.56s1-1.8,1.55-2.7l.14-.25.78,2.09a.9.9,0,0,0-.39.44,1.16,1.16,0,0,0,.22,1.06l.34.49a21.26,21.26,0,0,0,1.42,1.93,153.63,153.63,0,0,0,14.24,14.82,2.58,2.58,0,0,1,1.1,2.31,12.32,12.32,0,0,0,0,1.84c0,.35,0,.69,0,1s0,.51,0,.78a17.41,17.41,0,0,0-7.18-3,.52.52,0,0,1-.13-.16c-.12-.25-.23-.52-.34-.78a9.57,9.57,0,0,0-.61-1.28c-.8-1.33-1.57-2.73-2.3-4.08a58.11,58.11,0,0,0-5.11-8.2c-.83-1.05-1.64-2.11-2.46-3.18l-1.4-1.82-1,.59.18.42c0,.08.07.16.1.24a2.75,2.75,0,0,0,.33.66c.56.77,1.13,1.53,1.71,2.29,1.14,1.5,2.31,3.06,3.33,4.67,1.44,2.28,2.77,4.68,4.06,7l1.25,2.25a12,12,0,0,1,.62,1.36l.13.32a.94.94,0,0,0-.36.77.85.85,0,0,0,.63.73c.32.12.42.32.59.72l.46,1c.35.79.72,1.61,1,2.43.46,1.21.9,2.43,1.35,3.68l.28.77c-.47-.11-.9-.21-1.33-.3l-1.83-.35c-.64-.12-1.29-.25-1.88-.38-.58-1.31-1.16-2.62-1.72-3.95s-1.06-2.5-1.58-3.75c-1.11-2.64-2.25-5.38-3.45-8-.8-1.78-1.71-3.54-2.6-5.25-.4-.77-.8-1.55-1.19-2.32l-.18-.35-1.09.24.08.47c0,.1,0,.19,0,.29a2.5,2.5,0,0,0,.19.85c.26.55.54,1.1.83,1.64.37.72.75,1.46,1.08,2.2q3.51,8,7,16l.84,1.94a16.45,16.45,0,0,1,.6,1.65c-.38.52-.78,1-1.17,1.52l-.18.23a1.85,1.85,0,0,0-.56-.09c-.92,0-1.84.1-2.77.15l-.88.05a1.79,1.79,0,0,1-.34,0,.33.33,0,0,1,0-.12c-.59-2.7-1.18-5.4-1.8-8.09q-1.45-6.23-2.92-12.46l-1.22-5.18a1.37,1.37,0,0,0-1.31-1.19l-.59,0,.07.74a1.91,1.91,0,0,0,0,.37c.12.46.24.92.37,1.38.23.86.46,1.71.67,2.58q.9,3.8,1.76,7.61l.54,2.36c.13.58.25,1.15.38,1.73.26,1.23.53,2.51.89,3.74a53.82,53.82,0,0,1,1.83,9.48.3.3,0,0,1,0,.14c-.32.58-.66,1.17-1,1.76l-.11.2c-1.58-.59-2.91.09-4.17,1-.2-10.84-1.58-21.55-2.91-31.92l-.23-1.79-.74,1.45a2.13,2.13,0,0,0-.27,1.18c.16,1.66.34,3.31.51,5l.25,2.39q.13,1.23.26,2.47c.22,2,.44,4.06.61,6.1s.31,4.31.45,6.46q.1,1.64.21,3.28l.16,2.29c.09,1.29.19,2.58.26,3.84a.42.42,0,0,1-.11.17,4.71,4.71,0,0,1-.62.41l-.69.43.53,1,.73-.31.56-.23c0,.25,0,.5,0,.75s0,.65,0,1a1.32,1.32,0,0,1-.24.62c-.26.37-.55.73-.83,1.09s-.46.58-.68.88-.47.67-.7,1a8.13,8.13,0,0,0-2.48-2.77.82.82,0,0,1-.06-.33c0-1.32,0-2.64,0-4,0-2.3.07-4.69,0-7,0-1.78-.08-3.58-.15-5.33-.08-2.12-.15-4.31-.15-6.46,0-1.9.15-3.84.29-5.71.06-.82.12-1.65.17-2.47,0-.54.07-1.08.11-1.62.06-.9.12-1.79.17-2.69a2.06,2.06,0,0,0-.12-.73c0-.07,0-.15-.06-.22l-.1-.44-1.09.13-.08.67c0,.22-.06.45-.07.67s0,.66,0,1c0,.52,0,1-.05,1.55-.08,1-.18,1.94-.28,2.92-.19,1.89-.39,3.84-.42,5.77,0,2.77,0,5.59.12,8.31,0,1.41.08,2.83.11,4.24.06,3.44.09,6.88.12,10.31a4.84,4.84,0,0,1-.14,1.21c-.12.48-.28,1-.43,1.42l0,.14a8.86,8.86,0,0,0-4.81-3.34v-.08l0-.17a2.68,2.68,0,0,0-.37-2.54,1.47,1.47,0,0,1,0-.26v-.12c0-.58,0-1.15.06-1.73.06-.93.11-1.87.15-2.81.11-2.12.22-4.31.47-6.44a116.91,116.91,0,0,1,2.45-12.55c.41-1.74.81-3.49,1.19-5.24.19-.88.37-1.75.56-2.68l.53-2.55-1,.7a2.68,2.68,0,0,0-1.12,1.88l0,.16q-.5,2.18-1,4.35c-.71,3.05-1.42,6.11-2.1,9.17A72.08,72.08,0,0,0,124.24,167c0,.35,0,.71,0,1.1v.21l-5.46,1h0l-.26-.92c0-.12-.06-.26-.08-.39a2.33,2.33,0,0,0-.37-1.06,2.5,2.5,0,0,1,0-3.05l.07-.13a2.38,2.38,0,0,0,.29-2.43h0l.45-1.32c.43-1.28.87-2.55,1.31-3.82l1.36-3.86q.94-2.65,1.86-5.3,2-5.73,3.91-11.48a1.37,1.37,0,0,0-.07-.87,2.06,2.06,0,0,1-.06-.22l-.13-.66-.59.32-.21.09a1.21,1.21,0,0,0-.73.55,24.92,24.92,0,0,0-1.12,2.73q-1.47,4.38-2.91,8.78l-1.55,4.7c-.7,2.12-1.4,4.24-2.08,6.36-.21.67-.39,1.34-.57,2l-.13.47h0a2.16,2.16,0,0,0-1,.07c-.84.32-1.66.67-2.49,1l-1.5.63L109,162.71l-.77.31.06-.33a5,5,0,0,0,0-2.58l.18-.16h.2l1.06,0-.63-.72v0a2.7,2.7,0,0,1,.25-.54c.49-.72,1-1.43,1.51-2.13a51,51,0,0,0,2.91-4.36c2-3.52,4-7.14,5.85-10.64l2.22-4.1.81.17.36-1.14.38.9.92-.29.08-.44a1.7,1.7,0,0,0,.06-.49c-.07-1.1-.16-2.2-.24-3.3a1.87,1.87,0,0,0-.1-.41l0-.13a3.64,3.64,0,0,1,0-.63,1,1,0,0,1,0-.18,1.52,1.52,0,0,0,.1-.5.41.41,0,0,1,0-.25.33.33,0,0,1,.21,0l.75,0-.47-1.29.44.73.66,1.08a3.58,3.58,0,0,0,.55.65l.22.23.47.23.7-.57-.21-.37c-.46-.8-.95-1.58-1.44-2.37-.71-1.13-1.44-2.29-2.05-3.51l.85-.34,0-.37c0-.09,0-.18,0-.28a2.4,2.4,0,0,0-.12-.82q-1.07-2.8-2.15-5.6l.67-.27-.17-.46c-.42-1.13-.87-2.26-1.32-3.38a50.55,50.55,0,0,1-3.14-9.75l-.09-.5-.86.17c-.42-1.21-.46-1.33-.8-1.54l-.77-.5v.92q0,1,0,2c0,1.71,0,3.48,0,5.24a12.92,12.92,0,0,0,.25,2c.07.36.13.73.18,1.09a1,1,0,0,1,0,.24,1.63,1.63,0,0,0-.66,1.15,1.14,1.14,0,0,1-.16.47c-.3.36-.15.86,0,1.3l.07.24a3.16,3.16,0,0,0,.19.5,2.35,2.35,0,0,1,.13.32.48.48,0,0,1,0,.08,13.09,13.09,0,0,0-2.25,4l-.26.63-1,2.48v0h0c-.12-.63-.25-1.27-.35-1.91-.07-.46-.14-.91-.2-1.37s-.13-.94-.2-1.41a.93.93,0,0,0-.35-.54l-.07-.07L111,119l-.37.45a1,1,0,0,0-.29.45,1.83,1.83,0,0,0-.05.83l.06.31c.24,1.21.49,2.45.78,3.67a3.18,3.18,0,0,0,.43.9l.18.31.25.28-.61,1.46c0-.18-.07-.35-.11-.53a1,1,0,0,0-.41-.55l-.1-.08-.38-.39-.36.42-.1.09-.13.13ZM239.42,45A1.39,1.39,0,0,1,238,44.4a9,9,0,0,0-.88-.87l1.95.54A1.63,1.63,0,0,0,239.42,45ZM118,115.36l-.06-.12-.06-.14h.07Zm4.35,11.87c.18.53.36,1,.53,1.53l.21.61-.12.31a6,6,0,0,0-.29.87c-.1.41-.18.83-.26,1.25l-.1.52c0-.57,0-1.15,0-1.72C122.32,129.49,122.34,128.36,122.31,127.23Zm-1.26,7a1.18,1.18,0,0,0,.81-.2,2.87,2.87,0,0,1-.32.4,3.48,3.48,0,0,0-.48.63l-.14.25Zm-1.57-1.38,0-.05v.07a6,6,0,0,0,.11,3.16l.11.29.61,0-2.21,4.09-2.07,3.84c-.83,1.53-1.67,3.05-2.48,4.54l-.93,1.7h-8.46l.08-.15,1.63-2.92a14.36,14.36,0,0,0,4-3.4c.29-.32.59-.64.88-1,2.41-2.51,4.67-5,6.71-7.41A24.64,24.64,0,0,0,119.48,132.81ZM8.37,69.77l.14-.33.05.14A1.23,1.23,0,0,0,8.37,69.77Z" transform="translate(0 0)"/><path d="M182,119.49c.44.09.88.15,1.35.21l1.06.14.08-.48a1.35,1.35,0,0,0-1.22-1.65c-.58-.11-1.16-.21-1.74-.27a1,1,0,0,0-.94.44.94.94,0,0,0,.3,1.1A3.49,3.49,0,0,0,182,119.49Z" transform="translate(0 0)"/></svg>