<svg id="Calque_1" data-name="Calque 1" xmlns="http://www.w3.org/2000/svg" viewBox="0 0 312.08 324.31"><title>decknine</title><path d="M241.7.62C257.57.73,273.44.13,289.31,0a21.49,21.49,0,0,1,22,21.72c.2,24.12.58,48.23.62,72.35.1,52-.18,104,.2,155.95.09,11.88-10.5,23.79-23.39,23.42-19.58-.57-39.2.37-58.81.44-7.86,0-15.73-.75-23.59-.73a18.15,18.15,0,0,0-8.43,2.09c-28.69,15.95-57.26,32.11-85.94,48.08a9.25,9.25,0,0,1-6.22.76c-1.13-.29-2.6-2.83-2.38-4.09a7.82,7.82,0,0,1,3.23-4.93c13.51-7.8,27.17-15.32,40.76-23,15.66-8.81,31.25-17.76,47-26.41a19.66,19.66,0,0,1,8.78-2.33q26.77-.48,53.55-.4c9.49,0,19,.5,28.46.76,10.87.3,16.39-4.82,16.4-15.68q.09-68.61,0-137.21,0-42.17-.18-84.34c0-6.57-1.63-12.59-8.62-15.17A22.44,22.44,0,0,0,285,10.15c-24.49.07-49,1.37-73.46.15-34.53-1.72-69,1.34-103.43.61-21.22-.45-42.47.22-63.7.3-6,0-12-.4-18-.39-10.73,0-16.17,5.5-16.18,16.19q-.05,63.72-.07,127.45c0,27.86-.25,55.73-.32,83.59a103.59,103.59,0,0,0,.56,10.48c.73,7.39,5.54,12.27,12.9,12.67,17,.91,33.94,1.62,50.91,2.33,10.73.45,21.47.72,32.21,1.14,3.79.15,5.54,1.88,5.5,5.16s-2,4.89-5.78,4.75Q63.32,273,20.44,271.44C9.87,271,.16,261.24.15,250.58c-.06-43,.08-86,.1-128.94,0-32.49.32-65-.25-97.47C-.21,12.08,10.47.91,23.59,1,61.81,1.31,100,.88,138.28.74c6.12,0,12.24,0,18.36,0C156.64.3,213.35.42,241.7.62Z"/><path d="M172.63,177.17c-1.07,12.28-1.6,24.55.23,36.83.59,4,1.22,7.91,1.46,11.89.07,1.14-.93,2.57-1.83,3.47-.72.73-2,.9-3.09,1.27-5.38,1.87-7.62.93-8.3-4.69-1.19-9.89-2.45-19.86-2.43-29.8,0-14.23,1.17-28.45,1.87-42.68.22-4.56,7-8.72,11.25-6.95a3.71,3.71,0,0,1,1.52,1.45,145.62,145.62,0,0,1,20,51.07l.94-.13q.17-2.2.33-4.41c.12-1.62.25-3.24.35-4.86.78-12.71,1.47-25.43,2.37-38.14.36-5.06,5.91-8.51,10.52-6.39,1.35.62,2.68,3.11,2.62,4.69-.59,15.86-1.55,31.7-2.25,47.55-.39,8.73-.73,17.49-.59,26.22.07,4.49-2.32,6.24-5.87,7.46-4.75,1.63-7,1.18-9.53-2.46-5.45-7.9-8.65-16.82-11.29-26q-3.67-12.75-7.29-25.52Z"/><path d="M55.8,177c-2.71,15.85-1.55,31.45.81,47,.72,4.78-.47,6-6.92,7.17-3.94.7-5.5-.28-6.1-4.93-1-8-2.34-16.13-2.28-24.18.12-16.35,1-32.7,1.74-49,.19-4.33,7.32-8.35,11.25-6.55A4.1,4.1,0,0,1,55.85,148c10.15,15.63,15.9,33,20.39,50.91,0,.08.2.11.58.3.38-6.87.74-13.62,1.14-20.37.53-9,1-18,1.67-26.92.19-2.76.65-5.31,4-6.48,6.65-2.33,9.59-.46,9.32,6.47-1,24.33-2,48.66-2.91,73-.15,4.12-3.19,5-6,6.14-3.43,1.39-6.87,1.42-9-2.08-2.8-4.7-5.79-9.44-7.56-14.56-3.86-11.18-7-22.62-10.45-33.95C56.65,179.32,56.2,178.18,55.8,177Z"/><path d="M236.23,70.19q3.85-7.79,7.69-15.58c1.76-3.59,3.68-7.11,5.18-10.8,1.38-3.4,4-4.68,7.26-5,5.1-.5,7.46,3,5.2,7.54C256.7,56.2,251.7,66,247,75.91a8.52,8.52,0,0,0-.38,5.85c4,11.59,11.07,21.46,18.52,31,1.76,2.27,4.17,4.24.88,7.17-2.87,2.56-8.32,3.33-10.53.83a103.49,103.49,0,0,1-8.7-11.22c-3.72-5.59-7.05-11.43-10.89-17.71-.13,1.43-.27,2.32-.27,3.22,0,8.25,0,16.49,0,24.74,0,4.48-2.63,6.87-7.46,6.89-3.13,0-5.35-2.71-5.44-6.61q-.77-33.16-1.55-66.32c-.07-2.87-.16-5.76.05-8.62.33-4.45,2.69-6.69,6.86-6.87,4.75-.2,6.39,1.25,6.55,6,.26,7.74.44,15.49.67,23.23,0,.82.15,1.63.23,2.45Z"/><path d="M43,82.06c-.19-8.52,0-22.72,0-34.08,0-5.25,4.26-8.25,9.29-6.54a11.85,11.85,0,0,0,4.31.65C71.84,41.3,81.77,47.8,87.32,62c3.8,9.74,2.94,19.67,2.56,29.85-.81,21.69-22,32.07-40.12,31.88-3.34,0-5.6-2.58-5.61-6.11C44.1,105.78,43.22,91,43,82.06Zm14.18,34.7,1.22.76c3.27-1.89,6.87-3.38,9.74-5.75,5.69-4.7,7.94-11.3,8.63-18.47,1.18-12.12.66-24-6.17-34.64a20,20,0,0,0-13.42-9.08Z"/><path d="M186.91,53.46c-2.3-4.88-7.37-5.32-10.43-.83A29.06,29.06,0,0,0,172,63.16,91.79,91.79,0,0,0,173.55,104c1.09,4.21,4.47,7.91,7.14,11.6,1.7,2.35,4.06,2.24,5.22-.57a116.64,116.64,0,0,0,4.58-13.3c.67-2.43.69-5,3.51-6.09s6.46-2.72,8.7,0c1.38,1.69,1.54,5.25.86,7.57a50.72,50.72,0,0,1-5.51,12.58c-4.64,7.42-11.46,11.93-20.45,10.15-8.21-1.63-13.86-7.57-16.1-15.29-4.94-17-6-34.43-.81-51.7,3.57-11.8,12.18-18.32,23.24-18.16C197,41,206.15,54.23,201.36,66c-1.89,4.61-5.44,6.55-10.19,5.19-1-.28-1.9-1.73-2.24-2.83s.06-2.47.13-3.71C189.12,64,188.49,56.82,186.91,53.46Z"/><path d="M246.83,191.29v27.66h15.8c5.25,0,7.46,1.23,7.45,4.21s-2.84,5.22-7.28,5.5c-6.23.39-12.46.78-18.7,1.07-7.64.35-10.91-2.74-11-10.26q-.54-31.28-1.08-62.57c-.13-7.66,1.7-9.71,9.25-9.85s15.24,0,22.86,0c2.92,0,5.72.23,6,4,.18,2.88-2.78,5.62-6.26,5.7-5.12.12-10.24,0-15.36,0-.61,0-1.22.09-2.11.16v23.16c2.57,0,5.24,0,7.91,0,3.11,0,6.28-.22,9.32.3a6.05,6.05,0,0,1,4,3.09c1,2.32-.66,4.19-2.92,4.8-4.29,1.16-8.65,2.06-13,2.91A26.85,26.85,0,0,1,246.83,191.29Z"/><path d="M117.37,51.31V74.68c1.55,0,3.1,0,4.65,0,4.59.08,9.2,0,13.76.41a4.25,4.25,0,0,1,2.86,3c0,1.38-1,3.67-2.14,4.07a101.91,101.91,0,0,1-12.88,3.35c-1.67.35-3.47.06-5.52.06V114c3.92-.21,7.84-.46,11.78-.6a32.17,32.17,0,0,1,7.45.15c1.43.29,3.46,1.72,3.68,2.91a6.09,6.09,0,0,1-1.83,4.77A9.17,9.17,0,0,1,134,123c-6.1.49-12.21.72-18.32,1-8,.4-11.28-2.65-11.39-10.63q-.45-31.28-.93-62.56c-.11-7.3,1.84-9.39,9.21-9.48,7.62-.09,15.23,0,22.85,0,3,0,5.67.41,5.91,4.12.18,2.71-2.72,5.54-5.94,5.65-5,.17-10,.05-15,.07C119.53,51.17,118.66,51.24,117.37,51.31Z"/><path d="M119.08,189.66c.32-8.5.67-22.37.81-34.1.06-4.76,2.23-7.2,6-7.72,4.89-.66,7.1,1.12,7.14,6.1,0,5.36-.12,10.73-.26,16.09q-.49,18.91-1.05,37.82c-.14,5-.26,10-.47,14.92-.22,5.23-2.64,7.56-7.71,7.59-4.39,0-5.53-1.15-5.53-5.53C118.08,213.48,118.76,198.47,119.08,189.66Z"/></svg>