<svg id="Calque_1" data-name="Calque 1" xmlns="http://www.w3.org/2000/svg" viewBox="0 0 441.15 539.31"><title>eye</title><path d="M21.42,539.31c-1.76-8.55-3.36-15.77-4.64-23a4.69,4.69,0,0,1,1.71-3.8c8.43-5.71,11.86-14.4,14.79-23.55,10.12-31.55,26.33-60.19,42.62-88.78,10.94-19.2,22-38.34,32.89-57.56a33.29,33.29,0,0,0,4-9.11c2.09-9.78,7.35-17.91,12.26-26.38,6.74-11.63,12.3-23.94,18.8-35.73q26.2-47.59,52.83-94.94a71.93,71.93,0,0,1,8.53-11.66A15,15,0,0,1,221,159.83c5.82,1.56,9.58,5.86,11.06,11.72a266.43,266.43,0,0,0,21.48,56.16C266.82,253.57,280.62,279.16,294,305c12.5,24.22,25.22,48.35,36.91,73,13.63,28.72,32,54.39,49.65,80.53Q398.23,484.71,415.8,511a63.78,63.78,0,0,1,5.32,10.16A12.56,12.56,0,0,1,420,534c-2.69,3.8-6.38,4.07-10.66,3.16-9.09-1.94-18.21-4.87-27.37-5.07-20.26-.45-40.55.49-60.83,1-9.32.22-18.63.8-27.94,1-25,.57-49.95,1.67-74.9,1.33-20.08-.27-40.13-2.35-60.19-3.61-14.57-.92-29.13-2.06-43.72-2.64-15.76-.63-31.54-.7-47.31-1-8.61-.18-17.23-.16-25.82-.72-4.93-.32-9,0-12.15,4.52C27.42,534.32,24.84,536.07,21.42,539.31Zm331.24-90.54.13.16L331.08,415.2c-3.15.31-6.5,1.19-9.71.82-4.87-.56-6.82,1.46-7.87,5.88-.47,2-1.9,4.68-3.53,5.27-6,2.16-8.72.85-12.17-4.79a80.41,80.41,0,0,1-5.36-9.57c-3.68-8.44-9.35-15.31-16.18-21.28-6.51-5.69-13-11.41-19.82-16.76-3.33-2.62-7-5.39-11-6.4a121.09,121.09,0,0,0-22.5-3.51c-8.29-.51-16.65,0-25,.33a14,14,0,0,0-5.54,1.72c-12.56,6.36-23.6,14.87-34.08,24.18s-20.67,18.31-26.4,31.44c-3.29,7.54-7.31,8.84-14.73,5.3C107.07,423,97,418,86.08,412.72l-48,98.18,117.72,3.18c-2.62-3.31-4.42-5.67-6.31-8-2.38-2.88-1.7-5.35,1.24-7a15.61,15.61,0,0,1,6.48-2.19c5.81-.38,11.65-.3,17.48-.37,3.33,0,6.67,0,10,0l.35-2c-2.71-1.39-5.45-2.73-8.11-4.2-1.41-.78-2.68-1.8-4-2.71,1.41-.83,2.73-2,4.26-2.44,16.4-4.5,32.78-.18,49.16.43,7.13.27,7.49,1.51,6.38,10L204,497.3l-.72,2.27,10.06,8.62c-19.19,7.57-37.88,3.64-56.35,4.08a4.72,4.72,0,0,0,3.24,1.9c3,.34,6,.57,9,.75,18.43,1.07,36.86,3,55.29,3,29.79,0,59.58-1.28,89.37-2,12.64-.29,25.29-.48,37.93-.64,7.28-.09,14.56-.21,21.84,0,8,.22,16,.79,25.11,1.26-1.36-2.54-1.93-3.88-2.73-5.07-10.28-15.31-20.53-30.64-30.94-45.86C361.13,459.87,356.8,454.38,352.65,448.78ZM291.87,338.57a49.21,49.21,0,0,0-4.71,1.5c-4.47,2-8.11.83-10.91-3-6.25-8.46-15-13.28-24.28-17.69-29.54-14.06-59.9-19.42-91.82-9.28-7,2.23-14.94,3.18-20,9.36-4.1,5.05-7.4,10.75-10.55,15.42,12.21-3.54,24.5-8.43,37.24-10.45,16.51-2.63,33.39-3,50.11-4.32,22.33-1.83,41.22,6.83,58.85,19.29,6.51,4.6,8.38,11.74,10.06,19.5-4.75-1.12-9.37-2.39-13.16-4.92-11.66-7.77-23.58-15-37.19-18.69-15-4-30.15-1.53-45.12.24a335.4,335.4,0,0,0-41.15,7.21c-13.83,3.43-28.33,6.37-35.05,22.08-3.86,9-9.28,17.37-14,26,3.62,1.83,5.59,1,7.85-1.55a84.64,84.64,0,0,1,11.1-10c14.86-11.58,31.66-18.89,49.72-24.37,18.71-5.67,37.39-9.44,56.88-7.64,15.66,1.45,30.66,5.57,44.46,13.4,10.53,6,21,12.13,31.58,18,3.51,1.94,7.39,3.22,11.09,4.8l1.3-1.23Zm-10.76-21.11c-6.51-12.1-13.2-24.1-19.45-36.33-3.25-6.35-8.64-8.33-15-8.94a41.64,41.64,0,0,0-9-.16c-24.22,3-48.46,5.91-72.6,9.47-3.81.56-8,3.53-10.52,6.59-3.28,3.93-5.1,9.08-7.74,14.06,5.81-1.72,11.06-3.73,16.49-4.81,20.17-4,40.5,0,60.75-.72,2.1-.07,4.23.77,6.34,1.23C248.22,301.77,264.83,308.69,281.11,317.46ZM200.34,205.1h18.26c-.79,4.16-2.75,5.56-6.42,6.24-17.2,3.19-27.48,12.17-31.64,27.22,16.51-10.64,34.74-12.63,54.76-11-9.25-15.7-10.56-33.31-20.35-47Z"/><path d="M358.16,162.82c8.92-.89,17.83-2.39,26.76-2.54a144.1,144.1,0,0,1,49.37,8.21,9.7,9.7,0,0,1,5.46,14.27c-1.78,3-4,2.39-6.42,1.92C419.65,182,406,179,392.27,176.78c-5.48-.89-11.25-.35-16.85.06-15.75,1.16-31.49,2.61-47.23,3.93-5.78.48-11.56,1.26-17.34,1.24a15.89,15.89,0,0,1-7.81-2.68c-1.51-.94-3.35-3.58-3-4.85.68-2.31,1.39-5,5.26-5.52,17.56-2.42,35.05-5.37,52.56-8.13Z"/><path d="M399.93,134.81a121.85,121.85,0,0,1-32,8c-25.24,3-50.39,6.78-74.8,14.23-4.53,1.38-8.84,3.49-13.31,5.29C274.5,155.1,275.68,150,283.8,146a187.12,187.12,0,0,1,61.48-17.65c13-1.51,26.12-2.52,39.21-3C394,124.94,397.55,127.58,399.93,134.81Z"/><path d="M242.29,100.21c2-6.77,3.37-13.84,6.22-20.25,9.84-22.14,20.19-44.06,30.36-66C281.51,8.19,285,3.09,291.09.72c2.1-.82,6.25-1.08,6.89,0,1.35,2.24,2.15,6,1.2,8.26C293,23.81,286.6,38.56,279.76,53.12,274.77,63.74,269,74,263.63,84.44c-3.39,6.66-6.45,13.49-9.88,20.13-1.46,2.82-2.66,6.36-7.33,4.91-4.29-1.33-2.31-4.84-3-7.44a6.36,6.36,0,0,1,0-1.49Z"/><path d="M282.16,104.4c-1.07-4.3,1.06-6.63,4.53-8.8C306.11,83.45,325,70.33,346.38,61.72c6.91-2.78,14.07-5,21.22-7.08a19.64,19.64,0,0,1,7.88-.57c2.44.31,6.16-.56,6.38,3.64.2,3.81.91,7.37-4.53,9.29-11.24,4-22.52,8.21-33,13.76-12.88,6.81-25,15.1-37.43,22.69a117.74,117.74,0,0,1-11.66,6.62,16.81,16.81,0,0,1-7.18,1.18C283.73,111.18,280.38,109.8,282.16,104.4Z"/><path d="M405.08,301.73a27.82,27.82,0,0,1-3.41-4c-7.05-12.67-18.56-19.6-31.55-24.6-8.66-3.33-17.45-6.35-26-9.82a90.07,90.07,0,0,1-13.28-6.7c-4.71-2.89-5.9-7.54-4.26-12.66.7-2.18,1.89-5.28,3.57-5.84,3.25-1.09,6.66-1.15,9.72,2.37,5.87,6.75,14.36,9.24,22.64,11.83,16,5,31.06,11.87,43.39,23.61a36.08,36.08,0,0,1,5.83,7.43C416.56,291.41,414.4,297.52,405.08,301.73Z"/><path d="M423.4,242c-12.17-12.92-28-16.34-44.48-17.78-12.09-1.06-24.28-1-36.33-2.25-4.26-.45-8.61-2.94-12.21-5.5-1.48-1-1.81-4.93-1.23-7.15.32-1.22,3.6-2.35,5.56-2.37,20.63-.14,41.37-1.16,61.67,3.43,8.32,1.88,16.24,5.51,24.32,8.42a11.66,11.66,0,0,1,2.94,1.85C432.85,227.66,432.89,234.67,423.4,242Z"/><path d="M147,152.81A113.82,113.82,0,0,1,119.16,124c-6.07-9.1-11.42-18.68-17.17-28q-16-26-32.19-51.85l-1.08.68a2.5,2.5,0,0,1,.26-.91c5.48-6.69,6.61-7.27,12.62-.94s12,13.53,16.18,21.3c12.62,23.41,25.83,46.42,41,68.25A44.25,44.25,0,0,1,147,152.81Z"/><path d="M216.91,124.82c-6.2-5.09-9.46-10.73-10.7-17a125.68,125.68,0,0,1-2.6-23.68q-.12-32.18,1-64.35c.16-4.48,2.76-9,4.84-13.2.58-1.18,3.31-1.86,5-1.8,4.2.16,5.27,1.91,4.74,6.73-1.43,13.12-2,26.37-2.21,39.58C216.68,75.19,216.91,99.31,216.91,124.82Z"/><path d="M34.22,102.48c8.23,6.63,15.75,12.85,23.45,18.83,16.13,12.54,32.47,24.8,48.48,37.49,9,7.14,17.55,14.9,26.3,22.38l-1.23,2.19c-4.17-1.11-8.72-1.47-12.44-3.43-25.13-13.25-47.29-30.85-69.36-48.51C43.24,126.48,38,120.3,32.35,114.73,28,110.5,31.75,107.36,34.22,102.48Z"/><path d="M.08,227.53c-.36-9.52.14-10.64,8-12.79a70.53,70.53,0,0,1,16.12-2.67c21.87-.68,43.85-2.21,65.25,4.33,5.3,1.62,10.75,3.07,14.94,8.65-14.41,0-28,0-41.5,0-15.14,0-30.28-.28-45.4,0C11.84,225.19,6.18,226.63.08,227.53Z"/><path d="M360,313.81c-8-7.53-15.46-14.57-23-21.56-9-8.4-17.84-17-27.15-25-4.87-4.2-6.55-8.94-5.56-15.27a12.34,12.34,0,0,1,12.16,1.39c14.86,11.2,29.57,22.63,41.07,37.55C362.66,297.55,363.15,304.84,360,313.81Z"/><path d="M166.71,105.76c-5.83-3.26-9.31-7.43-11.16-13.34-5-16-10.87-31.64-15.79-47.61-2.92-9.47-4.79-19.28-6.95-29-.45-2-.06-4.21-.06-6.23,7.77-.87,10.1.36,12,7.12q10.47,38.15,20.54,76.4C166.31,97.18,166.25,101.54,166.71,105.76Z"/><path d="M73.35,343.82c-2.72-9.25-.56-15.84,5.92-20.75a192.58,192.58,0,0,0,32.05-31.29,4.77,4.77,0,0,1,4.1-1.31c2.18.68,5.78,2.16,5.82,3.4.11,3.93.22,9.19-2.1,11.63-11.08,11.67-22.79,22.76-34.7,33.6C81.74,341.56,77.36,342.19,73.35,343.82Z"/><path d="M12,165.65c13.05-4.64,72.39,13.61,83.38,26.83-7.95-.94-16.07-1.15-23.81-3-12.72-3-25.16-7.23-37.77-10.77-4.47-1.25-9.09-1.93-13.61-3C12.88,173.92,12.89,173.87,12,165.65Z"/><path d="M24.6,278.81c-2.85-6.4-2-8.48,4.18-10.46A229.59,229.59,0,0,1,75.47,259c5.37-.55,10.46-3.7,16.24-2.75,2.94.48,6,.47,8.86,1.2,1.23.31,2.12,1.92,3.17,2.95-.93.91-1.73,2.35-2.82,2.64C75.74,269.64,50.48,275.81,24.6,278.81Z"/><path d="M325.36,321.26c-3.72-2.76-7.48-4.48-9.66-7.39-6.47-8.61-12.21-17.77-18.45-26.56-3.33-4.69.54-7.62,2-11.47,5.17,1,9.31,2.51,11.79,7.84,2.64,5.68,6.55,10.75,9.71,16.2C324.31,306,326.82,312.4,325.36,321.26Z"/><path d="M33.54,306c-2.35-5.56-1-8.13,3.84-9.3,13.13-3.18,26.17-6.75,39.34-9.77,3.43-.79,7.19-.12,10.91.49C71.69,299.89,51.74,300,33.54,306Z"/><path d="M218.9,378.28c7,.22,15.93,2.93,23.88,8.65a13,13,0,0,1,5.66,10c1.81,19-20,34.7-37.47,26.78a14.8,14.8,0,0,1-6-5.06c-5.77-8.77-8.48-18.13-4.87-28.67C203,381.51,207.26,378.18,218.9,378.28Z"/><path d="M208,448.46c-11.08,4.41-20.62,3.41-30.1,1.44-6.16-1.28-12.25-3-18.29-4.74-1.5-.44-3.47-1.79-3.86-3.12-4.3-14.85-5.88-29.62,2.84-43.65a16.75,16.75,0,0,1,2.83-3.46c3.24-3,7.54-5.34,11.24-2.93,2.66,1.73,3.69,6.14,5.1,9.49.54,1.28.12,3,.11,4.46-.08,7.67,2.28,14,8.14,19.5C193.51,432.43,200.24,440.22,208,448.46Z"/><path d="M238,439.18c8.18-10.56,16.14-20.75,24-31a99.36,99.36,0,0,0,6.52-9.42c1.54-2.58,3.22-2.71,5.76-1.65,6.06,2.53,8.83,6.54,8.64,13.06-.39,13.28-13.47,31.78-26.22,36-2.86,1-6.79-.13-9.85-1.27S241.24,441.38,238,439.18Z"/><path d="M352.65,448.78c1.34,8.45-1.8,15.4-7.61,21.17-13.8,13.71-30.16,22.85-49.57,25.36-5.82.75-12-1-18.59-1.64,1.76-5,3.69-7.25,7.8-8.91,16.78-6.78,35-10.62,49-23.23,2.34-2.11,4.5-4.53,7.12-6.2,3.8-2.42,7.94-4.28,11.93-6.39Z"/><path d="M278.31,465.7c-.75-5.4,1.2-8.16,6.5-10,5.57-1.91,10.55-5.54,15.74-8.49,7.65-4.34,15.23-8.8,22.9-13.1,1.71-1,3.66-2,5.53-2,2.58-.07,6.59,0,7.43,1.42,1.19,2.06.43,5.57-.24,8.27a7.67,7.67,0,0,1-3.46,4.09q-17.58,10.34-35.34,20.36C291.06,469.81,284.7,469.69,278.31,465.7Z"/><path d="M353.58,483.51c-.34,8.33-3.14,14.63-10.47,18.4-4.13,2.12-8.5,4-12.2,6.7-8.18,6-17.5,6.33-26.71,5.13-3.61-.47-6.75-4.46-10.17-6.89,3.72-6.26,8.72-8.73,14.19-9.26,9.9-.95,18.4-5.15,26.9-9.73C340.68,484.87,346.44,482.32,353.58,483.51Z"/><path d="M105.33,431.2c1.56.27,1.8.24,1.87.34,9.53,12.16,22.8,17,37.39,19.89,6.29,1.26,12.16,4.6,18.23,7l-.24,2c-2.23.85-4.41,2.21-6.71,2.48-17.86,2.06-34.09-2-47.77-14-2.62-2.31-5.05-5.82-5.65-9.13C102,437.1,104.34,433.88,105.33,431.2Z"/><path d="M166.46,459.67c8,1.27,15.19,2.72,22.41,3.47,12.06,1.25,24.17,2,36.26,3.06,3.31.28,6.64.52,9.91,1.09a4,4,0,0,1,2.52,2.2c.2.51-1,2.18-1.76,2.35-19.29,4.28-38.59,9.72-58.07.82C172.51,470.27,167.61,467.58,166.46,459.67Z"/><path d="M114.28,505.3c-18.08,2.45-33.88-3.14-47.62-14.79-3.92-3.32-3.62-8.58-2.7-15L115,503.25Z"/><path d="M130.64,491.52c-16.28,2.89-41-11.61-45.65-27.27,4.81,1.27,9.28,1.79,13.14,3.6,10,4.71,19.66,10.23,29.68,14.93C132.43,484.95,129.89,488.36,130.64,491.52Z"/><path d="M76.57,453l-3.51,4c-1-1.22-2.73-2.36-2.92-3.7-.16-1.16,1.39-2.56,2.18-3.85Z"/></svg>