<?xml version="1.0" encoding="utf-8"?>
<!-- Generator: Adobe Illustrator 21.1.0, SVG Export Plug-In . SVG Version: 6.00 Build 0)  -->
<svg version="1.1" id="Calque_1" xmlns="http://www.w3.org/2000/svg" xmlns:xlink="http://www.w3.org/1999/xlink" x="0px" y="0px"
	 viewBox="0 0 1000 1000" style="enable-background:new 0 0 1000 1000;" xml:space="preserve">
<title>holetoanoteheruniverse</title>
<path d="M482,726.8c-0.4-41,14.2-76.1,37.1-108.3c2.6-3.9,5.9-7.3,9.6-10.1c17.7-12.3,33-27.9,53.1-36.8c12.7-5.6,24.4-13.6,37-19.6
	c25.7-12.2,52-12,78.6-2.6c3.6,1.3,7.2,2.5,10.9,3.6c13,3.8,25.8,8.1,36.6,16.5c13.8,10.9,28,21.5,40.7,33.7
	c17.3,16.6,26.7,38.2,34.5,60.5c6.5,18.6,9.3,37.6,6.3,56.8c-2.8,16.9-6.7,33.6-11.8,49.9c-9.8,32.2-26,60.9-52.1,82.9
	c-8.4,7.1-18.3,12.8-28,18c-13.6,7.2-27.5,13.9-41.7,19.9c-21.2,9-43.2,7.5-65.3,3.4c-12.9-2.4-23.9-8.9-35.5-14.3
	c-18-8.5-35.3-18.6-51.7-30c-17.2-12.1-30-27.9-39.2-46.4C488.9,779.3,481.2,753.7,482,726.8z"/>
<path d="M623.4,277.5c-3.6-10.3-7.6-20.5-10.8-30.9s-4.9-21.4-3.7-32.5c0.5-3.9,1.3-7.4,5.9-8.1c4.9-0.8,9.3,1.4,11.2,5.6
	c1.3,3,2.3,6.2,3.5,9.7c3.8-13.1,9.5-24.4,22-30.8c0.4-10,5.2-12.7,13.7-7.2c10,6.4,19.9,9.2,30.4,1.3c-1.6-7.9-3.4-15.8-5.1-23.8
	c-0.2-1-0.4-2-0.4-3c-0.2-3.3,0-7.2,3.8-7.6c2.3-0.2,5.9,1.8,7.1,3.9c3.5,6.2,6.1,12.9,9,19.4c0.4,0.9,0.8,1.8,1.5,3.4
	c4.5-2.8,9-5.1,13.1-8.2c1.5-1.1,2.2-3.8,2.5-5.9c0.5-3.6,1.1-7,5.1-8.4s7.5-0.2,9.8,3.1c3,4.5,5.4,9.5,8.3,14.6l10.9-6.9
	c-2.6-6.1-5.3-12.1-7.6-18.3c-1.7-4.1-3-8.4-3.8-12.8c-0.3-2,1.1-5.4,2.8-6.2c2.3-0.9,5-0.8,7.2,0.5c3,2,5.5,4.8,7.3,8
	c6.9,13.4,13.4,27.1,20,40.7c1.9,3.9,3.6,7.8,5.6,11.7s2.7,7.6-1.1,10.8c-3.6,3.2-9,2.9-12.2-0.6c-3.5-3.8-6.1-8.3-9.1-12.5
	c-0.7-1.1-1.3-2.3-1.8-3.4c-3.9,2.5-7.8,4.7-11.4,7.3c-0.9,1-1.2,2.4-0.9,3.7c4.3,11.7,8.6,23.4,13.3,34.9c2.5,6,2.2,10-2.1,12.8
	c-4.8,3-11.6,1.9-14.5-3.1c-2.8-4.9-5.2-10-7.2-15.3c-2.5-6.2-4.5-12.5-6.8-18.8c-1.3-3.5-2.2-6.7-6.7-8.2s-5.3-6.7-2.4-10.8
	c0.8-0.8,1.3-1.9,1.5-3c-4.2,3.6-8.4,7.1-12.3,11c-0.7,0.7-0.3,3.1,0.3,4.4c9.2,20.6,18.4,41.3,27.9,61.8c2.8,6.1,2.9,9.5-0.6,12
	c-4.1,3.1-9.9,2.3-13-1.8c-0.2-0.3-0.4-0.6-0.6-0.9c-5-8.2-9.6-16.7-13.6-25.5c-6.3-13.2-12-26.6-18.1-40.1l-16.6,4.1
	c0.5,1.1,1.1,2.4,1.8,3.7c8.8,16,8.2,32.9,4.8,50.1c-1.8,9.4-8.1,15.4-16.1,19.9c-6.8,3.9-16.9-0.3-23-6.4
	c-3.1-3.3-5.8-6.9-8.1-10.7c-2.4-3.8-4.2-7.8-7.3-11.4c1.6,4.4,3.2,8.8,4.8,13.1c2.7,7,5.5,13.9,8,21c0.9,2.8,1.4,5.8,1.6,8.8
	c0.5,4.7-0.2,9.2-4.8,11.7c-5,2.8-10.5,2.9-15.2-0.4c-7.5-5.3-14.6-11-21.6-16.9c-5.8-4.9-11.1-10.5-17.4-16.6
	c2.6,6.7,4.9,12.6,7.2,18.5c2.1,5.2,4.7,10.3,6.4,15.7c3.1,9.8-1.7,16-12,16s-11.7-0.8-23.4-12.2c-1.8,1.2-3.6,2.5-5.5,3.8
	c-3.5,2.5-6.8,5.8-10.7,7.3c-8.3,3.1-10,8.5-8.1,16.5c0.8,3.9,1.3,7.9,1.5,11.8c0.4,6-1.7,9.8-5.9,10.9c-4.7,1.2-9.5-1.6-10.8-6.3
	c-0.1-0.3-0.1-0.5-0.2-0.8c-2.8-12.6-5-25.4-6.4-38.3c-1.4-14.1-1.7-28.3-2-42.4c-0.1-7.3,0.4-14.6,1.7-21.8
	c1.8-9.8,12.5-13.1,19.9-6.2c3.2,3,5.4,7.1,8.2,10.6c6.8,8.5,13.7,17,21.2,24.7c-1.9-9.1-4-18.1-5.6-27.2c-0.7-4.1-1.2-8.4-0.3-12.4
	c0.9-3.8,2.7-7.4,5.2-10.3c3-3.4,8.4-2.8,11.5,0.9c7.2,8.5,14,17.3,21.3,25.8c5.7,6.7,11.7,13.2,17.5,19.7L623.4,277.5z M657,206.8
	c-4,6.2-7.5,12.9-5,20.4c3.4,10.5,7.5,20.9,11.6,31.2c0.9,2.3,2.9,4.1,4.4,6.3C681.2,250.3,673.8,213.4,657,206.8z M542.6,279.3
	l1.5,28.9l17-12.9L542.6,279.3z"/>
<path d="M734.5,386.9c-8,27.4-18,36.1-35.8,31.1c-1.4,7.2-6.7,9.5-13.1,9.7c-16.9,0.7-33.7,0.2-49.7-9.7c0.7,2,1,3.1,1.4,4.1
	c3,9.8,6.1,19.6,8.9,29.5c0.5,2.1,0.4,4.3-0.3,6.4c-1.1,4.7-5.8,7.6-10.5,6.4c-1.7-0.4-3.3-1.3-4.4-2.6c-1.2-1.2-2.1-2.6-2.7-4.1
	c-6.6-17-13.6-33.9-19.5-51.2c-3.9-11.3-4.2-23.6-0.7-35c2-6.8,5.6-12.4,11.5-16.4c8.5-5.8,18.8-2.9,22.7,6.6
	c4.5,10.5,5.9,22,4.2,33.3c-0.4,2.8,0.3,4.2,2.4,5.7c8.1,5.5,17.2,6.6,26.6,7.4c6.4,0.6,12.7,1.8,19.5,2.8c0.9-5.3,5.6-7.6,11.1-9.2
	c1.3-0.4,2.9-0.9,3.5-1.8c1.6-2.7,3.9-5.6,3.9-8.5c-0.1-3.8-4.1-4.5-7.3-4.4c-6.3,0.2-12.6,0.9-18.9,1.3c-12.6,0.9-20.4-6.4-26-16.2
	c-4.7-8.2-4.4-17.2,1.6-24.9c5.2-6.7,11.9-11.3,21.1-9.3c4.8,1,8.8,5,8.8,9c0,5-3.3,7-7.5,8.7c-2.2,0.9-4.6,3.7-4.8,5.8
	c-0.2,1.4,3.3,4.4,5.3,4.6c4.4,0.3,8.9,0,13.3-1c8.8-1.9,17.4-2.3,26.7,2.6c-2.7-6.3-5.1-11.6-7.5-17c-2.3-5.2-4.7-10.3-6.9-15.5
	c-2.6-6.2-1.2-10.8,4.3-14.8c17-12.4,36.4-18.4,56.8-21.5c1.1-0.2,2.3,0,3.5-0.1c3.7-0.2,6.8,1.1,7.9,4.8c1.3,4.1-0.8,7.4-4.4,9
	c-5.1,2.4-10.4,4.3-15.7,6.3c-7.6,2.9-15.3,5.5-22.8,8.5c-3.8,1.6-5.6,6-4.2,9.8c2.2,5.4,4.8,10.5,7.5,16.3c7.2-2.9,14-5.8,20.9-8.4
	c4.1-1.7,8.4-3.1,12.8-4.2c4.3-0.9,8.5,0.1,10.6,4.6c1.9,4.1-0.1,8-3.4,10c-8.1,5.1-16.6,9.6-25.1,14.2c-2.2,1.2-4.6,1.8-8.1,3
	c3,4.4,5.5,8.6,8.8,12.2c0.9,1,4.2,0.8,6,0c7.6-3.3,15-7.1,22.6-10.5c3.3-1.5,6.9-3.4,10.3-3.2c3.5,0.4,6.7,2.1,9.1,4.7
	c2.8,3.1,1.2,7.3-1.7,9.9c-13.3,12.1-28.3,20.6-46.8,20.3c-8.2-0.1-14.5-4.3-19.3-10.9C738.8,392.7,736.8,389.9,734.5,386.9z
	 M627.2,395.1l1.3,0.1v-17.8l-1.3,0.1V395.1z"/>
<path d="M869.2,176.8c-3.2-14-6.6-28.1-9.4-42.3c-1.6-7.3-2.6-14.7-2.8-22.2c-0.1-15.9,12.4-25,28.2-22.8
	c27.7,3.8,38.2,34.1,22.5,57.2c-0.8,1.2-1.7,2.4-3.3,4.6l41.9,3.1c2.5,0,5,0.2,7.4,0.6c4,0.8,6.8,3.3,7.1,7.4s-2.3,7-6,8.2
	c-2.8,1-5.8,1.5-8.8,1.4c-17.3-1.3-34.5-3-51.7-4.5c-1.8-0.2-3.5-0.5-5.7-0.8c1.5,7.9,3,15.3,4.3,22.8c0.8,5,0.9,10.2-3.8,13.6
	c-5.9,4.3-12.8,1.7-15.1-5.3l-1.6-5c-11,5.6-21.8,10.7-32.2,16.5c-10.8,5.9-21.7,6.1-31.6-0.6c-5.1-3.4-10-9.1-12-14.8
	c-7.6-21.8-14.1-44-14.4-67.5c-0.2-3.3,0.5-6.6,1.9-9.6c1.4-2.3,3.7-4,6.4-4.4c2.1-0.2,5.6,1.9,6.3,3.8c1.7,4.7,4.9,4.1,8.3,3.9
	c12.5-0.4,24.9-1,37.4-1.1c2.8,0.2,5.5,1.1,7.8,2.7c4.5,2.9,4.2,8.2-0.8,10.1c-4.7,1.8-10,2.4-15,3.1c-10.4,1.4-20.8,2.4-31.6,3.7
	l2.1,10.2c11,1.2,20.8-1.4,30.6-4.9c3.4-1.2,7-1.6,10.6-1.4c3.9,0.3,7.5,3,7.2,7c-0.5,3.3-2.3,6.4-5.1,8.3
	c-4.9,2.8-10.2,4.9-15.7,6.1c-7.5,1.8-15.3,2.7-24.1,4.2c2.6,7.4,4.9,15.4,8.3,22.9c2.3,5.2,6.5,5.9,11.8,3.3
	c10-4.9,19.9-10,30-14.7C861.7,178.1,865.3,177.8,869.2,176.8z M882.2,140.3c7.4-1.5,10.8-6,12.7-11.7s2.8-11.4-1.9-16.4
	c-1-1.1-2.3-1.9-3.7-2.5c-6-2.6-11.2,0.9-10.5,7.3C879.7,124.5,881,132.1,882.2,140.3L882.2,140.3z"/>
<path d="M250.2,479.2c-6.6,8.7-13.3,17.1-19.3,25.8c-2.4,3.8-4,7.9-4.9,12.2c-1.6,6.6-4.6,10.2-10.1,10.7s-9.8-2.5-11.9-8.6
	c-2.5-7.2-4.1-14.7-7.1-21.7c-4.4-10.4-9.5-20.5-14.6-30.5c-5.7-11.1-12-21.9-17.8-32.9c-2-3.7-3.1-7.8,0.8-10.9s8.2-1.8,11.4,1.1
	c4,3.6,8.1,7.6,10.9,12.2c8,12.8,15.6,26,23.1,39.1c2.3,4,4,8.4,6.2,13.2l16.7-20.8c-13.2-16.6-19.4-35.3-18.5-56.2
	c0.8-17.8,9.7-27.9,27.6-30.6c9.5-1.5,18.7-0.1,26.7,5.7c7.2,5.1,10.7,12.1,11.4,21.2c1.2,18.1-5.6,33.8-13.7,49.3
	c-0.5,1-1.2,2-1.8,3c-0.1,0.4-0.1,0.7-0.1,1.1c8.4,1.7,16.3,0.7,23.6-3.9c12.8-8,21.9-19.3,29.4-32.1c2.8-4.8,5.1-9.7,7.9-14.4
	c1.6-2.7,3.1-5.8,5.5-7.5c2.1-1.5,5.9-2.6,8.1-1.7s4.7,4.6,4.5,6.8c-0.5,6.1-1.9,12.1-4,17.8c-6.2,16.8-16.9,31.6-31,42.7
	C290.6,483.4,272.9,486.5,250.2,479.2z M246.2,451.3c9.3-13.1,14-26.8,13-42.3c-0.4-6.4-2.3-8.8-8.9-9.7c-5.1-0.7-12.1,2.9-13,7.1
	C234.2,422.3,236.9,437.1,246.2,451.3L246.2,451.3z"/>
<path d="M407.3,335.7c-4.5,3.1-8.3,6-12.4,8.5s-8.4,4.7-13.1,7.3c0.8,1.8,1.7,3.8,2.6,5.6c9.1,18.5,18.2,37,27.2,55.5
	c1.6,3.3,2.8,6.8,3.6,10.3c1.3,5.5-0.6,9.6-5,11.8c-4.6,2.4-10.3,1.3-13.6-2.7c-1.8-2.4-3.2-5-4.4-7.8
	c-10.4-21.5-20.7-43.1-30.4-63.3c-9.5,0-17.7,0.4-26-0.2c-3.4-0.2-7-1.9-10.1-3.7c-3.5-1.9-5.2-6.2-3.8-10c1.3-4.1,4.6-6.1,8.7-6.2
	c5.7-0.2,11.3,0,17,0c1.2-0.1,2.3-0.3,3.5-0.6l-3.2-6c-3.5-6.6-2.7-13.6,2-16.6s13.1-0.6,17,5.3c1.8,2.7,3.3,5.8,5.6,9.9
	c6.3-4.4,12.7-8.1,18.3-12.8c5.9-4.9,11-10.7,16.4-16.1c0.7-0.7,1.3-1.5,1.6-2.5c5.9-16.8,23.4-17.5,35.3-12.2
	c11.2,5,17.4,15.1,21.4,25.9c7.7,20.5,12.2,41.6,4.2,63.3c-2.4,7.1-7,13.4-13,17.9c-7.7,5.6-16.7,4.5-23.4-2.2
	c-13-12.9-19.9-28.8-23.4-46.5C409.2,344.1,408.3,340.2,407.3,335.7z M445.3,376c0.8-0.8,1.3-1,1.5-1.5c0.8-1.8,1.6-3.7,2.1-5.6
	c5-18.9,0.2-36.4-8-53.3c-0.7-1.5-2.9-3.6-4-3.4c-2.1,0.6-4,1.9-5.2,3.7c-1.1,1.7-1.4,4-1.5,6.2c-0.8,14.6,3,28.3,8.3,41.6
	C440.2,368,443,371.8,445.3,376L445.3,376z"/>
<path d="M98.4,541.4l-8.2,6.4c2.4,4.2,4.8,8.3,7.2,12.4c1.2,2,2.3,4,3.3,6.2c2.3,5.3,1.6,8.9-2.2,11.5c-3.6,2.4-9.3,2.2-12.4-1.4
	c-3.8-4.3-7-9.3-10.4-13.9l-1.9-2.5c-2.9,1.4-5.6,3.5-8.5,3.9c-3.5,0.5-7.8,0.6-10.8-0.9c-5.9-2.8-5.9-9.5-0.6-13.3
	c3.1-2.2,6.3-4.3,9.6-6.6c-4.2-8.6-8.3-16.8-12.4-25.2c-1.5-3.1-2.9-6.3-4.2-9.6c-2.1-5.3-1.3-9.7,2-11.7c4.5-2.7,8.6-0.9,11.7,2.4
	c3.1,3.5,5.8,7.2,8.1,11.3c3.8,6.4,7.1,13.2,10.9,20.4l8.6-6.9c-4.1-8.2-8.2-16-11.8-24c-2-4.2-3.4-8.6-4.3-13.2
	c-0.4-2.2,0.7-6.1,2.2-6.9c2-1,5.9-0.5,7.7,0.9c4,3.2,7.7,6.9,10.8,11c4.2,5.5,7.8,11.5,12.2,18c3.4-3,6.8-5.9,9.8-9.1
	c0.7-0.8,0.3-3-0.2-4.4c-3.1-7.7-4.5-15.6-3-23.9c4.8-26.7,30.1-32.1,46.3-19.7c20.3,15.6,33,36.1,30.9,63
	c-0.5,5.6-2.1,11.1-4.7,16.1c-6,12-25.6,16.3-37.2,8c-5.6-4-10.2-9.5-15-14.5c-2-2.1-3.4-4.8-5.4-7.6l-11.1,9.8l10.4,15.2
	c2.1,3,4.3,6,6.2,9.1c3.4,5.6,3,10.8-0.9,14c-4.3,3.4-11.3,2.9-15.4-1.5c-2.5-2.9-4.9-5.9-7-9.1c-3.1-4.3-6.1-8.7-9.2-13.1
	C99.3,541.7,98.9,541.6,98.4,541.4z M166.6,509.6c-1.3-17.3-9.6-30.1-21.6-40.8c-4.8-4.3-10.1-1.6-11,4.8c-0.3,1.7-0.3,3.3-0.1,5
	c2.7,17.5,12.8,31,24.5,43.4c2.1,2.3,5.2,1.7,6.2-1.8C165.5,516.6,166,512.8,166.6,509.6L166.6,509.6z"/>
<path d="M394.5,688.2c-4.4-5.7-8.1-10.3-11.7-15c-4.5-5.8-9.3-11.3-13.2-17.4c-1.8-2.7-2.5-6.6-2.5-9.9c0-4.9,2.7-8.5,7.4-10.2
	c4.4-1.6,7.8,0.2,10.8,3.2c1.6,1.4,3.1,3,4.5,4.7c9.4,13.8,23,23.5,34.8,34.9c4.5,4.2,8.4,9,11.6,14.2c6.4,10.5,3.5,19.9-7.4,25.3
	c-10.4,5.1-21.5,9-31.6,14.7c-9.6,5.4-18.3,12.5-27.5,18.8c-3,2-6,4.3-9.3,5.7c-4,1.6-8,1-10.7-2.9c-2.6-3.7-2.4-7.8,0.4-11.1
	c9.8-11.3,20-22.3,33.8-29.1c3.1-1.5,6.1-3.1,10.4-5.3c-13.7-2-26.1-3.6-38.5-5.5c-26.3-4.1-52.5-8.5-78.8-12.5
	c-14.1-2.1-28.4-3.6-42.5-5.5c-3.3-0.5-6.5-1.3-9.7-2.3c-4-1.3-6.8-4-6.4-8.4c0.4-4.8,3.9-7.1,8.2-7.2c8.6-0.2,17.4-0.7,25.9,0.5
	c34.6,4.7,69.1,10,103.7,15L394.5,688.2z"/>
<path d="M391.4,540.7c1,2.9,1.9,6,2.6,9c0.7,3.8,0,8.1-4.1,9.2c-3.3,0.9-8.1,0.8-10.6-1.1c-4.3-3.4-7.9-7.6-10.6-12.4
	c-6.3-10.6-12.2-21.3-17.6-32.4c-2.7-5.9-4.6-12-5.8-18.4c-1.4-7.1,2.8-12.3,9.8-13.9s13.4-0.1,18.5,4.8c4.2,4.2,8.2,8.7,12,13.3
	c8.4,10,16.7,20.1,25,30.2l1.5-0.7c-1.2-7-2.6-14.1-3.6-21.2c-1.3-10.1-2.5-20.1-3.5-30.3c-0.7-7.2,3-11.9,9.6-12.8
	c6.2-0.8,11.4,3.2,12.4,10.2c3,20.7,5.9,41.5,8.6,62.2c0.2,2.2,0,4.3-0.4,6.5c-2.4,13.5-14,18.7-25.7,11.1
	C403.4,550,397.5,545.1,391.4,540.7z"/>
<path d="M571.8,469c9.1,10.3,22.4,9.5,29.1-1.9c2.8-4.8,4.4-10.4,6.9-15.4c1-2,3-3.6,4.5-5.4c1.3,1.9,3.6,3.7,3.9,5.7
	c2.1,14.1,0.3,27.6-8.2,39.4c-6,8.4-19.3,10.6-31.6,6.8c-14.6-4.5-22.7-15.8-29.6-28.1c-6.2-11-10.3-22.9-6.8-35.8
	c1.1-4.2,2.8-8.2,4.9-11.9c10-18,33-14.2,44.6-2.6c14.5,14.5,10.4,38.6-8.2,46.5C578.5,467.7,575.3,468.1,571.8,469z M558.8,449
	c2.4-0.1,4.9-0.1,7.3,0c4.8,0.6,8-1.2,9.7-5.8c1.6-4.2,0.1-8.9-3.7-12s-8.1-2.5-9.7,2S560.1,443,558.8,449L558.8,449z"/>
<path d="M506.2,463.2c-0.1-1.4-0.3-2.9-0.3-4.3c0.3-12.6,0.4-25.2,1-37.8c0.3-5.3,3.8-8.2,8.3-8.2s7.3,2.6,8,7.9
	c1.6,12.5,2.4,25.1,4.5,37.5c2,12.1,5.3,24,7.6,36.1c0.8,4.7,1,9.6,0.5,14.4c-0.8,7.3-9.3,11.7-16.6,8.2c-3.9-2.1-7.4-5-10-8.5
	c-14-18.3-24.6-38.6-35.2-59c-2-3.8-5.3-7-8.6-9.8c-4.3-3.7-4.8-9.4-0.3-13.3c5.6-4.9,14-4.7,19.6,1.8c4.5,5.2,8,11.4,11.4,17.4
	c3.3,5.8,6,11.8,9,17.8L506.2,463.2z"/>
<path d="M360.2,569.5c-0.7,18.7-16,29.1-32.5,20.8c-20-10-36.6-24.3-47.3-44.4c-2.3-4.4-3-9.8-3.5-14.8c-0.6-3.7,1.8-7.2,5.5-7.9
	c4.1-0.9,5.7,2.1,7.4,5.2c8.1,15.4,19.8,28.6,34.1,38.4c3.4,2.4,7.2,5.1,11.3,1.7s3.5-8.1,1.7-12.4c-4.2-10.3-8.9-20.4-13.1-30.7
	c-1.4-3.9-2.5-7.9-3.3-12c-1-4.3,0-8,4-10.4s8.2-2.7,11.7,0.2c2.6,2.1,5.8,5.2,6.1,8.1c1.3,12.6,7.9,23.2,12.1,34.6
	C357.2,553.4,358.3,561.6,360.2,569.5z"/>
<path d="M476.5,535.2c-5.4-0.8-9-3-11.1-6.9c-10.4-18.9-21.8-37.4-27.6-58.5c-1.1-4-1.3-7.9,2.7-10.2c4.2-2.4,8-0.5,10.6,2.9
	c2.9,4,5.6,8.3,7.9,12.7c8.5,15.1,17,30.1,25,45.4c1.3,2.4,1.5,6.5,0.3,8.7C482.8,531.9,479.2,533.3,476.5,535.2z"/>
</svg>
