<svg id="Calque_1" data-name="Calque 1" xmlns="http://www.w3.org/2000/svg" viewBox="0 0 579.64 563.78"><title>justice</title><path d="M496.84,290c-3.78-5.66-7.7-10.81-10.86-16.39-7.44-13.17-5.16-26,2.15-38.48,2.6-4.42,5.36-8.75,8.14-13.06,3.07-4.77,6.76-5.16,10.47-.86,9.39,10.87,15.78,23.07,16.62,37.78.35,6.14-.5,11.8-4,17-2.26,3.36-4.2,6.94-6.22,10.46s-2.46,7.83.53,10.58c6.55,6,7.86,14.6,11.71,21.9,2.16,4.1,4.89,5.86,9.16,6.86,15.25,3.57,30.39,7.59,45.63,11.21,17.11,4.07,34.34,7.25,52.06,7,8.05-.09,16.12.27,24.17.58,13.45.52,26.29-3,39.1-6.22A115.82,115.82,0,0,0,718,329.68c9.1-4.44,14.4-2.39,16.68,7.48,2.51,10.88-3.41,20.38-14.52,23.32-7.39,2-8.88,4.2-6.88,11.68q10.48,39.15,21.2,78.24,8.94,32.86,17.93,65.7c9.2,33.34,18.34,66.71,27.81,100,2.72,9.56,6.62,18.78,9.66,28.25a8.52,8.52,0,0,1-.66,6.06c-11.12,20-25.28,37.13-47.09,46.23-6.2,2.59-12.62,5.06-19.19,6.32-30,5.77-58.67,3.18-84.78-14.42-13.37-9-23-21.13-30.19-35.37a15.81,15.81,0,0,1-.83-12.56c4.29-13.38,8.4-26.82,12.6-40.23q8.72-27.86,17.47-55.71,9.42-30.18,18.76-60.39c6-19.37,11.77-38.79,17.8-58.14,4.34-13.93,8.85-27.81,13.42-41.66,4.86-14.72,1.9-15.26-10.21-13.23-18.48,3.1-37,1.68-55.65.68-24.37-1.31-47.16-8.69-70.48-14.19-5-1.18-10-2.29-15.06-3.28-2.91-.57-6.21-1.35-8,2-1.66,3.17.38,5.84,2.43,8,5.43,5.65,11.08,11.1,16.65,16.62,1,.95,2.08,1.74,3,2.72,3.81,4.06,3.58,8.13-1.45,10.42-3.77,1.71-8.25,2-12.45,2.61a79.2,79.2,0,0,1-8.46.37c-.33,7.44-.84,13.87-.82,20.29,0,6.78,1.3,7.94,7.85,8.7a16.94,16.94,0,0,1,15.22,15.21A17.32,17.32,0,0,1,537,459.66c-9,2.52-9.39,2.82-9.15,12.15.59,23.25.55,46.56,2.34,69.72.89,11.51,1.93,23.37,8.43,34.06,8.7,14.32,8.32,29.86,2.73,45.36-2.23,6.18-1.48,7.38,5.31,8,13.49,1.2,22.71,10.24,23.57,23.2.42,6.3-1,11.91-6.76,15.49-3.52,2.19-5.13,5.07-5.33,9.31-.39,8.08-3.93,14-12.67,15.37-3.5.55-5.15,2.64-5.31,6.08,0,.54-.06,1.08-.1,1.62-1.32,17.46-.28,19.75,16,26.25C578,734.95,600,743,622,751.39c10.84,4.14,15,11.78,12,23a10.22,10.22,0,0,1-4.9,5.85,22.38,22.38,0,0,1-9.4,1.73c-34.05,0-68.11-.1-102.16-.17-1.89,0-3.86.48-5.66.11-16.64-3.44-33.45-.66-50.17-1.35-18.57-.77-37.23.64-55.85,1-7.83.14-15.67,0-23.51-.13-5-.06-7.8-2.83-9.33-7.48-4.37-13.3-3.35-15.31,10-19.82,4.86-1.64,9.61-3.62,14.35-5.59q28.43-11.85,56.82-23.8a20.62,20.62,0,0,0,5.06-2.51c1.38-1.12,2.88-2.72,3.25-4.36,1.12-4.92,1.79-9.94,2.48-14.95.9-6.5-.67-9-7-11.69s-10.77-6.81-10.87-13.75c-.06-4.39-1.7-7-4.93-9.45-12.7-9.55-8.76-27.75.69-34.5,3.12-2.23,7.2-3.22,11-4.42,2.15-.69,4.53-.65,7.38-1-.61-2.18-.72-3.53-1.33-4.6-8.31-14.61-7.47-29.44-1.1-44.38,1.27-3,3.13-5.68,4.52-8.61,1.16-2.42,2.62-4.91,2.94-7.5,1.51-12.54,3.18-25.09,3.85-37.69.91-17.28,1-34.6,1.4-51.91,0-1.08.05-2.17,0-3.25-.29-7.29-1.6-8.78-9.17-9.22-8-.46-11.89-6-14.77-12.19s-.84-12.26,3.77-17.14c3.06-3.24,6.67-5.08,11.59-4.34,6.43,1,9.36-1.26,9.54-7.57s-.64-12.4-1.23-18.58c-.28-3-2.61-3.9-5.25-4-4.32-.21-8.65-.35-13-.51-3.81-.13-7-1.21-8-5.43a10,10,0,0,1,4.48-10.47c5.71-3.56,11.64-6.85,17-10.84a37.68,37.68,0,0,0,8.83-9.28c2.62-3.95.53-7.07-4.26-6.4C465,355,459,356.49,452.93,358c-17.06,4.14-34,8.91-51.17,12.42-8.92,1.82-18.27,1.51-27.42,2.19-4.85.36-9.71,1.26-14.54,1.09-9.69-.35-19.36-1.17-29-2-12.17-1-13.39-.05-10.44,11.51,4,15.7,8.61,31.26,12.93,46.88,5.83,21.11,11.6,42.23,17.46,63.33,4.55,16.4,9.24,32.76,13.76,49.17,3.95,14.33,7.72,28.71,11.61,43.06,4,14.87,8,29.75,12.21,44.59,1,3.63,2,7.48,4.11,10.53,3.09,4.58,2.69,8.28-.4,12.53-6.33,8.72-11.3,18.28-19.38,25.87-17.81,16.72-38.9,25-63,26.31-24.68,1.33-47.89-3.16-68.49-17.85-12.88-9.19-22.14-21.25-29.18-35.22-2-3.88-1.76-7.73-.46-11.79,4.2-13.13,8.25-26.3,12.37-39.45,5.82-18.57,11.68-37.13,17.46-55.71,6.1-19.61,12.1-39.25,18.18-58.87q8.16-26.34,16.39-52.65c6-19.34,12.17-38.66,18.11-58,3.11-10.16,1.38-12.86-9.09-15.23-12.49-2.83-18.68-13.76-14.64-25.85,2.36-7.07,7.42-9.64,13.84-6.11,21.69,11.92,45.46,16.57,69.49,16.15,18.43-.33,37.26.38,55.55-4.71,17.68-4.92,35.65-8.77,53.53-12.93a96.08,96.08,0,0,1,12-1.68c3.74-.38,6.45-2.22,6.55-5.94.31-11.75,5.89-20.51,14.68-27.67C496.36,291.59,496.44,290.93,496.84,290Zm202.67,91.49-2.17-.37c-1.72,4.06-3.8,8-5.12,12.2-8.75,27.83-17.33,55.7-26,83.56q-19.94,64.23-39.88,128.45c-3,9.81-6,19.63-8.9,29.49-1.55,5.34-.37,6.94,5,7.5.8.08,1.62,0,2.43.05q29.55.6,59.11,1.19a72.33,72.33,0,0,0,7.29-.1c5.58-.46,7-1.52,8-7.22a93.92,93.92,0,0,0,1.32-15.3q.12-100.16,0-200.31c0-10.27.06-20.54-.07-30.81A69.75,69.75,0,0,0,699.51,381.49Zm-395.81-.26-1.88-.13a52.14,52.14,0,0,0-2.93,6.26c-3.7,11.57-7.26,23.19-10.89,34.79-7.83,25-15.72,50-23.51,75-7.3,23.46-14.48,47-21.75,70.43-6.79,21.93-13.66,43.84-20.38,65.79-2.14,7-.77,8.83,6.59,9,21.05.49,42.1.85,63.16,1.25,1.08,0,2.17,0,3.24-.05,6.08-.43,7.49-1.42,8.45-7.65a101.55,101.55,0,0,0,1.11-15.32q.1-100.55,0-201.1c0-10,.06-20-.1-30A64.9,64.9,0,0,0,303.7,381.23Zm13.55,24.49-2.77.47c-.23,5.28-.65,10.56-.65,15.84q0,100.63.1,201.25a70,70,0,0,0,1.33,12.87c1.13,6,2.64,7.16,8.71,7.5,16.46.91,32.92,1.77,49.39,2.49,7.85.34,10.44-2.9,8.46-10.49-2.18-8.37-4.63-16.67-6.92-25q-8.6-31.26-17.18-62.54-9.15-33.22-18.35-66.43c-5.65-20.59-11.16-41.22-16.92-61.78C321.11,415.06,319,410.44,317.25,405.72Zm395.69,0-2.65.23c-.26,6.06-.74,12.12-.75,18.19q0,99.31.09,198.62a71.94,71.94,0,0,0,.67,10.49c1.38,9.23,2.75,10.25,12,10.48,11.34.29,22.68.63,34,1.14,4.58.2,9.13,1.25,13.7,1.28,7,.06,9.39-3.12,7.62-9.82q-6.85-25.84-14-51.59c-6-21.59-12.24-43.1-18.18-64.7-9.16-33.33-18.09-66.72-27.27-100C716.83,415.15,714.7,410.5,712.94,405.75ZM522.68,561.53l-2,.31c-.28,1-.88,2-.78,2.88.77,7.49,1.89,14.95,2.48,22.45s1.3,15.1.77,22.58c-.29,4-2.87,8-4.86,11.8-.53,1-3.46,2-3.94,1.53-1.15-1.08-1.66-3-2.12-4.62-.18-.64.37-1.55.73-2.27,5.28-10.76,3.89-21.44,0-32.26-1.15-3.22-1.37-6.82-1.68-10.28-.34-3.76-.22-7.55-.44-11.32-.79-13.22-2-26.42-2.37-39.65-.42-14.59-.11-29.2-.13-43.81,0-2.43.08-4.88-.15-7.3-.66-7-3.48-9.48-10.68-8.95a56.07,56.07,0,0,0-8.74,1.68c-7.81,1.86-9.05,3.12-9.31,10.84-.78,23.24-1.92,46.49-1.81,69.73,0,8.68-1,16.57-4.84,24.19-1.94,3.86-3.8,7.77-6,11.5-6.65,11.35-6.34,23.15-2.63,35.24.63,2,1.79,4.16,1.63,6.16-.34,4.28,1.79,5.92,5.46,6.51a61,61,0,0,0,8,1.12q23.9.63,47.81,1c4.88.08,6.45-1.86,6.64-6.88a48.61,48.61,0,0,1,1.3-7.8c.65-3.16,1.52-6.28,2.12-9.45C540.59,588.68,529,576,522.68,561.53ZM640.79,651.1v-.72c-5.66,0-11.33-.24-17,.07-5.46.3-6.52,2.44-4.09,7.44a29.49,29.49,0,0,0,3,4.81c6.56,8.71,14.17,16.54,23.74,21.68,34.49,18.54,69.23,18.76,103.18-1.17,8-4.67,14.4-12,21.2-18.52,2.17-2.07,4.84-5.19,2.35-8.56-2.17-2.93-5.32-1.38-8.2-.57-1.73.48-4.05,1.19-5.37.46-9.72-5.4-20.33-4.67-30.78-4.9-15.07-.34-30.09,1.18-45.22.18C669.39,650.36,655.07,651.1,640.79,651.1Zm-262.14,6.7c-4.58-.37-14.08,5.89-15.5,9.77-2.16,5.9-7,8-11.72,10.4-5.27,2.73-10.67,5.26-16.14,7.56-2.61,1.1-6.13,2.68-7.72-1.15-1.38-3.33,1.82-4.61,4.22-5.81,4.11-2,8.29-3.93,12.42-6,3.88-1.9,7.72-3.89,11.58-5.84s5.24-5.5,4.85-9.47c-.41-4.24-4.15-4.5-7.37-4.83-5.64-.58-11.29-1.13-16.95-1.36-15.9-.63-31.75,1.25-47.72.21-18.82-1.23-37.75-.8-56.64-.94-3,0-6,.8-10.74,1.47,2.69,4.86,4.18,8.59,6.55,11.65,18,23.23,42.36,33.44,71.2,34.23,3.92.11,6.85-.71,7.14-5.6.08-1.43,2-3.78,3.2-3.87,1.75-.12,4.66,1,5.26,2.35,2.47,5.6,6.57,5.4,11.47,4.51,20.18-3.67,35.51-15.17,48.7-30.05C376.51,663.08,377.37,660.25,378.65,657.8Zm219.09,97.5.83-1.48c-.72-.67-1.33-1.6-2.17-2C585,747,573.68,741.84,562,737.55a141.4,141.4,0,0,0-22.59-5.85c-4.72-.9-9.68-.47-14.54-.65-16.2-.62-32.4-1.51-48.6-1.72a53.82,53.82,0,0,0-17.55,2.43C446.24,736,434,741,421.71,746c-2.75,1.11-5,3.37-7.53,5.09l.51,2.07c3,.47,6,1.35,9,1.34,27.29-.18,54.57-.55,81.86-.76,4,0,8.06.52,12.1.78,12.94.85,25.87,1.8,38.82,2.46,2.72.14,5.95.44,8.31-2.79-4.9-4-10.43-6-15.88-8.13-4.42-1.76-9-3.64-9.29-10.62,11.05-.29,19.48,6.36,29,9.17C578.52,747.52,588.05,751.68,597.74,755.3ZM538.43,639.54c-3.64-.62-8.1-2-12.57-2-22.12,0-44.23.24-66.35.52a33.69,33.69,0,0,0-8,1.27c-6.29,1.65-9.54,6.24-9.14,12.5.38,5.86,3.95,10.34,10,11,9.91,1,19.89,1.67,29.85,1.92,7.53.19,15.09-.67,22.64-.72,15.62-.1,31.26.92,46.8-1.95,4.61-.85,8.51-2.23,10-6.87s-.28-8.55-3.62-11.72-7.28-4-11.83-1.66c1.74,4.08,3.8,7.63,4.63,11.46.37,1.69-1.76,3.92-2.76,5.91-1.63-1.15-4.09-2-4.72-3.52C541.53,651,540.37,646.06,538.43,639.54ZM516.34,315.62c-4.1,1-4.31,3.73-4.43,6.43-.39,8.64-1,17.29-1,25.92.08,9.84,1.83,19.37,7.72,27.7a13.59,13.59,0,0,1,2.23,5.14c.47,2.49-2.14,4.5-4.12,3-5.57-4.18-11.93-8.21-12.48-16.07-1.43-20.15-3.85-40.36,2.55-60.24.57-1.77-.57-5.21-2-6.2s-4.61-.44-6.55.45-3.22,2.83-4.4,4.6a26.4,26.4,0,0,0-4.6,15.29c.08,8.65-.14,17.31-.16,26,0,13.14-6.68,22.41-17.07,29.56a54.78,54.78,0,0,0-6.53,4.79c-1.45,1.35-2.36,3.27-3.81,5.38,6.73,4.26,13.35,2.11,19.59,2.44s12.44.13,18.66,0c6.49-.16,13-.43,19.45-.85,6.17-.4,12.79,2.25,19.34-2.77-1.72-2.44-3-4.76-4.72-6.61-3.9-4.11-7.87-8.2-12.16-11.91-4.07-3.51-5.46-7.59-5.21-12.89.58-12.14.73-24.3,1-36.46C517.61,317.59,517,316.88,516.34,315.62Zm51.47,456.9V773c14.07,0,28.13.11,42.2-.08a36.44,36.44,0,0,0,10.31-1.68c3.12-1,3.73-3.68,2.38-6.63-2.27-4.94-7.72-6.81-12-3.51a15.66,15.66,0,0,1-10.51,3.34q-37.3-.64-74.61-1.26c-2.43,0-4.86,0-7.28.1-7.29.17-14.58.58-21.86.48-11.89-.17-23.77-.67-35.65-1-15.4-.46-30.81-.82-46.21-1.45a27.1,27.1,0,0,1-8.57-2c-6.66-2.61-17.91-.8-22.43,4.43a8.54,8.54,0,0,0-1.67,6.53c.31,1.41,3,3.09,4.78,3.25a130.88,130.88,0,0,0,16.2.36c13.69-.43,27.32-3.31,41.09-1.11a29.94,29.94,0,0,0,4.05.06c8.07.17,16.17.85,24.21.41,14.32-.79,28.53-.17,42.85.47C532.65,774.48,550.25,773,567.81,772.52ZM346.72,365.11l.06.42c7.52-.39,15-1.06,22.56-1.1,20.95-.11,41.33-3.46,61.53-9,14.29-3.91,28.92-6.64,43.44-9.65,5.07-1.05,7.35-3,6.92-7.07s-3.1-6.11-8.32-5.24c-7.45,1.25-14.84,3-22.18,4.77-8.92,2.18-17.7,5-26.68,6.88-14,3-27.88,5.73-42.31,6.56-17.57,1-35.08,2.64-52.44-.59-13.23-2.46-26.2-6.32-39.29-9.57-1.57-.39-3.19-1.32-4.67-1.12-1.9.26-3.69,1.4-5.52,2.16.78,1.59,1.16,3.66,2.4,4.69,5.51,4.59,11.8,7.7,19.13,7.95a33.18,33.18,0,0,1,16.91,4.68c3.32,2,7.56,2.9,11.51,3.54C335.37,364.36,341.07,364.59,346.72,365.11Zm310.81.41,0-.42c5.11-.45,10.37-.27,15.29-1.48,13.83-3.4,27.54-7.28,41.23-11.2,2.25-.64,4.24-2.35,6.22-3.74,2.16-1.51,5.24-3.05,3.8-6.25-1.62-3.59-5-2.06-7.87-1.52-.26,0-.51.16-.77.24-9.86,2.77-19.57,6.36-29.6,8.1a360,360,0,0,1-38.53,4.11c-6.4.41-12.9-.82-19.35-1.32-8.87-.68-17.92-.46-26.55-2.27-17.14-3.59-34-8.43-51.06-12.5A162.94,162.94,0,0,0,531.29,334a5,5,0,0,0-5.72,4.62c-.42,3.07,1.11,5.26,4,6.29a39.64,39.64,0,0,0,5.51,1.25c6.61,1.36,13.33,2.32,19.81,4.13,23.38,6.53,46.64,13.45,71.24,13.83C636.58,364.25,647.05,365,657.53,365.52Zm-165,69.1q0-.37,0-.74c-7.55,0-15.13-.44-22.62.18a27.17,27.17,0,0,0-11.16,4c-5,3-4.72,8,.67,10.54a28.51,28.51,0,0,0,10.88,2.73c13.49.52,27,.62,40.49.74a34.78,34.78,0,0,0,8.82-1c5.93-1.52,7.78-6.72,4.52-11.92-2.07-3.3-5.18-4.6-8.92-4.61C507.63,434.6,500.07,434.62,492.51,434.62Zm16.53,287c8.13.8,9.34-.54,8.48-8.73-.23-2.15-.4-4.31-.73-6.45-.51-3.35-2.48-5.59-5.9-5.63-10.81-.13-21.63-.12-32.43.09-3.05.06-4.93,2.2-5.13,5.3a37.35,37.35,0,0,0,.15,7.28c.67,5.07,2.15,6.58,7.3,6.89C490.19,721,499.62,721.25,509,721.65Zm-4.55-442.19c8.65-6.66,12.24-16.34,9.66-26.11a72.74,72.74,0,0,0-2.67-9.34,30.91,30.91,0,0,0-4.77-8.32c-2.91-3.39-6.06-3.37-9,0C486.23,248.83,486.26,271.45,504.48,279.46Zm1.15,132.13c.47-14.19.27-14.38-14-14l-3.22.11c-4.15.14-6.6,2.28-6.81,6.41a116.64,116.64,0,0,0-.17,16.07c.2,2.37,1.75,5.56,3.67,6.66,4.86,2.77,10.47,2.33,15.59.47,4.94-1.79,4.89-6.54,5-10.9C505.66,414.81,505.63,413.2,505.63,411.59Zm-44.5,268.85.21,2.25c3.31.3,6.61.84,9.92.86,12.16.06,24.33-.09,36.49-.08,9.19,0,18.38.22,27.57.19,2.78,0,6,.52,7.91-3.36-1.34-.67-2.44-1.67-3.57-1.71-25.34-1.06-50.66,3.57-76,.29C462.89,678.78,462,679.9,461.14,680.44Zm58-131.53,2.49-.16-1.71-49-1.89,0C516.91,516.21,516.65,532.58,519.09,548.91ZM531,694.37c-6.92,8.71-7.25,15.87-1.58,24C534,710.72,532.55,703.44,531,694.37ZM515.5,407.14a18.61,18.61,0,0,0-.37,15.56C519.15,417.5,519.23,413.44,515.5,407.14Zm21,41.25c2.06-1.87,3.86-2.73,4.1-3.9.32-1.58-.36-3.5-1.06-5.08-.25-.56-2.52-1-2.69-.7a12.69,12.69,0,0,0-2,4.72C534.65,444.54,535.54,445.8,536.46,448.39Z" transform="translate(-210.57 -218.22)"/><path d="M759.75,663.46c-1.85,10.37-9.32,14.57-16.69,18.88-3.2,1.87-6.29,3.24-9.39-.39.31-4.29,3.9-5.53,6.64-7.54,3-2.22,6.05-4.45,8.95-6.83C751.94,665.37,754.33,662.69,759.75,663.46Z" transform="translate(-210.57 -218.22)"/><path d="M720,692.44c-2.21-2.47-4.3-3.74-4.59-5.34-.51-2.88,1.93-4.16,4.5-4.59s4.65.88,4.26,3.36C723.88,687.82,722,689.51,720,692.44Z" transform="translate(-210.57 -218.22)"/></svg>