<svg id="Calque_1" data-name="Calque 1" xmlns="http://www.w3.org/2000/svg" viewBox="0 0 474.07 442.9"><title>lacrosse</title><path d="M475.87,535.36c-6.64-5.72-11-13.26-20.88-13.53a21.63,21.63,0,0,1-9.77-3.27,39.33,39.33,0,0,0-19.92-5.37c-4.47-.06-8.93-.79-13.41-1-9.8-.51-17.41-5.21-24.15-12-8.43-8.46-16.92-16.88-25.72-25a84.18,84.18,0,0,0-14.36-10.64,27.6,27.6,0,0,0-11.25-3.33c-10.17-.88-20.41-1.78-30.58-1.47-9.82.3-17.34-3.65-24.16-9.83-9.9-9-15.71-20.35-19.52-33-7.13-23.65-1.82-45.5,10.29-65.88a71.46,71.46,0,0,1,17.36-19.31c9.75-7.58,20-14.74,32.12-18.7a95.37,95.37,0,0,1,18-4.12c27.25-3.42,68.11,22.17,67.41,60.39-.25,13.42,3.1,24.91,13.37,34.13,9.06,8.13,17.75,16.67,26.55,25.09,4.65,4.45,9.81,8.57,13.58,13.7,3,4,4.64,9.26,6,14.21,1,3.76.87,7.91.86,11.89,0,7.19,1.32,13.8,6.2,19.46,1.4,1.63,2.79,4,2.79,6,0,6.57,4.08,10.4,8.43,14.24,2.05,1.81,4,3.79,6,5.63,4.46,4.06,5.26,4,9.88-.22,2.93-2.7,5.75-5.52,8.7-8.2a15.31,15.31,0,0,0,5.15-9.56,22.65,22.65,0,0,1,4.18-9.36,24.29,24.29,0,0,0,4.91-14.58c0-1.49.27-3,.17-4.48-1.11-16.94,7.22-28.89,20.15-38.5,12.68-9.42,23.52-20.73,33.48-32.93,3.57-4.38,5.92-9.14,6-14.93,0-4,.63-8,.66-11.94.26-27.61,20.13-46.68,40.2-55.36a56,56,0,0,1,33.59-4,78.85,78.85,0,0,1,23,8.38c10.36,5.8,20.38,12.25,28.92,20.94,10,10.16,15.42,22.57,19.69,35.6,6,18.43,3,36.44-4.31,53.92a56.52,56.52,0,0,1-23.38,27.38,27,27,0,0,1-11.16,3.49,236.11,236.11,0,0,1-28.35,1.26c-11.24-.35-20.5,3.7-28.52,10.88-9.09,8.12-18.28,16.24-26.5,25.2-8.91,9.71-19,15.83-32.39,16-2.74,0-5.47.5-8.2.48a38.79,38.79,0,0,0-20.63,5.54c-2.5,1.5-5.52,3-8.32,3-6.29.06-10.92,2.8-15.08,7.05-2,2.08-4.3,4-6.78,6.23a35.66,35.66,0,0,0,3.44,4.47Q582.46,597,645.39,654.39c16.37,14.95,32.82,29.81,49.17,44.79,3.39,3.1,6.88,5.39,11.69,6,2.75.33,5.49,2.15,7.85,3.84a83.35,83.35,0,0,1,7.77,7c8,7.46,8.41,18.88.61,26.42-11.26,10.89-15,13-28.73.74-2.6-2.33-5.2-4.66-7.63-7.16-1.19-1.23-2.67-2.75-2.86-4.28-.95-7.74-6.68-11.93-11.77-16.61Q594.2,644,516.89,573c-5.13-4.72-10.21-9.51-15.3-14.27-5.38-5-5.81-5-10.94-.31L340.06,697.14q-12.37,11.39-24.78,22.73c-2.81,2.56-5.33,5.21-5.75,9.28a7,7,0,0,1-1.28,3.46c-6.06,7.69-12.88,14.51-22.07,18.43a7.15,7.15,0,0,1-3.64.42C272,750,262,735.39,264.65,725.13a19.42,19.42,0,0,1,4-7.77,80.26,80.26,0,0,1,9.92-9.06c1.69-1.37,3.86-3,5.84-3,6.4-.14,10.5-4,14.76-7.85Q360.1,641.67,421,586c16.73-15.29,33.56-30.48,50.32-45.74C472.77,538.93,474,537.41,475.87,535.36ZM691.3,716.62l1.85-1.9c-2.12-2.22-4.12-4.56-6.37-6.63Q610.12,638,533.42,567.9c-20.6-18.82-41.25-37.58-61.72-56.55-2.61-2.42-5.33-5.64-6.1-8.93-1.4-6-4.09-11.07-7.06-16.31-2.13-3.75-3.23-8.23-4-12.52-.68-3.62-.36-7.45-.31-11.18.07-5.47-1.43-10.35-5.26-14.33-7.59-7.88-15.25-15.68-22.85-23.55q-10.88-11.26-21.65-22.63a15,15,0,0,1-2.27-3.84,86.62,86.62,0,0,1-8.64-33.73c-.87-18.58-12.71-32.61-29.94-38.81-13.32-4.8-25.94-3.66-39.42,0-32.07,8.6-54.11,45.28-52.48,69.86.41,6.2.55,12.44,1.3,18.6.83,6.8,3.1,13.2,8.41,17.88,4.29,3.78,8.82,7.3,13.46,10.64,4.14,3,8.93,3.79,14.08,4.15,10.65.76,21.27,2.15,31.86,3.59a39.52,39.52,0,0,1,20.13,9.27c9.71,8.15,19.38,16.38,28.65,25,11.26,10.51,23.08,18.93,39.71,16.78A24.72,24.72,0,0,1,445,504.76a29.83,29.83,0,0,0,13.38,3.76,13.07,13.07,0,0,1,9.31,3.55q10.14,9.4,20.35,18.73,98.58,90.44,197.18,180.86C687.11,713.44,689.26,715,691.3,716.62ZM504.88,525.92l1.31,1.22a55.56,55.56,0,0,0,4.61-3.38c3.9-3.49,7.81-7,11.49-10.69,2.41-2.44,4.77-3.72,8.46-3.34a25.64,25.64,0,0,0,18.86-5.52c2.54-1.94,6.29-2.78,9.59-3.15,6.92-.78,13.94-.64,20.86-1.4,5.73-.62,11.07-2.47,15.5-6.63,13.44-12.62,27.16-25,40.52-37.65,7-6.62,15.2-9.2,24.46-9.4,6.23-.14,12.46-.06,18.69-.11A41.94,41.94,0,0,0,719.4,414c3.42-14.21,2.09-27.7-3.36-41.56-8.35-21.26-22.73-36.08-43.33-44.78-7.21-3-15.43-3.77-23.23-5.3-6-1.18-12-.83-17.54,2-6.41,3.24-12.71,6.74-18.78,10.58-6.39,4-10.07,10.3-11.95,17.49a78.92,78.92,0,0,0-2.67,13.9c-1.46,19.31-9.82,35.21-23.41,48.6-10.1,10-20.47,19.65-30.41,29.76-2.68,2.73-5.22,6.33-6.08,9.95a142.59,142.59,0,0,0-2.89,21.43c-.35,4.39-1.19,8.2-4.31,11.56a11.85,11.85,0,0,0-3.28,6.55c-.68,10.18-6.95,16.52-14.24,22.38-2.52,2-4.84,4.31-7.15,6.57A16.5,16.5,0,0,0,504.88,525.92Zm-18.26,18.62-1-1.38c-2,1.64-4,3.18-5.93,4.92q-87.23,80-174.42,160.11a49.69,49.69,0,0,0-4.78,4.71c-.74.89-.9,2.25-1.58,4.09C305.38,713.81,483.08,550.2,486.62,544.54ZM707,716.18c-5,4.45-10.09,7.93-12.83,13.48,4.39,5.81,8.48,8.12,13.74,8,6.42-.17,9.62-4.48,7.47-10.45A21.71,21.71,0,0,0,707,716.18ZM284.28,735.63c5.38-.11,10.47-3.48,10.17-6.73-.23-2.46-7.59-9.52-9.76-9.36-3.2.24-7,5.76-7,10.32C277.63,734.19,279.39,735.74,284.28,735.63Z" transform="translate(-258.93 -308.62)"/><path d="M508.73,392.33c-14.37.41-24.89-11-24.14-23.46.72-11.84,11.8-23.08,23.84-23,10.9.09,23.93,12.6,23.74,22.81C531.93,382.42,521.92,392.51,508.73,392.33Z" transform="translate(-258.93 -308.62)"/><path d="M275.24,395.5c-1.3-22.19,20.35-57.1,46.56-64.75a73.3,73.3,0,0,1,40.48-.54c15.52,4.25,24.73,15.23,26.21,31.78,1.16,13.08,5.68,25.16,10.78,37.08a17.38,17.38,0,0,0,3,5.11c7.33,7.77,14.82,15.39,22.23,23.08,6.38,6.63,13.13,13,19,20,7.38,8.86,8.3,28.48-2.68,38.35-13.66,12.27-33.4,11.23-46.83-2.33-8.91-9-18.12-17.72-27.39-26.34-11.17-10.38-25-14-39.78-14.55-6.46-.26-13-.18-19.39-.74-3.38-.29-7.14-.89-9.89-2.66-5.19-3.34-10.38-7.1-14.42-11.69-3-3.36-4.82-8.17-5.8-12.63C276,408.43,275.88,401.91,275.24,395.5Zm31.93,33c1.5-4.06,3.1-7.4,4-10.92,3.71-14.86,11.11-27.53,21.59-38.63,9.85-10.44,20.62-19.44,34.06-24.95,1.26-.52,2.1-2.07,3.14-3.15l-.79-1.47c-1.78.33-3.81.24-5.31,1.07-6.71,3.75-13.76,7.13-19.79,11.8-14.08,10.9-26.51,23.41-33.34,40.4-2.32,5.76-4.71,11.5-6.79,17.35C302.85,423,301.79,426.37,307.17,428.52Zm11.11-.55,1.59.43a12.7,12.7,0,0,0,2.34-2.63c2.15-4.48,4-9.09,6.21-13.56,5.71-11.71,12.17-22.95,23.28-30.46,6.57-4.44,13.5-8.36,20.29-12.48,2.1-1.27,5.15-2.26,3.83-5.37s-4.2-1.45-6.49-.8a7.81,7.81,0,0,0-2,.92c-6.07,3.88-12.38,7.44-18.12,11.75C332.92,388,325.69,406.2,318,424,317.57,425.12,318.17,426.65,318.28,428Zm60.27-48.82c-2.61-2.22-4.83-.32-6.63,1.09-8.19,6.45-16.54,12.74-24.17,19.81A49.76,49.76,0,0,0,334,422.86c-.42,1.42-1.14,3-.88,4.3a5,5,0,0,0,2.57,3c.5.25,2.21-.93,2.68-1.82.79-1.51.81-3.42,1.54-5,2.21-4.69,3.87-9.91,7.09-13.82,8.06-9.8,16.64-19.23,28.08-25.39C377.06,383.11,379.31,382.17,378.55,379.15ZM289.72,394.5c-.79,1.08-2.73,2.67-3.17,4.6-.59,2.58,2.5,5,5.33,4.7a4.35,4.35,0,0,0,4.31-4.21C296.48,396.85,294,394.49,289.72,394.5ZM305.36,368c-2.55-2.14-3.87-3.93-5.59-4.52-2.34-.8-5.27,1.9-4.5,4.18.57,1.68,2.55,3.75,4.15,4C300.85,371.85,302.61,369.8,305.36,368Zm39.48-27c-1.75,2.9-3.42,4.5-3.6,6.25-.25,2.48,1.69,4,4.26,3.85s4.3-2,3.74-4.38C348.85,345,347,343.61,344.83,341Zm-28,14.28c-2.53-2.18-3.84-4-5.59-4.64-2.29-.84-4.87,1.7-4.72,4.21s1.73,4.38,4.19,4C312.54,358.57,314.11,356.94,316.88,355.24Zm16.43-11.3c-2.65-2.23-4-4.12-5.68-4.59-2.42-.66-4.33,1-4.57,3.57s1.28,4.6,3.78,4.44C328.6,347.25,330.28,345.62,333.31,343.94Zm2.36,14.37c-2.89-2.15-4.34-4-6.1-4.35-2.44-.52-4.37,1.09-4.41,3.81s1.55,4.54,4.09,4.23C331,361.79,332.62,360.14,335.67,358.31ZM309.3,385.43c-2.81-1.9-4.32-3.65-6.07-3.95-2.55-.43-4.05,1.51-4,4.09s1.74,4.43,4.17,4C305.1,389.29,306.56,387.44,309.3,385.43Zm-10.56,30.68c-2.7-1.85-4.23-3.59-6-4-2.53-.51-4.17,1.19-4.2,3.93s2.29,5.33,4.58,4.56C294.86,420.06,296.21,418.22,298.74,416.11Zm23.06-44.74c-2.87-1.9-4.39-3.63-6.15-3.9-2.48-.39-4.14,1.51-4.07,4.05s1.72,4.4,4.24,3.9C317.56,375.08,319,373.34,321.8,371.37ZM423.5,441.7c-2.84-2.11-4.29-4-6-4.28a3.34,3.34,0,0,0-3.94,4c.29,1.49,2.28,3.65,3.59,3.7C418.76,445.22,420.48,443.45,423.5,441.7ZM362.83,339c-3-2.07-4.51-3.84-6.26-4.13a3.34,3.34,0,0,0-4,4.11c.31,1.48,2.38,3.57,3.72,3.62C358,342.61,359.7,340.82,362.83,339ZM296,383.43c-3-1.87-4.68-3.69-6.36-3.69-1.28,0-3.33,2.12-3.67,3.61a3.3,3.3,0,0,0,3.85,4.15C291.57,387.23,293.09,385.43,296,383.43Zm79.23,44.73c-3.39-1.74-5.25-3.17-7.29-3.52-.83-.14-2.69,1.9-3,3.2-.53,2.29,2.21,4.76,4.68,4.18C371.19,431.65,372.46,430.13,375.23,428.16ZM402.79,477c1.75-2.23,3.65-3.67,3.42-4.57-.38-1.49-2.13-2.63-3.3-3.92-1.15,1-3.24,2.11-3.23,3.14C399.7,473.08,401.27,474.53,402.79,477Zm36.14-18.89c-2.81-1.6-4.3-3.12-5.73-3.05-1.12.05-3.21,2.37-3,3.13.43,1.48,2.07,3.38,3.43,3.58C434.84,461.91,436.34,460,438.94,458.07Zm-52.3-62.32c-1.81-1.65-3.15-3.67-4-3.48-1.45.31-2.61,2-3.89,3.15,1.09,1.1,2.09,2.92,3.31,3.09S384.58,397.07,386.64,395.75Zm-1.05,25.94c-1.42,2.17-3,3.55-2.9,4.72a4.81,4.81,0,0,0,3,3.32c2.33.48,3.88-1.3,3.38-3.6C388.82,424.79,387.26,423.72,385.59,421.7Zm6,34.93c-2.21-1.29-3.65-2.82-4.77-2.61s-2,2.11-3,3.27c1.17,1,2.33,2.71,3.52,2.74S389.65,458.29,391.61,456.63Zm-20.39-45.08c-2.2-1.51-3.54-3.14-4.67-3s-2.19,2-3.27,3.06c1.1,1.06,2.12,2.85,3.32,3S369,413.06,371.22,411.54Zm48.24,40.14c-1.81,2.24-3.72,3.65-3.51,4.56a6.15,6.15,0,0,0,3.33,3.67c.61.26,3.12-1.84,3.15-2.91C422.46,455.57,420.91,454.11,419.46,451.68Zm-47.78-4c1.58-2,3.33-3.17,3.27-4.29s-1.8-3.12-2.89-3.18-3,1.69-3.19,2.87S370.31,445.59,371.68,447.69ZM424,472.34c-1.91-1.65-3.05-3.41-4.17-3.39s-2.35,1.73-3.52,2.69c1,1.17,1.8,3.07,3,3.29S421.81,473.63,424,472.34Zm-71.71-47.4c-1.62,1.9-3.15,2.92-3.44,4.21a2.8,2.8,0,0,0,3.29,3.57,4.54,4.54,0,0,0,3-3.17C355.21,428.39,353.65,427,352.28,424.94Zm35.87-14.16c-2.23-1.37-3.62-2.91-4.76-2.74s-2.09,2-3.12,3.13c1.14,1,2.25,2.76,3.44,2.82S386.09,412.37,388.15,410.78Zm14,25.8c-1.62,2-3.36,3.27-3.29,4.39s1.78,3.14,2.88,3.21,3-1.69,3.2-2.87S403.59,438.79,402.2,436.58Zm5.55,19.66c-2.06-1.47-3.37-3.13-4.48-3s-3,1.94-3,3,1.85,2.9,3,3S405.68,457.73,407.74,456.24Zm-2.21-31.61c-2.4-1.41-3.91-3-5-2.74s-2.36,2.2-2.6,3.56c-.12.67,2,2.49,2.93,2.4C402.18,427.73,403.33,426.26,405.53,424.63ZM392,443.15c-1.73-1.9-2.66-3.77-3.77-3.89s-3.34,1.28-3.54,2.32,1.15,3.23,2.27,3.61S389.64,444.18,392,443.15Zm41.68,31.61c.85-1.25,1.77-2,1.69-2.65s-1.1-1.31-1.7-2c-.64.64-1.7,1.22-1.8,1.93S432.77,473.48,433.69,474.75Zm-11.86,7.88c-1.49-.65-2.34-1.36-3-1.21s-1,1.19-1.49,1.83c.7.46,1.4,1.28,2.09,1.28S420.66,483.61,421.82,482.64Z" transform="translate(-258.93 -308.62)"/><path d="M443.67,495.59c-.1-4,4-8.41,7.82-8.3,3.53.1,8.48,5.64,8.77,9.81.25,3.52-3.29,7.54-6.62,7.52C448.63,504.59,443.78,500.2,443.67,495.59Z" transform="translate(-258.93 -308.62)"/><path d="M672.06,441.29c-5.21.33-10.45.43-15.63,1.05a40.16,40.16,0,0,0-23.86,11.17c-10.92,10.56-22.49,20.45-33.34,31.08-8.13,8-18.13,10.55-28.68,10.37-14.1-.23-29.62-13.92-28.13-32.27.82-10.05,5.47-16.35,12.23-22.67,10.35-9.68,20.88-19.33,29.95-30.15,9.66-11.52,16.23-25,17.7-40.45.33-3.46,1.2-6.88,1.42-10.35,1.4-22.23,32.37-37.64,50.15-32.44,6,1.74,12.45,2.13,18,4.61,18.18,8.05,31.77,21,39.48,39.68,3.82,9.26,7.16,18.5,6.55,28.82-.9,15.22-5.52,28.21-19.29,36.66-4.8,2.94-9.73,5-15.37,5.14-3.73.09-7.47,0-11.2,0ZM674.5,430c-.35-2.75-.29-4.43-.8-5.93-1.2-3.52-2.76-6.92-4-10.43-6.3-17.77-18.49-31-33.12-42.09-4.67-3.55-10.27-6-15.62-8.51-1.16-.55-3.79-.06-4.5.88-1.58,2.11.34,3.56,2.08,4.66.63.4,1.34.65,2,1,22.2,11.79,40,27.55,47.77,52.49a23.73,23.73,0,0,0,2.42,5.42C671.26,428.3,672.53,428.69,674.5,430Zm10.67.56c3.38-5.55,3.59-5.61,2.56-8.89-5.35-17-11.64-33.42-25.24-45.87-4.22-3.86-7.94-8.4-12.57-11.65-7.49-5.26-15.49-9.8-23.4-14.45-1.71-1-4.14-2.35-5.87,1.52C654.61,366.65,676.4,392.44,685.17,430.52ZM612.44,379.4c.9,2,1,2.62,1.32,2.89,1,.76,2,1.39,3.05,2.08,16.46,11.09,32.26,22.73,36.71,43.88a1.2,1.2,0,0,0,.28.68c.92.7,2.31,2.1,2.73,1.86,1.06-.61,2.35-2,2.36-3a17.49,17.49,0,0,0-1.31-5.75c-7-20.12-22.59-32.16-39.94-42.51C616.55,378.83,614.73,379.4,612.44,379.4ZM594,456c-3-2-3-3.23-4.73-3.69-2.59-.67-4.05,1.19-4.37,3.65s1.07,4.68,3.55,4.41C590.41,460.16,590.7,457.93,594,456Zm-24.7,4.13c4.6,1.38,6.82.69,7.5-2.41.55-2.53-1-3.7-3.12-4.19C570.8,452.86,569.92,454.24,569.3,460.13ZM681.73,349c-1.94,2.4-3.58,3.61-4,5.14a2.85,2.85,0,0,0,3.29,3.67c1.5-.25,3.58-1.92,3.84-3.26S683.32,351.66,681.73,349Zm19.46,56.66c1.75-2.77,3.26-4.18,3.49-5.77.33-2.22-1.32-4.12-3.61-3.42a5.94,5.94,0,0,0-3.59,3.85C697.3,401.55,699.29,403.09,701.19,405.68Zm-90.56,50.76c-3.1-1.49-4.83-3-6.07-2.72s-2.21,2.47-3.28,3.82c1.23.92,2.53,2.65,3.67,2.56C606.43,460,607.77,458.39,610.63,456.44ZM664.7,337.82c-1.8,2.66-3.42,4.05-3.5,5.53-.06,1.08,2.1,3.34,2.92,3.18,1.53-.29,3.67-1.77,3.93-3.08S666.44,340.57,664.7,337.82Zm4,18.29c-3-1.48-4.58-2.86-6.15-2.88a3,3,0,0,0-2.89,4.14c.45,1.25,2.47,2.87,3.58,2.73C664.75,359.89,666.05,358.16,668.72,356.1Zm29,11.17c-3-1.56-4.49-3-6-3a3,3,0,0,0-3,4c.42,1.25,2.38,2.88,3.5,2.78C693.64,371,695,369.28,697.69,367.27Zm-3.46,18.57c-2.61-2-4.1-3.92-5.31-3.76-1.36.18-2.94,2.12-3.46,3.62-.23.68,1.85,3,3,3.06C689.86,388.83,691.38,387.38,694.22,385.84ZM635.93,345c1.66-2.23,3.34-3.55,3.49-5,.1-1-2.24-3.3-3-3.1a5.94,5.94,0,0,0-3.65,3.34C632.51,341.13,634.33,342.7,635.93,345Zm-6.35,67.38c-1.9-1.76-3.19-3.79-4.11-3.63-1.55.27-2.87,1.92-4.28,3,1.14,1.09,2.16,2.85,3.46,3.08S627.29,413.61,629.58,412.4Zm16.73-60.61c1.64-2.4,3.27-3.77,3.31-5.18,0-1.09-1.94-2.23-3-3.35-1.23,1.22-3,2.26-3.49,3.72C642.82,347.84,644.62,349.37,646.3,351.78ZM572.91,477.29c1.72-2.31,3.28-3.62,3.62-5.19.15-.73-2-2.64-3.25-2.81-2.09-.28-4.11,1-3.79,3.45C569.65,474,571.21,475.13,572.91,477.29Zm130.34-89.57c1.7-2.33,3.38-3.66,3.47-5.08.07-1.06-1.77-2.94-3-3.24a2.81,2.81,0,0,0-3.58,3.33C700.3,384.09,701.65,385.28,703.25,387.72ZM680.6,372c-2-2.29-2.79-4-4.08-4.53a3,3,0,0,0-4.33,2.62c-.07,1.29,1.3,3.54,2.38,3.78C676,374.16,677.78,372.95,680.6,372Zm-88.23,97.73c-3.15-.45-6-1.25-6.75,2.64-.17.91,1.35,2.94,2.31,3.1C591.52,476.06,592.85,474,592.37,469.71Zm109.77-56.12c-3.27.13-4.76,1.91-4.33,5.16.08.6,1.38,1,2.12,1.55,1-1.74,2.11-3.45,3.06-5.24C703.1,414.83,702.54,414.25,702.14,413.58Zm-96.68-3.9c1.65,1.7,2.58,3.11,3.9,3.76.45.22,2.72-1.58,2.63-2.25a5.21,5.21,0,0,0-2.33-3.51C609,407.33,607.42,408.69,605.46,409.68Zm7.66-11.57,1.29-1.87c-1-1-1.92-2.52-3.13-2.83-2.08-.54-3.77.39-3.94,3.82Zm-3.95,27.83c-1.68-1.09-2.82-2.42-3.75-2.28s-1.71,1.7-2.55,2.64c1,.87,1.91,2.32,3,2.42C606.68,428.81,607.69,427.26,609.17,425.94ZM574,444.18c1.28-1.31,2.39-2.14,3-3.24.15-.3-1.51-2.17-2.08-2.06-1.16.24-2.13,1.34-3.18,2.09Zm19.3-2.72c-1.61-1.05-2.79-2.43-3.76-2.29s-1.88,1.71-2.81,2.66a17.16,17.16,0,0,0,3.9,2.37C591.14,444.34,592.13,442.76,593.35,441.47Zm-17.09,43c-1.53-1.09-2.52-2.25-3.67-2.44-.63-.1-1.53,1.43-2.3,2.22.93.9,1.72,2.18,2.83,2.56C573.69,487,574.81,485.58,576.26,484.45ZM557.62,453c-.66,2.08-1.53,3.38-1.25,4.35a4.2,4.2,0,0,0,2.63,2.49c.72.17,1.8-1.14,2.72-1.79ZM623.8,442c-1.36-.67-2.47-1.58-2.85-1.34a17.46,17.46,0,0,0-2.91,2.86c.88.67,2.15,2.08,2.55,1.87C621.7,444.83,622.45,443.55,623.8,442Zm-1.35-19.48c-.88,2.08-1.88,3.29-1.65,4.16a6.09,6.09,0,0,0,2.55,3c.26.18,2.33-1.34,2.24-1.84C625.37,426.66,624.36,425.62,622.44,422.56Zm-61,49.52c-1.35-1.07-2.48-2.48-3-2.28-1.07.38-1.82,1.67-2.7,2.58.88.67,1.75,1.86,2.65,1.88S560.15,473.08,561.49,472.07ZM606,437.89,602.91,442l3.17,2.25c.48-.71,1.36-1.45,1.33-2.14C607.36,440.93,606.71,439.82,606,437.89Zm32.54-19.55c1-1.55,1.88-2.39,2-3.3.05-.59-1.3-1.94-1.64-1.82-1,.32-2.21,1.12-2.4,1.95C636.33,415.84,637.53,416.83,638.57,418.34Zm.23,8.84-1.62,1.92,3.28,2.92,1.78-2.71Zm-42.5-12.78c.91-1.49,1.79-2.36,1.91-3.32.07-.55-1.3-1.87-1.69-1.75-.93.29-2.23,1.16-2.31,1.91S595.28,412.95,596.3,414.39ZM593,426.3a12.54,12.54,0,0,0-2.58-2.62c-.33-.18-1.33.89-2,1.39a17.25,17.25,0,0,0,2.39,2.3C591,427.55,591.83,426.88,593,426.3Z" transform="translate(-258.93 -308.62)"/><path d="M533,497.16c.2-4.28,3.61-8.14,7.21-8.18a6.69,6.69,0,0,1,6.4,6.82c-.27,3.7-4.39,7.23-8.29,7.12C534.91,502.82,532.86,500.59,533,497.16Z" transform="translate(-258.93 -308.62)"/></svg>