<svg id="Calque_1" data-name="Calque 1" xmlns="http://www.w3.org/2000/svg" viewBox="0 0 35.65 126.75"><title>lighthouse</title><rect x="16.58" y="78.25" width="3" height="6"/><path d="M34.38,99.72h0l-2.25-47.8h2.12V42.75H30.91V36.58h-2V21.92s0-.12,0-.24V20.42h-.09a11.45,11.45,0,0,0-2.92-6.54,10.36,10.36,0,0,0-7.07-3V0h-2V10.88C9.64,11.34,7,16.64,6.38,20.42H6.24v1.47l0,1.53h0V36.58H4.91v6.17h-3v9.17H3.69L1.48,96.72h0L0,126.75H35.65ZM7.91,39.58h20v2.67h-20ZM9.24,23.42H25.91v8H19.33V25.67h-3v5.71H9.24Zm7.33,89.33h3v11h-3ZM6.67,52.42H29.15l2.09,44.3H4.48Z"/></svg>