<svg id="Calque_1" data-name="Calque 1" xmlns="http://www.w3.org/2000/svg" viewBox="0 0 314.69 279.91"><title>lighter</title><path d="M114.29,108a10.71,10.71,0,0,1,1.27,1.33c2,2.87,3.79,5.83,5.85,8.62A3.69,3.69,0,0,0,124,119c6,.09,12,.07,18,0,3.25,0,6.51-.19,9.76-.18,4.16,0,8.32.15,12.48.18,1.62,0,3.25-.16,4.87-.19.79,0,1.59.09,2.45.15,0,1.81,0,3.46,0,5.09a3.78,3.78,0,0,1-.48,1.19c-.35-.31-.91-.56-1-.93a19.87,19.87,0,0,1-.35-2.92c-.08-.94-.23-1.51-1.5-1.16a13.32,13.32,0,0,1-3.44.16c-5.18,0-10.36.06-15.54,0-8.82-.1-17.65-.28-26.47-.42l-3,0c0,1,0,1.94,0,2.91a10.86,10.86,0,0,0,.11,2.73,3.57,3.57,0,0,0,1.35,1.86c1.33.87,1.81,3.27.52,4.2-1.88,1.36-2.06,3.35-2.12,5.26-.15,4.58-.08,9.18-.06,13.77,0,1.75.13,3.5.16,5.25a5.31,5.31,0,0,1-1,3.53,42.39,42.39,0,0,0-2.49,4.76c-.21.38-.85.51-1.3.75-.1-.48-.38-1-.26-1.43.3-1.09.78-2.13,1.24-3.33l-1.1-.07c-2.32-.1-2.85-.71-3.2-3a32.74,32.74,0,0,0-1.27-5.38c-.75-2.26-1.8-2.71-4.1-2a2.93,2.93,0,0,0-1.45,1,4.63,4.63,0,0,0,1.08.11c2.3-.3,3.36.65,3.78,3.5.33,2.27-.78,3.95-3.09,4.18-5.07.5-7,4.09-8.58,8.15L96.35,171a5.57,5.57,0,0,0,1.69.1c3.06-1.06,6.12-2.15,9.14-3.31.51-.2.88-.76,1.33-1.13.21-.18.46-.44.69-.44a56,56,0,0,1,7,.24c-3.07,2.59-6.86,3.15-10.49,4.06s-7.39,1.69-11.09,2.52a8.54,8.54,0,0,0,1.54.3c5,.15,10,.22,15,.42,3.59.14,7.17.51,10.76.65,4.73.19,9.46.28,14.2.4,6.83.16,13.67.3,20.5.48.92,0,1.83.35,2.75.4,4.73.25,9.46.59,14.19.65,5.39.07,10.79-.14,16.18-.18,1.3,0,2.61.18,3.91.27v.54h-4.13c-4.74,0-9.47,0-14.21,0s-9.79,0-14.63-.44a35.41,35.41,0,0,0-8.05.15,14.19,14.19,0,0,1-5.55-.1c-3.14-.91-6.28-.08-9.42-.52s-6.49-.06-9.74-.17c-5.49-.19-11-.49-16.47-.73-3.59-.16-7.18-.34-10.77-.46-1.85-.06-3.71,0-5.57,0-1.42,0-1.88.52-1.76,2,.29,3.62.44,7.26.46,10.9.06,8.29-.07,16.58,0,24.87.06,5.24.39,10.47.62,15.71.07,1.62.2,3.24.27,4.87,0,1-.57,1.91-.24,3.15.42,1.58-.22,3.41-.15,5.12.1,2.28.52,4.55.67,6.84.13,2.09.07,4.18.09,6.28a18.64,18.64,0,0,1,0,2.62c-.61,4.59,3.28,6.49,6.64,6.67,2.63.14,5.24.57,7.85.93,5,.7,10,1.86,15,2,4.66.16,9.35.1,13.77,1.45s8.71,1.13,13,1.87c4.66.8,9.38,1.29,14,2.05,6.57,1.06,13.12,2.25,19.69,3.37.84.14,1.71.15,2.57.22l.08-.57L184,273.94l.1-.4c2.56.19,5.13.33,7.69.59a3.76,3.76,0,0,0,3.78-1.83,9.38,9.38,0,0,0,2-6.55,3.76,3.76,0,0,1,.46-1.46c-.82-3,0-6-.07-9.12l2.28.47a65.85,65.85,0,0,1-1.89-7.7,25.42,25.42,0,0,1,.26-6.57c.1-.75,1.08-1.38,1.77-2.2l-1.63-.75c0-7,0-13.92,0-20.83,0-.14.34-.29.15-.13a39.48,39.48,0,0,1-.59-4.37c-.11-5.52-.14-11.05-.19-16.58,0-3.12-.46-6.3,0-9.33s-.25-5.82-1.11-8.64a5.09,5.09,0,0,1-.18-1.2c-.21-4-.92-4.44-4.58-6.05a21.62,21.62,0,0,0-8.49-1.67c-5.45-.11-10.9-.11-16.35-.2-1.62,0-3.25-.27-4.87-.26-1.25,0-2.57.56-3.74.31-5.49-1.17-11.1-.24-16.6-1-1.55-.23-3.11-.37-4.67-.48-5.58-.39-11.17-.73-16.75-1.12a18,18,0,0,1-2.29-.45v-.54a11,11,0,0,1,1.82-.2c4.51.24,9,.52,13.54.78,2.93.17,5.86.4,8.79.52,5,.2,10,.35,14.94.5,2.65.08,5.31.17,8,.14,2.25,0,4.5-.29,6.76-.34a11.86,11.86,0,0,1,2.39.44c1.7-2-.56-3.1-1.17-4.56a3.84,3.84,0,0,0-.83-1.08,10.92,10.92,0,0,0-2.15-2.07c-1.38-.79-1.6.8-2.35,1.36a8.46,8.46,0,0,1-2,.88c-.91-1.84-2.85-3.16-1.29-5.3l-.43-.13-1.69,1.54c1-3.08,2.79-3.55,7.59-1.89V135.85c2,1,1.2,2.66,1.23,4,.12,4.6,0,9.2,0,14.06a30.79,30.79,0,0,0,3.15-1c3.3-1.44,6.52-3.05,9.85-4.4a4.56,4.56,0,0,0,3.2-4.27,6.19,6.19,0,0,1,.37-1.94c.51,1.84,1.14,4-.25,5.34s-3.24,1.91-5,2.64c-1.9.79-3.88,1.35-6,2.07.88,1.34,1.33,2,2.88,1.25,1-.51,2.59,0,3.91.1,2.31.2,4.58.09,6.47-1.4,1.39-1.1,3-2,2.5-4.46-.33-1.67.32-3.52.52-5.29.37-3.23-1.61-5.5-3.43-7.69a19.62,19.62,0,0,0-4.33-3.44c-.39-.26-1.2.09-1.81.17a6.18,6.18,0,0,0,.52,1.49,12,12,0,0,1,1.49,2.34c-3.69-3.33-6.25-7.84-11-10.06l.28-.41h2.37l-5-6.08,0-.39c1,.26,1.91.55,2.88.77a6.62,6.62,0,0,0,2.14.27,28,28,0,0,0,3.06-.66,57.77,57.77,0,0,0,4,6.67c.58.74,2.18.68,3.32,1a54.52,54.52,0,0,1,6,1.5c3,1.11,4.46,3.9,6.34,6.2,1.55,1.89,2.87,3.9,2.83,6.52-.06,3.44.32,6.89-1.92,10-2.94,4.05-7.07,6.28-11.37,8.16.13,1.08.27,2.11.37,3.15.2,2.05,1.65,3.27,3.91,3.26a65.83,65.83,0,0,1,14,1c4.76,1,7.42,4.06,9.37,8.18,1.83,3.85,1.13,8,1.53,12,.44,4.42.67,8.86.89,13.29a36.47,36.47,0,0,1-.3,4.4c0,.34-.16.74,0,1,1.84,3.89.58,8.15,1.41,12.17.14.68-.74,1.57-1.24,2.52,2.43.45,1.35,2.47,1.73,3.79a14.21,14.21,0,0,1,.16,4.14c-.14,8.28-.24,16.56-.48,24.84-.13,4.33-.46,8.65-.81,13-.05.64-.72,1.23-1.15,1.9l1.6.75c-.66.36-1.17.49-1.44.82-.65.81-1.73,1.27-1.8,2.6,0,.45-.94,1-1.54,1.25-4.41,1.94-8.89,3.72-13.25,5.76a15.9,15.9,0,0,1-7.46,1.23c-5.1-.15-10.2-.31-15.29-.53a23.27,23.27,0,0,1-6.66-1.36,36.8,36.8,0,0,0-7.32-1.4c-3.1-.4-6.3-.3-9.32-1-6-1.34-12.06-2-18.12-2.82-7.86-1.07-15.73-2.06-23.57-3.22-5.33-.79-10.61-1.84-15.93-2.7a10.88,10.88,0,0,1-6.68-4.29A7,7,0,0,1,91,256.92a16.61,16.61,0,0,0,0-4.08c-.09-2.7-.35-5.41-.32-8.11.06-6.15.31-12.3.37-18.45,0-2.84-.29-5.69-.27-8.54,0-3.09.39-6.19.31-9.28,0-1.74-.75-3.45-1-5.2-.38-2.5-1.23-5.06.71-7.31a4.56,4.56,0,0,1-1.29-4.63c.36-1.24.6-2.51.93-3.93-2.38,0-2.32-1.68-1.91-2.77.64-1.71-.51-3.21-.18-5.14-1.68.7-3.33,1.47-5,2.07-4.21,1.47-8.43,2.88-12.66,4.27-5.4,1.77-10.87,3.35-16.21,5.28a16,16,0,0,1-12.83-.55,2.86,2.86,0,0,1-.84-.58c-1.82-1.9-3.52-3.93-5.44-5.72-3-2.84-4.87-6.41-6.51-10.12-1.72-3.91-3.46-7.81-5.11-11.76-1.42-3.42-2.69-6.9-4.08-10.32-.34-.83-.92-1.55-1.33-2.35s-.72-1.52-1-2.3a26.22,26.22,0,0,0-1.41-3.46c-1.17-2-2.58-3.77-3.76-5.72-.46-.76-.45-1.8-.86-2.61-.89-1.79-1.87-3.53-2.89-5.25a27.82,27.82,0,0,1-3.61-7.69A57.38,57.38,0,0,0,1.46,114,17.52,17.52,0,0,1,.6,102.45c.61-2.28,2.55-3.67,5.06-4.29,3.82-.94,7.55-2.27,11.35-3.31,2.1-.57,4.29-.8,6.39-1.37,2.69-.73,5.35-1.58,8-2.48,3.07-1.05,6-2.36,9.15-3.3s6.41-1.61,9.62-2.4c3.71-.92,7.43-1.83,11.13-2.81A12.91,12.91,0,0,1,70.71,84c1.45.76,2.25,2.91,3.13,4.54q3.79,7.1,7.36,14.3c.84,1.7,1.35,3.57,2.08,5.33,1.77,4.3,3.63,8.56,5.34,12.88a77.17,77.17,0,0,0,8,14.61,75.06,75.06,0,0,1,4,7.8c.92,1.79,1.29,1.75,3.23.93a25.71,25.71,0,0,1,4.88-1.25c.33-.07.77.33,1.14.54s.58.49.85.48c2-.09,3.29.6,3.69,2.8.14.79,1,1.45,1.56,2.18l.54-.42q0-3.75,0-7.51c0-1.63.06-3.26,0-4.88-.1-2.57.49-4.71,3.29-5.72-.31-.4-.48-.86-.79-1-2-.88-2.48-2.41-2.2-4.44.31-2.23.48-4.48.71-6.81l2.6.17c-1.14-1.56-2.07-2.85-3-4.13-1.43-1.91-2.74-3.87-2.82-6.38Zm-62-20-.15-.43c-3.28.9-6.59,1.73-9.85,2.7C36.07,92.1,29.92,94,23.75,95.89c-4.33,1.29-8.8,2.2-13,3.85-1.94.77-3.79,1.91-5.87,2.44-1.69.42-1.94,1.59-2,3.13-.23,3.79,1.6,6.93,3,10.21,1.18,2.82,2.57,5.55,3.77,8.37.92,2.17,1.53,4.49,2.57,6.59,2.21,4.46,4.7,8.78,6.92,13.25s4.35,9.18,6.43,13.82c1,2.28,1.66,4.76,2.81,7,2.61,5,5.39,10,8.19,14.89,1.11,2,2.76,3.64,3.63,5.68a7.13,7.13,0,0,0,8.73,4.36,106.94,106.94,0,0,0,10.72-4c1.89-.73,3.7-1.67,5.62-2.31,2.09-.71,4.26-1.22,6.4-1.76,5.41-1.36,10.8-2.74,15.82-5.28.58-.29,1.12-.65,1.4-.82-1.19-1.61-2.35-3-3.25-4.47s-1.64-3.43-2.52-5.11c-2.42-4.66-5-9.27-7.31-14-2.71-5.46-5.25-11-7.88-16.5-1.24-2.6-2.56-5.16-3.76-7.76s-2.4-5.59-3.71-8.33c-3.27-6.83-6.73-13.56-9.83-20.47a22.38,22.38,0,0,1-1.36-7.05C49,89.68,51,89,52.25,88Zm148,114c.39.68,1,1.23,1,1.82.21,3.22.36,6.44.4,9.67.06,4.3,0,8.61,0,12.91,0,1.65-.09,3.3-.11,5,0,1.93-.07,3.87,0,5.8,0,1.72.19,3.43.15,5.15-.06,2.57-.49,5.15-.34,7.71a76.58,76.58,0,0,1-1.06,18.52,10.73,10.73,0,0,1-2.07,4.27,20.13,20.13,0,0,1-3.35,2.89l.09.49a23.77,23.77,0,0,0,3.8,0,38.84,38.84,0,0,0,11.06-3.9,9.77,9.77,0,0,0,5.65-7.38,27.92,27.92,0,0,0,.39-3.81c.15-4.06.28-8.13.34-12.2q.08-5.12,0-10.25c0-2.35-.26-4.7-.31-7,0-1.32.19-2.64.19-4,0-1.66-.18-3.32-.17-5,.05-5.68.22-11.37.22-17.05,0-4.34-.14-8.68-.28-13s-.32-8.82-.58-13.23c-.14-2.35-.82-2.71-3.17-2.38-2.16.31-4.36.4-6.53.67-1.06.13-2.43.15-3.07.8a5.2,5.2,0,0,0-.95,3.17c-.13,2.46,0,4.93,0,7.21l-1.47-1c.24.8.23,1.17.41,1.29,1.51,1.08,1.39,2.64,1.37,4.22,0,1.28.19,2.56.11,3.83C201.68,198.88,202.09,200.85,200.2,202Zm-91.39-53.84a3.18,3.18,0,0,0-3.64-1.26,15,15,0,0,0-4.06,1.89c-3.58,2.58-7.73,3.24-11.91,3.9-2.83.45-5.66.83-8.49,1.3-1.44.24-1.77,1-1.06,2.34,1.61,3,3.13,6,4.79,9a2,2,0,0,0,1.59.56c1.89-.18,3-1.49,4.05-2.94,2-2.86,4.54-4.65,8.27-3.27.07,0,.19-.1.28-.15.1-.91.89-1.66.81-2.3a8.11,8.11,0,0,1,1.21-5.15c.93-1.72,1.94-2.93,3.86-3.27C105.88,148.61,107.23,148.41,108.81,148.16Zm-12.72-.58c1.91-.66,2.11-1.43,1.48-2.62-1.1-2.09-2.21-4.18-3.15-6.35-.84-1.92-1.35-4-2.22-5.88-1.93-4.24-4-8.44-6-12.62-1.8-3.67-3.51-7.41-5.59-10.91-1.16-2-2.39-3.66-1.62-5.48-.85-.88-1.65-1.38-2-2.1-1.71-3.67-3.32-7.38-4.91-11.11a9.77,9.77,0,0,0-3.55-4.82,4.87,4.87,0,0,0-1.4-.37c0,.46-.12,1,.08,1.37,1.08,2,2.39,3.87,3.34,5.91C72,95.73,73.28,99,74.6,102.15c.8,1.92,1.47,3.91,2.4,5.77.36.73,1.58,1.07,1.85,1.8,1.17,3.14,2,6.4,3.78,9.32,1.33,2.13,2,4.67,3,7,1.64,3.57,3.35,7.1,5.08,10.62.56,1.14,1.41,2.15,2,3.31C93.89,142.44,95,145,96.09,147.58Zm109.43,21c-.82-1.5-2.13-.9-3.19-1.05-2.86-.41-5.73-.82-8.6-1.12a2,2,0,0,0-1.37.83c-.12.16.25,1,.58,1.17a9.48,9.48,0,0,0,2.53,1c3.4.78,5.27,3.13,6.41,6.18.43,1.14,1,1.59,2.22,1.35.51-.1,1.05,0,1.56-.13,2.82-.59,5.63-1.21,8.88-1.92-1.22-1.66-2.2-3.07-3.26-4.41a3.43,3.43,0,0,0-3.39-1.29c-2.1.27-4.22.34-6.33.5l-.06-.36ZM183.83,168v0c1.91,0,3.83.05,5.73,0a1.45,1.45,0,0,0,1.06-.93,1.57,1.57,0,0,0-.74-1.28,5.63,5.63,0,0,0-2.23-.25c-3.07.13-6.14.27-9.2.52-.5,0-1.3.57-1.37,1-.19,1.1.73,1.06,1.52,1.05C180.35,168,182.09,168,183.83,168Zm5-3.13a24.48,24.48,0,0,0-.25-3.76,1.88,1.88,0,0,0-1.29-1.2c-2.3-.13-4.6-.06-7.08-.06l.26,2.7c2.2.43,4.39-.36,6.77.84l-2.22.84Zm1.34-9.53-.16-.76c-.68.13-1.37.23-2,.38-3.61.84-7.19,1.2-10.67-.56-.29-.14-.78.13-1.18.21.11.39.1.89.35,1.16,2,2.09,4.62,1.84,7.14,2.07a2.07,2.07,0,0,0,.58-.17l-1.12-.85Zm-7.2-29.22c-.78-1.2-1.58-2.45-2.4-3.69-.92-1.4-2.08-2.08-3.85-1.1C178.49,123.36,179.41,126.32,182.95,126.16Zm-78.8,31.68c-.2-1.45-3-.91-2.17-3,.48-1.25,1-2.5,1.5-3.82-2.47,1.28-3.4,4.66-2.09,7.58Zm9.79-1.6-.5,0a3.41,3.41,0,0,0,.15.67c.23.53.49,1,.74,1.56.55-.37,1.54-.71,1.56-1.11a27.67,27.67,0,0,0-.27-4.74c0-.22-.63-.37-1.35-.75a12.88,12.88,0,0,1,.39,2.62A5.76,5.76,0,0,1,113.94,156.24Zm-10,0c1.11,1.27,2.58,1.43,3.51.48,1.12-1.13,1.11-3.81,0-4.79a2.34,2.34,0,0,0-3,.37c1.26,0,2.79-.37,2.68,1.67C107,155.59,106,156.35,103.95,156.26ZM195.21,152l-.42-.39-4,3.67c.81,0,1.62,0,2.44,0,.47,0,.94-.05,1.42-.08l-.88-1.18Zm3.33-13.71c.33,1.87.57,2,2.77,1.44C201.26,137.63,201.2,137.6,198.54,138.33Zm2.61,10.15c-1.47-.41-2.57-.65-3.51.81C199,150.2,200,150.14,201.16,148.49Zm-2.9-1.36c2.66.56,2.85.49,3-1.12C200.24,146.23,198.83,145.3,198.25,147.13Zm3.79-5,.17-.8-3-1.07.43,2.36Zm-92.57,3.58-.44.5,3.34,3.21.61-.7ZM106.36,153l-1.08-.35c-.25.82-.52,1.63-.71,2.46a6.14,6.14,0,0,0,.95.31C105.84,154.61,106.1,153.79,106.36,153Zm95.73-8.86-.15-.72-2.61.47c.11.29.16.79.35.85C200.61,145,201.57,145.21,202.09,144.12Z"/><path d="M137.35,199.22a27.3,27.3,0,0,1,.64,2.95c.44,4.08.87,8.16,1.18,12.25a31.43,31.43,0,0,1,0,6.35,11.63,11.63,0,0,0,.94,5.42c.43,1.27.56,2.65.91,4,.93,3.43,2,6.83,2.83,10.28s1.42,6.7,2,10.07c.11.62-.37,1.34-.69,2.34-.5-.47-1-.74-1-1a8.29,8.29,0,0,0-2.18-5,12.65,12.65,0,0,1-1.28-2.65c-.93-1.93-1.37-2-2.66-.21-.68.94-1.33,1.9-2,2.87-.78,1.23-1.62,1.89-2.91.22l-4.33,6.45-.64-.25c.08-1.15.08-2.31.27-3.44.41-2.5.82-5,1.41-7.46s1.45-5,2.14-7.56c.86-3.16,1.65-6.34,2.55-9.49a1.68,1.68,0,0,1,1.05-1c1.78-.27,2.29-1.59.9-3.81a7.81,7.81,0,0,1-.62,1.17,8.35,8.35,0,0,1-1.07.93l-.88-2.55c-2,1.18-2.56.92-2.42-1.32.13-2.09.79-4.15.95-6.24.36-4.78,2.37-9,4.39-13.15Zm1,35.42c-1.41.1-2.25.51-2.1,1.66.08.64.69,1.21,1.07,1.81l.69-.26Z"/><path d="M107.68,221.34c1.21-1.24,1.65-.85,2.18.52,2,5.16,4.12,10.26,6.27,15.36a18.41,18.41,0,0,0,1.92,2.78c.61-1.44,1.05-2.57,1.56-3.67a14.08,14.08,0,0,1,.91-1.48c.32.49.66,1,1,1.46a1.86,1.86,0,0,0,.77.85c.1-.57.17-1.14.31-1.7.58-2.2,1.19-4.39,1.76-6.59.3-1.15.5-2.33.85-3.46.08-.27.55-.43.84-.64.14.34.42.7.39,1-.11,1.14-.37,2.27-.51,3.41a3.6,3.6,0,0,0,.27,1.88c1-2.13,1.37-4.55,3.42-5.89l.61.22c-.29,1.65-.63,3.3-.86,5-.44,3.21-.64,6.46-1.28,9.62-.88,4.32-2.1,8.58-3.17,12.86-.29,1.17-1,1.3-1.73.52a38.83,38.83,0,0,1-2.51-3.31c-.52-.71-1-1.43-1.76-2.46l-2,5.95a11.22,11.22,0,0,1-1.53-1.87c-1.23-2.65-2.48-5.3-3.52-8-1.14-3-2-6-3.1-9-.58-1.62-1.45-3.14-2-4.78s-2-3.28-.86-5.46c.46-.86-.15-2.26-.16-3.42a9.47,9.47,0,0,1,.35-1.86c.42.44.86.87,1.25,1.33A3.68,3.68,0,0,1,107.68,221.34Z"/><path d="M150.83,217c-1.51,2.48-.34,5.63-2.65,7.69l-1-2c-.43.51-.68,1-1.07,1.19a1.87,1.87,0,0,1-1.4-.09,10.87,10.87,0,0,1-1.65-1.27l-.51.29c0-1,.06-2,0-2.93-.38-5.08-.93-10.16-1.12-15.25-.09-2.49-.91-5.47,2.19-7,3.9-2,7.9-2.8,12.24-1.38,3,1,3.37,2.93,3.08,5.58a13.3,13.3,0,0,1-3.85,8,2.34,2.34,0,0,0-.56,2.93c1.29,2.94,2.4,6,3.48,9a7,7,0,0,1,0,2.23l-.42.1Zm.36-10a43.25,43.25,0,0,0,.15-4.9c0-.66-.78-1.26-1.2-1.89-.64.61-1.7,1.15-1.82,1.85a29.75,29.75,0,0,0-.09,4.94Z"/><path d="M179.72,228.47l2.61-.26c-1.66,3.4-3.24,6.39-4.56,9.49a3.83,3.83,0,0,0,.16,3c1.31,2.24,2.93,4.3,4.41,6.44.41.6.74,1.24,1.11,1.87l-.39.48-2.74-1.56-.19,2.17-.42.32c-1.88-2-3.64-4.17-5.7-6.54l-.55,10.33-2.78-1.69c-.28.68-.54,1.4-.87,2.08a7.64,7.64,0,0,1-.7,1c-.31-.36-.85-.7-.89-1.09-.11-1,.08-2.06,0-3.08-.29-3.2-.57-6.4-1-9.58-.57-4-1.32-8-1.94-12a31.49,31.49,0,0,1-.3-3.74,1,1,0,0,1,.53-.75c1.08-.2,2.19-.29,3.29-.42a20.11,20.11,0,0,1,.79-2.32c.14-.29.6-.42.92-.63a6.84,6.84,0,0,1,.37,1c.39,1.85.3,4,1.24,5.5a7.21,7.21,0,0,1,1,5c0,.17.22.36.46.72,1.57-2.23,3-4.36,4.57-6.44a11.11,11.11,0,0,1,1.6-1.48Z"/><path d="M179.88,195.51l-4.18,1.66.05.44,5.31-.4.14.44a19.69,19.69,0,0,1-1.84,1c-2.63,1.06-5.27,2.07-7.9,3.11a16.55,16.55,0,0,1-1.75.76c-3.09.82-3.09.8-2.33,4.39l8-2.43.27.67-4.44,2.31,2.18.41.12.5a11.48,11.48,0,0,1-3,1.29c-2.87.33-3.31,2.33-3.48,4.57a23.19,23.19,0,0,0,.15,2.84c1.71-.55,3.18-1,4.66-1.49.82-.25,1.8-.63,1.56,1l2.91-.39.27.39c-.43.35-.81.92-1.28,1a40,40,0,0,0-13.81,6,7.93,7.93,0,0,0-.88.83c-.33.29-.67.56-1,.84a5.29,5.29,0,0,1-.29-1.43c.4-5,.84-10,1.27-14.94.24-2.86.49-5.73.71-8.6,0-.43-.18-.91-.06-1.3s.5-1.15.79-1.16c5.66-.16,11-2,16.53-2.91a7.41,7.41,0,0,1,1.17,0Z"/><path d="M153.81,246.65h11.9l-.57,2-2.19.71,2.34,1.2-2.82.37-.12.39,4.31,1.42v.42a7.69,7.69,0,0,1-1.66.26c-4.1-.26-8.21-.57-12.31-.86-1.22-.08-2.43-.17-3.65-.21-.94,0-1.36-.29-1.45-1.41-.41-5-1-10-1.47-15-.25-2.76-.38-5.54-.48-8.31a5.79,5.79,0,0,1,.54-1.78h.61l2.22,5.66.15,0c.42-1.91,2.5-3.09,2.31-5.28a1.86,1.86,0,0,1,.08-1c.44-.74,1-1.42,1.47-2.12a10.57,10.57,0,0,1,.6,2.27c.11,2.75,0,5.52.19,8.26.19,2.95.61,5.88.92,8.82a25.78,25.78,0,0,1,.27,3.24C155,245.93,154.37,246.2,153.81,246.65Z"/><path d="M134.29,194.42l-2.54.5,2,1.18a27.81,27.81,0,0,1-10.66.16l-.49,4.16h7.7l.09.6-1.52.86,1.2,1.26a15.69,15.69,0,0,1-2.76.67c-1.78.09-3.58,0-5.37,0-2.18,0-2.33.16-2.34,2.41,0,5.48,0,11-.09,16.43a5.27,5.27,0,0,1-.57,1.6,8.53,8.53,0,0,1-1-1.42c-.42-.93-.72-1.92-1.07-2.88l-.65.09-.58,2.1c-.41-.62-.86-1-.88-1.35-.19-3.92-.52-7.86-.42-11.78.16-6.31.6-12.62.92-18.89.16-.09.29-.22.36-.2a42.61,42.61,0,0,0,16.85,3.25C133.25,193.19,134.3,192.92,134.29,194.42Z"/><path d="M168.82,83.81c2.44-2.63,2.68-5.92,3.49-8.77a27.44,27.44,0,0,0,.58-9.23c-.22-3.11-.19-6.4-2.11-9.61.74.1,1.68-.06,2.18.34a16.18,16.18,0,0,1,3.8,3.75,55.48,55.48,0,0,1,3.8,7.7,18.64,18.64,0,0,1,1.77,5.85c.29,4.79.84,9.61-.21,14.41a51.85,51.85,0,0,0-.84,6.81,5.18,5.18,0,0,0,.59,1.82,6.25,6.25,0,0,0,1.41-1.1c.94-1.32,1.76-2.72,2.65-4.08a4.62,4.62,0,0,1,.59-.62c.68-.7,1.32-1.44,2-2.1a16.7,16.7,0,0,1,1.65-1.19c.08.63.41,1.37.19,1.88-1.11,2.69-.29,5.41-.37,8.11a33.78,33.78,0,0,1-1.35,9.82c-1,2.94-2.05,5.7-4.72,7.62a9.58,9.58,0,0,1,1.22-2.07c1.48-1.49,1.77-3.48,2.07-5.32.73-4.5,1.15-9.06,1.65-13.6,0-.38-.25-.8-.38-1.21a3.18,3.18,0,0,0-1.06.42,12.86,12.86,0,0,0-1.48,1.7c-1.16,1.55-2.27,3.13-3.45,4.67a1.31,1.31,0,0,1-1,.5c-.25,0-.55-.55-.61-.88-.42-2.33-1-4.6-.38-7a37.47,37.47,0,0,0,.42-5.63,20.68,20.68,0,0,1,.41-2.16,4.35,4.35,0,0,0,.16-1,67.45,67.45,0,0,1-.41-7.66c.22-3.66-1.24-6.85-2.44-10.07a32.14,32.14,0,0,0-3.29-5.58c-.19-.31-.67-.44-1-.65l-.44.26c.23,1.53.54,3.06.66,4.6a42.62,42.62,0,0,1,0,4.59,15.34,15.34,0,0,1-.35,4.41c-1.56,4.56-2.12,9.66-6.33,12.93-.17.13-.36.23-.88.57,0-.88-.06-1.49,0-2.08a49.2,49.2,0,0,0-1.63-19.05,20.23,20.23,0,0,0-1.4-3c-2-4.19-4-8.34-5.88-12.58a14.5,14.5,0,0,1-.86-9.82c0-.14.2-.25.26-.32,1.63,4.52,1.41,9.47,4.05,13.84A59.28,59.28,0,0,1,167,66.59c.76,2.38,1.83,4.84,1.2,7.67-.41,1.85.27,3.93.43,5.91C168.71,81.24,168.74,82.31,168.82,83.81Z"/><path d="M156.69,68.34c.14,2.28.33,4.57.43,6.85.17,4.39,2,8.12,4.37,11.7a24.84,24.84,0,0,1,1.75,4c.27.63.55,1.26.84,1.89,1.28,2.75,1,5.53.36,8.57-2.25-.92-2.59-3-3.67-4.48-.23-.31-.28-.87-.57-1-2.42-1.17-3-4-4.78-5.53-3.85-3.34-2.67-7.4-1.9-11.31.72-3.65,1.93-7.2,2.93-10.79Z"/><path d="M133.65,70.23c.14-.67.07-1.53.47-2a9.86,9.86,0,0,0,2.47-6.7c0-1.81-1.3-3.61-2.1-5.37a21.64,21.64,0,0,0-1.43-2.35l.3-.44,2.14,1.25c4.08,2.4,5.2,6.19,5.54,10.66s.71,9.1,3.2,13.11c.2.33.75.44,1.14.66.51-1.09,2.22-1.24,2.15-2.86a3.25,3.25,0,0,1,.63-1.77,9.58,9.58,0,0,0,1.31-7,2.6,2.6,0,0,1,0-.52c.16-2.87.38-5.75.49-8.62.09-2.27-.14-4.57.11-6.81a65.81,65.81,0,0,1,1.52-7.59c.14-.59.71-1.08,1.21-1.78.15.48.29.7.24.8-1.73,3.07-1.27,6.56-1.76,9.84-.52,3.46-.23,7-.35,10.57a63.55,63.55,0,0,1-.47,8.48c-.64,3.78-3.1,6.76-5.23,10.09-5.71-5.23-5.22-12.3-6.21-19a2.41,2.41,0,0,0-2,1.86,41.28,41.28,0,0,1-2.48,4.94c-.13.24-.6.3-.91.44Z"/><path d="M273.88,84.12c1.7-3,4.67-4.6,7.18-6.62,2.25-1.81,4.56-3.55,6.85-5.32,1.56-1.2,3.07-2.48,4.74-3.52.55-.34,1.49-.05,2.25-.05l.17.71c-2.21,1.8-4.41,3.63-6.65,5.4-1.68,1.32-3.41,2.58-5.15,3.82-2.29,1.64-4.66,3.17-6.9,4.86-1.3,1-2.31,2.35-3.64,3.28-3.05,2.15-6.17,4.22-9.36,6.16a15.72,15.72,0,0,1-3.5,1.22c-.47,1-.61,2-1.15,2.3-4,2.42-8.12,4.7-12.2,7a6.09,6.09,0,0,1-.74.3l-.25-.45c1.5-1,3.06-1.87,4.5-2.92,1.27-.93,2.38-2.09,3.64-3.06,2.46-1.89,4.75-4.23,7.53-5.36a17.52,17.52,0,0,0,3.91-2.54q3.5-2.57,7.15-4.93A4,4,0,0,1,273.88,84.12Z"/><path d="M134.17,101a2.25,2.25,0,0,1-2.65-1.3c-.11-.2-.23-.4-.35-.6-.93-1.42-2.54-2.78-2.65-4.26-.28-3.58-.39-7.29,2-10.5.88-1.2,1.42-2.65,2.2-3.93.29-.47.86-1.08,1.3-1.08a2.36,2.36,0,0,1,1.63.91,6.39,6.39,0,0,1,.25,7.2c-1.62,3-2.91,6.08-2.72,9.54A21.53,21.53,0,0,0,134.17,101Z"/><path d="M308.16,115.13c.56-.89.83-1.76,1.42-2.19a10.51,10.51,0,0,1,3.26-1.58c.51-.14,1.22.45,1.84.71-.29.53-.56,1.5-.88,1.51-2,.11-3.36,1.68-5.12,2.28a20.06,20.06,0,0,1-3.25.53c-.32.05-.84.08-.91.26-.68,1.89-2.58,1.78-4,2.39a85.82,85.82,0,0,1-9.2,3.57c-3.79,1.16-6.91,3.53-10.39,5.21-1.88.91-3.59,2.45-5.91,2.2-2.89,2.66-7,2.19-10.23,3.82a1.54,1.54,0,0,1-1.34-.12l18.14-8.26a35.86,35.86,0,0,1,4.16-2.79c2.94-1.44,5.95-2.78,9-4,2.42-.93,5-1.54,7.45-2.29a3,3,0,0,0,.92-.34C304.81,114.89,306.54,114.39,308.16,115.13Z"/><path d="M133.65,70.23l-.06-.06c0,.26.1.58,0,.76a18.66,18.66,0,0,1-1.91,2.7,5.58,5.58,0,0,1-1.74.86,4.81,4.81,0,0,0-1.2.59,18.86,18.86,0,0,0-6.24,10.49c-.51,2.77.43,5.8.73,8.71.08.78.2,1.56.37,2.84a11.86,11.86,0,0,1-1.93-1.24c-1.71-1.78-3.84-3.23-4.63-5.75a2.09,2.09,0,0,0-.52-.89c-.55-.51-1.16-1-1.75-1.43-.08.63-.21,1.25-.24,1.88-.19,4.85-.4,9.69-.52,14.54a34,34,0,0,0,.31,3.8l0,0c-.24-.53-.5-1.06-.7-1.6-1.53-4.06-1.08-8.25-.94-12.45a61,61,0,0,0-.21-7.74c-.1-1.08-.89-2.09-1.28-3.16a5.44,5.44,0,0,1-.11-1.47,6.12,6.12,0,0,1,1.69.61c3.13,2.35,4.4,6.12,6.76,9.06a2.68,2.68,0,0,0,.44.52c.39.28.81.52,1.21.78.13-.51.46-1.07.36-1.54-1.56-7.61,2.57-12.73,7.56-17.49,1-1,1.94-2,3-2.84A4.2,4.2,0,0,1,133.65,70.23Z"/><path d="M210.86,18.84c-.28-1.22.85-2.1,1.69-3.11a26.55,26.55,0,0,1,1.3-3.1c1-1.75,2.08-3.46,3.23-5.12.63-.91,1.47-1.09,2.43.21-1.4,2.37-2.92,4.79-4.28,7.31-1.62,3-3,6.12-4.66,9.06-2.07,3.6-4.34,7.07-6.58,10.57a44.14,44.14,0,0,1-2.7,3.69,9.67,9.67,0,0,1-1.44,1.23l-.29-.31c1.1-1.48,2.25-2.93,3.27-4.46.63-.94,1.05-2,1.59-3,.44-.83.92-1.64,1.46-2.6-1.33-1.15.5-2.19.94-3.26.55-1.34,1.73-2.42,2.5-3.69A32.73,32.73,0,0,0,210.86,18.84Z"/><path d="M132.79,113.62c-1.77-.5-3.41-.86-5-1.42a22.14,22.14,0,0,1-5.18-2.28c-2.38-1.66-2.45-4.39-2.39-7a19.5,19.5,0,0,1,.51-2.76C123.94,105.72,130.05,108.23,132.79,113.62Z"/><path d="M163,115.4c3.68-3.71,6.51-7.78,6.39-13.5a22.41,22.41,0,0,1,2.69,1.47c2.69,2,3,5.19.53,7.49A19.52,19.52,0,0,1,163,115.4Z"/><path d="M254.19,34.9a4.91,4.91,0,0,1-3.08,6.22c-.34.1-.87.35-.9.59-.23,1.72-1.62,2.37-2.77,3.32s-2.07,2.26-3.15,3.34c-.65.65-1.44,1.16-2,1.86a26.36,26.36,0,0,1-2.14,2.39c-3,2.63-6,5.19-9,7.78l-.43-.35c1-1.06,1.91-2.13,2.9-3.16a8.56,8.56,0,0,1,1-.63c2.81-2.19,4.66-5.22,6.77-8a28.83,28.83,0,0,1,6.26-5.77,11.33,11.33,0,0,0,1.5-1.57l2.49-2.72,2.64-3.26Z"/><path d="M151.87,114.94c-3.11-1.67-4.41-6.7-2.49-9.94a30.62,30.62,0,0,1,3.21-4.05,1.45,1.45,0,0,1,1-.4c.16,0,.44.52.43.8a59,59,0,0,1-.32,7.54A40.54,40.54,0,0,1,151.87,114.94Z"/><path d="M265.07,177.15a19,19,0,0,1,3.54,1.17c5.19,2.9,10.31,5.92,15.47,8.89,1.86,1.07,3.7,2.19,5.63,3.11,1.43.69,3,1,4.46,1.7.61.3.93,1.18,1.26,1.89-7.92-3.31-15.73-6.68-22.25-12.09a6.25,6.25,0,0,1-1.89-.25c-1.62-.77-3.21-1.63-4.75-2.54a12.25,12.25,0,0,1-1.72-1.49Z"/><path d="M133.52,29.24c-.23-6.2-1.82-12.26-2.21-19-1.53-2.73-.63-6.53-1.7-10.2,2.14,1.06,3.39,7.15,2.23,9.54,2,1.19,1.4,3.39,1.62,5.11.55,4.43.67,8.91.93,13.37a4.45,4.45,0,0,1-.31,1.26Z"/><path d="M40,219.65c3.05-1.85,5.68-3.26,8.09-5,1.3-.93,2.21-2.4,3.36-3.56A63.14,63.14,0,0,1,56,206.77c1.2-1,2.71-1.59,3.92-2.57.68-.56.88-1.69,1.54-2.29,1.54-1.41,3.24-2.67,4.87-4l.42.42a15.94,15.94,0,0,1-1.34,1.59q-5,4.56-10,9.08c-3.18,2.86-6.4,5.67-9.57,8.54-.44.4-.55,1.2-1,1.55a7.23,7.23,0,0,1-2.69,1.46C41.58,220.68,40.82,220,40,219.65Z"/><path d="M254.24,34.94c2.39-3.31,4.53-6.83,7.25-9.84A50.22,50.22,0,0,0,266,19.42c1.91,1,2,1.68.58,3.14-1.17,1.21-2,2.72-3.24,3.88A35.63,35.63,0,0,0,258,33.62c-1,1.63-2.12,2-3.78,1.29Z"/><path d="M144,94.49c.62,1.44,1.33,2.8,1.8,4.24.73,2.22-1.2,3.47-2.2,5a18.33,18.33,0,0,1-3.52,3.27,4.5,4.5,0,0,1-1.32.42c.85-2,1.52-3.66,2.32-5.28a8.8,8.8,0,0,0,.8-5C141.76,95.78,142.23,95,144,94.49Z"/><path d="M138.61,189.39a4.31,4.31,0,0,1,.39-.45l2.05-1.71c.22.91.8,1.9.61,2.71a66.49,66.49,0,0,1-2.25,6.87,1.38,1.38,0,0,1-1.06.62c-.25,0-.7-.43-.76-.73a42.68,42.68,0,0,1-1.23-6.78C136.27,187.73,137.69,189.27,138.61,189.39Z"/><path d="M102.8,42.74c-.52-1.56-2.75-1.91-2.49-4.06,0-.19-.5-.4-.69-.66-4.22-5.76-8.76-11.32-11.55-18-.08-.2-.11-.42-.31-1.22.86.58,1.51.77,1.73,1.19,1.19,2.29,2.27,4.64,3.42,7a9.52,9.52,0,0,0,.94,1.44c1.72,2.3,3.55,4.53,5.15,6.91s2.86,4.74,4.28,7.12Z"/><path d="M130.33,139.3c2.63.08,3.72,1.2,3.67,3.73,0,1.6-1.45,3.27-2.75,3.23-2.74-.08-4.85-1.72-4.79-3.73S128,139.22,130.33,139.3ZM128.9,145c0-1.08-.37-2.38.1-3.18s1.79-1.17,2.8-1.75c-1.93-.74-3.5-.34-4.11,1C126.87,142.88,127.28,144.23,128.9,145Z"/><path d="M141.92,161.69c-3,0-4.61-1.31-4.57-3.75a3.09,3.09,0,0,1,3-3.12,4.42,4.42,0,0,1,4.53,4.46C144.88,160.75,143.73,161.68,141.92,161.69Zm.42-5.75c-1.71-.91-2.86-.74-3.69.35a3.53,3.53,0,0,0,.5,4.27,3.28,3.28,0,0,0,3.57.45c-1.27-.89-3.15-.49-3.1-2.59C139.67,156.71,140.5,155.95,142.34,155.94Z"/><path d="M150.73,143.25a2.92,2.92,0,0,1,1.89-3,2.34,2.34,0,0,1,1-.28c1.29,0,2.86,2,3,3.74a2.94,2.94,0,0,1-2.17,3,4,4,0,0,1-3.65-2.19A4.14,4.14,0,0,1,150.73,143.25Z"/><path d="M168.4,125.91a3.27,3.27,0,0,1,1.77,4.29,3,3,0,0,1-3.44,2.18,2,2,0,0,1-1.35-1.18,7.73,7.73,0,0,1-.05-3.08c.36-1.8,1.84-1.51,3.39-1.26l-.47-.91Z"/><path d="M138.31,129.17c.1-2.12,1-3.29,2.6-3.24a3.93,3.93,0,0,1,3.3,3.87c-.1,1.28-1.95,2.7-3.41,2.63C139.11,132.35,138.22,131.18,138.31,129.17Zm3.36-2-.23-.62c-.65.21-1.72.27-1.87.66a19.12,19.12,0,0,0-.68,3.63l.64.11C139.59,129.28,139.51,127.56,141.67,127.12Z"/><path d="M121.05,157.35c0-1.73,1-2.86,2.36-2.83a3.63,3.63,0,0,1,3.14,3.53c0,1.45-1.15,2.8-2.44,2.63C122.16,160.41,120.8,159.73,121.05,157.35Zm3.38-2.47c-.81.28-1.68.32-2.1.78a6.71,6.71,0,0,0-.88,2.18l.44.16Z"/><path d="M179.06,145.79c4.28-.55,5.77-1.75,5.51-4.29-.21-2-1.67-3-3.83-2.75-2.39.3-3.32,2.09-2.89,5.51-1-.81-1-3.25-.11-4.58s4.68-2.57,5.92-1.82a4.75,4.75,0,0,1,1.83,5.8C184.23,146.29,182.33,147,179.06,145.79Z"/><path d="M252.72,203.55c1.65,1.84,3.43,3.58,4.9,5.55,2.13,2.86,4.82,5.2,7.14,7.87l-.18.46c-.58-.2-1.34-.24-1.72-.63-3.32-3.51-6.57-7.1-9.86-10.64a1.86,1.86,0,0,1-.24-2.63Z"/><path d="M54.63,54.61c-2.88-1.77-5.85-3.4-8.6-5.34a59.76,59.76,0,0,1-5.35-4.77l.4-.49L54.93,54.32Z"/><path d="M156.11,35.91a46,46,0,0,1,2.81-3.82c.31-.35,1.18-.21,1.79-.29a4.67,4.67,0,0,1-.07,1.54A20.89,20.89,0,0,1,159,36.55a1.38,1.38,0,0,1-1.23.32A8,8,0,0,1,156.11,35.91Z"/><path d="M252.77,203.53c-.92-.38-2.07-.52-2.71-1.17-2.07-2.12-3.95-4.43-5.81-6.75,3.46,2,6,4.9,8.46,8Z"/><path d="M179,142.09a1.63,1.63,0,0,1,1.65-2.16,2.35,2.35,0,0,1,2.45,2.18,2.2,2.2,0,0,1-2.23,2.18C179.74,144.14,178.66,143.76,179,142.09Zm3.08.2-1.54-1.42c-.31.49-.91,1-.86,1.46s.7,1,1.09,1.48Z"/><path d="M253.64,173.48c3.49.88,7,1.66,10.18,3.45l-.18.49Z"/><path d="M87.6,18.38l-2.9-5.24.44-.47c.47.4,1.18.71,1.36,1.21C87,15.22,88.62,16.32,87.6,18.38Z"/><path d="M268.26,221.82c-2.11-.53-2.48-2.58-4.19-3.47C266,217.93,267,218.82,268.26,221.82Z"/><path d="M187.47,188.39l2.27-6.25.46.16c-.11,2.31-1.18,4.31-2.1,6.35Z"/><path d="M63.66,62.51,60,59.44c1.64.5,3.51.67,4.07,2.62Z"/><path d="M236.67,188.48l4,3.52-.21.24-4.39-3Z"/><path d="M194.47,193.2l.37-3.56.67.05-.36,3.59Z"/><path d="M133.52,40.74v-4.1H134v4.12Z"/><path d="M164.63,131.51c-1.89-1.22-2.14-3.14-.64-4.58a8.36,8.36,0,0,0-.35,2.33A8.92,8.92,0,0,0,164.63,131.51Z"/><path d="M133.57,35.39V31h.36v4.42Z"/><path d="M190.58,204.36l.17-2.71h.4v2.71Z"/><path d="M16.15,104c-1.82,2.66-3.66,5.3-5.43,8a5.84,5.84,0,0,0-.91,2.38c-.14,1.12-.61,1.36-1.85,1,2.38-4.17,4-8.7,7.69-11.83Z"/><path d="M16.52,130.24l2-7.26.52.14-1.88,7.23Z"/><path d="M206.49,240.16l2.26,8.2-.56.16-1-3.13-.5.08c-.43,3.49.71,6.88,1.09,10.33-.83-1.15-1.64-2.09-1.65-3.73,0-3.34-.56-6.68-.87-10C205.22,241.17,204.84,240.07,206.49,240.16Z"/></svg>