<?xml version="1.0" encoding="utf-8"?>
<!-- Generator: Adobe Illustrator 21.1.0, SVG Export Plug-In . SVG Version: 6.00 Build 0)  -->
<svg version="1.1" id="Calque_1" xmlns="http://www.w3.org/2000/svg" xmlns:xlink="http://www.w3.org/1999/xlink" x="0px" y="0px"
	 viewBox="0 0 78.2 78.7" style="enable-background:new 0 0 78.2 78.7;" xml:space="preserve">
<title>makeup</title>
<path d="M43.6,48.2l-1.1-0.6c-1.1-0.5-2.3-1-3.3-1.6c-2.2-1.4-4.2-3.2-5.8-5.3C24.8,29.8,26.7,14,37.5,5.4c2.2-1.7,4.7-3.1,7.3-4
	C48,0.3,51.3-0.1,54.6,0c0.3,0,0.7,0,1,0c2.6-0.3,5,0.6,7.3,1.7c1.3,0.6,2.5,1.2,3.7,1.9c0.8,0.4,1.4,1,2.1,1.6
	c1.7,1.6,3.3,3.4,4.8,5.2c1,1.4,1.8,2.9,2.6,4.4c0.4,0.8,0.7,1.5,0.9,2.3c1,2.7,1.5,5.7,1.4,8.6c-0.1,2.3-0.5,4.6-1.3,6.8
	c-1.2,3.5-3,6.8-5.5,9.6c-1.9,2.1-4.1,3.9-6.6,5.2c-0.6,0.4-1.2,0.7-1.9,1c-0.4,0.2-0.7,0.3-1.1,0.4c-1,0.3-2,0.6-3,0.9
	c-0.1,0-0.2,0.2-0.5,0.4c0.3,0.2,0.6,0.5,0.8,0.5c1.2-0.1,2,0.6,3,1.1c1.1,0.5,2.3,1,3.5,1.5c1.6,0.8,3,1.8,4.3,3.1
	c1.7,1.6,2.6,4,2.3,6.3c-0.1,1.5-0.3,3-0.5,4.5c-0.8,2.9-2.2,5.5-5,6.8c-4.3,2-8.8,3.4-13.5,4.1c-4.9,0.6-9.8,0.8-14.7,0.5
	c-1.1,0-2.2-0.4-3.3-0.5c-2.3-0.2-4.5-0.7-6.6-1.4c-1.3-0.4-2.5-0.6-3.8-1c-0.4-0.1-0.8-0.4-1.1-0.7c-1.3-1.2-1.8-1.2-3.4-0.3
	c-2,1.2-4.2,2.2-6.4,2.9c-1.1,0.3-2.3,0.4-3.4,0.2c-1.4-0.2-2.8-0.5-4.3-0.8c-1.9-0.4-3.6-1.6-4.7-3.2c-1.7-2.1-1.7-4.5-1.2-7
	c0.4-1.7,1.2-3.2,2.3-4.6c0.7-1,1.4-2,2.2-3c0.5-0.6,1-1.2,1.5-1.8s0.5-0.8,0-1.3c-1-0.9-1.5-2.2-1.4-3.5c0-6,0.1-12.1,0.2-18.1
	c0-1,0.1-1.9,0.5-2.8c0.3-0.8,0.9-1.4,1.7-1.6c0.6-0.2,1.1-0.8,1-1.4c0.1-1.4,0.1-2.7,0.3-4.1c0-0.6,0.3-1.2,0.3-1.9
	c0.1-1.3,0.3-2.7,0.4-4s-0.1-3,0-4.4c0-0.7,0.2-1.4,0.5-2.1c1.2-2.4,3-4.4,5.2-5.9C15.4,6,16,5.7,16.6,5.5c1.1-0.3,2.3,0.4,2.6,1.5
	c0,0.1,0.1,0.2,0.1,0.4c0,0.7,0,1.4,0,2c0,4.1-0.1,8.1-0.1,12.2c0,0.2,0,0.4,0.1,0.6c0.8,1.7,0.6,3.5,0.6,5.2
	c-0.1,0.9,0.4,1.7,1.2,2.1c0.3,0.2,0.6,0.3,0.9,0.4c1,0.3,1.6,1.2,1.5,2.2c0,0.3,0,0.6,0,0.8c-0.3,4.3-0.4,8.6-0.2,12.8
	c0,0.2,0,0.4,0,0.6c0.1,1.2,0.4,1.3,1.5,1.3c2,0,4.1,0,6.1,0.1c0.8,0,1.6,0.4,2.1,1c0.5,0.6,1.3,0.9,2,0.7c1.3-0.2,2.7-0.5,4-0.6
	c1.1-0.1,2.2-0.1,3.3-0.2c0.4,0,0.8-0.1,1.3-0.1L43.6,48.2z M76.7,26c-0.1-7-2.1-12.3-6.2-16.8c-3.4-3.8-8-6.4-13-7.3
	c-5.1-1.1-10.3-0.4-14.9,2C36.1,7.2,31.4,13.3,30,20.5c-1,4.6-0.5,9.3,1.3,13.6c1.7,4.3,4.7,8,8.6,10.4c1.2,0.7,2.2,1.8,3.6,2.3
	c1.4,0.3,2.7,0.9,3.9,1.8c0.2,0.1,0.4,0.2,0.6,0.2c2.7,0.1,5.4,0.8,8.1,0.2c1.4-0.3,3-0.2,4.1-1.4c0.2-0.1,0.3-0.2,0.5-0.3
	c1.2-0.5,2.4-1,3.6-1.6C72.4,41.3,76.3,34.3,76.7,26z M34.3,56.6L34,56.5c-0.3,0.4-0.5,0.8-0.8,1.2c-0.7,1-1.5,2.1-2.2,3.1
	c-0.1,0.2-0.5,0.3-0.6,0.2s-0.4-0.5-0.3-0.7c0.2-0.4,0.4-0.9,0.7-1.2c1.3-1.5,2.1-3.3,2.5-5.2c0.3-2.2-1.7-5.3-4.1-5.1
	c-1.4,0.1-2.8-0.1-4.2,0.1c-1.3,0.2-2.6,0.5-3.8,0.9c-0.1,0.1-0.3,0.1-0.4,0.2c-0.6,0.3-1.2,0.6-1.8,0.9c-2.3,1-4.6,2.2-6.8,3.5
	c-1.6,1-3.1,2.1-4.5,3.4c-0.5,0.4-0.9,0.8-1.3,1.3c-1.5,2.1-2.9,4.2-4.2,6.4c-1.3,2.3-1.6,4.8,0.1,7.3c1,1.7,2.7,2.9,4.7,3.2
	c0.2,0,0.3,0,0.5,0.1c2.3,0.8,4.9,0.7,7.1-0.4c2.1-0.9,4-2,5.9-3.2c2-1.3,3.8-2.8,5.7-4.2c2.1-1.5,3.8-3.3,5.3-5.4
	c0.5-0.7,1-1.4,1.4-2.1c0.5-0.9,1-1.8,1.4-2.8C34.3,57.5,34.4,57.1,34.3,56.6L34.3,56.6z M64.1,58.7l0.2-0.2c-0.3-0.3-0.6-0.7-1-1
	c-2-1.7-4.4-2.8-6.9-3.4c-2.2-0.6-4.5-1-6.7-1.3c-4.2-0.5-8.5-0.4-12.7,0.3c-0.7,0.1-0.8,0.3-0.8,1.1c0.3,2.7-0.5,5.5-2.1,7.7
	c-0.9,1.4-2,2.8-3.3,3.9c-0.3,0.2-0.5,0.6-0.5,1c0.1,0.3,0.6,0.5,0.9,0.5c1.9,0.3,3.7,1,5.6,1c1.5,0,3.1,0.5,4.6,0.5
	c2.8,0.3,5.7,0.2,8.5-0.2c2.9-0.4,5.7-1,8.4-2c2.1-0.7,3.9-1.8,5.5-3.3c0.7-0.5,0.9-1.5,0.4-2.3c0,0-0.1-0.1-0.1-0.1
	c-0.6-1.2-1.6-2.1-2.8-2.7c-0.6-0.3-0.8-0.8-0.6-1.1s0.7-0.4,1.3,0c0.4,0.3,0.7,0.6,1.1,0.9S63.9,58.5,64.1,58.7z M6.5,43.7
	c0,2.9,0,5.8,0,8.8c0,1,0.4,1.9,1.2,2.5C8.1,55.3,8.6,55.3,9,55c0.8-0.5,1.6-1,2.5-1.5c0.6-0.3,0.9-0.9,0.9-1.6c0-1.4,0-2.8,0-4.2
	c0.1-3.6,0.1-7.1,0.2-10.7c0.1-0.8-0.5-1.5-1.2-1.7c-0.8-0.2-1.5-0.5-2.3-0.8c-0.5-0.2-0.9-0.4-1.3-0.6c-0.9-0.4-1.2-0.1-1.3,0.8
	c0,0.1,0,0.2,0,0.4C6.5,38.1,6.5,40.9,6.5,43.7L6.5,43.7z M70.5,66c-0.5,0-0.9,0.2-1.2,0.5c-1.9,1.7-4.2,3-6.6,3.9
	c-4.5,1.7-9.2,2.7-14,3c-2.1,0.2-4.2,0.1-6.4,0.2c-0.6,0-1.2-0.1-1.6,0.5c0.1,0.4,0.2,0.8,0.3,1.2c0,0.4,0,0.8,0.1,1.3
	c0.1,0.2,0.4,0.6,0.6,0.6s0.5-0.3,0.6-0.6s0-0.5,0.1-0.7s0.4-0.6,0.6-0.6c0.5,0,0.5,0.4,0.5,0.8c0,0.2-0.1,0.3-0.1,0.5
	c-0.1,0.3,0,0.6,0.3,0.8c0.1,0,0.1,0,0.2,0c0.3,0.1,0.6,0.1,1,0.1c4,0,8-0.5,11.9-1.3c3.4-0.7,6.7-2,9.6-3.8
	c1.5-0.9,2.7-2.2,3.5-3.7C70.4,67.7,70.6,66.9,70.5,66L70.5,66z M49.2,71.6c0.5,0,0.9,0,1.3,0c0.6-0.1,1.3-0.2,1.9-0.3
	c4.5-0.5,9-1.8,13-3.9c1.6-0.8,3.1-1.9,4.1-3.4c1.4-2.1,1.5-3.9,0-6c-0.6-0.7-1.2-1.4-2-1.9c-3.1-2.4-6.7-3.5-10.3-4.5
	c-2.7-0.6-5.4-1-8.2-1.2c-4.1-0.4-8.3-0.3-12.4,0.3c-0.5,0.1-1.2,0-1,0.6c0.1,0.6,0.8,0.4,1.2,0.3c1.1-0.2,2.1-0.4,3.2-0.5
	c4.2-0.1,8.5-0.4,12.7,0.5c2.8,0.5,5.6,1.3,8.3,2.4c1.9,0.7,3.5,1.9,4.8,3.5c1.7,1.8,1.7,4.6,0,6.3c-0.7,0.8-1.5,1.5-2.3,2.1
	c-1.9,1.3-4.1,2.3-6.4,2.8c-1.4,0.4-2.7,1.4-4.3,1c-0.1,0-0.2,0-0.3,0.1c-0.6,0.2-1.3,0.4-1.9,0.5C49.8,70.5,49.3,71,49.2,71.6
	L49.2,71.6z M17.4,13.2c-0.4,0.3-0.6,0.6-1,0.9c-0.7,0.7-1.4,1.3-2.2,1.9c-0.4,0.2-0.8,0.3-1.3,0.2c-0.2,0-0.4-0.4-0.6-0.6
	c0.2-0.2,0.4-0.4,0.6-0.5c0.8-0.1,1.6-0.6,2.1-1.2c1.1-1.1,1.9-2.5,2.2-4.1c0.1-0.7,0.1-1.4,0-2.1C17.2,6.9,16.7,6.7,16,7
	c-0.2,0.1-0.4,0.2-0.5,0.3c-2.2,1.3-3.9,3.1-5,5.4c-0.3,0.6-0.5,1.3-0.5,1.9c-0.1,1.4,0,2.7,0,4.1c0,1.2-0.1,2.5-0.2,3.7
	c-0.1,0.8-0.2,1,0.5,1.4c0.9,0.6,2,0.8,3.1,0.7c1-0.1,2-0.3,3-0.4c0.2,0,0.5-0.1,0.7-0.2c0.2-0.1,0.3-0.3,0.4-0.5
	c0-0.2-0.2-0.4-0.4-0.5c-0.3-0.1-0.6-0.1-0.9-0.1c-0.4,0-1,0.1-1-0.5s0.6-0.5,1-0.6c0.5,0,1-0.2,1.4-0.6c0.4-0.6,0.2-1.2-0.6-1.3
	c-0.3,0-0.6,0-0.9-0.1c-0.2-0.1-0.3-0.3-0.3-0.5c0-0.1,0.1-0.2,0.2-0.3c0.3-0.2,0.6-0.2,0.9-0.4c0.3-0.2,0.5-0.4,0.8-0.6
	c-0.4-0.2-0.5-0.3-0.7-0.3c-0.2,0-0.4-0.1-0.6-0.2c-0.3-0.1-0.4-0.4-0.3-0.6c0.1-0.1,0.2-0.2,0.3-0.3c0.2-0.1,0.5-0.1,0.7-0.2
	s0.6-0.3,0.7-0.5C17.9,14.9,17.9,14,17.4,13.2L17.4,13.2z M14.1,50.7c-0.1,0.7,0.1,1,0.7,0.8c0.4-0.1,0.7-0.4,1-0.6l4.6-2
	c0.3-0.1,0.6-0.3,0.8-0.5c0.4-0.3,0.4-0.8,0.1-1.2c0,0,0,0,0,0c-0.2-0.2-0.5-0.2-0.8-0.2c-0.4,0.1-0.8,0.3-1.3,0.4s-1,0.4-1.2-0.2
	s0.5-0.7,0.9-0.9c0.7-0.2,1.4-0.4,2-0.7c0.2-0.2,0.4-0.5,0.4-0.8c0-0.2-0.4-0.4-0.7-0.5c-0.3,0-0.5,0.1-0.8,0.2
	c-0.7,0.2-1.3,0.4-2,0.5c-0.9,0.2-1.4,0-1.3-0.4c0.1-0.6,0.7-0.6,1.1-0.7c1-0.3,2-0.5,3-0.8c0.5-0.2,0.7-0.7,0.6-1.1c0,0,0,0,0,0
	c-0.2-0.6-0.6-0.6-1-0.5s-0.7,0.3-1,0.4c-0.5,0.2-1.1,0.3-1.6,0.4c-0.1,0-0.5-0.2-0.5-0.3c0-0.2,0.1-0.4,0.2-0.6
	c0.3-0.1,0.6-0.3,0.9-0.4c0.8-0.4,1.7-0.8,2.5-1.2c0.1-0.1,0.2-0.4,0.2-0.6c-0.2-0.1-0.4-0.3-0.6-0.2c-0.5,0.1-1,0.3-1.5,0.5
	c-0.7,0.3-1.4,0.5-2.1,0.8c-0.3,0.1-0.6,0-0.7-0.2c-0.1-0.3,0-0.6,0.2-0.7c0.3-0.2,0.6-0.4,1-0.5c0.9-0.3,1.8-0.5,2.6-0.9
	c0.5-0.3,1-0.6,1.4-1.1c0.1-0.1,0-0.5,0-0.6s-0.4-0.1-0.5-0.1c-0.2,0-0.3,0.1-0.5,0.1l-3.7,1.3c-0.2,0.1-0.5,0.1-0.7,0.1
	c-0.2,0-0.3-0.2-0.4-0.3c0-0.2,0-0.4,0.1-0.5c0.2-0.2,0.5-0.3,0.7-0.4c0.7-0.2,1.5-0.4,2.2-0.7c0.8-0.2,1.5-0.5,2.2-0.9
	c0.5-0.1,0.8-0.7,0.7-1.2c0,0,0-0.1-0.1-0.1c-0.2,0-0.5,0-0.7,0.1c-1.8,0.6-3.5,1.3-5.3,1.9c-0.8,0.1-1.3,0.9-1.1,1.6
	c0,2.3-0.1,4.6-0.1,7c0.1,0.6,0.2,1.2,0.4,1.8c-0.8,0.9-0.3,1.7,0.5,2.4l-0.9,1c0.3,0,0.6,0.1,0.9,0.2c0.2,0.2,0.5,0.4,0.5,0.6
	s-0.4,0.5-0.6,0.6C14.6,50.8,14.4,50.8,14.1,50.7L14.1,50.7z M16.8,28.4l-0.2-0.4c-0.4-0.7-0.4-0.9,0.4-1.1c0.3-0.1,0.6-0.1,0.9-0.2
	c0.4-0.1,0.7-0.5,0.6-0.9c0-0.4-0.4-0.7-0.8-0.6c0,0,0,0-0.1,0c-0.6,0-1.2,0.2-1.8,0.3c-1.7,0.2-3.5,0.6-5.2-0.2
	c-0.7-0.3-1-0.1-1,0.7c-0.1,1.1,0,2.2-0.1,3.4c0,0.8,0.5,1.5,1.2,1.7c0.3,0.1,0.7,0.2,1,0.3c2.1,0.3,4.1-0.1,6-1c0,0,0-0.1,0-0.3
	l-1.3-0.3L16.8,28.4z M21.1,31.4v-0.4c-0.3-0.1-0.6-0.4-0.9-0.4c-0.3,0.1-0.7,0.2-0.9,0.5c-0.6,0.8-1.6,1.2-2.6,1
	c-0.4,0-0.9,0.1-1.3,0.2c-1.9,0.4-3.9,0.2-5.7-0.5c-0.5-0.3-1.1-0.6-1.6-1c-0.6,0.8-0.6,1.1,0.1,1.4c1.3,0.5,2.6,0.9,3.8,1.5
	c1.2,0.6,2.6,0.6,3.8,0.1c1.3-0.6,2.8-1,4.1-1.5C20.3,32,20.7,31.7,21.1,31.4L21.1,31.4z M37.7,75.6c-0.1-0.6-0.1-1.1-0.2-1.5
	s-0.3-0.8-0.8-0.7c-0.3,0.1-0.5,0.4-0.6,0.7c-0.1,0.6-0.2,1.2-0.2,1.8c0,0.5,0.3,0.9,0.8,0.9c0.3,0.1,0.7-0.1,0.9-0.4c0,0,0,0,0,0
	C37.6,76.1,37.7,75.8,37.7,75.6L37.7,75.6z M38.7,75c0,0.5,0.1,0.9,0.2,1.4c0.1,0.2,0.4,0.3,0.5,0.5c0.1-0.2,0.4-0.4,0.4-0.6
	c0.1-0.6,0.1-1.3,0.2-1.9c0.1-0.4-0.1-0.7-0.5-0.8c0,0-0.1,0-0.1,0c-0.4-0.1-0.7,0.1-0.8,0.5c0,0.1,0,0.2,0,0.2
	C38.6,74.5,38.7,74.7,38.7,75L38.7,75z M34.9,74.6c0.1-0.3,0.1-0.7,0-1c-0.1-0.3-0.4-0.6-0.6-0.6c-0.4-0.1-0.6,0.3-0.6,0.7
	c0,0.7,0.1,1.3,0.2,2c0,0.2,0.3,0.4,0.3,0.4s0.5-0.2,0.5-0.4C34.8,75.4,34.9,75,34.9,74.6L34.9,74.6z M31.9,72.8
	c-0.5,0.7-0.7,1.6-0.5,2.5c0,0.2,0.4,0.4,0.7,0.5s0.5-0.2,0.5-0.4C32.7,74.5,32.5,73.5,31.9,72.8L31.9,72.8z M25.9,71.1
	c-0.7,0.1-0.8,0.7-0.8,1.2c0,0.5,0,1,0.2,1.5c0.1,0.2,0.3,0.3,0.5,0.2c0.1-0.1,0.2-0.2,0.2-0.3C26.4,72.8,26.4,71.9,25.9,71.1
	L25.9,71.1z M27.6,72.3c-0.3,0.6-0.5,1.3-0.4,2c0.1,0.2,0.2,0.4,0.4,0.5c0.2,0,0.4-0.1,0.6-0.3C28.5,73.7,28.3,72.8,27.6,72.3
	L27.6,72.3z M29.8,74.9c0.2-0.7,0.7-1.4,0-2.3C29.4,73.3,29.5,74.2,29.8,74.9L29.8,74.9z M35.6,71c0.6,0.1,0.8-0.1,0.9-0.6
	C36.1,70.3,35.8,70.4,35.6,71L35.6,71z M34.2,70.4l-0.1-0.3c-0.4-0.2-0.6,0-0.8,0.7L34.2,70.4z M45.4,71.3l-0.2-0.3l-0.6,0.5
	l0.1,0.2L45.4,71.3z M41,71.3c-0.1-0.1-0.2-0.2-0.3-0.2s-0.2,0.1-0.3,0.2c0.1,0.1,0.1,0.2,0.2,0.2S40.9,71.3,41,71.3L41,71.3z"/>
<path d="M52.7,6.8c9.9,0,18,8.1,18,18c0,9.9-8.1,18-18,18c-9.9,0-18-8.1-18-18c0-0.1,0-0.2,0-0.2C34.8,14.7,42.9,6.8,52.7,6.8z
	 M52.7,41.3c9.1,0,16.5-7.4,16.5-16.5c0-9.1-7.4-16.5-16.5-16.5c-9.1,0-16.5,7.4-16.5,16.5c0,0,0,0,0,0
	C36.2,33.9,43.6,41.2,52.7,41.3L52.7,41.3z"/>
<path d="M30.8,21.8c0.3-1.4,0.5-2.7,0.9-3.9c0.9-2.8,2.3-5.4,4-7.7c0.1-0.2,0.2-0.3,0.4-0.4c0.2-0.1,0.5-0.2,0.6-0.1
	c0.2,0.2,0.2,0.4,0.2,0.6c-0.1,0.2-0.2,0.4-0.3,0.6c-0.6,1-1.3,2-2,3c-1,1.6-1.7,3.4-2.1,5.3c-0.2,0.9-0.4,1.7-0.6,2.6
	c-0.1,0.2-0.4,0.4-0.6,0.6L30.8,21.8z"/>
<path d="M30.5,26.5c0-0.2,0-0.4,0.1-0.5c0.1-0.2,0.3-0.4,0.5-0.4s0.4,0.2,0.5,0.4c0.1,0.1,0.1,0.3,0.1,0.5c0,2.6,1,4.9,2.1,7.2
	c0.6,1.3,1.3,2.5,2,3.7c0.1,0.1,0.2,0.2,0.2,0.3c0,0.2,0,0.4-0.1,0.6c-0.1,0.1-0.4,0.1-0.5,0c-0.3-0.2-0.5-0.4-0.7-0.7
	c-0.4-0.6-0.8-1.2-1.1-1.9C32,33,31.1,30.1,30.6,27L30.5,26.5z"/>
<path d="M48.9,48.2c-1.1-0.4-2.1-0.8-3.1-1.3c-0.7-0.3-1.4-0.7-2.1-1c-1.6-0.8-3.1-1.7-4.4-2.8c-0.3-0.2-0.5-0.5-0.7-0.8
	c-0.1-0.2-0.3-0.7-0.2-0.8c0.3-0.4,0.6-0.1,0.9,0.1c0.1,0.1,0.3,0.2,0.4,0.3c1.5,1.4,3.2,2.5,5,3.2c1.4,0.6,2.9,1.3,4.3,1.9
	c0.1,0,0.2,0,0.2,0.1c0.2,0.2,0.4,0.5,0.5,0.7L48.9,48.2z"/>
<path d="M55.3,47.4c0,0.6-0.4,1-0.9,1.1c0,0-0.1,0-0.1,0c-0.8,0.1-1.6,0.1-2.4,0c-0.3,0-0.5-0.2-0.7-0.4c-0.2-0.3-0.1-0.7,0.3-0.7
	C52.8,47.3,54.1,47.3,55.3,47.4z"/>
<path d="M36.5,38.5c0.3,0.5,0.5,0.7,0.6,1s-0.3,0.3-0.5,0.5c-0.2-0.2-0.5-0.4-0.5-0.7S36.3,39,36.5,38.5z"/>
<path d="M39.5,8.5C39.1,8.7,39,8.9,38.7,9s-0.3-0.3-0.5-0.4c0.2-0.2,0.3-0.4,0.5-0.5S39.1,8.3,39.5,8.5z"/>
<path d="M31.3,24.2c-0.1-0.2-0.1-0.3-0.1-0.5c0-0.1,0.2-0.2,0.2-0.2s0.2,0.2,0.3,0.3S31.5,24,31.3,24.2z"/>
<path d="M29.2,62.7c-0.2,0.4-0.3,0.6-0.4,0.8c-0.8,1.3-1.8,2.4-3,3.4c-0.5,0.4-1,0.9-1.5,1.3c-1.2,1.3-2.9,2-4.3,3
	c-0.2,0.1-0.6,0-0.9-0.1c0.1-0.3,0.1-0.7,0.3-0.8c0.4-0.3,0.9-0.6,1.4-0.9c0.9-0.6,1.7-1.1,2.5-1.8c1.1-1,2.3-2,3.3-3.1
	c0.5-0.4,0.8-1,1.2-1.5c0.2-0.3,0.5-0.5,0.8-0.6C28.7,62.3,29,62.5,29.2,62.7z"/>
<path d="M14,74.3c-0.3-0.3-0.6-0.5-0.7-0.8s0.3-0.6,0.7-0.7c0.7-0.2,1.4-0.3,2.1-0.4c0.3,0,0.5,0.2,0.8,0.3
	c-0.1,0.2-0.2,0.6-0.4,0.6C15.7,73.7,14.9,74,14,74.3z"/>
<path d="M29.1,57.4c-0.3,0.3-0.7,0.5-1.1,0.7c-0.1,0-0.4-0.2-0.5-0.4C27.4,57.4,27.7,57,28,57c0.1,0,0.1,0,0.2,0
	C28.4,57,28.6,57.2,29.1,57.4z"/>
<path d="M25.6,61.1c-0.2-0.2-0.4-0.5-0.5-0.7c0.2-0.3,0.5-0.5,0.8-0.7c0,0,0.5,0.3,0.4,0.4C26.1,60.4,25.9,60.8,25.6,61.1z"/>
<path d="M24.4,63.1c-0.3,0.3-0.6,0.5-1,0.7c-0.1,0-0.4-0.3-0.5-0.5c0.3-0.3,0.5-0.5,0.8-0.7C23.8,62.6,24.1,62.8,24.4,63.1z"/>
<path d="M27.9,52.1c-0.3-0.3-0.6-0.5-0.6-0.7c0-0.4,0.3-0.6,0.7-0.6c0.2,0,0.5,0.3,0.5,0.4C28.3,51.5,28.1,51.8,27.9,52.1z"/>
<path d="M30.7,52.8c-0.4,0.3-0.6,0.5-0.8,0.5s-0.7,0-0.6-0.4c0-0.2,0.4-0.4,0.6-0.4S30.3,52.6,30.7,52.8z"/>
<path d="M29.8,54.5c0.3,0.2,0.6,0.3,0.6,0.5c0.1,0.4-0.3,0.6-0.6,0.5s-0.4-0.2-0.5-0.3L29.8,54.5z"/>
<path d="M20.5,66.3c-0.2,0.1-0.3,0.3-0.4,0.3s-0.3-0.2-0.3-0.3c0.1-0.1,0.2-0.3,0.3-0.4L20.5,66.3z"/>
<path d="M16.2,69.5c-0.1,0-0.3,0.2-0.4,0.1s-0.3-0.2-0.4-0.3c0.1-0.1,0.2-0.3,0.3-0.3s0.2,0.1,0.4,0.2L16.2,69.5z"/>
<path d="M55.1,54.8c0.2,0.2,0.4,0.5,0.5,0.7c0,0.1-0.3,0.4-0.5,0.4c-0.3,0-0.6-0.2-0.6-0.5c0-0.1,0-0.1,0-0.2
	C54.5,55.1,54.8,55,55.1,54.8z"/>
<path d="M46.3,75.6c-0.3,0.3-0.5,0.6-0.7,0.7c-0.4,0.1-0.6-0.3-0.5-0.6c0.1-0.3,0.3-0.5,0.5-0.7L46.3,75.6z"/>
<path d="M48.6,74.7c0.3,0.4,0.5,0.6,0.6,0.8s0,0.7-0.5,0.7c-0.2-0.1-0.4-0.2-0.4-0.4C48.4,75.4,48.5,75.1,48.6,74.7z"/>
<path d="M15.9,42.5c-0.1,0.1-0.2,0.2-0.4,0.3c0,0-0.2-0.2-0.2-0.2c0.1-0.1,0.1-0.2,0.3-0.3C15.6,42.3,15.8,42.4,15.9,42.5z"/>
<path d="M63.8,29.4c-0.3,0.2-0.5,0.4-0.7,0.3c-0.4-0.1-0.7-0.3-1-0.5c-3.8-3.1-7.6-6.3-11.3-9.4l-5.5-4.6L45.1,15
	c-0.3-0.3-0.7-0.7-0.4-1.1s0.8,0,1.1,0.2c1.6,1.3,3.3,2.7,4.9,4c2,1.6,4,3.3,6,4.9c2.2,1.8,4.3,3.6,6.4,5.4
	C63.4,28.7,63.6,29.1,63.8,29.4z"/>
<path d="M42.9,26.3c0.3,0.2,0.5,0.3,0.8,0.5c1.5,1.3,3,2.7,4.6,4c1.4,1.2,2.8,2.2,4.2,3.4c0.4,0.3,0.9,0.7,1.3,1.1
	c0.1,0.2,0.2,0.4,0.1,0.6c-0.2,0.1-0.4,0.2-0.6,0.1c-0.3-0.1-0.5-0.2-0.7-0.4c-3.2-2.4-6.3-5-9.3-7.7c-0.3-0.3-0.6-0.6-0.8-0.9
	C42.2,26.7,42.3,26.4,42.9,26.3z"/>
<path d="M53.1,28.9c-0.2,0.1-0.4,0.4-0.6,0.3c-0.3-0.1-0.6-0.2-0.8-0.4c-2.9-2.3-5.8-4.7-8.6-7c-0.2-0.2-0.5-0.3-0.6-0.5
	c-0.1-0.3-0.1-0.6-0.1-0.9c0.3-0.1,0.6-0.1,0.9-0.1c0.2,0,0.4,0.3,0.6,0.4c2.5,2,5,4.1,7.5,6.1c0.5,0.4,1,0.9,1.5,1.4
	C52.8,28.4,53,28.7,53.1,28.9z"/>
<path d="M65.3,23.6c-0.5,0.4-1.2,0.4-1.7-0.1c0,0,0,0,0,0c-0.8-0.6-1.5-1.2-2.2-1.8c-1-0.8-2.1-1.6-3.1-2.5
	c-0.3-0.2-0.5-0.5-0.7-0.8c-0.1-0.2-0.1-0.4,0-0.6c0.1-0.1,0.4-0.1,0.6-0.1c0.2,0,0.3,0.1,0.4,0.2c1.9,1.6,3.9,3.2,5.8,4.8
	C64.8,23,65.1,23.3,65.3,23.6z"/>
<path d="M58.7,33.3c-0.2,0.1-0.4,0.3-0.7,0.3c-0.2,0-0.5-0.1-0.6-0.3c-0.8-0.6-1.5-1.1-2.3-1.7c-0.1-0.2-0.2-0.5-0.1-0.7
	c0.2-0.1,0.4-0.2,0.6-0.1c0.9,0.6,1.9,1.4,2.8,2C58.5,32.9,58.6,33.1,58.7,33.3z"/>
<path d="M54.9,15.6c0,0.4-0.3,0.7-0.6,0.5c-0.8-0.6-1.6-1.1-2.3-1.8c-0.1-0.1-0.1-0.4,0-0.5s0.4-0.2,0.5-0.2
	c0.8,0.6,1.6,1.2,2.3,1.8C54.8,15.4,54.8,15.5,54.9,15.6z"/>
</svg>
