<?xml version="1.0" encoding="utf-8"?>
<!-- Generator: Adobe Illustrator 21.1.0, SVG Export Plug-In . SVG Version: 6.00 Build 0)  -->
<svg version="1.1" id="Calque_1" xmlns="http://www.w3.org/2000/svg" xmlns:xlink="http://www.w3.org/1999/xlink" x="0px" y="0px"
	 viewBox="0 0 488.1 530.9" style="enable-background:new 0 0 488.1 530.9;" xml:space="preserve">
<title>misfit-skull</title>
<path d="M50.8,189.7c1.7,2,3.4,4,5.2,5.9c9.1,9.1,18.1,18.2,27.3,27.2c0.9,0.9,2,1.6,2.5,2.7c2.4,5.4,3.6,11.4,9.6,14.8
	c2.1,1.2,0.7,4.9-2.2,5.6c-2.9,0.6-5.8,0.9-8.8,0.9c-5.6,0.3-11.2-0.7-18.1,1.1c1.5,2.5,2.1,4.6,3.5,6c3.8,3.9,7.9,7.5,11.9,11.1
	c1.1,1,2.3,1.8,3.4,2.8c2.8,2.5,4.2,5.5,2.9,9.3c-1.1,3.2-4.1,5.3-7.5,5.1c-6.9,0.1-13.8-0.3-20.7-0.3c-2.8,0-5.6,0.2-8.1,0.3
	c-1.2,4.2,1.3,5.5,3.1,7c5.9,4.9,11.8,9.7,17.8,14.5c4.6,3.7,7.2,3.1,9.7-2.2c2.9-6.3,5.4-12.8,8.6-18.9
	c6.9-13.4,13.5-27.1,24.6-37.7c8.4-8,17.5-15.2,26.5-22.6c3.8-3.1,7.9-5.9,11.9-8.9c6-4.6,6.3-6.3,1.6-12
	c-7.5-9.1-15.2-18.2-22.8-27.3c-1.4-1.7-2.7-3.5-3.7-5.5c-1.3-2.6-1.3-5.5,1.5-7.2c2.5-1.6,4.7-0.1,6.6,1.7c0.4,0.3,0.7,0.7,1,1.1
	c11.3,13.8,22.6,27.5,33.7,41.3c4.5,5.6,3.8,9.3-2.9,12c-12.7,5-22.4,14.4-32.8,22.6c-18.2,14.2-29.8,33.3-39,54.1
	c-2.6,5.9-5.3,11.7-8.2,17.4c-3.2,6.5-11.5,9.1-16.7,4.7c-12.4-10.6-24.6-21.4-36.7-32.2c-2.7-2.4-5.8-5.1-4-9.5
	c1.4-3.3,5.4-4.4,11-3.9c7.4,0.7,14.8,1,22.1,1.3c1.5-0.1,2.9-0.4,4.3-0.9c1-3.5-1.3-5.3-3.1-7.1c-4.8-4.6-9.7-9.1-14.6-13.6
	c-1.3-1.1-2.6-2.3-3.8-3.5c-3.4-4.1-2.2-9,2.8-10.6c2.5-0.8,5.3-0.7,8-0.6c4.9,0.1,9.9,0.8,14.8,0.6c4.5-0.2,5.7-3,2.8-6.4
	c-4.5-5.2-9.3-10.2-14.4-14.9c-12.7-11.8-25.5-23.3-38.3-34.9c-2.2-1.9-4.3-4-6.3-6.3c-1.7-1.9-1.8-4.8-0.2-6.9c1.7-2.5,4-3.6,7-2.8
	c1.2,0.4,2.3,0.8,3.5,1.3c20.9,8.9,41.9,17.7,62.8,26.5c3.1,1.3,6.4,2.1,9.4,3.1c3.3-4.1,1.1-7.3-0.1-10.4
	c-9.3-24-18.6-47.9-28-71.8C64,95.4,57,78,50.1,60.6c-0.6-1.6-1.7-3.4-1.4-4.9c0.5-2.2,1.4-4.9,3.1-6.1c1.3-0.9,4.1-0.2,6.1,0.4
	c1.3,0.4,2.3,1.8,3.4,2.8C94,86.9,126.6,121,159.2,155.1c2.7,2.8,5.6,5.3,9.6,9.1c0.6-3.4,1.3-5.2,1.1-6.9
	c-0.3-4.9-0.9-9.8-1.5-14.7c-2.9-23-5.7-46.1-8.8-69.1c-1.4-10-3.4-20-5-29.9c-0.4-2.6-1-5.5-0.3-8c0.5-1.8,2.5-4.1,4.2-4.5
	s4.1,1.1,5.5,2.5s2,3.4,2.8,5.1c11.6,25.9,23.1,51.9,34.6,77.8c1.7,3.8,3.3,7.7,5.2,11.5c1.2,2.1,2.4,4,3.8,5.9
	c4.3-2.5,4.6-6.1,5.4-9.4c3.5-14.9,6.9-29.9,10.2-44.8c5.3-23.6,10.6-47.2,15.9-70.8c0.4-1.7,1-3.3,1.7-4.9c1.1-2.4,2.8-4.8,5.5-3.9
	c2,0.7,3.8,2.8,5.2,4.6c0.8,1,0.8,2.8,1,4.3c2.1,17.9,4.1,35.8,6.3,53.7c2.8,22.3,5.6,44.6,8.6,66.9c0.7,4.9,0.3,10.3,4.4,15.8
	c2-2.8,3.8-4.7,4.9-7c11.7-23.2,23.3-46.4,34.7-69.6c6-12.2,11.4-24.6,17.2-36.9c2.4-5.1,5.7-7.5,8.7-6.4c2.7,1,4,4.7,3.6,9.7
	c-2.4,26.3-4.8,52.6-7.2,78.9c-1,10.8-1.7,21.7-2.3,32.5c-0.1,2.3,0.3,4.6,0.6,8.8c3.6-2.8,6-4.3,8-6.2
	c13.8-14.1,27.6-28.3,41.3-42.6c17.3-17.9,34.7-35.9,52-53.9c1.7-1.8,3.4-3.8,5.5-4.9c1.7-0.9,4.5-1.6,6-0.8s2.8,3.4,3,5.4
	S449.9,57,449,59c-20.4,44.4-40.9,88.9-61.4,133.3c-1.3,2.8-3.5,5.5-1.5,9.9c2.5-0.6,4.9-1.3,7.2-2.2c22.7-9.8,45.3-19.6,68-29.5
	c0.7-0.3,1.3-0.6,2-0.9c3.2-1.4,6.3-1.6,8.7,1.5c1.9,2.5,1.4,5.2-1.8,8.5c-6.8,6.8-13.8,13.4-20.7,20.2c-9.9,10-19.8,20-29.6,30.1
	c-2.1,2.4-4,4.9-5.8,7.5c3.5,3.2,6.7,1.8,9.7,1.4c8.8-1.2,17.6-2.5,26.4-3.7c2.7-0.4,5.6-0.9,7.4,1.9c2,3,0.5,5.8-1.3,8.2
	c-6.2,8-12.5,15.9-18.7,23.9c-2,2.6-5.8,5.5-3.5,8.8c1.4,2,5.5,2.6,8.5,3c4.6,0.8,9.4,0.5,14,1.5c2.6,0.6,4.8,2,6.4,4.1
	c1.9,2.9-0.1,5.6-2.4,7.8c-10.7,10.3-21.3,20.6-32.2,30.7c-4.5,4.2-10.4,2.3-11.8-4c-4-17.5-13.2-32.4-22.5-47.2
	c-2.8-4.5-7.1-8.2-10.7-12.2c-1.8-2-3.9-3.9-5.2-6.2c-0.7-1.1-0.6-3.8,0.2-4.4c1-0.8,3.1-0.2,4.7,0.1c0.6,0.1,1.2,0.9,1.7,1.4
	c8,8.1,15.9,16.3,21.3,26.5c1.3,2.4,3.4,4.4,5.7,7.3c8.7-12.9,19-23,27.3-36.6c-3.8-0.4-5.6-0.9-7.4-0.7c-9.3,1-18.7,2.1-28,3.1
	c-1,0.1-2,0.3-2.9,0.4c-3.7,0.2-7.1-0.6-8.7-4.3s0.7-6.1,3.1-8.4c12-11.8,23.9-23.6,35.9-35.3c3.3-3.2,6.6-6.4,9.2-12.4
	c-4,1.3-6.6,1.8-9,2.8c-15.9,6.8-31.8,13.7-47.7,20.4c-5.8,2.4-10.3,7-12.6,12.8c-1.5,3.9-3.4,7.7-5.6,11.3
	c-2.3,3.6-6.5,3.8-8.4,0.1c-2.5-5.1-7.2-7.3-11.2-10.4c-6.6-5.1-12.5-11.3-20.7-14c-0.9-0.4-1.8-0.9-2.4-1.7
	c-6.3-6.9-14.2-11.3-22.5-15.3c-4.9-2.3-4.9-4-2.9-8.8c1.1-2.6,1.2-5.7,2.2-8.4c0.5-1.4,1.9-2.4,2.9-3.6c1.1,1.1,2.9,2,3.3,3.4
	c0.6,2.4,0.8,4.9,0.8,7.3c0.2,4.8,6,10.5,10.6,9.6c1.6-0.5,2.8-1.7,3.4-3.2c0.7-3.1,1.2-6.3,1.3-9.5c2.1-31.3,4.2-62.6,6.3-93.9
	c0.3-4.4,0.9-8.9,1-13.3c0-2.6-0.2-5.1-0.6-7.6l-1.9-0.5c-1.7,2.2-3.2,4.5-4.6,6.9c-7.9,15.6-15.7,31.4-23.6,47
	c-6.6,13-13.1,26-19.8,39c-2.1,4.1-3.5,8.2-2.2,12.8c1.1,4.1,3.9,5,7.2,2.4s6.9-4.9,9.4-8.1c1.7-2.1,1.9-5.4,2.4-8.2s-0.5-7,3.5-7
	s3.4,4,3.7,6.9c0.5,5.6-0.8,10.1-6,13.3c-2.2,1.4-3.7,3.9-5.6,5.8c-4.3,4.5-8.3,7.9-16,6.3c-6.7-1.4-14.1,0.8-21.3,1.4
	c-3.4,0.4-6.8,0.6-10.3,0.6c-1.3-0.1-2.4-2-3.6-3c1.1-1.1,2-2.9,3.4-3.3c2.5-0.8,5.3-0.9,8-1.3c2.2-0.3,4.4-0.5,6.6-1
	c6.6-1.4,8.3-3.8,7.5-10.4c-1.1-9.1-2.1-18.1-3.3-27.2c-3.8-29.1-7.6-58.3-11.5-87.4c-0.5-3.8-1.6-7.5-2.4-11.2l-1.9-0.2
	c-1,2.1-1.8,4.2-2.5,6.4c-2.2,8.9-4.2,17.8-6.2,26.7c-4.8,21-9.3,42-14.3,62.9c-2.7,11.3-2.7,22,3.3,32.3c1.7,3,3.1,6.2,4.1,9.5
	c1.6,4.9,0.1,7.7-4.8,9c-11.3,3-22.5,5.8-32.6,11.9c-1.3,0.8-3.6-0.1-5.4-0.3c0.5-2,0.3-5,1.5-5.8c4.4-2.7,9-5.1,13.7-7.1
	c3.6-1.6,7.5-2.5,11.1-4.1c4.2-1.7,4.7-3.1,3.3-7.5c-0.4-1.2-0.9-2.3-1.4-3.4c-12.4-27.2-24.7-54.4-37.1-81.6c-1.4-3-3.3-5.8-5-8.6
	l-1.9,0.4c-0.1,2.8-0.5,5.6-0.1,8.4c2.1,17.6,4.5,35.3,6.7,52.9c1.1,9.1,2.4,18.1,3.3,27.2c0.3,2.4,0.1,4.9-0.5,7.3
	c-1.8,5.7-6.5,6.9-10.8,2.9s-8.6-8.8-12.9-13.3c-22.5-23.6-45.1-47.1-67.6-70.7c-4.4-4.6-8.8-9.3-13.3-13.9c-1.3-1.3-3-2.1-5.9-2.3
	c0.5,2.5,1.2,5,2,7.4c8.9,23,17.8,46.1,26.8,69.1c5.2,13.3,10.4,26.7,15.6,40c0.6,1.4,1,2.8,1.2,4.3c0.5,4.6-2.5,7.8-7.1,7
	c-2.9-0.6-5.7-1.6-8.4-2.9c-14.4-6-28.7-12-43.1-18c-2-0.7-4-1.3-6.1-1.7L50.8,189.7z M425.6,82.4l-1.6-1.1
	c-2.2,1.6-4.4,3.4-6.4,5.3c-24.4,25.3-48.3,50.9-73.1,75.6c-9.9,9.8-14.5,20.5-14.3,34.2c0.1,11,7.1,20.4,19,23.1
	c1.2-2.1,2.8-4.4,3.9-6.8c5.6-12.1,11.1-24.2,16.6-36.4c0.4-0.9,0.6-2.1,1.3-2.6c1.4-0.7,2.9-1.4,4.4-1.8c0.6,1.5,1.9,3.1,1.6,4.4
	c-1.1,4-2.5,8-4.3,11.8c-4.4,9.9-9.1,19.7-13.7,29.6c-1,2.3-2.7,4.6,0.1,8.2c2-3.3,3.8-5.9,5.1-8.6c2.9-6,5.5-12.1,8.3-18.2
	c17-36.5,34-73,51-109.5C424.6,87.5,425,84.9,425.6,82.4z M414.2,288.7c-0.2,1.8-0.7,2.8-0.4,3.6c2.6,6.1,5.2,12.2,8.2,18.1
	c1.4,2.9,3.7,3,6.7,0.2c4.8-4.3,9.3-8.8,13.8-13.4c0.9-0.9,1.1-2.5,1.8-4.3C434.4,288.4,423.9,293,414.2,288.7z"/>
<path d="M69.8,396.7c0.6-7.6,0.8-20,2.6-32.1c1.3-8.7,3.7-17.6,7.8-25.3c3.7-7,9.7-13.2,15.7-18.4c8.2-7.1,17.3-13.1,26.1-19.4
	c12.7-9,24.6-18.9,35.8-29.6c16.3-15.7,34.4-28.4,57.5-33.2c13-2.7,26.3-4.3,39.6-4.9c17.2-0.7,33,5,48,13.1c3.5,1.9,6.5,4.5,10,6.3
	c4.5,2.4,9.3,4.4,14.2,6c11.3,3.1,21.6,8.9,30.1,16.9c13.1,12.7,25.1,26.5,37.2,40.1c8.8,10,12.8,22.7,17.7,34.8
	c1.9,4.7,0.9,8.2-3.6,10.8c-6.3,3.8-9.8,9.8-13.4,15.5c-5.1,8-2.9,17.5,4.2,23.8c4.8,4.3,9.1,9,13.7,13.5
	c9.6,9.6,12.1,21.8,12.5,34.7c0.3,9.2-4.2,15.5-12.3,19.3c-6,2.8-6.5,3.9-3.1,9.3c2.9,4.6,6.2,9,4.1,15c-0.4,1.1,0.6,2.8,1.2,4.1
	c0.8,1.8,1.9,3.5,2.6,5.3c4.1,10.5,0.3,18-10.5,20.9c-5,1.3-9.9,2.8-14.9,4.1c-6,1.7-11.9,3.5-18.2,2c-0.2-0.1-0.5-0.1-0.7,0
	c-8.9,2.9-18,0.6-27,0.9c-5.2,0.2-10.5-2-15.7-3c-2.3-0.5-4.8-1.5-6.9-0.9c-6.8,1.8-12.3,0.6-15.6-5.4c-2-3.6-3.1-7.7-3.3-11.8
	c-0.2-4.8-1.4-8.6-5.3-11.5c-5.6-4.2-6-11.1-8.4-16.9c-0.8-1.8-1-3.8-1.7-5.7c-1.2-3-3.8-3.6-6.8-3.2c-2.6,0.4-5.3,1.3-5.2,4.3
	c0.2,7.1-5.5,9.4-9.9,12.7c-4.6,3.5-10.5,4.9-16.1,3.8c-3.2-0.5-6.3-1.4-9.2-2.8c-8.6-4.2-17.5-8.2-25.6-13.3s-13.3-0.6-13.6,7.1
	c-0.1,3.9,0,7.9,0.5,11.8c0.4,3.7-0.4,6.8-3.1,9.4c-1.9,2-3.8,3.8-5.9,5.6c-9.3,6.8-20,10.5-31.2,12.6c-16.1,3-30.1-3.7-44-10.2
	c-22-10.4-34.6-28.8-41.4-51.4C72.3,442,70.5,421.8,69.8,396.7z M295.5,257.2c-2.3-2.1-3.3-3.7-4.8-4.3c-5.4-2.4-11-4.5-16.6-6.3
	c-16.9-5-33.8-2.6-50.6,1C209,251,194.9,255.7,183,265c-8.1,6.4-15.5,13.7-23.2,20.6c-1.6,1.5-3.1,3.2-4.9,4.5
	c-19,14.1-38.1,28-57.2,42.1c-1.8,1.2-3.4,2.8-4.5,4.8c-4.5,9.9-9.7,19.5-11,30.5c-1,8.8-2,17.7-2.4,26.5c-0.5,11.1,1,22.1,2.3,33.2
	c1.8,15.1,5,29.6,10.9,43.6c2.6,6.1,6.3,11.8,10.7,16.7c7.3,8.1,16.5,14.3,26.7,18.1c16,6.2,31.9,8.7,47.9,0.3
	c1.6-0.7,3.2-1.3,4.9-1.7c7.7-2.3,8.7-3.5,8.9-11.3c0.1-3.2-0.2-6.4-0.1-9.6c0-3,0.2-5.9,0.7-8.8c2.4-11.4,13.3-15.9,23.3-10
	c7.2,4.3,14.6,8.2,22.1,12.1c3.7,1.9,7.6,3.6,11.6,4.8c7,2.1,12.9-1,16.1-8.5c-1.9-0.9-3.9-1.7-5.9-2.4c-3.8-1.1-7.7-1.9-11.4-3
	c-9.3-2.8-15.5-8.5-17.1-18.4c-0.6-3.7-1.1-7.3-1.9-10.9c-0.4-1.8-1.4-4.8-2.3-4.9c-2.1-0.1-4.2,0.6-5.7,2.1
	c-6.6,8-15.4,12.3-24.9,15.4c-7.9,2.6-16.1,4.6-24.3,6.5c-2.5,0.6-6.2,0.6-6.6-2.9c-0.5-3.7,3.1-4,5.8-4.2
	c22.3-2.2,40.1-12.5,54.2-29.6c0.5-0.5,0.2-1.7,0.3-4.1c-2.6,1.7-4.2,2.6-5.5,3.7c-11.4,9.7-26.3,14.5-41.2,13.2
	c-2,0-3.9-0.4-5.7-1.2c-1.3-0.7-1.9-2.4-2.9-3.7c1.1-0.8,2.2-2.1,3.4-2.3c2.2-0.2,4.4-0.2,6.6,0c8,0.3,15.8-0.3,23.1-3.8
	c10.6-5.1,11.3-8.2,3-16.4c-4-4-5-6.5-2.9-7.9c3.4-2.2,5.3,0.9,7.7,2.4s4.1,5.2,9,3.8c0-2.6,0.1-5.2,0-7.8
	c-0.6-12.5,0.3-24.7,4.9-36.4c1.5-4.1,3.7-8,6.5-11.4c2.6-2.9,4.4-6.4,5.3-10.3c1.9-7.2,4.2-14.2,6.5-21.2c0.6-1.7,1.9-3.1,3.1-4.8
	c4,2.3,3.6,5.3,2.9,8.1c-0.9,3.1-2.3,6-3.2,9.1c-0.9,3.5-3.3,7.5-0.4,10.5c3.2,3.3,7.5,1.2,11.2,0c9-3,16.9-7.8,24.7-13.2
	c6-4.2,12.9-7,19.6-10.1c2.8-1.3,6.3-2.7,8.7,0.9c1.3,2-1.2,3.9-6.2,5.9c-4.8,1.8-9.5,4.1-13.8,6.8c-14.1,9.2-28.1,18.3-45.6,20
	c-6.9,0.7-10.8,5.6-12.6,12c-1.3,3.7-2.3,7.5-3.2,11.4c-2.2,12.2-4,24.3,2.9,36c4.4,7.8,7.1,16.4,7.7,25.3c0.5,4.2,1.3,8.3,2.2,12.4
	c0.5,3.5,2.9,6.5,6.1,7.9c13.2,5.5,26.7,9.1,41,4.2c2.8-1,5.7-1.7,8.6-2.1c5.1-0.5,6.8,2.1,4.8,6.7c-3.5,8.3-0.8,20.9,6.2,26.1
	c5.7,3.9,11.5,7.5,17.6,10.8c3.2,1.8,8.4,0.8,10.2-1.9c2.5-3.7-0.5-6.1-2.7-8.2c-4.5-4.2-9.3-8.1-13.9-12.2
	c-1.3-1.2-2.5-2.5-3.6-3.9c2.5-3.7,5.2-2.9,7.7-1.6c2.7,1.3,5.1,3,7.3,5c4.4,4.6,8.7,9.4,12.6,14.5c2,2.6,4.2,3.6,6.9,2
	c3-1.7,1.9-4.3,0.5-6.4c-2.4-3.8-5-7.4-7.5-11c-1.1-1.6-2.5-3.1-3.2-4.9c-0.5-1.2-0.3-3.7,0.3-3.9c1.5-0.5,3.1-0.4,4.6,0.1
	c1,0.3,1.9,1.6,2.5,2.6c3.6,5.3,7.2,10.6,10.8,15.9c1,1.7,2.1,3.4,3.3,4.9c2.2,2.5,7.3,3.1,9.5,1.3c2.8-2.3,2.5-5.1,1.2-8.1
	c-0.8-1.5-1.5-3.1-2-4.7c-0.1-1.2,0.3-2.3,1.2-3.1c1.1-0.5,2.3-0.4,3.3,0.2c1.5,1.3,2.8,2.7,3.9,4.4c1.8,2.7,3.3,5.5,5.1,8.2
	c2.8,3.8,4.4,4.1,8.8,2.1c2-1,4-1.7,6.2-2.3c6-1.4,6.9-3,3.2-7.8c-8-10.1-10.8-21.3-9.3-34c1-8.1,3.5-12.1,11.7-14
	c7.2-1.6,7-5.8,3.1-9.8c-1.2-1.3-2.1-2.9-3.5-3.7c-1.6-1-3.4-1.4-5.3-1.3c-6,1.1-6.9,1.2-9.3-3.9c-3.3-6.9-8.3-12.2-13.6-17.4
	c-9.3-9.2-18.8-18.2-28.1-27.4c-2.2-2.2-3.9-5-1.4-7.9s5.3-1.5,7.9,0.3c2.1,1.5,4.3,2.6,7.1,4.3c0.9-2.6,1.5-4.2,1.9-5.8
	c3.1-12.6,16.2-16.6,25.8-8c1.2,1.2,2.4,2.5,3.5,3.8c1.6,1.8,3.4,3.1,5.8,1.3s2.6-4,1.3-6.5c-1-2-2.4-3.9-2.8-6
	c-1.9-11-8.1-19.7-14.9-27.7c-9.2-11-18.9-21.5-29.2-31.5c-6.2-5.9-13.4-11.4-21.2-14.5c-14-5.5-28.7-7.4-42.9,0.5
	c-2.3,1.3-5.2,2-6.4-0.8c-0.7-2.2-0.5-4.7,0.5-6.8c0.9-1.8,3.3-2.9,5.1-4.1C290.2,260.4,292.3,259.2,295.5,257.2z M383.2,388
	c1.9-6.4,4.4-12,5.2-17.9c0.7-4.8-2.1-9.1-6.8-11.3s-8.8-0.4-10.4,4.6C368.1,373.3,372,382.2,383.2,388L383.2,388z M367.9,504.1
	c-0.8,6.5,3,15.3,7,17.1c1.8,0.6,3.7,0.6,5.5,0c0.7-0.2,1.5-2.7,1.1-3.8C379.3,511.1,374.2,506.2,367.9,504.1z M412.1,508.1
	c-0.2-4.7-4.5-9.9-8.8-10.6c-3.4-0.5-5.4,1.3-4.3,4.7c1.1,3,2.4,5.9,3.9,8.7c1,2.1,2.2,4,5,3.3C410.6,513.6,412.4,511,412.1,508.1
	L412.1,508.1z M363.5,518.1c-2.2-3.8-4-7.8-6.6-11.3c-1.1-1.5-3.3-1.7-4.7-0.6c-0.6,0.4-1,1-1.2,1.7c-0.8,2.5,2.1,12.4,4.4,13.5
	c1.7,0.8,3.6,1,5.5,0.5C361.8,521.8,362.4,519.9,363.5,518.1L363.5,518.1z M317.3,506.9c-3.4-0.2-5.4,2.3-4.8,5.7
	c0.6,3,4.9,7.4,7.9,8.1c2.3,0.7,4.7-0.6,5.3-2.9c0.1-0.4,0.2-0.9,0.2-1.3C326.2,512.4,321.4,507.1,317.3,506.9z M405.7,460
	c4.7-0.8,7.3-3.8,8.7-8c1-2.9,0.3-5.5-2.8-6.6c-2.9-1-5.6-0.3-6.9,2.6C403.1,451.9,402.4,456,405.7,460L405.7,460z M380.4,501
	c3.4,5.9,6.1,10.7,9.1,15.3c0.6,0.9,3.3,1.7,3.6,1.3c1.1-1.3,2.3-3.2,2.2-4.8C394.9,507.6,388.4,502.1,380.4,501L380.4,501z
	 M339,509.4c-2.5-0.2-4.6,2.1-4.8,5.4c-0.3,4,2.2,7.2,5.6,7.3c3,0.1,4.5-1.5,4.8-4.4C345.1,514,342.2,509.8,339,509.4L339,509.4z"/>
<path d="M460,127.1c0-7.6-2.2-12.6-10.5-11.7c1.4-5.6,3.3-9.8,0.5-14.4c-1.2-1.9,1-3.6,3.4-3.1c1.4,0.4,2.7,1.1,3.9,2
	c3,2.3,5.5,2,8.5-0.5c4-3.3,5.4-2.4,6.3,3.1c1,6.6,2,7.3,8.8,5.9c2.6-0.5,5.8-2.1,7,1.4s-1.7,5.5-4.6,6.5s-5.2,2.3-6,5.8
	c-0.2,1-2.6,2.6-3.1,2.4C469.3,121.6,465.4,124.9,460,127.1z"/>
<path d="M21.4,210.9c0.5,1.1,1.5,3.5,2.7,5.8c0.9,1.7,2.4,3.1,3.1,4.9c0.2,1.2-0.1,2.4-0.9,3.2c-0.7,0.6-2.3,0.5-3.3,0.2
	c-0.9-0.2-1.6-1.1-2.4-1.7c-5.1-3.6-5.4-3.6-10.2,0c-0.8,0.6-1.4,1.5-2.3,1.8c-1.1,0.3-2.8,0.6-3.3,0c-0.8-0.9-1.6-3.1-1.1-3.8
	c4.9-6.4,2.8-11.1-2.9-15.5c-1-0.8-0.5-3.4-0.7-5.1c1.6,0,3.8-0.8,4.6,0c4,3.4,8,4.8,13.5,3.4C21.9,202.9,22.2,206.3,21.4,210.9z"/>
<path d="M47.1,308.2c-1.7,0.9-3,2.2-4.4,2.2c-1.7-0.1-3.4-0.7-4.7-1.8c-7.5-6.4-14.9-12.9-22.2-19.4c-1.7-1.5-3.1-3.9-1.1-5.8
	c1.4-1.3,3.8-1.7,5.8-2c1.2,0,2.4,0.6,3.3,1.5c6.9,6.7,13.7,13.4,20.4,20.2C45.5,304.3,46,306,47.1,308.2z"/>
<path d="M111,77.9c0.7-4.7,1.9-8,1.5-11.1s-2.5-6.1-4.4-10.3c2.4-0.2,4.4-0.9,5.9-0.4c3.4,1.2,6.5,1.6,10,0c1.6-0.5,3.2-0.2,4.6,0.6
	c0.6,0.4,0.7,2.9,0.1,3.9c-1.8,3.1-1.5,6-0.1,9.1c1.1,2.3,0.2,5.4-2.5,4.7C121,73.1,117.2,75.9,111,77.9z"/>
<path d="M279.7,429.1c-21.3-0.2-35-11.2-39.2-28.9c-2.1-8.8,1.2-16.5,4.9-24.1c2.5-5.4,6.5-9.9,11.6-13c5.7-3.4,10.8-7.7,16.3-11.5
	c14-9.8,27.8-8.7,40.6,1.9c4.2,3.4,7.1,8.3,8.2,13.6c1,5.1,2.4,10,4.1,14.9c2,5.5,1.7,10.5-1.5,15.5c-7.4,11.7-17.6,20.7-29.3,27.6
	C290.1,428.1,283.1,428.3,279.7,429.1z M298.3,382.9c-3.9-1.6-3.8-4.9-4.9-7.5c-1.5-3.9-2.8-8-5.1-11.3c-3.7-5.2-6.8-5.5-11.9-1.8
	c-5.6,4-11.2,8.1-16.4,12.6c-6.6,5.7-9.1,13.4-8.7,21.9c0.2,5.5,2.8,10.7,7.1,14.2c7.3,6.1,16.3,6.8,25,7.8
	c5.9,0.7,8.9-4.7,13.2-7.3c1.9-1.1,3.7-2.5,5.2-4.2c4.6-5.1,9.1-10.3,13.5-15.6c2-2.5,2.1-5.2,0.8-8.3c-1.6-3.6-2.7-7.4-3.3-11.2
	c-1.1-6.5-4.6-10.8-10.2-13.6c-1.5-0.6-3.2-0.4-4.7,0.4c-0.8,0.5-1,2.7-0.6,4c0.6,2.6,2,5.1,2.7,7.7
	C300.8,374.6,302.3,378.8,298.3,382.9z"/>
<path d="M378.7,436.4c-0.7,2.4-1.2,6.3-2.9,9.3c-4.3,7.6-14.3,7.5-18.8,0.1c-2.6-4.2-3.3-8.8-1.4-13.5c2.1-5.2,4.1-10.5,6.7-15.5
	c1.4-2.8,0.6-5.1-0.1-7.7c-0.4-1.3,0.5-3,0.9-4.6c1.6,0.3,3.1,0.8,4.6,1.4c1,0.7,1.9,1.6,2.4,2.7
	C374.8,416.9,377.3,425.8,378.7,436.4z M366.8,427.1c-1.7,4.4-3.2,7.4-3.9,10.6c0,1.6,0.8,3.2,2.2,4c1.1,0.4,3.3-0.7,4.2-1.8
	C371.9,436.6,371.3,432.9,366.8,427.1L366.8,427.1z"/>
<path d="M204.7,370.6c-2.5-0.9-4.5-1.2-6.1-2.2c-7.8-4.8-14-11.9-17.6-20.3c-0.7-1.6-1.1-3.2-1.2-5c0-1,0.9-2.8,1.6-2.9
	c1.4-0.1,2.7,0.3,3.6,1.3c3.5,5,6.9,10.2,10.1,15.5c1.9,3.2,4.2,5.4,8,5.7c0.7,0.1,1.5,0.2,2.2,0.4c2.1,0.7,5,1.3,4.1,4.1
	C209,368.7,206.3,369.5,204.7,370.6z"/>
<path d="M121.8,436c-1.4,0.8-2.6,2-3.7,2c-1.7-0.1-3.4-0.7-4.7-1.8c-5.8-5.7-11.4-11.6-17-17.5c-1.4-1.5-2.5-3.8-0.3-5.1
	c1.7-0.6,3.7-0.4,5.2,0.7c6.3,5.8,12.4,12,18.5,18.1C120.6,433.2,120.9,434.4,121.8,436z"/>
<path d="M350.3,420c-0.2,0.8-0.5,1.5-1,2.2c-3.5,3.8-7.1,7.5-10.7,11.1c-1.5,1.5-3.6,2.4-5,0.4c-0.7-1.1-0.8-3.7,0-4.6
	c3.3-3.9,6.9-7.6,10.8-10.9C346.8,416.1,350,417.2,350.3,420z"/>
<path d="M332.5,414.3c-0.4-1-1.5-2.4-1.4-3.7c0.3-3.3,5-7.2,7.8-6.5c1.1,0.4,1.9,1.3,2.2,2.4c0.4,2.7-4,7.4-6.9,7.8
	C334,414.3,333.7,414.3,332.5,414.3z"/>
<path d="M123.5,462.4c1.5,2.2,2.8,3.7,3.4,5.5c0.2,0.4-1.8,2.3-2.8,2.3c-2.4,0.1-4.3-1.3-4-4C120.3,465.1,121.8,464.3,123.5,462.4z"
	/>
<path d="M349.2,312.6c-2.2,1.5-3.6,3.1-5,3.1c-1,0-3-2.4-2.7-3.3c0.6-1.6,1.9-2.9,3.5-3.6C345.6,308.6,347.1,310.7,349.2,312.6z"/>
<path d="M355.1,324.6l-0.9,0.8c-0.2-0.3-0.4-0.7-0.5-1.1c0-0.1,0.4-0.5,0.4-0.5C354.4,324.1,354.7,324.3,355.1,324.6z"/>
<path d="M280.8,414.6c-2.7-2.3-1.8-4.6-0.4-6.8c2.4-3.7,4.8-7.4,7.3-11c0.8-1.2,1.9-2.2,3.1-3c2.5-1.3,5.8,0.8,4.8,3.3
	c-1.8,4.3-4.1,8.3-6.8,12.1C287,412,284.7,414.7,280.8,414.6z"/>
</svg>
