<svg id="Calque_1" data-name="Calque 1" xmlns="http://www.w3.org/2000/svg" viewBox="0 0 361.63 479.1"><title>pokerface</title><path d="M507.26,701.51c.66,6,1.15,11.16,1.78,16.26s1.13,10.2,2.18,15.2c1.86,8.86,4.1,17.64,6.17,26.46,1.55,6.58,3,13.18,4.68,19.73.87,3.4,2.88,5.22,6.88,4.94,5.47-.38,11-.05,16.49-.11,2.91,0,5.11,1,5.06,4.14s-2.35,4-5.23,3.9a40.9,40.9,0,0,0-12,1.07c3.61,1.69,7.17,3.48,10.84,5,2.7,1.13,5.77,2,4.92,5.73-1,4.16-4.5,3.76-7.27,2.59-5.86-2.47-11.49-5.46-17.22-8.25-1.53,8.72-1.16,9.08,6.29,13.87,1.63,1.05,3.25,4.14,2.87,5.85-.65,3-3.52,2.72-6.17,1.75-8.72-3.17-11.63-7.05-11.52-16.19.06-4.8.76-9.61.54-14.39-.1-2.32-1.86-4.52-2.47-6.88-2.05-8-3.89-16-5.88-24-.63-2.55-1.57-5-2.18-7.57-1.41-5.87-2.71-11.77-3.92-17.06,0,6.63,0,14,0,21.34,0,1.15.67,2.54.23,3.41A31,31,0,0,1,498.9,763c-1.6-1.32-4.49-2.56-4.59-4-.63-9.44-1-18.92-.76-28.37.14-6.06,1.42-12.1,2.29-19-6.66,4-8.48,9.75-8.88,15.87-.62,9.61-.63,19.25-1,28.88-.25,6.62-1.07,13.26-.78,19.85.12,2.67,2,5.79,4,7.73,3.18,3.07,7.18,5.28,10.76,8,2.48,1.84,5.14,4,2.68,7.38-2.26,3.09-4.91,1.52-7.37-.27s-5.06-3.42-7.6-5.13l-1.07.85c2.23,3.49,4.13,7.28,6.81,10.39,2.2,2.55,4,4.92,1.51,7.74-2.68,3.06-5.39.67-7.17-1.37-3-3.42-5.47-7.29-8.65-11.62-.77,3.48-1.1,6.7-2.28,9.57a7.16,7.16,0,0,1-4.24,3.86c-.91.22-3.33-2.17-3.63-3.66-1.27-6.49,2.18-11.77,5.14-17.15,1.19-2.17,2.7-4.56,2.78-6.89.64-19.28.83-38.58,1.51-57.87.14-4,1.71-8,2.73-12,1.07-4.18,2.27-8.33,3.61-13.18-7.47-.93-13.64-1.79-19.84-2.45-17.62-1.89-35-4.37-51.24-12.35-9.74-4.8-20.36-7.93-29.81-13.19-7.54-4.19-14.12-10.22-20.76-15.88-14.66-12.49-23.38-29.57-33.33-45.5-6.58-10.53-10.73-22.6-15.8-34.06a10.15,10.15,0,0,1-.78-5.84c.38-1.77,2-3.27,3.07-4.9,1.57,1.17,3.91,2,4.59,3.57,3.61,8.31,6.05,17.2,10.31,25.12,6.79,12.65,14.79,24.65,22.11,37,5.68,9.6,13.34,17.43,22,24.12a123.39,123.39,0,0,0,19.62,12.22,203,203,0,0,0,26.75,11.53,223.32,223.32,0,0,0,31.07,8,296.32,296.32,0,0,0,64,4c12.59-.47,25.55.39,37.65-2.38,14.61-3.35,29-8.92,42.55-15.36,13.37-6.33,23-17.61,30.74-30.27,5-8.18,10.74-16,15.15-24.43a120.34,120.34,0,0,0,13.23-47c1.4-18.68,3.52-37.32,4.38-56,.78-16.95.2-33.95.38-50.93.11-10-.12-20.12-5-29.08-7.23-13.16-13.94-26.72-24.65-37.65a43.77,43.77,0,0,1-5.28-7.18,54.66,54.66,0,0,0-32.73-24.13c-8.24-2.27-15.93-6.59-24.19-8.72A381,381,0,0,0,530.78,353a231.33,231.33,0,0,0-29.72-2c-16.61-.35-33.24.21-49.84-.32-18.31-.58-32.63,8.47-46.69,18.22-9.23,6.4-18.65,12.75-26.85,20.34-10.18,9.42-20.47,19.2-28.39,30.46a220.7,220.7,0,0,0-23,42c-4.61,11.1-6.71,23.59-8,35.66-1.57,15-.88,49.41-1.43,51.21-.49,1.58-2.2,3.79-3.47,3.86s-4-1.93-4.11-3.17c-.63-9.26-.86-18.56-1-27.85-.05-3.79.63-7.58.7-11.37.45-24.22,5-47.3,17.85-68.33,5.34-8.73,9.08-18.54,15.12-26.7,6.86-9.26,15.26-17.45,23.43-25.67,6.65-6.69,13.33-13.69,21.12-18.84a363.94,363.94,0,0,1,42.86-24.88c6.81-3.27,15.53-2.84,23.43-3.43a234.59,234.59,0,0,1,26.91-.79c23.68.94,47.49,1.25,70.78,6,10.69,2.19,21,6.48,31.43,9.79,6.29,2,12.7,3.64,18.89,5.9A62.3,62.3,0,0,1,631,386.29c5.53,7.83,12.36,14.8,17.37,22.93a295,295,0,0,1,17.82,33.66c2.28,5.06,2.24,11.27,2.71,17a192.6,192.6,0,0,1,.91,22.37c-.72,20.91-1.52,41.82-3,62.69-1.1,16-3.06,31.95-5,47.88a57.9,57.9,0,0,1-3.66,13.85c-4.73,12.15-9.51,24.28-17.57,34.81a211.84,211.84,0,0,0-11.86,17.7c-7.38,12-17.49,20.88-30.42,26-14.07,5.58-28.49,10.3-42.85,15.11a32.46,32.46,0,0,1-9.84,1.16C533.36,701.59,521,701.51,507.26,701.51Z" transform="translate(-308.27 -341.23)"/><path d="M565.36,596.1c-43.1.3-86.21.46-129.31,1-10.4.13-20.78,1.57-31.18,2.35-1.48.11-3.23.29-4.41-.37-1.39-.77-3.14-2.41-3.16-3.69s1.67-2.89,2.93-4c.6-.53,1.91-.32,2.91-.34,34.93-.69,69.86-1.25,104.78-2.1,21.43-.53,42.84-1.57,64.26-2.25,3.28-.1,8-1.11,8.12,4s-4.51,4.24-7.95,4.27c-2.33,0-4.67,0-7,0Z" transform="translate(-308.27 -341.23)"/><path d="M574,524.88a9.64,9.64,0,0,1,9.62-9.88,10.15,10.15,0,0,1,10.16,9.51,10.37,10.37,0,0,1-10,10.26A10,10,0,0,1,574,524.88Z" transform="translate(-308.27 -341.23)"/><path d="M374,525.43a9.22,9.22,0,0,1,9.69-9.57,9.55,9.55,0,0,1,9.67,9.82,9.71,9.71,0,0,1-9.91,9.64C377.9,535.29,374,531.18,374,525.43Z" transform="translate(-308.27 -341.23)"/><path d="M379.45,479.46a23.45,23.45,0,0,1-1.6,3.52c-3.21,4.6-6.28,9.33-9.89,13.6-1,1.23-3.67,1.11-5.58,1.61-.43-2-1.88-4.6-1.12-5.88a130,130,0,0,1,10.58-14.9c.84-1,3.32-1.29,4.89-1C377.78,476.59,378.54,478.37,379.45,479.46Z" transform="translate(-308.27 -341.23)"/><path d="M595.15,485.21c4.24,3.69,8.33,7.07,12.12,10.77.47.46-.31,3-1.21,3.82s-3.13,1.41-4,.86A74.58,74.58,0,0,1,591.8,493c-.88-.79-1-3.12-.58-4.44C591.6,487.42,593.28,486.72,595.15,485.21Z" transform="translate(-308.27 -341.23)"/></svg>