<svg id="Calque_1" data-name="Calque 1" xmlns="http://www.w3.org/2000/svg" viewBox="0 0 640.05 754.44"><title>polaroid</title><path d="M812,176.18,809.8,176A11,11,0,0,0,805,174.4L290,130.37l-31.63-2.88,0,.17-.73-.06a11,11,0,0,0-4,.39,14.4,14.4,0,0,1-2.32-.19c-5.05-.89-6.22,1.54-6.58,6-.84,10.27-2.33,20.49-3.3,30.76-1.57,16.56-3,33.13-4.39,49.7-1.16,13.59-2.19,27.19-3.37,40.77-1.5,17.23-3.13,34.45-4.64,51.68-1.19,13.58-2.26,27.18-3.45,40.76q-2.75,31.56-5.58,63.11-2.25,25.34-4.54,50.69-1.74,19.63-3.43,39.27c-1.16,13.59-2.22,27.19-3.42,40.77-1.82,20.71-3.77,41.41-5.58,62.11-1.49,17.07-2.8,34.15-4.31,51.21-1.82,20.54-3.85,41.06-5.66,61.6-1.53,17.39-2.71,34.82-4.33,52.21-1.21,13-2.65,26-3.42,39L185,811a11.06,11.06,0,0,0,0,2.26c0,1.14-.1,2.29-.14,3.43-.36,12.18,3.19,16.09,15.47,17.23,9.44.88,18.87,1.8,28.31,2.65q18.88,1.72,37.77,3.36c17.23,1.48,34.47,2.86,51.7,4.36s34.44,3.13,51.67,4.65c13.58,1.19,27.18,2.23,40.76,3.44,16.4,1.46,32.78,3.11,49.18,4.53,17.56,1.52,35.15,2.77,52.71,4.29,21.37,1.84,42.73,3.84,64.09,5.77,13.41,1.21,26.82,2.47,40.24,3.63,17.23,1.49,34.47,2.9,51.7,4.37q20.38,1.74,40.75,3.55c13.91,1.24,27.79,3.08,41.76,3.37,8.19.17,13.65-4.55,14.74-12.61,1-7.58,1.56-15.22,2.25-22.84,1.22-13.58,2.36-27.17,3.56-40.75,1.13-12.75,2.31-25.5,3.43-38.26,1.48-16.9,2.9-33.8,4.37-50.7q2.31-26.59,4.65-53.17,1.81-20.62,3.63-41.24c1.44-16.23,2.92-32.46,4.35-48.7q2.34-26.59,4.62-53.18c1.45-16.57,3-33.13,4.37-49.7,1.16-13.59,2.17-27.19,3.34-40.77,1.51-17.56,3.14-35.11,4.68-52.67,1.46-16.73,2.82-33.47,4.3-50.2,1.86-21,3.81-42.06,5.69-63.1,1.26-14.08,2.54-28.15,3.71-42.24.85-10.27,1.85-20.55,2.19-30.85C825.18,182.19,820.53,177.11,812,176.18ZM212.28,674.63c4.51-30.15,6.21-60.58,9.44-90.85,3-27.79,4.9-55.68,7.44-83.51C232,469.62,235,439,237.8,408.34Q243,350.18,247.8,292c.48-6,1.94-11.94.86-18l5.88-64.16h.19c.73-8.39,1.48-16.79,2.19-25.18.14-1.63.26-3.26.38-4.88l.38-4.18a11,11,0,0,1,11.94-10L790.39,211.7a11,11,0,0,1,10,11.92L757,726.33a11,11,0,0,1-12,10l-523.34-46.7a11,11,0,0,1-10-10.75C211.84,677.47,212.07,676,212.28,674.63Zm9.89-111.53L233.44,440c-1.2,14.72-2.35,29.45-3.69,44.17C227.36,510.49,224.72,536.79,222.17,563.1ZM763.66,791.69l.84-9.94v.15C764.35,785.17,764,788.43,763.66,791.69Z" transform="translate(-184.85 -127.49)"/></svg>