<svg id="Calque_1" data-name="Calque 1" xmlns="http://www.w3.org/2000/svg" viewBox="0 0 956.45 911.65"><title>rewind_swirl</title><path d="M662.93,320.66c-8.11,7.9-17.21,12.48-28.88,12.53-13.28.07-28.33-10-32-23.17-1.61-5.73-4.19-8.15-10.63-8.92-21.73-2.59-43.52-3.95-65.24-2.12-24.54,2.06-48.43,7.9-71.88,15.63-19.58,6.45-38.12,14.89-55.24,26.33-22.27,14.88-39.33,34.59-52.48,57.78a264.25,264.25,0,0,0-28,73.9,151.28,151.28,0,0,0-3,43,219.22,219.22,0,0,0,17.19,70.85c6.65,15.84,16.31,29.83,27.22,42.81,21.64,25.71,47.61,45.94,79.14,58.33a214.22,214.22,0,0,0,63.45,14.51,428.6,428.6,0,0,0,46.75.93c24.25-.94,46-10,65.81-23.63a195.1,195.1,0,0,0,16.32-12.25c24.78-21.16,38.24-48.37,43.06-80.36,2.68-17.83,1.2-35.38-1.07-53.06-2.3-17.92-7-35-17.3-50a187.18,187.18,0,0,0-53-51.37c-23.2-15.06-48.63-25.17-76-28.13-22.55-2.43-44,1.49-62.56,17.22-16.38,13.89-23.1,32.22-27.81,51.71a87.33,87.33,0,0,0,1.47,47.35c2.83,8.83,7.86,17.35,13.49,24.81,14.55,19.27,32.48,34.81,55.52,43.24,18.54,6.79,37.28,8.3,55.51-1.4,12.71-6.76,22-17,29.11-29.35a113.79,113.79,0,0,0,13-36.49c2-10.75,0-20.52-13.73-21.88a250.25,250.25,0,0,0-29.39-.89A118,118,0,0,0,539,500.83c-17.24,3.75-17.07,18-8.59,29,3,3.94,6.62,7.46,10,11.11,5.06,5.44,5.62,13.27,1.25,18.7-5.08,6.33-12.56,8.17-19,3.24-11.74-9-19.2-21.27-24.66-35-9.35-23.55,7.29-44.5,25.66-51.79,13.6-5.39,27.78-6.19,42.14-6.08,7.66.06,15.33.35,23,.13a43.51,43.51,0,0,1,44.77,44.55c-.73,27.34-11.21,50.77-27.08,72.07C592.65,605.35,573.85,617,551,621.34c-17,3.24-33.72.72-50.08-4.52-25.49-8.17-45.75-24.23-63.62-43.35C423.8,559,413.58,542.12,408,522.94a59.52,59.52,0,0,1-2.2-19.23c.68-13.69,1-27.64,3.94-40.92,5.33-23.72,15.38-45.41,34.63-61.58,14.46-12.14,30.16-21.26,49.44-24.15,31.17-4.68,60.36,1.3,89.1,12.93a201.48,201.48,0,0,1,58,35.41c17.36,15.23,33.19,31.69,44.75,51.88,7.29,12.74,11.24,26.71,13.65,41s3.81,28.61,5,43c1.32,16.23-1.5,32.17-5.25,47.88-9.48,39.61-32.53,69.65-65.68,92.59-23.86,16.51-49.84,27.14-78.89,29.87a273,273,0,0,1-68-2.54c-19-3-37.55-7.12-55.53-13.83-23.5-8.76-44.19-22.07-63.44-38.06a233,233,0,0,1-53-63.08c-12.31-21.25-19.39-44.41-24.25-68.35-8.26-40.7-3-80,11.69-118.46,8.93-23.43,19.59-45.87,34.79-66,26-34.42,60.13-57.62,100.82-71,19.22-6.3,38.89-11.43,58.63-15.82,12.07-2.68,24.66-3.72,37.05-4.11,15.4-.48,30.86.27,46.27.93a131.45,131.45,0,0,1,22.21,2.7c4.69,1,7.68-.45,11-3.2,18.09-15.21,46.91-8,54.87,14,1.94,5.36,4.45,8.41,9.89,10.87,24.05,10.86,46.16,25,67,41.3,30.71,24,54.86,53.68,74.26,87.16a240,240,0,0,1,28.54,75.76c1.94,10.22,2.34,20.73,3.52,31.1,2.67,23.5-.26,46.57-7.55,68.78-13.35,40.69-31.14,79.27-58.4,112.88a293.45,293.45,0,0,1-48.14,46.89C724,769.41,711,779.14,697.11,787.08c-21.07,12-44.33,18.82-68,23.63-30.07,6.1-60.6,6.24-91,4.49-36.89-2.12-72-11.95-105.52-27.55-32.39-15.07-63.62-32-91.85-54.1-20.91-16.37-39.59-35-56.91-55.1a274,274,0,0,1-35.58-52.24A237.06,237.06,0,0,1,228.33,572c-3.2-13.22-6.14-26.54-8.4-40a266.37,266.37,0,0,1-3.57-33.13c-.8-19.28-1.18-38.59-1-57.89.25-29.68,3.21-59.11,13-87.33a333.2,333.2,0,0,1,38.45-76.51A358.22,358.22,0,0,1,318.72,216c22.55-21.21,46.32-40.91,72.44-57.7,24.36-15.66,49.95-28.55,78-36.28,17.69-4.88,35.76-7,54.09-8,21-1.12,41.73.53,61.77,6.1,22.2,6.17,44,14,65.65,21.84A308.09,308.09,0,0,1,726.31,182c18.94,13.73,37.36,28.26,55.27,43.31q30.75,25.83,60.09,53.31c13.21,12.38,25.29,26,37.66,39.25,8.84,9.48,17.57,19.1,25.92,29,18.36,21.82,35.4,44.55,47,70.89,7.29,16.58,11,34.15,14.48,51.79,5.14,25.91,7.62,52.12,5.83,78.42-1.19,17.5-4.45,34.92-7.6,52.23-2.8,15.35-6.49,30.55-10.2,45.72-8.45,34.55-20.17,68-37.13,99.28-13.46,24.87-27,49.77-41.8,73.83-19,30.84-44.48,55.69-74.68,75.91-22.76,15.24-46,29.21-72,38.33a190.1,190.1,0,0,1-54.19,10.34c-18.92.9-37.88,1.95-56.79,1.5-16.89-.4-33.75-2.57-50.59-4.29-14.21-1.45-28.4-3.13-42.54-5.13-31.2-4.41-61.36-13-91.07-23.31-25.44-8.86-51.56-16-76.38-26.33-33.75-14-67.08-29.34-99.56-46.09-21.93-11.31-42.73-25.17-62.88-39.5C171.92,784,151.84,763.75,132.26,743c-30-31.85-50.9-69.73-72.66-107.09-10.68-18.34-19.4-37.64-25-58a597.54,597.54,0,0,1-13.2-59.27c-2.77-16.63-4-33.62-4.63-50.5-1-24.25,3.94-47.9,9.61-71.35C32.74,370.5,41,344.83,52,320.2c7.89-17.6,16.57-34.89,25.81-51.82,11.32-20.73,23.09-41.25,35.57-61.31,15.28-24.56,35.83-44.48,58.35-62.42,3.9-3.11,7.7-6.35,11.71-9.3,4.77-3.52,12.81-3,17.2.87,5,4.4,6.7,11.63,3.6,17.15a19.3,19.3,0,0,1-5.19,5.93c-30.66,22.64-56.28,49.84-74.37,83.55-16.44,30.63-33.07,61.23-47.91,92.64-11.22,23.73-18.46,49.12-24.1,74.88-3.49,15.94-7.08,31.84-6.86,48.25.19,13.72.09,27.51,1.44,41.14,2.35,23.83,8.06,47.08,14.74,70a229.38,229.38,0,0,0,21.63,50.35q16.81,29.22,34.39,58A280.15,280.15,0,0,0,155.47,726c18.49,19.18,37.43,37.9,59.06,53.66a480.19,480.19,0,0,0,82.1,48.25c27.17,12.51,54.5,24.81,82.37,35.64,25.08,9.75,51,17.23,76.5,26,26.67,9.18,54.11,15.07,81.88,19.49,11.8,1.88,23.76,2.76,35.65,4,25.3,2.74,50.62,4.61,76.11,4.29,49.29-.62,93.86-15.09,133.47-44.46,12-8.9,24.26-17.61,35.35-27.58,16.82-15.13,29.9-33.57,41-53.13,14.46-25.45,28.69-51.08,41.63-77.32,14.56-29.51,23.63-61.08,30.46-93.22,4.27-20.12,9.06-40.23,11.58-60.59,2-15.87,1.66-32.19.72-48.21-.86-14.67-3.86-29.23-6-43.82-4.86-32.71-19.54-61-40.14-86.27-14.17-17.38-28.77-34.46-44-50.9-14.67-15.83-29.77-31.39-45.85-45.75q-38.65-34.51-78.93-67.19c-34.27-27.81-73.44-46.8-115.26-60.36-15.15-4.91-30.58-9-46-13a95.84,95.84,0,0,0-18.24-2.63c-45.06-2.78-87.22,6.73-126.27,29.77-26.32,15.53-50.45,33.88-73.23,54.21-26.76,23.88-50.19,50.47-68.38,81.46-15.42,26.27-27.73,53.86-33,84.06A252.84,252.84,0,0,0,244.54,426c-.7,18-1.1,36-.63,54,1.17,44.44,9,87.59,27.46,128.35,8.69,19.22,20.74,36.37,34.62,52.21,6.35,7.25,12.69,14.54,19.46,21.39,32.33,32.74,70.23,57.46,112.06,76.17,15.91,7.12,32.11,14,48.79,18.84a280.09,280.09,0,0,0,48.38,9c15.47,1.65,31.21,1.5,46.81,1.18a249.54,249.54,0,0,0,71.86-12.48A189.28,189.28,0,0,0,717,739.36c31.33-26.11,58.84-55.35,76.21-93,9.75-21.15,20-42,25.44-64.89,4.7-19.85,4.83-39.81,2.77-60-3.51-34.34-16-65.54-34.26-94.31C767.4,396,743,368.84,711.84,348.51c-14.45-9.43-29.81-17.47-44.77-26.1A35.23,35.23,0,0,0,662.93,320.66Zm-27.82-49.42c-14.36-1.46-26.83,13.37-27.21,25.91-.45,14.88,13.52,27.7,26.51,27.9,15.3.23,27.68-13.65,27.69-27.18S649,269.81,635.11,271.24Z" transform="translate(-16.68 -33.61)"/><path d="M297.64,44.56c-2.24,8.77-3.89,17.74-6.84,26.26-5.25,15.17-11.17,30.1-17.05,45-2.49,6.32-2.8,6.61,3.14,10.26,8.89,5.46,18.08,10.44,26.82,16.11a23.79,23.79,0,0,1,7.07,8.08c2.6,4.53-.19,7.64-5.35,7.86-13,.55-22.81-6.86-33.2-12.84-1.29-.74-2.43-1.74-3.68-2.55-4.37-2.83-5.72-2.45-8.21,2.1-5.33,9.72-10.27,19.69-16.19,29-3.31,5.22-8.11,9.55-12.52,14-2.58,2.59-5.93,2.89-9.1.79-3.41-2.26-4.32-5.35-2.38-9.05q8.29-15.82,16.63-31.61c2.86-5.44,5.6-10.95,8.55-16.34,1.42-2.61.67-4.17-1.59-5.81-9.53-6.9-19.36-13.46-28.32-21-9.84-8.31-19-17.41-28-26.64-1.6-1.64-1.9-6-.92-8.39,1.55-3.72,4.38-5.38,9.45-3.4,9.76,3.81,16.88,11,24.79,17.17,10.56,8.27,21,16.75,31.34,25.25,3.37,2.75,4.4.18,5.35-2.17,3.72-9.21,7.47-18.42,10.92-27.73s6.34-18.86,9.93-28.12c1.77-4.56,4.74-8.65,6.85-13.1,1.53-3.24,4.47-4.7,7.13-3.82,1.93.64,3.22,3.8,4.33,6.06.61,1.23.27,2.94.36,4.43Z" transform="translate(-16.68 -33.61)"/></svg>