<?xml version="1.0" encoding="utf-8"?>
<!-- Generator: Adobe Illustrator 21.1.0, SVG Export Plug-In . SVG Version: 6.00 Build 0)  -->
<svg version="1.1" id="Calque_1" xmlns="http://www.w3.org/2000/svg" xmlns:xlink="http://www.w3.org/1999/xlink" x="0px" y="0px"
	 viewBox="0 0 366.3 573.2" style="enable-background:new 0 0 366.3 573.2;" xml:space="preserve">
<title>sablier</title>
<path d="M25.2,523.6c-6.8-6.9-4.9-14.9-4.5-22.4c1.2-22.4,2.1-44.8,4.5-67.1c2.1-19.7,8.4-38.8,16.3-56.9
	c6.1-14.2,14.6-27.5,25.8-38.3c7.3-7,15.8-12.7,23.9-18.7c7.3-5.4,14.7-10.6,22.2-15.8c4.9-3.4,9.2-7.2,11.6-12.9
	c2-4.7,1.5-8.9-2-12.6c-2.2-2.3-4.7-4.4-7.3-6.2c-6.4-4.4-12.8-8.7-19.5-12.6c-21.4-12.5-38.8-30.6-50.5-52.5
	c-6.5-12.1-11.4-25.4-15-38.7c-9-32.4-12.4-65.5-11.9-99.1c0-0.5,0-1.1,0.1-1.6c2.4-9.2,0.4-15.5-9.3-19.8
	c-8.2-3.6-11-13.3-8.8-22.1c2.1-8.3,10.4-15,20.1-16c1.6-0.2,3.2-0.2,4.8,0c23.3,2.6,46.4-0.1,69.6-1.8c15.7-1.1,31.5-0.6,47.3-1.3
	c17.9-0.9,35.7-2.4,53.6-3.5c12.8-0.8,25.6-1.3,38.4-2c10.4-0.5,20.8-1.2,31.2-1.7c4-0.2,8-0.2,12,0.1c14.4,0.9,28.8,1.6,43.1,2.9
	c16.4,1.5,31.4,6.2,42,20.2c3.7,4.9,4.6,10,2.5,15.8c-1.8,5.2-5.1,8.8-10.4,10.3s-10.4,2.5-15.5,3.9c-5.8,1.5-6.4,2.5-5.5,8.4
	c0.3,1,0.4,2.1,0.5,3.2c-0.8,19.2-1.3,38.4-2.6,57.6c-0.8,10.6-3.1,21.1-4.7,31.7c-4.4,28.5-16.8,53.6-34.8,75.5
	c-12.5,15.2-26.6,29.3-43.5,40.1c-4,2.6-7.4,6-10.1,10c-4.8,7.1-3.6,14.3,2.6,20.3c1.5,1.5,3.3,2.8,5.2,3.7
	c15.6,6.3,28.4,16.8,41.7,26.8c9.3,7,16.1,16.3,23.3,25.2c1.8,2.2,2.5,5.3,3.5,8c3.5,10.1,7.2,20.1,10.4,30.3
	c4.6,14.5,8.1,29.3,9.3,44.6c1,12,2.1,23.9,2.9,35.9c0.5,7.2,0.7,14.4,0.8,21.6c0.1,5.9,0,11.8-0.5,17.6c-0.5,6.2,1.6,10.8,6.8,14.3
	c3.3,2.3,6.3,5,8.9,8c4.9,5.3,5.2,9.3,0.7,15c-6.7,8.5-15.5,14.2-26.4,15.1c-21.6,1.7-43.2,3-64.8,4.2c-21.9,1.2-43.8,2.2-65.7,2.8
	c-11.7,0.3-23.5-0.3-35.2-0.3c-19.5,0-39,0.1-58.5,0.1c-12.5,0-25.1,0-37.6-0.3c-8-0.2-16-0.8-24-1.8c-13.3-1.7-25.3-6.9-35-16.2
	c-8.4-8.1-7.8-15.7,1.6-22.8c2.9-2.2,6.5-3.6,9.8-5.3C20.4,525.7,22.3,524.9,25.2,523.6z M32.6,523c6.6,0,12.4-0.1,18.2,0
	c25.4,0.5,50.7-0.3,76.1,1.1c28.2,1.6,56.6,0.1,84.9-0.5c24.5-0.5,49.1-1.7,73.6-2.4c10.9-0.3,21.9,0,32.8-0.1
	c5.6-0.1,7.1-1.7,7.8-7c0.1-1,0.1-2.1,0.2-3.2c1.1-24.9-1-49.7-3.9-74.3c-1.3-10.3-3.6-20.5-7-30.4c-4-12.1-9.3-23.9-14.5-35.6
	c-4.6-10.2-9.8-20.1-18.4-27.8c-11.2-10-22.6-19.5-36.5-25.6c-8.2-3.6-15.4-8.7-20.1-16.6c-5-8.5-5.8-17.5,0.1-25.6
	c3.8-5.3,8.9-9.9,13.9-14.1c5.7-4.8,12.5-8.4,18-13.4c18.4-16.5,34.8-34.7,45.3-57.5c5.5-11.9,10.2-24.1,12.5-37.1
	c1.1-6.3,1.9-12.7,2.7-19c1.2-9.3,2.7-18.5,3.2-27.8c0.8-15.5,0.9-31,1.5-46.4c0.2-4-1.9-5.4-5.2-5.6c-13-0.6-26.1-1.8-39.1-1.2
	c-18.7,0.8-37.2,3-55.9,4.4c-5,0.4-10.1-0.2-15.2-0.3c-8-0.2-16-0.5-24-0.7c-5.6-0.1-11.2-0.2-16.8-0.3c-17.3-0.1-34.7-0.3-52-0.3
	c-13.3,0-26.5,2.2-40,0.6c-10.6-1.2-21.3-0.6-32-0.5c-8,0.1-10.9,3.3-11.4,11.3c-0.1,1.1-0.1,2.1,0,3.2c0.5,26.7,1.8,53.4,7,79.7
	c4.8,24.5,15.2,47.5,30.2,67.4c2.2,3,4.6,5.9,7.3,8.5c14,12.9,28.4,25.2,44.6,35.2c3,1.8,5.8,3.8,8.5,6
	c12.3,10.8,13.3,26.8,1.1,37.4c-15.7,13.7-32.4,26-48.5,39.3c-5.6,4.5-10.7,9.6-15,15.4c-7.6,10.6-15.2,21.4-18.1,34.5
	c-0.6,2.6-1.9,5-2.8,7.5c-6,18.3-10.7,36.9-11.3,56.3C33.9,479.1,33.2,500.6,32.6,523L32.6,523z M167.6,43.9
	c24.8,0,49.5,1.7,74.4-0.4c26-2.2,52.3-1.2,78.4-2c9-0.5,18-1.5,26.9-3c5.6-0.9,7.4-5.6,3.9-10.1c-2.1-2.7-4.7-5.7-7.7-6.8
	c-7.3-2.6-14.8-5.2-22.4-5.8c-21-1.7-42.1-2.1-63.2-1.2c-34.4,1.4-68.8,1.9-103.2,4c-41,2.5-82.2,2.6-123.3,3.9
	c-4.3,0.1-8.5,0.8-12.5,2.1c-6.1,2.1-7.1,8.3-2.2,12.6c3.9,3.4,8.8,5.3,14,5.3c22.7,0.4,45.4,1.1,68,1.3
	C121.7,44.1,144.7,43.9,167.6,43.9L167.6,43.9z M178.5,560.4v0.9c9.6-0.4,19.2-0.8,28.8-1.3c37.6-1.8,75.2-3.4,112.8-5.6
	c6.2-0.4,12.4-3.2,18.1-5.9c5.2-2.5,4.8-7.6-0.3-10.5c-1.2-0.7-2.4-1.1-3.7-1.4c-10.3-1.4-20.6-3.6-30.9-3.9c-12-0.4-24,1.3-36,1.5
	c-35.5,0.6-71,1.2-106.5,1.3c-24,0.1-48-0.8-72-1.2c-9.1-0.2-18.2,0-27.2-0.5c-10.7-0.5-21.4-0.2-31.8,2.3c-3.7,0.8-7.2,2-10.6,3.6
	c-4.8,2.5-5.1,6.2-0.4,9.1c4.5,2.8,9.4,5.1,14.5,6.6c20.8,6,42.3,5.5,63.6,5.9C124,561.9,151.3,560.8,178.5,560.4L178.5,560.4z"/>
<path d="M188,314.4c12.6,0.2,24.3,2.7,35.4,9c16.5,9.3,28.6,23,39.1,38.3c7.9,11.4,15.1,23.3,22.7,34.9c4.3,6.1,7.3,13.1,8.8,20.4
	c2.5,12.9,6.6,25.3,13.9,36.4c3.1,4.8,3.8,9.1,1.3,14.2c-1.1,2.4-1.7,5-1.5,7.7c0.5,5.1,1.1,10-1.9,14.7c-0.7,1-0.2,3,0.1,4.5
	c1.3,5.4-0.3,7.9-5.7,8.7c-1.1,0.1-2.1,0.1-3.2,0c-15.5-0.6-30.9-1.3-46.3-1.8c-8-0.3-16.1-1.2-24-0.3c-14.2,1.6-28.1-1.1-42.2-0.5
	c-6.9,0.3-13.9-0.4-20.8-0.3c-7.7,0.1-15.4,0.8-23.1,1.1c-1.9,0.1-3.7,0.1-5.6,0.1c-11.5-0.2-22.9-0.4-34.4-0.8
	c-9.3-0.4-18.7-0.7-28-1.8c-7.9-0.9-15.1-9.2-15-17c0.1-6.1,0.7-12.2,1.8-18.2c1.3-7.2,1.9-14.3-0.1-21.4c-1.4-4.8-0.6-8.6,3.2-12.3
	c2.2-2.3,3.6-5.2,4.1-8.3c2.6-15.4,10.3-28.4,18.4-41.3c3.7-5.9,7.2-11.8,10.8-17.7c1.3-2,2.4-4.3,4.1-5.8
	c4.7-4.3,9.2-9.1,14.6-12.2c8.9-4.9,15.5-12.5,24.8-17.3c9.4-4.9,19.2-8,28.9-11.3C174.4,314,181.4,314.8,188,314.4z M137.8,457.6
	c-1.1-6.7-4.4-10-6.7-13.6c-11-17.1-27.4-29.7-38.5-46.8c-2.9-4.5-7.7-3.4-9.8,1.7c-2.7,6.6,1.5,10.5,5.7,14.4
	c13.5,12.5,27.1,25,40.6,37.4C131.4,452.8,133.9,454.5,137.8,457.6z M143.5,426.6l1.2-0.9c-0.6-1.4-1.3-2.8-2.1-4.1
	c-9.5-12.5-19-25-28.6-37.4c-2.2-3-4.7-5.8-7.3-8.5c-2.8-2.8-6-2.7-8.6-0.5c-2.6,2.1-3,5.9-0.9,8.5c0,0,0,0,0,0.1
	c1.2,1.5,2.4,2.8,3.9,4c11.2,10.6,22.5,21.2,33.8,31.7C137.6,422,140.6,424.2,143.5,426.6L143.5,426.6z M158.8,409.4l1.3-1
	c-0.1-0.5,0-1.1-0.2-1.4c-12.3-15.7-24.7-31.4-37-47.1c-0.7-0.8-1.4-2-2.2-2.2c-1.9-0.4-4.5-1-5.7-0.1s-1.6,3.9-1,5.6
	c0.6,1.8,2.5,3.3,4,4.9c3.9,4,7.8,8,11.7,12C139.4,389.8,149,399.5,158.8,409.4L158.8,409.4z M250.3,439.2l-1.1,1.1
	c0.2,0.8,0.6,1.5,1,2.1c12.8,15.3,25.6,30.7,38.4,46c0.8,1.1,2,1.8,3.3,2c1.7,0.1,3.8-0.2,5-1.2c0.8-0.6,0.7-3.2,0-4.3
	c-1.4-2.2-3.1-4.3-5.1-6c-9.2-8.7-18.5-17.1-27.6-25.7C259.5,448.7,255,443.9,250.3,439.2z M189.1,386.9l1.1-0.7
	c-0.1-0.7-0.3-1.5-0.6-2.1c-12.1-15.6-24.2-31.2-36.3-46.8c-3.1-4-5.8-4.8-7.8-2.7c-3.2,3.5-0.2,5.9,1.9,8.1
	c9.7,10.3,19.5,20.5,29.2,30.8C180.8,378,185,382.5,189.1,386.9z M112.5,449l-1.1,0.8c0.1,0.7,0.4,1.4,0.7,2.1
	c10.1,12,20.3,23.9,30.5,35.8c1,1.2,2.4,2.5,3.8,2.8c2.4,0.5,6,1.4,7.2,0.2c2.6-2.5-0.6-4.5-2.3-6.4c-0.4-0.4-0.8-0.7-1.2-1
	l-25.3-23.1L112.5,449z M211.9,453.8l-1.7,1.4c8.5,12.1,15.8,25.1,27.3,34.9c0.6,0.5,1.3,1,2,1.3c0.9,0.5,2,1.3,2.9,1.2
	c1.7,0,3.4-0.5,4.9-1.4c0.5-0.3-0.3-2.9-1-4.1c-0.6-1.1-1.9-1.8-2.9-2.8c-7.3-7.1-14.5-14.2-21.8-21.3
	C218.4,460,215.1,456.9,211.9,453.8L211.9,453.8z M101.5,459.4l1-1.3c-6-10.6-14.7-19.2-23-27.9c-1-1.1-4.1-1.8-4.8-1.1
	c-1.3,1.5-1.9,3.4-1.8,5.4c0.3,1.8,1.2,3.5,2.6,4.7c7.6,6.6,15.4,13,23.1,19.3C99.3,459.1,100.5,459.1,101.5,459.4L101.5,459.4z
	 M157,458.8c6.4,10.7,12.8,21.1,22.2,29c2.4,2,5.4,3.5,8.7,0.9c-0.1-0.9,0-2-0.4-2.4c-8.3-7.9-16.5-15.9-24.9-23.7
	C160.8,461.2,158.9,459.9,157,458.8L157,458.8z M249.1,357.9c-6.9-14.4-23-28.5-31.6-27.5C220.8,337.9,240.1,354.7,249.1,357.9
	L249.1,357.9z M276.6,409.1c-2-11.4-21.2-33-30.3-35.1C249.3,380.9,270.3,405.6,276.6,409.1L276.6,409.1z M200.2,472.8
	c2.7,7.3,6.4,13.6,12.5,18.2c1,0.7,2.8,0.3,5.6,0.5C214.8,481.6,206.3,478.3,200.2,472.8L200.2,472.8z M82.6,472.5
	c-1.4-6.6-5.3-9.6-8.8-12.7c-1.1-1-3.3-0.8-4.9-1.1c0,2-0.9,4.5,0.1,5.7C71.8,468.6,76.2,470.9,82.6,472.5L82.6,472.5z M79.3,490.2
	c-0.7-4.7-4-6.3-7-7.5c-1.5-0.6-3.8,0.4-5.7,0.7c0.4,2.2,0.1,5.1,1.4,6.3C71,492.7,74.9,492.8,79.3,490.2L79.3,490.2z M217.9,360.4
	c-2-6.3-13.2-18.3-18.4-19.8C204.9,347.8,210,355.3,217.9,360.4z M147,363.3c-4.3-5.6-7.1-12.6-15.6-16.8
	C135.5,354.7,140.5,359.6,147,363.3L147,363.3z M285.4,451.8c2,5.4,4.4,9,9.7,10.3C294,454,292.9,452.8,285.4,451.8L285.4,451.8z
	 M176,340.9c-3.8-3.7-2.7-11.6-10.6-12.9C166.4,335,171.7,337.5,176,340.9z M115.7,488.8c-1.3-3.4-2.5-7-7.9-6.6
	C109.3,486.4,111.3,489,115.7,488.8z M185.6,321.9c-0.7,1.1-1.5,2-1.4,2.2c0.6,0.8,1.4,1.4,2.3,1.8c0.1,0.1,1.3-1.2,1.2-1.5
	C187.2,323.5,186.4,322.7,185.6,321.9z"/>
<path d="M135.7,143.6c16.8,0.9,33.6,1.7,50.4,2.8c12.5,0.8,25,2.2,37.5,2.8c16,0.8,32,1.3,48,1.7c3.2,0.1,6.3-0.6,9.5-1
	c5.2-0.6,8.2,0.7,8.8,5.8c0.7,5.7,0.1,11.6-0.6,17.4c-0.5,3.9-1.9,7.8-3.3,11.5c-0.9,2.5-1.7,5.4-3.6,7c-9.8,9.1-16.7,20.7-26,30.2
	c-3,3-6.4,5.7-9.3,8.7c-2.8,2.8-5.7,5.7-7.7,9c-2.2,3.6-4.5,6.2-8.8,7.4c-6.1,1.6-11.3,4.9-14.3,10.7c-1.5,3-4,3.7-7.2,4.2
	c-3.9,0.5-7.6,2.1-11.4,2.9c-11.6,2.3-23.2,6-34.5-2.1c-6.3-4.5-13.5-7.6-20.2-11.4c-16.5-9-31.3-20.5-44-34.3
	c-14.2-15.6-26.1-33.1-32-53.9c-2.4-8.3-1.6-9.2,4.8-14.9c5.1-4.5,10.4-5.6,16.8-5.5c15.7,0.3,31.5,0.1,47.2,0.1L135.7,143.6z
	 M103.7,152.6c2.1,2.6,3.5,4.7,5.3,6.4c8.2,7.6,16.4,15.1,24.8,22.5c8.6,7.6,17.3,14.9,26,22.3c1.5,1.2,3,2.9,6.3,0.8
	c-5.6-6.5-11-12.7-16.3-18.9c-8.5-9.9-17.1-19.6-25.4-29.7C118.8,149.1,113.5,147.6,103.7,152.6L103.7,152.6z M84.2,179.7
	c8.5,19.1,21.8,34.5,38,47.5c8.6,7,11.7,8.6,16.8,8.3C135.6,228,93,183.4,84.2,179.7L84.2,179.7z M144.7,205.8l-1.5,1.5
	c0.6,1.4,1.3,2.8,2.1,4.1c10.3,13.2,21,26.2,34.1,36.7c2.9,2.3,6.1,4.2,9.6,5.5c1.8,0.6,4.2-0.8,6.4-1.3c-0.8-1.8-1.1-4.1-2.4-5.3
	c-4-3.9-8.4-7.3-12.6-11c-9.8-8.6-19.5-17.3-29.4-25.8C149.1,208.6,146.9,207.1,144.7,205.8z M147.8,152.8
	c1.5,8.4,7.3,11.8,11.6,16.3c4.2,4.4,8.7,8.6,13.5,12.4c4.7,3.7,8.3,9.2,15.2,10c-1.9-4-4.6-7.2-7-10.6
	c-5.4-7.7-13.5-13.7-15.5-23.8c-0.3-1.7-3.3-3.7-5.3-4.1C156.5,152.4,152.6,152.9,147.8,152.8L147.8,152.8z M183.2,205.8l-1.7,1.9
	c8.5,11.5,16.8,23.1,25.4,34.4c2.8,3.6,7.2,3.2,10.3-0.2c2.6-2.8,2.4-5.5-1.3-8.9c-8.9-8-17.9-15.8-27-23.6
	C187.1,208.2,185.2,206.9,183.2,205.8L183.2,205.8z M212.6,200.6c4.8,8.8,10.6,17,17.4,24.4c1.5,1.7,3.9,2.8,5.4,0.6
	c0.9-1.3,0.9-4.5,0-5.5C228.6,212.7,221.5,205.7,212.6,200.6L212.6,200.6z M210.3,181.7l1.3-1.1c-0.1-0.7-0.4-1.4-0.8-2.1
	c-5.3-6.3-11.8-11.7-13.9-20.1c-0.4-1-1.2-1.8-2.2-2.1c-2.5-0.2-5.7-0.8-7.3,0.5c-2.5,2,0,4.3,1.7,5.9c3.8,3.7,7.8,7.2,11.8,10.7
	C204,176.2,207.1,178.9,210.3,181.7L210.3,181.7z M74.1,151.8c4.5,4.2,8.2,7.8,12.1,11.2s6,8.4,11.7,11.4c-4-8-7.1-14.8-10.7-21.4
	C84.9,148.7,81.4,148.3,74.1,151.8z M282.1,164.9c-2-1.5-3.2-2.9-4.7-3.4c-0.6-0.2-1.8,1.3-2.7,2.1c1.1,1.3,2.1,2.7,3.5,3.6
	C278.7,167.4,280.1,166.1,282.1,164.9L282.1,164.9z M220.1,163.4c0-5.5-2-6.3-5.9-5.5c0.7,1.4,1,2.4,1.6,3
	C216.6,161.7,217.8,162.2,220.1,163.4L220.1,163.4z M245.4,162.7l1.5-0.6c-0.2-0.7-0.5-1.3-0.9-1.8c-0.2-0.2-1.1,0.4-1.6,0.7
	L245.4,162.7z M263.5,190.1l0.8-0.9l-2.6-2.2l-0.8,0.9L263.5,190.1z"/>
</svg>
