<svg id="Calque_1" data-name="Calque 1" xmlns="http://www.w3.org/2000/svg" viewBox="0 0 94.97 81.6"><title>security</title><path d="M541.91,482.45a27.4,27.4,0,0,1,8,.74,48.36,48.36,0,0,1,11.43,3.48,7.84,7.84,0,0,0,.88.38,18.87,18.87,0,0,1,5.43,2.74c1.42,1,3,1.83,4.41,2.88a38,38,0,0,1,8.19,7.66,56.29,56.29,0,0,1,3.92,5.43,24.42,24.42,0,0,1,3,6.79,12.59,12.59,0,0,0,.77,1.75c.38,1,.73,1.93,1.06,2.9.1.3.08.64.19.94a24.23,24.23,0,0,1,1.12,9.1,22.61,22.61,0,0,1-1.49,7.25,6.34,6.34,0,0,1-2.48,3.15c-1.5,1-2.87,2.16-4.35,3.16-1.79,1.2-3.66,2.29-5.47,3.46s-3.38,2.28-5.07,3.41-3.45,2.32-5.19,3.44-3.7,2.37-5.6,3.47c-1.38.8-2.86,1.43-4.25,2.21-2.36,1.34-4.69,2.75-7,4.1-1.18.68-2.39,1.29-3.58,1.94a9.65,9.65,0,0,0-1.05.56,3.15,3.15,0,0,1-3.52.1c-2.5-1.33-5-2.74-7.44-4.11-2.65-1.47-5.33-2.9-7.95-4.44q-4.18-2.46-8.26-5.1c-2.24-1.46-4.37-3.09-6.61-4.56-1.94-1.27-4-2.37-5.92-3.65-1.73-1.14-3.38-2.4-5.06-3.61a8.55,8.55,0,0,1-1.71-1.29,7.47,7.47,0,0,1-1.39-2.36,23.73,23.73,0,0,1-1.35-10.73c.09-.63.15-1.27.22-1.91a20,20,0,0,1,2.19-7.64,3.24,3.24,0,0,0,.43-1.11,20.14,20.14,0,0,1,1.67-4.47,23.43,23.43,0,0,1,1.92-3.57,43.21,43.21,0,0,1,3.56-4.79,22.62,22.62,0,0,1,5.7-5.6c.95-.57,1.7-1.45,2.61-2.08,1.37-1,2.86-1.76,4.2-2.75,2.66-2,5.8-2.81,8.78-4.05,1.07-.44,2.18-.78,3.27-1.16a4.49,4.49,0,0,1,.69-.21c3-.53,5.95-1.57,9-1.74Zm-41.55,43.67a17.41,17.41,0,0,0,.31,3.44,6.67,6.67,0,0,0,3,4.31,1.58,1.58,0,0,1,.44.41c1.34,1.68,3.21,2.72,4.87,4s3.42,2.31,5.17,3.41q4.31,2.71,8.66,5.36c1.05.64,2.16,1.2,3.2,1.86,1.71,1.1,3.37,2.28,5.08,3.38.94.6,1.92,1.14,2.89,1.68,2.33,1.3,4.66,2.62,7,3.87a3.72,3.72,0,0,0,3.36.06c.51-.23,1-.41,1.54-.67a103.47,103.47,0,0,0,10.45-6.11c1.22-.84,2.45-1.66,3.7-2.44s2.34-1.38,3.5-2.09c2.85-1.76,5.66-3.6,8.55-5.3a60.45,60.45,0,0,0,10.77-8.16,4.92,4.92,0,0,0,.73-.94,8.39,8.39,0,0,0,1.5-6,7.79,7.79,0,0,1,0-1.08,28.46,28.46,0,0,0-2.16-9.9c-.53-1.34-1-2.69-1.55-4a6.5,6.5,0,0,0-.52-1.08c-1.33-2.13-2.37-4.45-4.15-6.28-1.39-1.43-2.61-3-4.05-4.38a32.18,32.18,0,0,0-4.15-3.24c-1.77-1.19-3.38-2.7-5.57-3.15-.21,0-.39-.27-.58-.41s-.65-.47-1-.67a31,31,0,0,0-9.23-3.26,72.2,72.2,0,0,0-10.49-1,3.81,3.81,0,0,0-.6,0c-1.5.17-3,.36-4.51.5a34.52,34.52,0,0,0-7.82,1.72,73.88,73.88,0,0,0-7.39,3.51c-1.46.9-2.92,1.8-4.34,2.76a38.8,38.8,0,0,0-10,10.07,45,45,0,0,0-4.86,10.25A29.07,29.07,0,0,0,500.36,526.12Zm-1.42-1.41c1-2.23.91-9,.11-10.19a1.83,1.83,0,0,0-.79,1.74c.09,2.55.23,5.09.38,7.63A3,3,0,0,0,498.94,524.71Zm87.56,1.54c.23-.31.34-.4.35-.49.06-1.07.19-2.15.15-3.22-.11-2.66-.3-5.32-.46-8,0,0-.06,0-.1,0a.2.2,0,0,0-.08,0C585.35,518.39,585.77,522.2,586.5,526.25Zm-2.62-17.68c-1.09,1.81-.63,5.73.9,6.86a6.4,6.4,0,0,0,.19-1.17c0-1.47-.11-2.94-.23-4.41A1.33,1.33,0,0,0,583.88,508.57Zm-86.33,21.76a35.36,35.36,0,0,0-.44-7.87C496.17,525.23,496.38,529.31,497.55,530.33Zm22.78,17.11a9.17,9.17,0,0,0,.63,3,.89.89,0,0,0,1.21.46,1.14,1.14,0,0,0,.35-1,7.59,7.59,0,0,0-.8-2A1.19,1.19,0,0,0,520.32,547.44Zm66.29-17.33h-.29a11,11,0,0,0-.61,1.4,5,5,0,0,0-.12,3.15c.13.36.39.69.79.49a1,1,0,0,0,.43-.72,23.08,23.08,0,0,0,0-2.36C586.75,531.41,586.67,530.76,586.61,530.11Zm-33.92-43.65a1.73,1.73,0,0,0-1.37-1.71.76.76,0,0,0-1,.59,1.87,1.87,0,0,0,1.06,2.05C552.2,487.69,552.71,487.33,552.68,486.46ZM578.6,501c-.73,1.5-.15,3.64,1.07,4.1A3.26,3.26,0,0,0,578.6,501Zm-76.93,33.39a23.68,23.68,0,0,1-.18,2.43c-.15.83,0,1.27.78,1.58.49.2.79.06.82-.47a5,5,0,0,0-.76-3.06C502.23,534.66,502,534.58,501.67,534.36Zm86.83-4.67c.87-2.51.56-4.83.08-7.42C588.1,524.52,588,528.69,588.5,529.69Zm-10.6,10.36c.15.89.36,1.22.85,1.21a1.3,1.3,0,0,0,1.23-1.35,5.13,5.13,0,0,0-.3-1.28c-.21-.55-.78-.67-1.11-.19A8.23,8.23,0,0,0,577.9,540.05Zm-12.13,7.53c0,.44,0,.6.06.76.06.41-.05.94.54,1s1.06-.47,1.11-1a5.08,5.08,0,0,0-.08-1.52.92.92,0,0,0-.58-.62,1,1,0,0,0-.74.44A3.46,3.46,0,0,0,565.77,547.59Zm-31.65,9.09c0,1.22.52,2.1,1.27,2.3.43.11.76,0,.74-.49a2.89,2.89,0,0,0-.89-2.14,1,1,0,0,0-.85-.18C534.23,556.22,534.16,556.61,534.12,556.68ZM508.81,542a3.4,3.4,0,0,0-.73-2.71c-.38-.48-1-.38-1,.11a8,8,0,0,0,.49,2.28C507.74,542.11,508.21,542.33,508.81,542Zm-4.15-5.32a3.68,3.68,0,0,0-.06,3.15c0,.06.1.14.17.16s.48.21.65.15a.68.68,0,0,0,.33-.55,10.77,10.77,0,0,0-.32-2.1C505.33,537.23,504.94,537,504.66,536.72ZM523.6,551a7.32,7.32,0,0,0,.5,1.3,1,1,0,0,0,.78.33c.11,0,.31-.43.31-.66a6.28,6.28,0,0,0-.17-1.4c-.1-.47-.31-1-.87-1S523.7,550.29,523.6,551ZM505,506.56a3.29,3.29,0,0,0,.42-3.76C504.38,503.38,504.15,505.19,505,506.56Zm59.77,43.27a7.93,7.93,0,0,0-.12-1.25,2.5,2.5,0,0,0-.42-.65c-.24.17-.61.28-.71.51a6.32,6.32,0,0,0-.42,1.6c-.06.41.07.9.56.87a2.07,2.07,0,0,0,1.06-.58C564.86,550.22,564.78,549.88,564.78,549.83Zm-47-4.41a6.35,6.35,0,0,0,.15,3,.64.64,0,0,0,.24.4,1.25,1.25,0,0,0,.73.19c.14,0,.32-.39.29-.57a17,17,0,0,0-.57-2.3C518.54,545.9,518.2,545.76,517.78,545.42Zm-15-34.61c.83-1,.45-2.15.7-3.09a1.42,1.42,0,0,0-.38-1.53C502.46,507,502.28,509,502.8,510.81ZM500,535.91c.74-1.55-.21-2.79-.18-4.07a1.25,1.25,0,0,0-.78-1.17A9.1,9.1,0,0,0,500,535.91Zm49.14-50.18a2.23,2.23,0,0,0-.14-.86c-.16-.26-.51-.57-.76-.56s-.68.39-.68.61a5.15,5.15,0,0,0,.3,1.7.78.78,0,0,0,.68.29c.21,0,.4-.32.53-.54A1.82,1.82,0,0,0,549.18,485.73ZM507.7,500.07a2.24,2.24,0,0,0-.34,3.08C508.71,502.6,508.85,501.47,507.7,500.07Zm76.21,33.85c-.28.46-.53.7-.56,1a14.8,14.8,0,0,0,0,2.15c0,.37.22.73.68.66a.67.67,0,0,0,.55-.8,18.45,18.45,0,0,0-.19-1.9A5.37,5.37,0,0,0,583.91,533.93Zm-28.33-46.56c-.05-.37-.06-.53-.1-.69-.15-.68-.6-1.14-1.06-1.1s-.71.56-.61,1.35a2,2,0,0,0,.14.57c.22.49.79.85,1.12.62A2.13,2.13,0,0,0,555.59,487.36Zm21.2,14a5.17,5.17,0,0,0-.07-2.79c-.07-.39-.29-.74-.8-.68A2.58,2.58,0,0,0,576.79,501.38ZM535,485.7l.13.07c0,.16,0,.32,0,.48.05.37.17.79.61.73s.55-.36.79-.59.1-.3.13-.45c.08-.48.15-1-.3-1.31-.19-.14-.66-.2-.74-.1A6.52,6.52,0,0,0,535,485.7Zm5,74.45a9.87,9.87,0,0,0,.64,1.44.79.79,0,0,0,.71.23.78.78,0,0,0,.47-.57,4.5,4.5,0,0,0-.28-1.47.71.71,0,0,0-1-.46C540.26,559.43,540.14,559.83,539.93,560.15Zm41.91-23.85c-.18,0-.24,0-.26,0a2.86,2.86,0,0,0-.53,2.88.62.62,0,0,0,.59.12,1.65,1.65,0,0,0,.57-.83A3,3,0,0,0,581.84,536.29Zm-32,22.21a2.11,2.11,0,0,0-.09-.63c-.17-.28-.33-.69-.59-.77a.72.72,0,0,0-.88.61,3.67,3.67,0,0,0,0,1.39.79.79,0,0,0,.57.48.92.92,0,0,0,.68-.36A2.25,2.25,0,0,0,549.81,558.5Zm9.92-6.52c-.2-.32-.32-.74-.59-.91s-.82.28-.89.89a4.61,4.61,0,0,0,0,1.53.46.46,0,0,0,.88.14A9.87,9.87,0,0,0,559.73,552ZM534,486.43c-.09-.68,0-1.18-.6-1.31a.92.92,0,0,0-1,.8c-.12.5-.26,1.05.19,1.45.16.14.64.2.75.09A5.79,5.79,0,0,0,534,486.43Zm18.54,70.62c0-.87-.34-1.39-.78-1.44s-.93.42-.95,1.14a2.74,2.74,0,0,0,.07.71c.14.6.59.81,1,.43A3.44,3.44,0,0,0,552.53,557.05Zm-41-60.08a2.76,2.76,0,0,0,0,.64c.1.25.2.65.35.68a1.15,1.15,0,0,0,.82-.28,1.46,1.46,0,0,0,0-2.12.72.72,0,0,0-.7.06A5.33,5.33,0,0,0,511.52,497ZM571.77,543a2.27,2.27,0,0,0-.81,2.28.78.78,0,0,0,.46.57.9.9,0,0,0,.64-.39A2.15,2.15,0,0,0,571.77,543Zm-27.1,17.45c-.11-.15-.3-.67-.53-.69s-.63.34-.93.57c-.08.06-.11.21-.14.32a1.06,1.06,0,0,0,.51,1.4c.5.13.94-.3,1-1C544.65,561,544.65,560.84,544.67,560.49Zm1.72-75.22a2.25,2.25,0,0,0-.2-.81,1.06,1.06,0,0,0-.73-.44c-.17,0-.51.35-.5.54a5.26,5.26,0,0,0,.32,1.58c.06.16.47.28.7.25s.28-.33.37-.54A2,2,0,0,0,546.39,485.28Zm-19.66,66.17a2.52,2.52,0,0,0,.15,2.51c.32.34.71.32.87,0A2.29,2.29,0,0,0,526.73,551.45Zm-16.35-10.22a3.16,3.16,0,0,0,.1,2.23c.24.39.76.49.85.15a3.87,3.87,0,0,0,.08-1.51A.91.91,0,0,0,510.38,541.22Zm28.86-55.76c0-.78-.24-1.26-.66-1.22-.64.06-.65.6-.73,1.07,0,0,0,.08,0,.12-.09.86.13,1.31.64,1.31S539.23,486.3,539.24,485.46Zm29.85,62.05c.92-.62.77-1.43.69-2.19,0-.22-.3-.41-.46-.61-.23.18-.59.33-.66.56A2.46,2.46,0,0,0,569.09,547.51Zm5-48.71a2.8,2.8,0,0,0,.19-2.39c-.26-.47-.82-.62-.92-.25a4.78,4.78,0,0,0-.11,1.63A1,1,0,0,0,574.1,498.8ZM515,493.66a1.8,1.8,0,0,0-.93,2.31c.18.34.48.48.77.24a1.33,1.33,0,0,0,.51-.84A9,9,0,0,0,515,493.66Zm2.57.32a10.9,10.9,0,0,0-.18-1.4c-.05-.19-.26-.46-.42-.48a.65.65,0,0,0-.55.33,6.11,6.11,0,0,0-.12,1.49c0,.36.2.79.63.66S517.45,494.13,517.59,494Zm63.91,11a4.29,4.29,0,0,0,.48,3.51A3,3,0,0,0,581.5,505Zm-20.08,44.61c-.78.52-.9,1.5-.33,2.65C562.15,551.86,562.28,550.83,561.42,549.62Zm6.77-56.22a6.66,6.66,0,0,0,.54,1.15c.25.37.79.25.79-.16a5.5,5.5,0,0,0-.34-1.82c-.14-.39-.64-.31-.82.09A4.75,4.75,0,0,0,568.19,493.41Zm-22.5,66.4c0,.63.28,1.1.68,1.07.56,0,.62-.51.7-.94a1,1,0,0,0,0-.12c0-.73-.21-1.22-.63-1.2S545.69,559.18,545.69,559.8Zm11.63-5.54a14.65,14.65,0,0,0-.61-1.39c0-.07-.41-.07-.53,0a1.35,1.35,0,0,0-.33,1.43c.08.41.27.87.75.74C556.87,555,557.06,554.57,557.32,554.27Zm-47.53-53.74a2.33,2.33,0,0,0,.12-2.83C509,498.31,508.92,499.26,509.79,500.53Zm66.7,39.69a1.36,1.36,0,0,0-.65,2.17.47.47,0,0,0,.84-.18A1.91,1.91,0,0,0,576.49,540.22Zm-38.1,20.13c.56-1,.54-1.87-.06-2.32a.93.93,0,0,0-.73-.13c-.13,0-.28.41-.24.59A2.66,2.66,0,0,0,538.39,560.36Zm-8.55-73.43c0,.08,0,.16,0,.24,0,.38,0,.89.47,1s.6-.49.71-.9a1.34,1.34,0,0,0,0-.23c.07-.78-.14-1.23-.56-1.24S529.83,486.13,529.83,486.93Zm44.33,54.86a1.21,1.21,0,0,0-.7,1.71c.1.23.46.53.65.5a.88.88,0,0,0,.57-.61A1.64,1.64,0,0,0,574.17,541.79ZM562.5,489.61c0-.75-.27-1.22-.68-1.24s-.65.47-.58,1.26c0,.48.1,1,.69,1.11C562.31,490.81,562.52,490.37,562.5,489.61Zm-32.49,66c.45-1.23.28-1.83-.61-2.47A1.53,1.53,0,0,0,530,555.57Zm-11.07-62.45a1.56,1.56,0,0,0,.45-2.41C518.5,491.24,518.35,491.92,518.95,493.12Zm24.87-8a2.29,2.29,0,0,0-.13-.72c-.12-.21-.35-.5-.54-.51a.73.73,0,0,0-.56.45,5,5,0,0,0,.13,1.49c0,.14.36.28.56.29s.34-.19.41-.35A2.56,2.56,0,0,0,543.81,485.17Zm12.82,2.44c0,.19,0,.4.06.5a7.36,7.36,0,0,0,.72.67c.17-.24.45-.45.49-.71a2.61,2.61,0,0,0-.14-1.16c-.05-.16-.36-.3-.56-.31s-.34.19-.42.34A2.65,2.65,0,0,0,556.63,487.61Zm-55.82,27.86c.2-.29.31-.38.31-.47,0-1.57-.11-3.15-.17-4.72A9.34,9.34,0,0,0,500.82,515.47Zm13.14,30c-.13-.95-.19-1.64-.33-2.32,0-.15-.34-.28-.54-.35s-.26.17-.31.29A2.13,2.13,0,0,0,514,545.42Zm10.36-55.88c-.09-.34,0-.91-.6-.94s-.58.54-.67,1a1.34,1.34,0,0,0,0,.35c0,.39,0,.87.55.87s.64-.4.72-.81A4,4,0,0,0,524.32,489.54ZM566.76,493a1.67,1.67,0,0,0,.24-1.76c-.08-.23-.45-.36-.68-.53-.14.22-.38.42-.4.65A1.47,1.47,0,0,0,566.76,493Zm-41.4-4.38c0,.59.3,1,.7.88a.8.8,0,0,0,.65-1c0-.42-.12-.89-.67-1C525.63,487.52,525.33,488,525.35,488.63Zm38.69.65c-.75,1.13-.62,2,.31,2.43A1.85,1.85,0,0,0,564,489.28Zm-31.6,67.51c.54-1.28.3-1.92-.77-2.16A1.54,1.54,0,0,0,532.44,556.79Zm21.05-1.26a6.21,6.21,0,0,0,.52.84.6.6,0,0,0,.5-.13,4.35,4.35,0,0,0,.21-1.1.63.63,0,0,0-.2-.42c-.13-.13-.35-.32-.47-.28a1.07,1.07,0,0,0-.46.46A2.22,2.22,0,0,0,553.5,555.53ZM516.38,547a7.57,7.57,0,0,0-.3-1.29c-.17-.41.22-1.08-.52-1.27A1.74,1.74,0,0,0,516.38,547Zm54.89-53.1c-.76,1.3-.56,2.2.44,2.51A5.05,5.05,0,0,0,571.27,493.91Zm-29.87-8.4c0-.79-.24-1.32-.58-1.22-.63.18-.44.74-.45,1.18a1.08,1.08,0,0,0,.17.55.41.41,0,0,0,.74,0A1.92,1.92,0,0,0,541.4,485.51Zm-19.95,4c-.74.55-.8,1-.26,2.06A1.33,1.33,0,0,0,521.45,489.52Zm6.71-.85a1.41,1.41,0,0,0,.44-1.64c0-.15-.29-.37-.39-.34a.73.73,0,0,0-.5.38A1.39,1.39,0,0,0,528.16,488.67Zm31.31-1c-.46.85-.45.91.22,1.5C560.14,488.35,560.13,488.28,559.47,487.67Z" transform="translate(-495.28 -482.37)"/><path d="M532.07,524.56c1.37-.16,3.39-.42,5.4-.64a1.33,1.33,0,0,0,1.23-1c.44-1.28.86-2.57,1.33-3.85.74-2,1.12-4.16,2.34-6,.47-.7,1-1.12,1.5-1a1.82,1.82,0,0,1,1.25,1.46,23.3,23.3,0,0,0,1.39,4.69c.62,1.27,1,2.59,1.46,3.87.94,2.41.49,2.32,3.2,2.46,2.91.14,5.83-.05,8.75-.09a4.29,4.29,0,0,1,1.18.05c.92.26,1.19,1.07.49,1.7-1.5,1.37-3.06,2.69-4.62,4a19.16,19.16,0,0,0-4.39,4.53,2.48,2.48,0,0,0-.22,2.28c.79,2.26,1.54,4.53,2.34,6.79a6.92,6.92,0,0,0,.63,1.29c.28.46.56.88.15,1.41a1.82,1.82,0,0,1-2,.73,10.44,10.44,0,0,1-1.72-1.07c-1-.77-2-1.58-3-2.38s-2.23-1.81-3.34-2.73c-1.37-1.14-1.71-1.14-3.14-.17-1.95,1.32-3.95,2.57-5.89,3.9-1.15.78-2.26,1.63-3.36,2.48-.67.52-1,.5-1.4-.26a1.69,1.69,0,0,1-.16-1.59c.6-1.39,1.15-2.81,1.66-4.24.66-1.84,1.21-3.72,1.91-5.55a2,2,0,0,0-.43-2.2,26.92,26.92,0,0,0-3-2.95c-1.68-1.34-3.49-2.52-5.24-3.78-.44-.32-1.07-.58-.84-1.28a1.41,1.41,0,0,1,1.52-.92Zm9.28-4.4a4.29,4.29,0,0,0-1.07,2.86c-.06,4.11-.18,8.22-.23,12.33,0,1.47.09,2.95.16,4.42,0,.39.19.72.67.65a1.79,1.79,0,0,0,1.42-1.89,34.21,34.21,0,0,1-.65-8.33c0-2.79-.06-5.59-.1-8.38C541.54,521.36,541.44,520.9,541.35,520.16Zm5.51,20.25A10.14,10.14,0,0,0,547,539c-.42-5.18-.85-10.35-.84-15.56a21.71,21.71,0,0,0-.43-3.43,4.62,4.62,0,0,0-.43-1l-.3.05c0,.57-.13,1.15-.12,1.72.08,3.51.14,7,.28,10.54.09,2.36.28,4.71.44,7.06A2.28,2.28,0,0,0,546.86,540.41Zm-3.44-24.66c-.87.86-.91,1-.89,2,.09,5.11.16,10.23.27,15.34,0,1.27.21,2.55.33,3.82a2.85,2.85,0,0,0,.23.92c.09.18.33.3.5.44.16-.2.41-.38.46-.6a3.51,3.51,0,0,0,0-1c-.2-3.79-.43-7.58-.57-11.37-.1-2.6,0-5.2-.08-7.79C543.65,517.06,543.53,516.53,543.43,515.75Zm-4.24,16.38c0-1.83,0-3.67,0-5.5,0-.46-.15-.92-.72-.93s-.71.45-.72.91a23.72,23.72,0,0,0,0,2.39,79.51,79.51,0,0,1-.16,11.83,3.21,3.21,0,0,0,0,.71c.09.56.48.8.93.48a2,2,0,0,0,.74-1,2.82,2.82,0,0,0,0-1.42A20.63,20.63,0,0,1,539.18,532.13Zm9.15,7.08.35,0c0-.31.1-.61.12-.92q.16-4.66.31-9.33c0-.68,0-1.36,0-2a1.76,1.76,0,0,0-.82-1.52.53.53,0,0,0-.89.39,5.44,5.44,0,0,0,0,1.19c.16,3,.3,6,.51,9C547.94,537,548.17,538.11,548.33,539.2Zm2-4.66c1-.71,1.08-.8,1.11-1.8.05-1.63.11-3.26.16-4.88a2.41,2.41,0,0,0,0-.83,3.35,3.35,0,0,0-.49-.73,2.91,2.91,0,0,0-.58.64,2.11,2.11,0,0,0-.11.82c-.06,1.79-.13,3.57-.17,5.36C550.2,533.53,550.27,533.95,550.31,534.55Zm-13.91,2.08c-.22.1-.32.11-.35.17-1.18,2-1.05,4.12-.88,6.27,0,.19.26.5.4.5a1,1,0,0,0,.67-.34,1.46,1.46,0,0,0,.21-.79q.07-2.4.09-4.79A6.56,6.56,0,0,0,536.41,536.63Zm16.2-7.26a18.83,18.83,0,0,0,0,2c0,.51.52.62.86.25a2.14,2.14,0,0,0,.36-.61,9.58,9.58,0,0,0,.36-4.12.78.78,0,0,0-.11-.34.63.63,0,0,0-1.14,0,2,2,0,0,0-.21.8C552.69,527.92,552.66,528.56,552.61,529.38Zm-16.34-3.45h-.38a3.5,3.5,0,0,0-.31.83c-.12,1.15-.21,2.29-.26,3.44a4.27,4.27,0,0,0,.15,1.29c.12.44.22,1.08.8,1s.49-.72.48-1.16c0-1.55-.12-3.09-.22-4.64A3.27,3.27,0,0,0,536.27,525.92Zm14.32,10-.24,0a2.51,2.51,0,0,0-.24.74c0,1.64,0,3.27.08,4.91a3.33,3.33,0,0,0,.35,1.14c.07.17.28.29.63.63,0-2.26,0-4.25,0-6.24C551.13,536.72,550.78,536.32,550.59,535.92ZM533.89,526c-.64.95-.63,3.31,0,4C534.41,528.58,534.46,526.76,533.89,526Zm21.74,3.36a1.79,1.79,0,0,0,.3-3A2.52,2.52,0,0,0,555.63,529.33Zm-2.08,16a3.88,3.88,0,0,0-1-3A2.43,2.43,0,0,0,553.55,545.29Zm4.33-17.71a2,2,0,0,0,1.39-.62c.25-.27.52-.54.24-.94a.85.85,0,0,0-1.19,0A1.43,1.43,0,0,0,557.88,527.58Zm-24.61,17.21a.32.32,0,0,0,.39.13.74.74,0,0,0,.22-.91.25.25,0,0,0-.29-.09A.74.74,0,0,0,533.27,544.79Zm-1.83-17.43c0,.73.18,1.33.31,1.34a3.26,3.26,0,0,0,.27-1.31,3.3,3.3,0,0,0-.23-1.5A2.56,2.56,0,0,0,531.44,527.36Zm-1.87-.46c0,.73.17.89.3.9s.26-.3.28-.87-.14-.91-.25-.93S529.57,526.15,529.57,526.9Z" transform="translate(-495.28 -482.37)"/><path d="M545.15,498.2a16.68,16.68,0,0,1-.08,3.91,5.75,5.75,0,0,1-3.42,5.09,5.15,5.15,0,0,1-5.62-.87,7.31,7.31,0,0,1-2.89-5.44q-.22-3.4-.42-6.8c0-.69.18-.95.84-1.09a2.43,2.43,0,0,1,.36,0c2.72-.17,2.54.47,2.52,2.3,0,1.52,0,3,.16,4.55a7.53,7.53,0,0,0,.63,2.29,2.66,2.66,0,0,0,2.33,1.46,1.75,1.75,0,0,0,1.82-1.27,12,12,0,0,0,.44-2.58c.09-1.51.1-3,.11-4.55a7.9,7.9,0,0,0-.21-1.29,1,1,0,0,1,.76-1.27l.23,0c1.78-.36,2.11-.2,2.12,1.61C545,495.47,545.05,496.8,545.15,498.2ZM544,494.79c-.06-.76-.31-1.2-.55-1.2-.52,0-.57.54-.57,1.07,0,.86.11,2.29.11,2.75,0,1.68.2,3.38-.39,5a3.36,3.36,0,0,1-2.87,2.37,4,4,0,0,1-3.49-2,6.73,6.73,0,0,1-.71-2.51c-.17-1.62-.2-3.26-.29-4.9,0-.2-.1-1.07-.48-1.07-.59,0-.84.32-.84,1.57a38.59,38.59,0,0,0,.36,5.48,6,6,0,0,0,3.66,4.7c2.86,1.17,5.67-.86,6.06-4.13a22.73,22.73,0,0,0,.16-3.42C544.19,497.69,544.14,496,544,494.79Z" transform="translate(-495.28 -482.37)"/><path d="M511.14,509.53c.38-.05.62.24.85.39s.47.44.73.62c1.08.78,1.23.84.31,2.34-.25.41-.54.79-.76,1.22a1,1,0,0,0,.46,1.52,1.06,1.06,0,0,0,1.57-.32c.39-.6.72-1.25,1.09-1.86.57-.94,1.21-1,2.33-.36a1.29,1.29,0,0,1,.49,2.1c-.3.47-.65.92-.91,1.41-.46.85-.22,1.43.78,2.05.8.5,1.25.43,1.78-.44a27.76,27.76,0,0,0,1.31-2.55c.45-.93.9-1.09,1.79-.56a2.89,2.89,0,0,1,.57.43c1,1,1.45,1.13.42,2.57s-1.92,2.94-2.89,4.4a3.7,3.7,0,0,1-.76.76c-.8.65-1.07.64-1.92.13-1.51-.9-3-1.76-4.55-2.64-1.76-1-3.53-2-5.26-3.1-1.28-.79-1.52-1.57-.82-2.91.79-1.52,1.66-3,2.55-4.47A1.39,1.39,0,0,1,511.14,509.53Zm5.54,4.76c-.56-.13-.76.58-1,1-.34.59-.61,1.22-1,1.77a1.08,1.08,0,0,1-1.65.32l-2.26-1.55c-.56-.39-.64-.75-.27-1.31.15-.23.38-.41.53-.65a15.72,15.72,0,0,0,1-1.75.76.76,0,0,0-.2-.71.94.94,0,0,0-.75.07,1.34,1.34,0,0,0-.47.52c-.5.81-1,1.63-1.48,2.46-.68,1.22-.51,1.83.73,2.55q4.24,2.47,8.5,4.9c.81.46,1.11.41,1.74-.35s1.3-1.61,1.9-2.46a10.91,10.91,0,0,0,1-1.77.72.72,0,0,0-.16-.7c-.76-.38-1,.48-1.14.69-.31.6-.62,1.21-.92,1.82A1.78,1.78,0,0,1,518,520c-.62-.36-1.2-.78-1.82-1.14-1-.6-1.16-1.16-.48-2.12.37-.52.75-1,1.08-1.58C517,514.89,517.18,514.4,516.68,514.29Z" transform="translate(-495.28 -482.37)"/><path d="M518.5,505.61a8.93,8.93,0,0,1,1.54-5.53,5.17,5.17,0,0,1,1.07-1.27,19.63,19.63,0,0,1,2.8-1.85,1.2,1.2,0,0,1,1.84.47c.11.17.19.35.29.53.86,1.47.79,1.8-.8,2.51a5.22,5.22,0,0,0-3.21,3.76,3.79,3.79,0,0,0,1.14,3.94,4.49,4.49,0,0,0,4.34,1.12,3.65,3.65,0,0,0,2-1.65c.27-.4.47-.84.74-1.24a.89.89,0,0,1,1.43-.3,14.91,14.91,0,0,1,1.59,1.28.79.79,0,0,1,0,1.34,22.58,22.58,0,0,1-3.74,3.34,6.9,6.9,0,0,1-8.8-.92A7.48,7.48,0,0,1,518.5,505.61Zm1.1.7c.41,3.53,2.32,4.95,4.54,5.53a6.35,6.35,0,0,0,7.27-3.11.94.94,0,0,0,0-.85c-.27-.31-.57,0-.79.21a3.73,3.73,0,0,0-.28.39,4.48,4.48,0,0,1-5.11,2,5.28,5.28,0,0,1-4.06-3,6.05,6.05,0,0,1,2.37-7.33,4,4,0,0,0,1-.67.92.92,0,0,0,.15-.84.84.84,0,0,0-.8-.21,6.4,6.4,0,0,0-3.07,2.36A7.76,7.76,0,0,0,519.6,506.31Z" transform="translate(-495.28 -482.37)"/><path d="M504.8,527.95a23.67,23.67,0,0,1,.42-3.08c.2-1.11.66-1.27,1.69-.73.32.17.65.29,1,.43a1.32,1.32,0,0,1,.87,1.9,7,7,0,0,0-.31,1,1.06,1.06,0,0,0,.57,1.21,1,1,0,0,0,1.23-.45c.42-.59.75-1.23,1.2-1.79a9.67,9.67,0,0,1,1.73-1.79,3.71,3.71,0,0,1,4.58-.13c1.75,1.17,3,2.65,2.93,4.89a5.85,5.85,0,0,1-1.45,3.72,1.81,1.81,0,0,1-2.17.52,1.4,1.4,0,0,1-.88-2.18,4.71,4.71,0,0,0,.6-2.53c-.09-1.22-1-1.68-2-1a5.13,5.13,0,0,0-1.07,1.11c-.61.79-1.16,1.63-1.78,2.41a4.2,4.2,0,0,1-4.09,1.45,3.07,3.07,0,0,1-2.23-1.66A6,6,0,0,1,504.8,527.95Zm1.12,0a5.61,5.61,0,0,0,.38,2c1,2.47,2.87,2.36,4.48,1.1a3.75,3.75,0,0,0,.61-.74c.6-.8,1.16-1.63,1.8-2.39a4.38,4.38,0,0,1,1.37-1.12c1.77-.84,3.25.06,3.3,2,0,.79-.17,1.58-.22,2.37,0,.29-.14.77.14.87,1,.38,1.12-.54,1.19-.68a4.35,4.35,0,0,0-2.47-6.16,2.22,2.22,0,0,0-1.74,0,5,5,0,0,0-2.5,2.13,11.34,11.34,0,0,1-1.54,2.11,1.83,1.83,0,0,1-3-.22,2.46,2.46,0,0,1-.52-1.91,3.13,3.13,0,0,0,.08-.95c0-.23-.25-.57-.43-.6s-.52.07-.66.55A5.22,5.22,0,0,0,505.92,528Z" transform="translate(-495.28 -482.37)"/><path d="M555.67,509.74c-.2,0-.4,0-.6,0-1-.1-1.33-.41-1.26-1.47.06-.84.22-1.66.32-2.5a12.74,12.74,0,0,0,.09-1.44c0-.49-.06-1-.64-1.16s-.88.27-1.12.71c-.34.64-.65,1.28-1,1.92a1.61,1.61,0,0,1-2.17.92c-1.1-.39-1.39-1-.91-2.15,1-2.34,2.06-4.68,3.1-7,.41-.91.81-1.83,1.26-2.72a6,6,0,0,1,.76-1.07.93.93,0,0,1,1.29-.25,43.78,43.78,0,0,1,3.8,2.27,4.44,4.44,0,0,1,2,3,3.89,3.89,0,0,1-1.76,3.83,3.34,3.34,0,0,0-1.65,3.21c.07.95,0,1.91.07,2.86,0,.64-.1.88-.75,1a7.09,7.09,0,0,1-.84,0Zm-.37-7c.31.66-.07,3.65-.15,4.85,0,.14.06.45.24.47a.35.35,0,0,0,.4-.21,21.2,21.2,0,0,0,.47-3.76,2.27,2.27,0,0,1,1.17-1.94c2.34-1,2.71-3.4.77-5a20.73,20.73,0,0,0-3.1-2c-.65-.37-1-.23-1.35.48s-.79,1.57-1.15,2.37q-1.33,3-2.62,6c-.14.34-.55,1,0,1.15s.82-.65,1.1-1.11c.41-.68.78-1.4,1.25-2s.87-.68,1.55-.3S555,502.11,555.29,502.69Z" transform="translate(-495.28 -482.37)"/><path d="M565.64,519.41c-1,.46-1.47-.56-1.76-1-.62-.9-.95-1.35,0-2,1.62-1.08,3.29-2.1,4.95-3.13.78-.49,1.58-.93,2.34-1.44s.73-.75.26-1.48a6.45,6.45,0,0,0-.45-.56c-.57-.69-.61-1-.08-1.67a9.46,9.46,0,0,1,1.23-1.3c.62-.56,1.14-.49,1.59.2.57.87,1.09,1.76,1.63,2.65,1.1,1.8,2.19,3.61,3.29,5.41.48.79.35,1.22-.52,1.55-1.73.66-1.73.66-2.94-.84s-1.33-1.53-2.92-.54c-1.93,1.2-3.83,2.45-5.74,3.67A6.51,6.51,0,0,1,565.64,519.41ZM577.06,516c.58-.28-.23-1.29-.42-1.62-.75-1.32-1.49-2.64-2.27-3.95a17,17,0,0,0-1.16-1.67c-.23-.3-.57-.51-.93-.2a.68.68,0,0,0-.06,1c.2.3.45.56.65.86a1.34,1.34,0,0,1-.42,2.14c-1,.58-2,1.09-2.91,1.68q-2.14,1.32-4.22,2.73c-.18.12-.42.48-.3.7s.52.16.74.1a3.31,3.31,0,0,0,.85-.43c2-1.17,4-2.36,6-3.53,1.44-.84,2.07-.68,3,.67C575.9,514.87,576.53,516.26,577.06,516Z" transform="translate(-495.28 -482.37)"/><path d="M565.58,527.88a.91.91,0,0,1,.78-1,5.87,5.87,0,0,1,1-.06,21.45,21.45,0,0,0,5.54-.87,9.45,9.45,0,0,0,3.06-1.59c.86-.64,1.74-1.27,2.66-1.83s1.44-.45,1.84.06a1.93,1.93,0,0,1,0,2.51c-.71.7-1.44,1.37-2.2,2s-.92,1.18.07,1.82a3.27,3.27,0,0,1,1.8,3c0,1.18-.56,1.55-1.59,1-.81-.43-1.57-.94-2.36-1.41s-1.5-.92-2.27-1.31a2,2,0,0,0-1-.19c-1.59.11-3.17.28-4.76.4A2.66,2.66,0,0,1,565.58,527.88Zm13.6-3.73-.26-.28a3.54,3.54,0,0,0-.83.32c-1.17.83-2.31,1.71-3.48,2.54a3,3,0,0,1-1.24.62c-1.53.2-3.08.29-4.62.43a3.29,3.29,0,0,0-.7.12c-.4.13-.77.34-.66.84s.5.47.87.45c.92,0,1.83-.12,2.75-.18a8.11,8.11,0,0,1,5.36,1.19c.46.32.92.63,1.41.9a4.19,4.19,0,0,0,.82.26l.18-.23c-.15-.24-.25-.54-.47-.69a15.12,15.12,0,0,0-2-1.25c-1.1-.53-1.19-1.18-.2-1.93.19-.14.4-.26.59-.42.64-.54,1.3-1.06,1.89-1.65A4.83,4.83,0,0,0,579.19,524.15Z" transform="translate(-495.28 -482.37)"/><path d="M566.49,501c.06,0,.11,0,.14,0,.88.74,1.36,1,2.17,1.83a.85.85,0,0,1-.21,1.23c-1.53,1.44-2.55,3-4,4.42-1.26,1.22-2.39,2.58-3.61,3.84a1.42,1.42,0,0,1-2.14.19c-1.32-.88-1.46-1.66-.4-2.84,1.36-1.51,2.8-3,4.16-4.47,1-1.1,1.89-2.26,2.81-3.41C565.72,501.46,565.94,501,566.49,501Zm-7.21,9.89a.4.4,0,0,0,.29.32c.36.08.73-.24,1-.47a16.79,16.79,0,0,0,1.76-1.61c1.46-1.57,2.91-3.16,4.32-4.78.31-.36.81-.91.22-1.34s-.92.2-1.26.58c-.74.83-1.47,1.67-2.22,2.49-1.16,1.26-2.35,2.49-3.5,3.76C559.63,510.17,559.23,510.52,559.28,510.93Z" transform="translate(-495.28 -482.37)"/><path d="M557.57,499.12A2.15,2.15,0,0,1,556,501.3a2.66,2.66,0,0,1-2.48-1.11,1.87,1.87,0,0,1-.11-1.35,11,11,0,0,1,1.13-2.1c.33-.52.87-.49,1.4-.29A2.52,2.52,0,0,1,557.57,499.12Zm-2.14.8a.89.89,0,0,0,.91-.89c0-.57-.3-1.06-.72-1s-.8.49-.86,1A.77.77,0,0,0,555.43,499.92Z" transform="translate(-495.28 -482.37)"/></svg>