<?xml version="1.0" encoding="utf-8"?>
<!-- Generator: Adobe Illustrator 21.1.0, SVG Export Plug-In . SVG Version: 6.00 Build 0)  -->
<svg version="1.1" id="Calque_1" xmlns="http://www.w3.org/2000/svg" xmlns:xlink="http://www.w3.org/1999/xlink" x="0px" y="0px"
	 viewBox="0 0 100.3 187.9" style="enable-background:new 0 0 100.3 187.9;" xml:space="preserve">
<style type="text/css">
	.st0{fill:#FFFFFF;}
</style>
<title>tie</title>
<path d="M50,0c6,0.2,11.9,0.6,17.7,2.2c5.2,1.5,10.5,2.5,15.6,4c2.8,0.9,5.6,2.1,8.2,3.5c2.9,1.5,4.9,4.1,7.1,6.5
	c1.4,1.7,2,3.9,1.7,6.1c-0.1,1.4-0.4,2.9-0.7,4.3c-0.2,0.7-0.5,1.3-1,1.9c-3.6,3.5-7.8,6.4-12.5,8.5c-3.8,1.7-7.8,3.1-11.8,4
	c-1.7,0.4-2.4,1.3-2.9,3c-0.7,2.2-1.7,4.3-3,6.2c-2.2,3.3-4.5,6.4-7,9.5c-1.3,1.3-1.8,3.2-1.5,5c0.8,4.8,1.5,9.7,2.3,14.5
	c1.3,8.5,2.7,17,4.1,25.4c1.5,9,3,17.9,4.5,26.8c1.6,9.7,3,19.3,4.5,29c0.2,2.1,0.3,4.2,0.2,6.2c0,2.1-1.5,3.5-2.8,4.9
	c-3.6,4.1-7.4,8-11.1,12.1c-0.5,0.6-1.2,1.1-1.7,1.7c-1.8,2.3-4.4,2.4-7,2.4c-0.9-0.1-1.7-0.4-2.3-1c-4.3-3.3-8.6-6.7-12.8-10.2
	c-2.4-1.9-3.1-2.1-5.8-0.6c-1.5,0.8-3,1.6-4.5,2.4c-2.1,1-3,0.8-4-1.4c-1.4-3-2.9-5.9-4-9c-0.4-1.4-0.5-2.8-0.3-4.2
	c0.3-2,1.1-4,1.5-6.1c1.6-8.5,3.2-17,4.7-25.6c1.8-9.9,3.6-19.7,5.3-29.6c1.3-7.1,2.4-14.2,3.7-21.4c0.7-4.1,1.6-8.2,2.3-12.3
	c0.4-2,0.6-4,0.9-6c0.3-1.7-0.6-3.1-1.5-4.5c-2.3-3.8-4.6-7.5-6.8-11.3c-0.7-1.3-1.2-2.6-1.6-4c-0.2-1-1.1-1.8-2.1-1.9
	c-2.2-0.4-4.4-1-6.5-1.8c-6.1-2.5-11.9-5.6-16.7-10.3c-0.5-0.4-0.9-0.9-1.2-1.5c-1.4-3.8-1.9-9.3,2-13.4c5-5.2,11.3-7.6,17.8-9.4
	c5.2-1.5,10.4-2.7,15.7-3.6C41,0.5,45.5,0.4,50,0z M64,28.3c2.1,3.4,3.9,6.4,5.8,9.3c0.7,1.2,2.1,1.7,3.4,1.2
	c7.8-2,15.2-4.7,21.4-10c1.1-0.8,1.8-2,2-3.4c0.1-1,0.5-1.9,0.5-2.8c0.1-1,0-2.1-0.3-3c-1.3-3.9-4.3-7.1-8.2-8.7
	c-3.3-1.5-6.7-2.7-10.1-3.8c-5.4-1.6-10.9-2.6-16.5-3c-9.5-0.7-19-0.6-28.4,0.4c-7.5,0.9-14.8,3-21.7,6.1c-2.5,1-4.8,2.7-6.4,4.9
	c-1.2,1.5-2,3.3-2.5,5.1c-0.5,2.2,0.2,4.6,2,6.1c6.2,6,13.6,9.5,21.7,11.9c0.9,0.3,2,0,2.5-0.9c1.9-2.6,3.9-5.1,5.8-7.7
	c1-1.4,0.6-2.1-1.2-2.4c-1.2-0.2-2.4-0.3-3.6-0.6c-3-0.8-6-1.9-9-2.6c-2.9-0.6-5.7-1.6-8.3-2.9c-0.9-0.4-1.7-0.9-2.5-1.5
	c-1-0.8-1.2-1.8-0.6-2.5c0.7-0.9,1.5-0.6,2.4-0.2s1.9,1,2.8,1.5c1.1,0.7,2.6,0.5,3.5-0.6c2.5-2.4,5.7-4,9.1-4.6
	c9.4-2,19-2.5,28.6-1.7c5.1,0.5,10.3,0.7,15.3,2c3.8,0.9,7.7,1.7,10.7,4.6c0.7,0.8,1.9,1,2.9,0.4c1.1-0.5,2.1-1.1,3.2-1.7
	c0.7-0.5,1.7-0.4,2.2,0.3c0.5,0.7,0.4,1.7-0.3,2.2l0,0c-0.8,0.7-1.7,1.2-2.6,1.7c-2.7,1.3-5.6,2.4-8.5,3.1
	c-4.3,1.2-8.4,2.7-12.8,3.1C65.3,27.8,64.7,28,64,28.3L64,28.3z M34.3,143.1c-0.1,1.8,0.4,2.9,2.5,4.2c2.9,2,5.8,4,8.7,6
	c7.4,5.2,14.5,10.8,22.7,14.9c1.8,0.9,3.1,0.5,3.8-1.4c0.3-0.8,0.3-1.7,0.2-2.6c-0.6-4.1-1.3-8.2-2-12.4c-0.2-1.5-1.2-2.7-2.6-3.2
	c-4-1.8-8.1-3.5-12-5.5c-5.9-2.8-11.6-6.2-16.9-10.1c-2.3-1.7-3.2-1.3-3.5,1.6S34.5,140.2,34.3,143.1z M67.8,136.8
	c-0.8-5.1-1.7-10.5-2.6-15.9c-0.2-0.7-0.7-1.2-1.4-1.5c-2.1-1-4.3-1.7-6.4-2.7c-5.8-2.7-11.4-5.9-16.6-9.6c-1.7-1.2-2.4-1-2.8,1
	c-0.1,0.3-0.1,0.6-0.1,1c-0.4,3.7-0.8,7.3-1.2,11c-0.2,1.1,0.3,2.3,1.3,2.9c5.3,4,10.7,7.9,16.8,10.8c3.5,1.7,7.2,3.1,10.8,4.6
	C67.1,139,67.8,138.5,67.8,136.8z M39.7,15.6c-4.8,0-9.6,0.7-14.2,2.2c-1.3,0.5-2.6,1.2-3.7,2.1c-0.9,0.7-0.7,1.5,0.2,2.2
	c0.3,0.2,0.7,0.4,1.1,0.5c3.5,1.4,7.2,2.3,10.9,2.8c2.9,0.4,5.8,0.4,8.6,0c4.3-0.6,8.7-0.6,13,0.1c2,0.4,4,0.6,6,0.5
	c4.9-0.6,9.9-1,14.6-3c1-0.4,2.7-0.4,2.4-1.8c-0.1-0.8-1.5-1.6-2.5-1.9c-2.3-0.9-4.6-1.6-6.9-2.1c-2.5-0.6-5-1-7.6-1.3
	c-3.3-0.3-6.6-0.5-9.8-0.5c-2.9-0.1-5.8,0-8.7,0C41.9,15.3,40.8,15.5,39.7,15.6z M31.6,165.6c-0.2,1,0.3,2,1.2,2.4
	c1,0.6,1.8,1.3,2.6,2.1c4,4.3,8.8,7.7,13.5,11.1c1.2,0.8,2.4,1.6,3.6,2.3c0.9,0.7,2.2,0.7,3.1-0.1c2.5-2.3,5-4.7,7.5-7.2
	c0.9-0.9,0.8-1.8-0.1-2.8c-0.4-0.4-0.9-0.7-1.3-1c-5.2-3.5-10.4-7-15.6-10.5c-3.5-2.3-7-4.6-10.5-6.8c-1.7-1.1-2.5-0.7-2.8,1.2
	C32.3,159.6,32,162.6,31.6,165.6L31.6,165.6z M36.3,35.9c-0.6,0.2-1.2,0.6-1.8,1c-1.1,1.2-2,2.5-2.8,3.9c-0.7,1.3-0.7,2.9,0,4.2
	c2.4,4.1,4.8,8.2,7.2,12.2c0.5,1.1,1.8,1.5,2.9,1c1.4-0.5,2.9-1,4.4-1.4c2.6-0.8,5.4-0.7,8,0.3c3,1.3,3,1.2,5.2-1.1
	c1.8-1.8,1.9-2.5,0.4-4.6c-2.4-3.2-5.2-6.1-8.5-8.4c-3.7-2.8-8-4.5-12.2-6.2C38.3,36.4,37.3,36.2,36.3,35.9L36.3,35.9z M37.3,82.5
	h-0.6c-0.2,0.3-0.3,0.6-0.4,0.9c-0.6,2.9-1.2,5.8-1.7,8.7c-1.7,9.6-3.4,19.3-5.1,28.9c-0.6,3.3-1.2,6.6-1.8,9.9
	c-0.8,4.2-1.5,8.4-2.3,12.5c-1,6.6-2.3,13.1-4,19.6c-0.4,1.1-0.5,2.4-0.2,3.5c1,2.8,2.2,5.5,3.5,8.2c0.6,1.2,1.3,1.4,2.6,0.9
	c1.1-0.5,2.2-1,3.3-1.6c1.7-0.9,2-1.4,0.8-3c-2.6-3.2-3-6.5-2.4-10.5c1.5-10.3,2.3-20.7,3.5-31.1c1.6-14.9,3.3-29.8,4.9-44.7
	C37.3,84,37.3,83.3,37.3,82.5L37.3,82.5z M63.3,109.4c-0.5-2.8-0.9-5.7-1.4-8.6c-0.2-1.1-1-1.9-2.1-2c-1.1-0.2-2.2-0.5-3.2-1
	c-4.5-2.3-8.9-4.8-13.3-7.2c-0.4-0.2-0.8-0.6-1.2-0.8c-0.6-0.4-1.3-0.2-1.7,0.4c0,0.1-0.1,0.1-0.1,0.2c-1.8,3.2-0.9,7.1,2.1,9.3
	c1,0.7,2,1.3,3,2c4.9,3.9,10.5,6.3,16,9.1C62.8,111.6,63.4,111.1,63.3,109.4L63.3,109.4z M59.9,87.8c-0.5-2.9-1.1-6.5-1.8-10
	c-0.2-0.7-1-1.4-1.7-1.8c-1.3-0.8-2.8-1.2-4.1-1.9c-2.4-1.3-4.8-2.6-7.2-3.9c-2-1-2.6-0.8-2.8,1.4c-0.2,1.7-0.2,3.4-0.5,5
	C41,78.9,42,81.3,44,82.5c0.7,0.5,1.5,1,2.2,1.4c2.1,1.2,4.2,2.4,6.3,3.5c1.7,0.9,3.4,1.8,5.2,2.5C59.2,90.6,59.9,90,59.9,87.8
	L59.9,87.8z M69,144.6c0-2.5-0.7-3.4-3.1-3.8c-0.5-0.1-0.9-0.2-1.4-0.4c-8-2.7-15.5-6.6-22.3-11.6c-1.3-1-2.6-1.9-4-2.8
	c-0.5-0.3-1.4-0.5-1.7-0.2c-0.4,0.5-0.5,1.1-0.3,1.7c0.5,0.9,1.1,1.7,1.9,2.3c5.9,4.4,12.3,8.2,18.9,11.4c3.2,1.5,6.4,3,9.6,4.4
	C68.2,146.5,69,146,69,144.6L69,144.6z M45.7,28.9l-0.1,0.6c0.7,0.4,1.3,0.7,2,1c1.9,0.8,3.8,1.8,5.5,2.9c4.3,3.2,8.7,6.3,12,10.7
	c0.1,0.2,0.3,0.4,0.5,0.5c1,0.9,1.8,0.7,2.1-0.6c0.2-0.8,0.2-1.7,0-2.6c-1.2-3.9-3.4-7.5-6.4-10.3c-0.8-0.8-1.8-1.4-2.9-1.6
	c-3.6-0.5-7.2-0.8-10.7-1.1C46.9,28.5,46.3,28.6,45.7,28.9z M40.4,30.9c-0.3,0-0.6,0.1-0.9,0.1c-0.9,0.3-1.9,0.7-2,1.8
	s1,1.3,1.8,1.6c2.6,1.1,5.2,2.2,7.7,3.3c4.5,2.1,8.5,5.1,11.8,8.9c1.1,1.2,2,2.5,3,3.7c0.3,0.4,1.1,0.7,1.4,0.5
	c0.5-0.3,0.8-0.9,0.9-1.5c0-0.6-0.1-1.3-0.5-1.8c-0.8-1.5-1.7-2.9-2.8-4.1c-2.8-2.6-5.7-5.1-8.7-7.6c-3.2-2.8-7.4-3.4-11.2-4.9
	C40.9,30.9,40.7,30.9,40.4,30.9L40.4,30.9z M67.4,170.9c-0.4-0.4-0.9-0.9-1.4-1.2c-3.1-1.8-6.3-3.5-9.3-5.5
	c-6.8-4.6-13.5-9.3-20.2-14c-0.5-0.4-1.1-0.7-1.6-1c-0.8-0.3-1.6,0.3-1.2,1.1c0.4,0.9,1,1.6,1.7,2.2c2,1.4,4.1,2.6,6.1,3.9
	c7.6,5,15.3,10.1,22.9,15.2c0.5,0.4,1.1,0.6,1.7,0.8C66.9,172.5,67.3,172,67.4,170.9L67.4,170.9z M50.2,58.2c-1.7,0.4-3.1,0.7-4.5,1
	c-0.9,0.2-1.8,0.5-1.8,1.6c0,1,0.5,1.9,1.5,2.3c0.9,0.5,1.9,0.9,2.9,1.3c2.1,0.9,4.1,1.9,6.2,2.7c1.4,0.5,2.1,0.1,2-1.4
	c-0.1-1.5-0.4-3-0.7-4.5c-0.2-0.6-0.5-1.1-1.1-1.5C53.1,59.1,51.5,58.7,50.2,58.2z M42.1,84.2c-1,0-1.5,0.6-1.1,1.3
	c0.4,0.6,0.8,1.2,1.4,1.6c4.3,3.2,8.9,5.9,13.9,8.1c0.9,0.5,1.9,0.8,2.9,1.1c0.5,0.1,1.1-0.1,1.5-0.4c0.2-0.5,0.2-1.1-0.1-1.5
	c-0.7-0.7-1.4-1.2-2.3-1.6c-2.2-1-4.4-1.9-6.5-3c-2.8-1.5-5.4-3.1-8.1-4.7C43.1,84.7,42.5,84.4,42.1,84.2L42.1,84.2z M63,116.1
	l0.2-0.5c-0.1-0.2-0.2-0.4-0.4-0.5c-3.4-1.7-6.9-3.1-10-5.5c-3.5-2.8-7.4-5-11.2-7.5c-0.6-0.3-1.2-0.5-1.8-0.7
	c-0.5,0.6-0.5,1.5,0.1,2c0.1,0.1,0.1,0.1,0.2,0.2c0.8,0.8,1.7,1.5,2.6,2.2c4.8,3.6,10.2,6.3,15.6,9C59.8,115.2,61.4,115.7,63,116.1
	L63,116.1z M44.2,65.7l-0.3,0.6c0.5,0.6,1.2,1.2,1.8,1.6c3.1,1.7,6.2,3.3,9.3,4.9c0.1,0.1,0.3,0.2,0.4,0.2c0.5,0,1.2,0.1,1.3-0.1
	c0.2-0.5,0.2-1,0-1.5c-0.3-0.5-0.8-1-1.4-1.3c-3.2-1.5-6.4-2.9-9.6-4.3C45.3,65.8,44.7,65.7,44.2,65.7L44.2,65.7z"/>
<path class="st0" d="M39.7,15.6c1.1-0.1,2.2-0.3,3.3-0.3c2.9-0.1,5.8-0.1,8.7,0c3.3,0.1,6.6,0.2,9.8,0.5c2.5,0.3,5.1,0.7,7.6,1.3
	c2.3,0.5,4.6,1.2,6.9,2.1c1,0.4,2.3,1.1,2.5,1.9c0.2,1.4-1.4,1.4-2.4,1.8c-4.6,2-9.6,2.5-14.6,3c-2,0.1-4-0.1-6-0.5
	c-4.3-0.7-8.7-0.7-13-0.1c-2.9,0.4-5.8,0.4-8.6,0c-3.7-0.5-7.4-1.4-10.9-2.8c-0.4-0.1-0.7-0.3-1.1-0.5c-0.9-0.6-1.1-1.5-0.2-2.2
	c1.1-0.9,2.4-1.6,3.7-2.1C30,16.2,34.8,15.5,39.7,15.6z"/>
</svg>
