<svg id="Calque_1" data-name="Calque 1" xmlns="http://www.w3.org/2000/svg" viewBox="0 0 324.31 185.32"><title>truck</title><path d="M324.31,72.9h-3c.22-11.23.46-29-.12-30.23-.81-1.69-3.07-1.61-3.56-1.57l-41-.86c-2.46-13-6.55-34-7.46-35.13-1.17-1.49-3.71-1.62-3.93-1.63L232.3.08C229-.31,181.69.82,172.9,1.2s-48.83,3.35-49.17,3.37a10.31,10.31,0,0,0-4.58,1.21,8.5,8.5,0,0,0-3.25,3.86L97.17,45.31c-7.53.86-79.72,9.16-83.76,10.13a8.49,8.49,0,0,0-6,5.2l0,.27c0,.76-.75,18.75-.37,24.85.32,5.26,1.85,19.18,2.27,23L0,110.09l.07.92c.09,1.27.94,12.45,2.65,15.2s8.21,4.42,10,4.86l2.14,3,.39.08,14.82,2.94c1.16,3.56,8.3,20.91,36.46,20.91,1,0,2,0,3-.07h.1a21.74,21.74,0,0,0,2.56-.16h.09c7.8-1.11,13.19-7.6,14.64-9.54,25.64,5,49,9.33,52.1,9.44,2.33.08,5.09.11,7.75.11l4.36,0A49.26,49.26,0,0,0,155,170a25.06,25.06,0,0,0,9.48,10.16l.15.08,25.9,4.32a14.92,14.92,0,0,0,4.93.81c12.31,0,23.27-18.39,26.66-44.72.35-2.73.57-5.38.69-8h1.84l-.14.57,4.76-1.7,1.26-2.65,45.23-18.93c.43,3.35,1.9,11.37,6.12,12.61,5,1.48,12.59,1.7,16.67,1.7,1.55,0,2.59,0,2.81,0h.14c2.49,0,4.79-2.79,6.69-8.09a71.6,71.6,0,0,0,3.45-18.87c.06-1,.1-2,.13-2.94l8.6-7.09-.08-3.38,4-2.91Zm-17.74-30-29.22,2.77-.41-3.39ZM8.94,85.64c-.13-2.08-.12-5.65-.06-9.44.21,5.3.51,11.85.8,18C9.35,90.75,9.06,87.59,8.94,85.64ZM25.68,105.2l.14-11.88L11.57,91.8l-.08-1.74,14.62,1.26.7-22.85L10.62,67.33l.12,5.51c-.14-3.71-.2-6.26-.16-6.89A3.81,3.81,0,0,1,12,65.2a14.76,14.76,0,0,1,6-.83l129.83,7.41A1.25,1.25,0,0,1,149,73.07l-1.81,55.69L12.44,109.37c-.11-2.08-.22-4.27-.33-6.53ZM13.57,94l10.24,1.09-.09,7.71-9.87-1.72Zm-.89-24.55,12.08.86-.57,18.81-11.09-1Zm19.64,68.09,16.75,3.3c.81,2.31,4.23,10.85,11.8,14.92C40.33,153.93,34,141.91,32.32,137.57ZM72,155.81c-.86.07-1.7.11-2.52.14-11.38-.07-16.57-10.54-18.17-14.64,10.44,2.05,22.07,4.33,33.37,6.51C82.82,150.13,78.19,154.93,72,155.81Zm84.77,13.25a47.25,47.25,0,0,1-3.64-11.3l3.84-.07c.18,0,2.32-.25,20.78-4.52l.25-.06c-.11,10.68,1.38,21.52,6.8,27.56.33.37.67.71,1,1l-20.54-3.42A23.5,23.5,0,0,1,156.82,169.06ZM188,95.81,198.65,97c-9.12,4.35-16.39,18.84-19.28,39C181.22,111.13,185.26,100.36,188,95.81Zm32.19,44.53c-3.25,25.26-13.36,42.91-24.61,43l-4.45-.74a11.66,11.66,0,0,1-4.78-3.24c-5.58-6.21-7.54-20-5.51-38.75,2.77-25.69,12.28-43,23.67-43a12,12,0,0,1,9.25,4.46C219.93,109.13,222.33,123.44,220.16,140.35Zm-4.92-39.58a14.13,14.13,0,0,0-10.65-5.14h0l-15.33-1.69a5.13,5.13,0,0,1,1.4-1.31c.26-.1,25.88-9.5,34.6-3.73,6.94,4.59,2.42,31-.11,41.73H222.9C223.21,117.56,220.51,106.77,215.24,100.77Zm62.46,8.35,16.13-6.75.38-.16a63.16,63.16,0,0,0,1.28,13.1,18.53,18.53,0,0,0,2.73,6.91c-4.06,0-11.14-.26-15.74-1.61C279.8,119.83,278.18,113.43,277.7,109.12Zm31.54-11.39a31.29,31.29,0,0,1-2.14,10.08c-1,2.23-2.14,3.57-3.07,3.52-1.82-.11-4-5.55-3.5-14.14s3.33-13.61,5.15-13.61h.06C307.56,83.7,309.77,89.13,309.24,97.73Zm1.33-19.64c-1.26-5.65-3.28-8.71-5.85-8.87a3.56,3.56,0,0,0-2.07.55A15.71,15.71,0,0,1,304,68.42c2.37-2,7.58-1.61,8.87-.51,1.11,1,1.12,2.5,1,6.23,0,.57,0,1.18,0,1.83-.05,3-1.23,8.77-2.1,12.7A59.09,59.09,0,0,0,310.57,78.09Zm-9.12,44.11c-1.17-.07-2.84-2-4-7.31a69.62,69.62,0,0,1-1.06-18.59c1-15.65,5.37-25.08,8.15-25.08h.07c1.17.07,2.84,2,4,7.31a50.25,50.25,0,0,1,1,6.46c-.89-2-2.12-3.3-3.7-3.4-4.13-.27-6.85,7.79-7.33,15.48s1.25,16,5.37,16.26h.19c1,0,2.27-.48,3.55-2.33-.39,1.58-.83,3.08-1.31,4.43C304.52,120.52,302.62,122.24,301.45,122.19ZM322.31,79.9l-4,2.93.08,3.45-4.91,4c.9-3.92,2.36-10.81,2.42-14.32,0-.65,0-1.25,0-1.81.1-3.86.16-6.19-1.72-7.8-2.23-1.91-8.53-2-11.46.49a16.56,16.56,0,0,0-5.8,10c-.45,3.34-3.76,20.55-4.39,23.79L229.08,127.3l-1.24,2.6-.51.18c1.86-8.18,7.72-37.09-1-42.84-9.56-6.33-35.31,3.12-36.4,3.52-.48.18-11.72,5-13.38,60.64-17.49,4-19.66,4.3-19.67,4.3s-10.93.25-17.82,0c-4.68-.17-60.22-11-95.2-17.88l29.24,5.55V122.82l-29.67-4v18.88c-14.43-2.84-25.28-5-27.46-5.44l-2.12-3-.37-.09c-3-.69-8.1-2.4-9.12-4.05s-1.9-8.71-2.28-13.37l8.36-1.24,0,.56L148,130.89l1.11.16L151,73.14a3.23,3.23,0,0,0-3.07-3.35L18.1,62.38h0a16.64,16.64,0,0,0-6.77.95,5.86,5.86,0,0,0-2.14,1.21c.06-1.72.11-3,.12-3.39a6.55,6.55,0,0,1,4.57-3.77c4.06-1,83.25-10.05,84-10.15l.53-.06L117.7,10.54l0-.1a6.62,6.62,0,0,1,2.39-2.91,8.45,8.45,0,0,1,3.67-1c.4,0,40.54-3,49.18-3.37,9.41-.4,56-1.48,59.1-1.13l33,3.42a4.2,4.2,0,0,1,2.46.82c.79,1.83,4.85,22.4,7.26,35.08l.78,6.44,43.81-4.15c.31,2.54.11,19.62-.1,30.21l0,1h3ZM45.48,136.08V121.13l25.67,3.44v16.38Z"/><path d="M231.11,47.84l1.3.8.22-1.51c.66-4.62,4.48-34.46,4.52-34.79a9.38,9.38,0,0,0-1.54-6c-1.87-2.43-3.65-2.69-3.85-2.72h-.08L123.27,7.88a5.65,5.65,0,0,0-4.76,3l-17.95,34h1.66c1.64,0,46.21.16,57.73.33C176.12,45.48,228.24,46.73,231.11,47.84Zm-110.82-36a3.65,3.65,0,0,1,3.07-1.93L231.57,5.58A5,5,0,0,1,234,7.51a7.45,7.45,0,0,1,1.13,4.6c0,.28-3.43,26.78-4.37,33.69-10.17-1.52-70.15-2.56-70.79-2.57-10.4-.15-47.67-.31-56.11-.33Z"/><path d="M274.46,47.7c-2.39-11.52-8-38.39-8.31-39.19-.48-1.13-2.35-1.59-3.51-1.77-21.15-1.61-21.94-1.06-22.27-.82a3.49,3.49,0,0,0-1.3,2.56l-3.89,43.12v.06c-.17,5.9-1.69,57.66-1.52,59.5.19,2.1,2.93,4.79,3.48,5.3l.45.43,35.58-13,.45-.17L276.82,94l-2.34-46.19ZM242.17,10.11a.62.62,0,0,1,.61-.56h0c10.73.42,18.44.8,20.38,1,.77,2.59,3.39,15.73,5,24l.93,12.72L238.5,50.37Zm.08-2.5a2.56,2.56,0,0,0-1.08.51,1.29,1.29,0,0,1,.25-.47C241.59,7.62,241.88,7.61,242.25,7.61ZM272,102.13l-34,12.45c-1.07-1.1-2.34-2.72-2.42-3.6-.13-1.59,1-42,1.51-58.46l34.06-3.47-.8-11,2.07,10,2.32,45.73Z"/><path d="M146,75.77l-36.29-2.63V101l35.21,3Zm-3,26.09-31.29-2.71V75.29l32.21,2.33Z"/><path d="M143.65,108l-34-3.19v13l34,4.07Zm-2,11.62-30-3.59v-9l30,2.81Z"/><path d="M206.73,113.82c-7.37,0-13.2,10.48-14.88,26.71-.85,8.26-.91,19.16,3.63,24.2a8,8,0,0,0,6.18,2.72c8.4,0,13.8-13.41,15.44-26.69,1.3-10.59-.25-19.55-4.16-24A8.19,8.19,0,0,0,206.73,113.82Zm8.39,26.69c-1.78,14.45-7.43,24.93-13.45,24.93a6,6,0,0,1-4.69-2.05c-3.16-3.51-4.27-11.55-3.13-22.66,1.51-14.67,6.81-24.92,12.89-24.92a6.16,6.16,0,0,1,4.71,2.29C215,122.11,216.35,130.48,215.12,140.51Z"/><path d="M30.85,112l69.74,10a5.45,5.45,0,0,0,6.23-5.4V81.74a7.42,7.42,0,0,0-6.93-7.39L34.21,70.14A6.79,6.79,0,0,0,27,76.91v30.62A4.53,4.53,0,0,0,30.85,112ZM29,76.91a4.79,4.79,0,0,1,4.78-4.79h.32l65.68,4.22a5.41,5.41,0,0,1,5.06,5.39V116.6a3.45,3.45,0,0,1-3.95,3.42L31.13,110A2.52,2.52,0,0,1,29,107.53Z"/><path d="M160.89,65.33c-2.68,1.25-2.69,3.15-2.32,4l1.85-.77c-.08-.25.11-.83,1.32-1.4,2.07-.88,43.75-8.81,71.27-13.93l-.37-2C225.56,52.57,163.43,64.15,160.89,65.33Z"/></svg>