<svg id="Calque_1" data-name="Calque 1" xmlns="http://www.w3.org/2000/svg" viewBox="0 0 377.92 236"><defs><style>.cls-1{fill:none;}</style></defs><title>twowhales</title><path d="M189,0C84.6,0,0,52.83,0,118S84.6,236,189,236s189-52.83,189-118S293.32,0,189,0Zm.63,225.83c-95.75,0-173.38-48.39-173.38-108.08S93.83,9.67,189.58,9.67,363,58.06,363,117.75,285.34,225.83,189.58,225.83Z"/><path d="M59,56.55c6.51,2.31,21.34,7.65,26.83,10.35a20.33,20.33,0,0,1,5.37,3.68l-3.94,1.37-20.7-5.44L59,56.55m-2.81-2L66,67.39,87.28,73l5.63-2s-1.74-2.62-6.66-5C79,62.45,56.17,54.5,56.17,54.5Z"/><path d="M254.29,103.27c0,4.06,1.48,4.86,3.35,4.86,1.29,0,3.4-.4,3.4-4.86,0-3.25-1.6-4.88-3.62-4.86C256,98.43,254.29,99.25,254.29,103.27Z"/><path class="cls-1" d="M257.7,98.18a5.54,5.54,0,1,0,3.34,5.09A5.54,5.54,0,0,0,257.7,98.18Z"/><path d="M154.08,83.87s-13.24-2.06-17.58-3.12a24.73,24.73,0,0,1-5.19-1.85C126.16,85,119.85,92.53,114.79,92c-11.94-1.25-16.6-14.44-16.6-14.44a2.1,2.1,0,0,1,.63-2.66c3.14-2.28,10.4-7.9,12.1-12.28,1.81-4.66-.37-19.69-.37-19.69L97.75,57.69a5.79,5.79,0,0,0-1.43,3.55c-.13,3.34-1.33,10-8.78,9.76-8.86-.28-31.37-16.5-31.37-16.5s1.56,14.29,5,17.13c4.63,3.81,21.23,7.45,21.23,7.45a4.32,4.32,0,0,1,2.79,3.11c1.26,5.45,4.62,19,7.73,23.31,9.31,12.94,18.1,14.7,22.1,15.15a35.36,35.36,0,0,0,7.15.6c5.35,0,16-1.58,21.25-2.5,4.47-.78,10.75-2.5,18-2.37,1.85,0,4.24.24,7,.53-7.62-11-10.14-23.8-10.92-29.5A4.18,4.18,0,0,0,154.08,83.87Z"/><path class="cls-1" d="M257.7,98.18a5.54,5.54,0,1,0,3.34,5.09A5.54,5.54,0,0,0,257.7,98.18Z"/><path class="cls-1" d="M147,72.8l-1.44,0Z"/><path class="cls-1" d="M163.91,82.1l-.5-.75Z"/><path class="cls-1" d="M149.25,72.83l-1.58,0Z"/><path class="cls-1" d="M159.81,76.57l-.35-.39Z"/><path class="cls-1" d="M145.05,72.73l-1.84-.09Z"/><path class="cls-1" d="M164,82.18a.23.23,0,0,1-.11-.09A.23.23,0,0,0,164,82.18Z"/><path class="cls-1" d="M155.15,72.83a2.32,2.32,0,0,0-.28,0A2.33,2.33,0,0,1,155.15,72.83Z"/><path class="cls-1" d="M155.77,73l-.3-.11Z"/><path class="cls-1" d="M161.7,78.93l-.3-.39Z"/><path class="cls-1" d="M149.91,72.83h0Z"/><path class="cls-1" d="M162.76,80.4l-.2-.27Z"/><path class="cls-1" d="M163.22,81.05l-.15-.22Z"/><path class="cls-1" d="M154.54,72.75l-2.45.06Z"/><path class="cls-1" d="M161.1,78.15l-.34-.42Z"/><path class="cls-1" d="M142.93,72.62l-1.47-.1Z"/><path class="cls-1" d="M160.47,77.36l-.36-.42Z"/><path class="cls-1" d="M162.26,79.69,162,79.3Z"/><path class="cls-1" d="M159.13,75.81l-.35-.36Z"/><path class="cls-1" d="M157.08,73.88l-.33-.24Z"/><path class="cls-1" d="M157.76,74.45l-.35-.29Z"/><path class="cls-1" d="M140.92,72.47l-1.17-.11Z"/><path class="cls-1" d="M164.11,82.2h0Z"/><path class="cls-1" d="M139.26,72.32l-1.52-.17Z"/><path class="cls-1" d="M158.1,74.77l.35.33Z"/><path class="cls-1" d="M164.27,82.13l0,0Z"/><path class="cls-1" d="M156.41,73.41l-.32-.18Z"/><path d="M156.21,69.5c2.59,1,5.41,4.32,6.54,5.75a.48.48,0,0,0,.38.19.5.5,0,0,0,.46-.3s1-3.37,1.82-4.2c3.17-3.3,6.93-4.21,9.21-5.65,2.83-1.78,5.89-5.63,7.61-8l-10.15,0a29.93,29.93,0,0,0-11.86,2.34,119.28,119.28,0,0,0-17.57,9c1.75,0,3.53-.09,5.23-.09A25.58,25.58,0,0,1,156.21,69.5Z"/><path class="cls-1" d="M241.71,127.54c0-.2,0-.43,0-.68l-12.46.23C234.06,127.25,239.52,127.46,241.71,127.54Z"/><path d="M183.58,55.4s-.52.79-1.35,1.93h1.36Z"/><path d="M161.4,78.54l-.3-.39Z"/><path d="M162.57,80.13l-.31-.43Z"/><path d="M164.06,82.19h0Z"/><path d="M164.34,82a.22.22,0,0,1-.07.15A.22.22,0,0,0,164.34,82Z"/><path d="M163.41,81.35l-.2-.29Z"/><path d="M163.06,80.83l-.3-.43Z"/><path d="M162,79.3l-.27-.37Z"/><path d="M164.23,82.16l-.1,0Z"/><path d="M141.46,72.52l-.54,0Z"/><path d="M145.57,72.75l-.52,0Z"/><path d="M143.21,72.64l-.28,0Z"/><path d="M147.67,72.81h0Z"/><path d="M158.45,75.1l.34.35Z"/><path d="M139.75,72.37l-.49,0Z"/><path d="M149.75,72.83h0Z"/><path d="M256.7,109.15c1.24-.14,2.32-.27,3.09-.4,1.66-.27,5.12-1,7.85-1.62a37,37,0,0,1,8-.88H298.1s8.81-1.31,8.81-18.37c0-28.79-22.75-30.33-22.75-30.33l-100.55-.22h0c0,.88,0,9.64-13.25,13.59-5.28,1.57-5.93,8.69-6,11.06a.22.22,0,0,1-.07.15l0,0-.1,0H164a.23.23,0,0,1-.11-.09l-.5-.75-.2-.29-.15-.22-.3-.43-.2-.27-.31-.43L162,79.3l-.27-.37-.3-.39-.3-.39-.34-.42-.3-.37-.36-.42-.3-.36-.35-.39-.33-.37-.35-.36-.34-.35-.35-.33-.33-.32-.35-.29-.34-.28-.33-.24-.33-.23-.32-.18-.33-.18-.3-.11a3.34,3.34,0,0,0-.32-.11,2.33,2.33,0,0,0-.28,0,2.08,2.08,0,0,0-.33,0l-2.45.06h-2.85l-1.58,0H147l-1.44,0-.52,0-1.84-.09-.28,0-1.47-.1-.54,0-1.17-.11-.49,0-1.52-.17a49.2,49.2,0,0,1-12.29-2.81l0-3.07a19.81,19.81,0,0,0,7.8,3,35.23,35.23,0,0,0,6,.39l1.82,0,2.47-.05c1.43,0,2.91-.07,4.31-.07,2.59,0,5.83.1,8,.9,2.43.91,5.28,4.39,6.1,5.43a1.48,1.48,0,0,0,1.17.57,1.5,1.5,0,0,0,1.37-.9l0-.05,0-.05a15.43,15.43,0,0,1,1.59-3.8,19.77,19.77,0,0,1,6.4-4.15,24,24,0,0,0,2.62-1.34c2.75-1.73,6.62-6.4,8.43-8.81h-1.36c-1.71,2.34-4.78,6.19-7.61,8-2.29,1.44-6,2.35-9.21,5.65-.79.82-1.82,4.2-1.82,4.2a.5.5,0,0,1-.46.3.48.48,0,0,1-.38-.19c-1.12-1.44-3.94-4.78-6.54-5.75a25.58,25.58,0,0,0-8.32-1c-1.71,0-3.48,0-5.23.09-1.14,0-2.28,0-3.37,0a34.84,34.84,0,0,1-5.83-.38c-6.37-1.13-9-4.17-9-4.17l0,4.79h0s-.92,6.13,6.81,10a24.73,24.73,0,0,0,5.19,1.85c4.34,1.06,17.58,3.12,17.58,3.12a4.18,4.18,0,0,1,3.42,3.54c.72,5.22,2.91,16.41,9.12,26.69l-61.27,3.31,1.3,1c.33.21,8.06,5.15,10.17,5.87,5.86,2,45.93,3.69,60.59,3.84l1.67,0,.59.41c4.25,2.81,9,4.51,19.45,4.51h1.3c16.19-.21,16.66-5.17,21.2-5.17h.05c5.13,0,20.5.67,20.5.67s0-.27,0-.73h.52l15.34-.31,1.37,0c14.15-.29,42-4.34,42.25-4.39l.86-.13V111l-1,0Zm-1.2-11.42a5.54,5.54,0,1,1-5.54,5.54A5.54,5.54,0,0,1,255.5,97.73Zm-20.58,10.4c1.25,1,2.53,3.13,3.64,5.39a25.55,25.55,0,0,1,1.59,4.55,14.58,14.58,0,0,0-3.44-3.78c-.23-.18-.45-.37-.7-.54-1.49-1-2.89-2-4.29-2.89-.67-.44-1.34-.86-2-1.28l-.09-.06h0c-8.15-5-17.43-8.31-43.56-10.78-3.56-.34-18.81-11.56-14.37-14.5,0,0,3.58,4.92,11.93,8.08a83.23,83.23,0,0,0,14.24,3.75C207.36,98.17,226,101,234.92,108.13Zm-57.5,19c-15.12-.16-54.74-1.9-60.28-3.79-1.5-.51-6.29-3.46-8.63-4.93l58.61-3.34c.48.78.94,1.47,1.39,2.12h0a45.24,45.24,0,0,0,9.3,9.94Zm51.33,0h0c-2.84-.09-5.46-.16-7.07-.18h-.06a6.57,6.57,0,0,0-2.07.33h0a14.39,14.39,0,0,0-2.52,1.19c-2.67,1.48-6.33,3.51-16.62,3.64h-1.29c-9.64,0-14.27-1.47-18.16-3.87l-1.34-1a43.77,43.77,0,0,1-10.29-10.61c-.49-.7-1-1.46-1.52-2.33l-.16-.25h0c-6.41-10.41-8.52-22-9.17-26.77a5.17,5.17,0,0,0-4.25-4.39c-.13,0-13.25-2.06-17.49-3.1a23.89,23.89,0,0,1-5-1.77c-4.85-2.42-6-5.73-6.24-7.57a52.17,52.17,0,0,0,12.1,2.7,102.9,102.9,0,0,0,12.29.69c1.52,0,3.09,0,4.7-.08s5,3.57,8.47,8.9a1.23,1.23,0,0,0,2.26-.63c.06-2,.61-8.74,5.28-10.13,8.32-2.48,11.7-6.83,13.06-10.16.58,5-.59,13.77-12.56,21.7A2.75,2.75,0,0,0,170,86.59c1.22,4.89,12.67,12.85,16,13.16,26.91,2.54,35.76,6,44.06,11.21h0l1.14.74c1.28.84,2.58,1.72,3.94,2.65l.33.22c.15.1.28.21.42.32l.23.18a15.21,15.21,0,0,1,5.62,11.78h0c0,.25,0,.49,0,.68C239.52,127.46,233.57,127.25,228.75,127.09Zm72.79-5s-27.88,4.08-42.12,4.38l-16.71.34a18.93,18.93,0,0,0-.58-4.15h0a40.63,40.63,0,0,0-2.72-9.56s1.3-.61,1.86-.89a22.23,22.23,0,0,1,8.18-2.39L301.54,112Z"/><path d="M154.54,72.75a2.08,2.08,0,0,1,.33,0,2.17,2.17,0,0,0-.27,0Z"/><path d="M159.46,76.18l-.33-.37Z"/><path d="M158.1,74.77l-.33-.32Z"/><path d="M157.42,74.16l-.34-.28Z"/><path d="M160.76,77.73l-.3-.37Z"/><path d="M160.11,76.93l-.3-.36Z"/><path d="M156.75,73.64l-.33-.23Z"/><path d="M155.47,72.94c-.11,0-.21-.09-.32-.11A3.34,3.34,0,0,1,155.47,72.94Z"/><path d="M156.09,73.23l-.33-.18Z"/><path d="M152.1,72.81h0Z"/><path d="M213.5,131.51h10a19.63,19.63,0,0,1,5.18.52,9.11,9.11,0,0,1,4.1,2.5,11.89,11.89,0,0,1,2.6,4.41,20.07,20.07,0,0,1,.89,6.43,17.87,17.87,0,0,1-.83,5.79,12,12,0,0,1-2.91,4.81,9.66,9.66,0,0,1-3.86,2.17,16.61,16.61,0,0,1-4.86.58H213.5Zm5.49,4.6v18h4.1a14.93,14.93,0,0,0,3.32-.26,5.06,5.06,0,0,0,2.22-1.13,5.75,5.75,0,0,0,1.44-2.62,17.75,17.75,0,0,0,.56-5,16.25,16.25,0,0,0-.56-4.84,6.23,6.23,0,0,0-1.56-2.63,5.23,5.23,0,0,0-2.54-1.28,24.94,24.94,0,0,0-4.51-.26Z"/><path d="M242,158.71v-27.2h5.49v27.2Z"/><path d="M254.29,158.71v-27.2h5.34l11.13,18.17V131.51h5.1v27.2h-5.51l-11-17.74v17.74Z"/><path d="M282.52,158.71v-27.2h20.17v4.6H288v6h13.66v4.58H288v7.4h15.2v4.58Z"/><path d="M308.85,158.71v-27.2h11.56a19.81,19.81,0,0,1,6.34.73,6.26,6.26,0,0,1,3.16,2.61,7.84,7.84,0,0,1,1.19,4.29,7.26,7.26,0,0,1-1.8,5.06,8.64,8.64,0,0,1-5.38,2.51,12.86,12.86,0,0,1,2.94,2.28A31.11,31.11,0,0,1,330,153.4l3.32,5.31h-6.57l-4-5.92a38.46,38.46,0,0,0-2.89-4,4.21,4.21,0,0,0-1.65-1.13,9,9,0,0,0-2.76-.31h-1.11v11.36Zm5.49-15.7h4.06a21,21,0,0,0,4.94-.33,3,3,0,0,0,1.54-1.15,3.54,3.54,0,0,0,.56-2,3.26,3.26,0,0,0-.73-2.22,3.36,3.36,0,0,0-2.07-1.07q-.67-.09-4-.09h-4.29Z"/><path d="M72.21,174.34v-8.59h1.14v3.53h4.46v-3.53h1.14v8.59H77.81v-4H73.35v4Z"/><path d="M80.78,170.16a4.67,4.67,0,0,1,1.15-3.35,3.9,3.9,0,0,1,3-1.21,4.11,4.11,0,0,1,2.14.57,3.71,3.71,0,0,1,1.46,1.58,5.15,5.15,0,0,1,.5,2.31,5.06,5.06,0,0,1-.53,2.34A3.6,3.6,0,0,1,87,174a4.27,4.27,0,0,1-2.09.53,4.06,4.06,0,0,1-2.17-.59,3.77,3.77,0,0,1-1.45-1.6A4.85,4.85,0,0,1,80.78,170.16Zm1.17,0a3.44,3.44,0,0,0,.83,2.45,2.91,2.91,0,0,0,4.21,0,3.65,3.65,0,0,0,.83-2.56,4.4,4.4,0,0,0-.35-1.83,2.72,2.72,0,0,0-1-1.21,2.81,2.81,0,0,0-1.53-.43,2.91,2.91,0,0,0-2.08.83A3.7,3.7,0,0,0,82,170.18Z"/><path d="M90.76,174.34v-8.59h1.71l2,6.08q.28.85.41,1.27.15-.47.46-1.38l2.06-6H99v8.59h-1.1v-7.19l-2.5,7.19h-1L91.86,167v7.31Z"/><path d="M101,174.34v-8.59h6.21v1h-5.07v2.63h4.75v1h-4.75v2.92h5.27v1Z"/><path d="M113.06,171.58l1.07-.09a2.37,2.37,0,0,0,.35,1.06,1.94,1.94,0,0,0,.86.67,3.27,3.27,0,0,0,1.32.25,3.16,3.16,0,0,0,1.15-.19,1.59,1.59,0,0,0,.74-.53,1.23,1.23,0,0,0,.24-.74,1.12,1.12,0,0,0-.23-.71,1.74,1.74,0,0,0-.77-.51,15.12,15.12,0,0,0-1.53-.42,7.81,7.81,0,0,1-1.66-.54,2.33,2.33,0,0,1-.92-.8,2,2,0,0,1-.3-1.07,2.18,2.18,0,0,1,.37-1.22,2.29,2.29,0,0,1,1.08-.86,4.09,4.09,0,0,1,1.58-.29,4.31,4.31,0,0,1,1.68.31,2.43,2.43,0,0,1,1.12.91,2.6,2.6,0,0,1,.42,1.35l-1.09.08A1.76,1.76,0,0,0,118,167a2.31,2.31,0,0,0-1.5-.42,2.4,2.4,0,0,0-1.5.38,1.13,1.13,0,0,0-.47.91,1,1,0,0,0,.33.76,4.53,4.53,0,0,0,1.71.61,11.34,11.34,0,0,1,1.9.55,2.6,2.6,0,0,1,1.11.88,2.13,2.13,0,0,1,.36,1.22,2.34,2.34,0,0,1-.39,1.29,2.58,2.58,0,0,1-1.13.94,3.93,3.93,0,0,1-1.66.34,4.94,4.94,0,0,1-2-.34,2.74,2.74,0,0,1-1.24-1A2.9,2.9,0,0,1,113.06,171.58Z"/><path d="M123.71,174.34v-7.58h-2.83v-1h6.81v1h-2.84v7.58Z"/><path d="M132,174.34V170.7l-3.31-5H130l1.69,2.59q.47.73.87,1.45.39-.67.94-1.52l1.66-2.53h1.32l-3.43,5v3.64Z"/><path d="M137.86,174.34v-8.59H139v7.58h4.23v1Z"/><path d="M144.75,174.34v-8.59H151v1h-5.07v2.63h4.75v1h-4.75v2.92h5.27v1Z"/><path d="M162.82,171.33l1.14.29a3.83,3.83,0,0,1-1.29,2.14,3.54,3.54,0,0,1-2.27.74,4.08,4.08,0,0,1-2.26-.57,3.53,3.53,0,0,1-1.32-1.64,5.84,5.84,0,0,1-.45-2.3,5.06,5.06,0,0,1,.51-2.34,3.51,3.51,0,0,1,1.46-1.52,4.26,4.26,0,0,1,2.08-.52,3.52,3.52,0,0,1,2.17.66,3.41,3.41,0,0,1,1.22,1.85l-1.12.26a2.65,2.65,0,0,0-.87-1.37,2.31,2.31,0,0,0-1.43-.43,2.78,2.78,0,0,0-1.66.47,2.51,2.51,0,0,0-.93,1.27,5.13,5.13,0,0,0-.27,1.65,5.24,5.24,0,0,0,.32,1.91,2.38,2.38,0,0,0,1,1.22,2.79,2.79,0,0,0,1.46.4,2.44,2.44,0,0,0,1.62-.55A2.82,2.82,0,0,0,162.82,171.33Z"/><path d="M165.86,170.16a4.67,4.67,0,0,1,1.15-3.35,3.9,3.9,0,0,1,3-1.21,4.11,4.11,0,0,1,2.14.57,3.71,3.71,0,0,1,1.46,1.58,5.15,5.15,0,0,1,.5,2.31,5.06,5.06,0,0,1-.53,2.34,3.6,3.6,0,0,1-1.49,1.56,4.27,4.27,0,0,1-2.09.53,4.06,4.06,0,0,1-2.17-.59,3.77,3.77,0,0,1-1.45-1.6A4.85,4.85,0,0,1,165.86,170.16Zm1.17,0a3.44,3.44,0,0,0,.83,2.45,2.91,2.91,0,0,0,4.21,0,3.65,3.65,0,0,0,.83-2.56,4.4,4.4,0,0,0-.35-1.83,2.72,2.72,0,0,0-1-1.21,2.81,2.81,0,0,0-1.53-.43,2.91,2.91,0,0,0-2.08.83A3.7,3.7,0,0,0,167,170.18Z"/><path d="M175.38,170.16a4.67,4.67,0,0,1,1.15-3.35,3.9,3.9,0,0,1,3-1.21,4.11,4.11,0,0,1,2.14.57,3.71,3.71,0,0,1,1.46,1.58,5.15,5.15,0,0,1,.5,2.31,5.06,5.06,0,0,1-.53,2.34,3.6,3.6,0,0,1-1.49,1.56,4.27,4.27,0,0,1-2.09.53,4.06,4.06,0,0,1-2.17-.59,3.77,3.77,0,0,1-1.45-1.6A4.85,4.85,0,0,1,175.38,170.16Zm1.17,0a3.44,3.44,0,0,0,.83,2.45,2.91,2.91,0,0,0,4.21,0,3.65,3.65,0,0,0,.83-2.56,4.4,4.4,0,0,0-.35-1.83,2.72,2.72,0,0,0-1-1.21,2.81,2.81,0,0,0-1.53-.43,2.91,2.91,0,0,0-2.08.83A3.7,3.7,0,0,0,176.55,170.18Z"/><path d="M185.41,174.34v-8.59h1.14V170l4.27-4.26h1.54l-3.6,3.48,3.76,5.11H191L188,170l-1.41,1.37v3Z"/><path d="M194.41,174.34v-8.59h1.14v8.59Z"/><path d="M197.9,174.34v-8.59h1.17l4.51,6.74v-6.74h1.09v8.59H203.5L199,167.59v6.75Z"/><path d="M210.69,171v-1h3.64v3.19a6.43,6.43,0,0,1-1.73,1,5.13,5.13,0,0,1-1.83.34,4.88,4.88,0,0,1-2.3-.54,3.58,3.58,0,0,1-1.56-1.57,4.94,4.94,0,0,1-.53-2.29,5.32,5.32,0,0,1,.52-2.34,3.49,3.49,0,0,1,1.51-1.61,4.73,4.73,0,0,1,2.27-.53,4.49,4.49,0,0,1,1.68.3,2.8,2.8,0,0,1,1.18.84,3.73,3.73,0,0,1,.65,1.41l-1,.28a3.17,3.17,0,0,0-.48-1,2,2,0,0,0-.82-.6,3,3,0,0,0-1.18-.23,3.49,3.49,0,0,0-1.35.24,2.52,2.52,0,0,0-.92.62,3,3,0,0,0-.54.85,4.5,4.5,0,0,0-.33,1.73,4.19,4.19,0,0,0,.39,1.92,2.53,2.53,0,0,0,1.15,1.15,3.56,3.56,0,0,0,1.61.38,3.81,3.81,0,0,0,1.44-.28,3.72,3.72,0,0,0,1.07-.61V171Z"/><path d="M56.43,160.66l4.9-20s-6.07-.15-6.07,4v4.11s-3.57.44-3.13-4,5.18-6.52,7.71-6.64c2.12-.09,4.77.7,8.15.7a16.48,16.48,0,0,0,5.27-.71s.75,2.09-1,3-7-.18-7-.18l-3.81,19.72Z"/><path d="M69.26,145.53l-1.81,9.84s-.63,5.29,2.35,5.29a5.74,5.74,0,0,0,4.51-2.15,4.4,4.4,0,0,0,4.16,2.15c3.18,0,5.44-2.5,7-6.56s2-8.57-.34-8.57S82.35,148,84.88,148c-.37,2.24-1.25,10-5.07,10-1.43,0-1-2.13-1-2.13l2.42-10.28H76.88l-2.24,10A2.77,2.77,0,0,1,72,158c-2.42,0,1.46-12.52,1.46-12.52Z"/><path d="M100.86,148.72a3.39,3.39,0,0,1-1.57.8h0c-.29-2.07-1.23-4-3.88-4-3.57,0-7.93,3.85-7.93,9.7,0,4,1.48,5.44,4.9,5.44s6.76-4.9,7-7.57c0-.57.08-1.26.07-2h0c2.28-.29,3-3.82,3-3.82S101.48,148.1,100.86,148.72Zm-4,.62s-1.12.37-1.2,1.1.92.92.92.92a7.48,7.48,0,0,1,.18,3c-.29,1.36-1.47,3.49-3.34,3.49s-1.63-3.85-1-6.06,2.35-4.55,3.31-4.55C97.11,147.29,96.88,149.35,96.88,149.35Z"/><path d="M118.52,160.66V140.24s-5.51,2-5.22,5.29.72,3.18.72,3.18-3.29.07-3.29-2.64,4.11-8,11.86-8v16.45L129.32,138h3.89v17.3l6.22-17.3H142l-8.28,22.62h-4.9V146.11L123,160.66Z"/><path d="M203.19,153c-.24-2.55-.94-7.49-.94-7.49h-3.91a20.5,20.5,0,0,1-4.85,9.65c-4.16,4.75-7.88,4.55-7.88-.88,6.61,0,10.57-8.77,3.82-8.77s-8,9.16-8,9.16-1,3.28-3.13,3.28-1.37-2.69-1.37-2.69l3.67-15.08h-4.41l-3,14.4s-1.91,3.38-3.82,3.38-1-2.45-1-2.45l2.69-10h-4.41l-.44,1s-.54-1-2.69-1c-7.69,0-7.39,12.44-10.87,12.44-4.06,0,5.28-12.44-2.3-12.44-3.32,0-3.72,1.27-3.72,1.27l1.42-6.61h-4.11l-4.85,20.47h4.41l1.71-7.59s.78-4.51,2.89-4.51-.15,6.9-.34,8.13.19,4,3.67,4a4.48,4.48,0,0,0,4.41-2.79s.54,2.79,4.16,2.79,4.21-2.15,4.21-2.15.68,2.15,3.72,2.15a5.45,5.45,0,0,0,4.51-2.79s.1,2.79,3.67,2.79a5.7,5.7,0,0,0,5-3.33,5.33,5.33,0,0,0,5.29,3.33,8.15,8.15,0,0,0,6.41-3.23s.53,3.23,5.68,3.23S203.43,155.56,203.19,153Zm-13.42-5.78c1,0,1.27,2-.24,3.87s-3,2.42-3.48,1.86C185.31,152.1,188.25,147.24,189.77,147.24Zm-24.72,5.63c-.42,2.49-1.29,5-3,5s-2-3.18-1.32-5.31,1.81-5.31,3.67-5.31C165.53,147.29,165.49,150.28,165.05,152.87Zm33.38,4.65c-1.52,1.32-3.48.73-3.48-.24s.78,0,1.37-.64c1.18-1.18-.31-2.5-.31-2.5l2.41-4.55S200,156.2,198.44,157.52Z"/></svg>