<?xml version="1.0" encoding="utf-8"?>
<!-- Generator: Adobe Illustrator 21.1.0, SVG Export Plug-In . SVG Version: 6.00 Build 0)  -->
<svg version="1.1" id="Calque_1" xmlns="http://www.w3.org/2000/svg" xmlns:xlink="http://www.w3.org/1999/xlink" x="0px" y="0px"
	 viewBox="0 0 315 173" style="enable-background:new 0 0 315 173;" xml:space="preserve">
<g>
	<path d="M138.5,173c-39,0-74.6-8.6-100.3-24.3C13.6,133.6,0,113.7,0,92.5c0-23.4,20.1-47.2,55.2-65.2C89,10,131.8,0,172.5,0
		c39.3,0,75.7,8.5,102.3,23.8c25.9,15,40.2,34.7,40.2,55.7c0,22.6-16.2,45.4-44.4,62.7C247.7,156.2,206.1,173,138.5,173z M172.5,1
		c-40.6,0-83.2,9.9-116.8,27.2C20.9,46,1,69.5,1,92.5c0,20.8,13.4,40.5,37.7,55.3c25.5,15.6,61,24.2,99.8,24.2
		c67.4,0,108.8-16.7,131.6-30.7C298,124.2,314,101.7,314,79.5c0-20.6-14.1-40.1-39.7-54.8C247.8,9.4,211.7,1,172.5,1z"/>
</g>
<g>
	<path d="M142,157c-31.8,0-60.8-7-81.7-19.8c-20.1-12.3-31.1-28.5-31.1-45.8c0-19.1,16.4-38.5,45-53.1C101.7,24.1,136.6,16,169.7,16
		c32,0,61.6,6.9,83.3,19.4c21.1,12.2,32.8,28.3,32.8,45.4c0,18.4-13.2,37-36.2,51.1C230.9,143.3,197.1,157,142,157z M169.7,17
		c-33,0-67.7,8.1-95.1,22.1C46.4,53.6,30.2,72.7,30.2,91.4C30.2,123.1,72,156,142,156c54.9,0,88.5-13.6,107.1-25
		c22.7-13.9,35.7-32.2,35.7-50.2c0-16.7-11.5-32.5-32.3-44.5C231,23.8,201.6,17,169.7,17z"/>
</g>
<g>
	<path d="M140.2,167.1C140.2,167.1,140.1,167.1,140.2,167.1c-36,0-68.8-8-92.5-22.5C24.7,130.6,12,111.9,12,92
		c0-22.3,18.2-44,51.3-61C94.4,15,133.8,5.9,171.2,5.9c36.2,0,69.7,7.8,94.3,22C289.7,41.8,303,60.4,303,80.1
		c0,21.2-15,42.5-41.3,58.6C240.6,151.7,202.3,167.1,140.2,167.1z M171.2,9.9c-36.8,0-75.5,9-106.1,24.7C33.9,50.6,16,71.5,16,92
		c0,35,46.4,71.1,124.1,71.1l0,0c61.2,0,98.8-15.1,119.5-27.8c25-15.3,39.4-35.5,39.4-55.2c0-18.2-12.6-35.6-35.5-48.8
		C239.5,17.5,206.7,9.9,171.2,9.9z"/>
</g>
<g>
	<path d="M255.8,73.6c0-4.3-1-8.4-2.9-12.3c-8.5-17.9-28.1-28.1-49.7-33.3l-0.4-0.1c-25.7-6.1-54.3-5.3-70.5-2.5
		C105.1,30.2,80.2,44,68.9,60.8c-0.7,1-1.3,1.9-1.8,2.9l0,0l0,0c-0.3,0.6-0.6,1.1-0.9,1.7H66c-3,4-15,41.4,21.8,59.8
		c21.4,10.7,40.6,15.3,64.7,15.3c2.3,0,4.6,0,7-0.1c34.5-1.2,54.3-6.2,75.7-19.2C258,107.5,257.1,83.2,255.8,73.6z M252.3,77.7
		l-4.9-3.6l5.4-2.1C252.8,74,252.7,75.9,252.3,77.7z M161.9,108l29.9-11.8l16.5,13.2c-11.6,3.6-23.5,6.3-35.5,7.9l0.3-0.2L161.9,108
		z M100.6,110.7c-10-3.2-19-7.4-25.4-12.7l22.5-8.2l18.2,14.6L100.6,110.7L100.6,110.7z M94,86.8l-22,8.1c-2.6-2.7-4.5-5.9-5.6-9.5
		l17.4-6.8L94,86.8z M74.8,65.1l17.7-6.8l10.8,8.5l-18,7L74.8,65.1z M119.4,107.2l11.6,9.3l-1.1,0.4c-7.8-1-15.6-2.5-23.3-4.5
		L119.4,107.2z M123.4,105.6l19.1-7.8l11.8,9.3l-19.6,7.8L123.4,105.6z M157.6,109.7l10.3,8.1c-3.1,0.3-6,0.5-8.5,0.6
		c-7.1,0.2-14.2,0-21.3-0.7l-0.3-0.3L157.6,109.7z M196.7,94.2l22-8.7l16.4,12.1c-6.8,4.1-14.1,7.4-21.6,10L196.7,94.2z M207.7,71.3
		l17.8-7.2l12.8,9.4l-17.8,7.1L207.7,71.3z M224.1,83.4l17.9-7.1l8.5,6.3c-0.3,0.6-0.6,1.1-0.9,1.7c-2.6,4.1-6,7.6-10,10.4
		L224.1,83.4z M250.1,62.6c0.8,1.7,1.5,3.5,1.9,5.4l-8.5,3.4l-13-9.4l15.4-6.3C247.5,57.9,249,60.2,250.1,62.6L250.1,62.6z
		 M243.4,52.5l-16.6,6.8l-15.3-11.1l18.2-6.7C234.8,44.4,239.4,48.1,243.4,52.5z M204.5,31.6l-0.1-0.2c7.1,1.8,14,4.3,20.6,7.5
		l-17.5,6.4l-13.3-9.7L204.5,31.6z M197.9,29.9l-7.5,2.9l-7.2-5.2C188.1,28.1,193,28.9,197.9,29.9L197.9,29.9z M113.2,33.7l8.9,7.1
		c1.1-1.1,2.2-2.2,3.4-3.1l-7.1-5.7c4.7-1.4,9.5-2.6,14.4-3.4c2.2-0.4,4.7-0.7,7.3-1H140l3.2,2.4c2.5-0.4,5-0.5,7.6-0.4l-3.7-2.7
		c4.3-0.3,8.8-0.5,13.6-0.5c2,0,4,0,6.1,0.1l-9.4,3.5c2.3,0.2,4.4,0.5,6.4,0.9l10.4-4l1.3,0.1l10.4,7.7l-5.3,2.1
		c1.2,0.8,2.3,1.8,3.3,3l5.8-2.3l13,9.7l-15,5.5c0.5,1.2,1,2.4,1.6,3.7l17.3-6.3l15.3,11.4l-17.9,7l-13.6-10c1.7,3.5,3.6,6.9,5,9.7
		l3.3,2.4l-2,0.8c0.4,1,0.5,2,0.4,3c-0.2,0.6-0.4,1.1-0.9,1.5l6.2-2.5l12.7,9.4l-21.8,8.7l-10-8c-1.6,0.7-3.2,1.3-5,1.9l10.1,8
		l-29.8,11.9L147,96l13.6-5.5c-2.3,0.4-4.5,0.8-6.6,1c-2.8,0.3-5.6,0.6-8.5,0.8l-2.9,0.2c-2.3,0.1-4.5,0.1-6.7,0.1l3,2.4l-19,7.7
		L102.3,88l10.1-3.7c-0.9-1-1.7-2.2-2.3-3.4L98.7,85l-10-8.4l18.1-7l0.8,0.6c0.2-2,0.7-4,1.6-5.9l-1,0.4l-10.6-8.5L119,48v-3.6
		l0.1-0.2l-24.8,9.3l-7.7-6.2C94.8,41.5,103.7,36.9,113.2,33.7L113.2,33.7z M82.6,50.5l6.4,5L71.6,62C74.8,57.7,78.4,53.8,82.6,50.5
		z M65.6,78.5c0.1-1.5,0.3-3,0.5-4.3c0.5-2.3,1.3-4.6,2.3-6.7l1.1-0.4l10.7,8.6l-14.6,5.7C65.5,80.5,65.5,79.5,65.6,78.5L65.6,78.5z
		 M233.7,118.8c-20.9,12.7-40.4,17.6-74.3,18.8c-27,0.9-47.3-3.4-70.3-14.8c-13.3-6.6-21.1-17-23.3-30.9
		c13.2,22.7,62.1,29.8,88.8,29.8c1.7,0,3.3,0,4.8-0.1c19.4-0.7,77.3-10.5,92.6-35.7c0.8-1.2,1.4-2.5,1.9-3.9
		C253.9,92.7,250.5,108.5,233.7,118.8L233.7,118.8z"/>
	<path d="M152.5,141.1c-24,0-43.4-4.6-64.9-15.3C74,119,65.6,108.9,62.5,96C59,81,64,67.3,65.6,65.2l0.2-0.2c0.2-0.5,0.5-1,0.8-1.4
		c0.6-1,1.2-2,1.8-2.9c11.4-16.8,36.5-30.8,63.7-35.6c17.3-3,45.8-3.4,70.7,2.5l0.4,0.1c25.2,6.1,42.6,17.7,50.1,33.5
		c1.9,3.8,2.9,8.1,3,12.4c1.4,9.9,2.1,34.3-20.7,48.1c-21.5,13.1-41.4,18.1-76,19.3C157.2,141.1,154.8,141.1,152.5,141.1z M66.3,66
		c-1.7,2.6-6.2,15.5-2.8,29.7c3,12.7,11.3,22.5,24.6,29.2c21.3,10.7,40.6,15.2,64.5,15.2c2.3,0,4.6,0,7-0.1
		c34.4-1.2,54.1-6.2,75.5-19.1c22.4-13.6,21.6-37.5,20.3-47.2v-0.1c0-4.2-1-8.3-2.9-12c-7.4-15.6-24.5-27-49.4-33l-0.4-0.1
		C178,22.6,149.6,23,132.4,26c-27,4.7-51.8,18.5-63.1,35.1c-0.7,1-1.3,1.9-1.8,2.9c-0.3,0.6-0.6,1.1-0.9,1.7L66.3,66L66.3,66z
		 M152.6,138.2c-23.7,0-42.6-4.5-63.6-15c-13.4-6.7-21.4-17.2-23.5-31.3L65,89.3l1.3,2.3c12.7,21.7,59.8,29.6,88.4,29.6
		c1.7,0,3.3,0,4.8-0.1c19.3-0.7,77-10.4,92.2-35.4c0.7-1.2,1.4-2.5,1.9-3.8l1-2.5v2.7c-0.2,11.3-3.9,26.8-20.2,36.9l0,0l-0.4,0.3
		c-21,12.8-40.5,17.7-74.5,18.9C157.1,138.1,154.8,138.2,152.6,138.2z M66.9,94.2c2.6,12.5,10.2,21.9,22.5,28.1
		c22.9,11.4,43.1,15.7,70,14.8c33.6-1.1,52.9-6,73.6-18.5l0,0l0.4-0.2c15.1-9.2,19.3-23,20-33.8c-0.3,0.6-0.6,1.1-0.9,1.6
		c-15.4,25.3-73.6,35.2-93,35.9c-1.5,0.1-3.1,0.1-4.9,0.1C130.7,122.1,82.4,116.2,66.9,94.2z M154.2,119.1c-5.4,0-10.8-0.3-16.1-0.8
		h-0.2l-1.1-0.9l20.8-8.3l11.5,9.1l-1.2,0.1c-3,0.3-6,0.5-8.5,0.6C157.7,119.1,156,119.1,154.2,119.1z M139.5,117.4
		c6.6,0.6,13.3,0.8,19.9,0.6c2.2-0.1,4.7-0.3,7.2-0.5l-9.1-7.2L139.5,117.4z M171,118l1.2-1l-11.4-9.2l30.9-12.3l17.5,13.9l-0.9,0.3
		c-11.6,3.6-23.6,6.3-35.6,7.9L171,118z M162.9,108.2l10.5,8.5c11.4-1.6,22.8-4.1,33.9-7.5l-15.6-12.4L162.9,108.2z M130,117.5h-0.1
		c-7.8-1-15.7-2.5-23.3-4.5l-1.5-0.4l14.4-5.9l12.5,10L130,117.5z M108.2,112.3c7.1,1.8,14.3,3.2,21.6,4.1l0.2-0.1l-10.7-8.6
		L108.2,112.3z M134.6,115.5l-12.2-10.1l20.1-8.2l12.7,10L134.6,115.5z M124.4,105.7l10.4,8.7l18.5-7.4l-10.9-8.6L124.4,105.7z
		 M101.5,111.4l-1-0.2c-11-3.5-19.6-7.8-25.6-12.8l-0.7-0.6l23.5-8.6l19.1,15.3l-15.6,6.4L101.5,111.4z M76.2,98.1
		c5.8,4.7,14,8.7,24.2,12l14.5-5.9L97.6,90.3L76.2,98.1z M213.4,108.2l-17.7-14.1l23.1-9.1L236,97.7l-0.6,0.4
		c-6.9,4.1-14.2,7.5-21.7,10L213.4,108.2z M197.7,94.4l15.9,12.7c7.2-2.5,14.1-5.6,20.6-9.5l-15.6-11.5L197.7,94.4z M158.5,105.9
		l-12.5-10l10.2-4.1c-0.7,0.1-1.5,0.2-2.2,0.3c-3.1,0.3-5.9,0.6-8.5,0.8l-2.9,0.2c-1.8,0.1-3.5,0.1-5.3,0.1l2.5,2l-20.1,8.1
		l-18.5-15.4l10.2-3.7c-0.6-0.8-1.2-1.7-1.7-2.6l-11.2,4.1l-10.9-9.1l19.2-7.5l0.3,0.3c0.2-1.4,0.5-2.7,1-4l-0.2,0.1l-11.5-9.3
		l21.8-8.4v-2.7L94,54.2l-8.5-6.8L86,47c8.2-5.8,17.2-10.4,26.7-13.7l0.9-0.3l-0.2,0.7l8.3,6.6c0.9-0.9,1.8-1.7,2.7-2.5l-7.4-5.9
		l0.9-0.3c4.7-1.4,9.6-2.6,14.4-3.5c2-0.3,4-0.6,6-0.9l-0.2-0.1h1.5l0,0v0.4l0.2-0.3l3.1,2.2c1.9-0.3,3.9-0.4,5.9-0.4l-3.5-2.6
		l1.4-0.1c4.3-0.3,8.9-0.5,13.7-0.5c2,0,4,0,6.1,0.1L169,26l-9.8,3.7c1.5,0.2,2.9,0.4,4.2,0.6l10.4-4l1.5,0.1l11.2,8.3l-5.3,2.1
		c0.9,0.7,1.7,1.4,2.4,2.3l5.7-2.2l14,10.4l-15.4,5.6c0.4,0.9,0.8,1.8,1.2,2.8l17.1-6.3l16.2,12.1l-18.9,7.7l-12.1-8.9
		c0.4,0.8,0.8,1.6,1.3,2.4c1,1.9,2,3.7,2.7,5.4l3.9,2.9l-2.4,1c0.3,0.9,0.4,1.8,0.3,2.8c0,0.1-0.1,0.3-0.1,0.4l5.1-2.1l13.6,10
		l-22.9,9.1l-10-8c-1.3,0.5-2.6,1-3.9,1.5l10,8L158.5,105.9z M148,96.2l10.7,8.6l28.7-11.5l-10.1-8l0.8-0.3c1.7-0.6,3.4-1.3,5-1.9
		l0.3-0.1l10,8l20.7-8.3L202.3,74l-8.1,3.3l1.6-1.7c0.3-0.4,0.6-0.8,0.7-1.3c0.1-0.9,0-1.8-0.4-2.7l-0.2-0.5l1.6-0.7l-2.7-2
		l-0.1-0.1c-0.8-1.7-1.7-3.5-2.8-5.4c-0.7-1.4-1.5-2.8-2.2-4.3l-0.9-1.9l15,11.1l16.8-6.8l-14.3-10.7L189,56.9l-0.2-0.4
		c-0.6-1.2-1.1-2.5-1.6-3.7l-0.2-0.5l14.6-5.3l-12-8.9l-5.9,2.3l-0.2-0.3c-0.9-1.1-2-2.1-3.2-2.9l-0.8-0.5l5.3-2.1l-9.5-7.1l-1-0.1
		l-10.5,4h-0.1c-2-0.3-4.1-0.6-6.4-0.8l-2.1-0.2l9-3.4c-1.2,0-2.4,0-3.5,0c-4.2,0-8.3,0.1-12.2,0.4l3.9,2.9l-1.6-0.1
		c-2.5-0.1-5,0-7.5,0.4h-0.2l-3.2-2.4c-2.3,0.2-4.7,0.6-7,1c-4.5,0.8-9,1.9-13.4,3.2l6.9,5.5l-0.5,0.4c-1.2,1-2.3,2-3.4,3.1
		l-0.3,0.3l-9.1-7.2c-9.1,3.2-17.7,7.6-25.6,13.1l7,5.6l26-9.7l-0.9,1.4v3.8l-20.9,8l9.7,7.8l1.9-0.7l-0.5,1.1
		c-0.9,1.8-1.4,3.7-1.5,5.7l-0.1,0.9l-1.3-1.1L89.8,77l9.1,7.6l11.4-4.2l0.2,0.4c0.6,1.2,1.4,2.3,2.3,3.3l0.5,0.5l-9.9,3.6
		l16.7,13.9l17.9-7.3l-3.5-2.8h1.5c2.1,0,4.4,0,6.7-0.1l2.9-0.2c2.6-0.2,5.3-0.5,8.5-0.8c2-0.2,4.2-0.5,6.6-1l0.3,1L148,96.2z
		 M71.9,95.4l-0.2-0.2c-2.6-2.7-4.6-6.1-5.7-9.6l-0.1-0.4L84,78.1L95,87L71.9,95.4z M67.1,85.7c1.1,3.2,2.8,6.1,5.1,8.6L93,86.6
		l-9.2-7.4L67.1,85.7z M239.6,95.3l-16.5-12l19-7.5l9.1,6.7l-0.2,0.4c-0.3,0.6-0.6,1.1-0.9,1.7c-2.7,4.2-6.1,7.7-10.1,10.5
		L239.6,95.3z M225.1,83.5l14.5,10.6c3.8-2.7,7-6.1,9.6-10c0.2-0.4,0.5-0.8,0.7-1.2L242,77L225.1,83.5z M65.2,82.1l-0.1-0.7
		c-0.1-1-0.1-2-0.1-3l0.1-0.5c0.1-1.3,0.3-2.7,0.5-3.8c0.5-2.4,1.3-4.7,2.4-6.8l0.1-0.2l1.5-0.6l11.6,9.3L65.2,82.1z M66,78.9
		c0,0.6,0,1.2,0,1.9l13.2-5.1l-9.8-7.9L68.8,68c-1,2-1.7,4.2-2.2,6.4c-0.2,1.3-0.4,2.7-0.5,4.2L66,78.9z M220.4,81.2l-13.8-10
		l18.9-7.7l13.7,10.1L220.4,81.2z M208.7,71.4l11.8,8.6l16.7-6.7l-11.9-8.7L208.7,71.4z M252.6,78.6l-6.3-4.5l6.8-2.7v0.7
		c0.1,2,0,3.9-0.5,5.8V78.6z M248.4,74.3l3.5,2.6c0.2-1.4,0.4-2.7,0.3-4.1L248.4,74.3z M85.1,74.3l-11.3-9.4l18.7-7.2l11.7,9.2
		L85.1,74.3z M75.7,65.2l9.6,8l16.9-6.6l-9.9-7.8L75.7,65.2z M243.4,72l-14-10.1l16.6-6.7l0.2,0.3c1.6,2.2,3.1,4.5,4.3,7l0.3,0.6
		h-0.1c0.7,1.6,1.3,3.2,1.7,4.9l0.1,0.4L243.4,72z M231.5,62.1l12,8.7l7.8-3.1c-0.4-1.7-1-3.3-1.8-4.8l-0.3-0.6l0,0
		c-1.1-2.1-2.3-4.1-3.7-6L231.5,62.1z M70.3,63l1-1.3c3.1-4.3,6.9-8.2,11-11.6l0.3-0.2l7.4,5.8L70.3,63z M82.6,51.1
		c-3.5,2.9-6.7,6.2-9.5,9.8L88,55.3L82.6,51.1z M226.7,59.8L210.4,48l19.3-7.1L230,41c5.2,3,9.8,6.7,13.8,11.2l0.5,0.5L226.7,59.8z
		 M212.5,48.3l14.3,10.4l15.7-6.4c-3.8-4.1-8.1-7.5-12.9-10.3L212.5,48.3z M207.5,45.8l-14.2-10.4l10.6-4.1l-0.3-0.7l0.9,0.2
		c7.1,1.8,14.1,4.3,20.7,7.5l1.1,0.5L207.5,45.8z M195.3,35.7l12.3,9l16.1-5.9c-6-2.9-12.4-5.1-18.9-6.8L195.3,35.7z M190.4,33.4
		l-8.9-6.5l1.9,0.2c4.8,0.5,9.8,1.3,14.7,2.3l0.4,0.1v0.8l-0.3,0.2L190.4,33.4z M185.1,28.3l5.4,3.9l5.7-2.2
		C192.5,29.3,188.7,28.8,185.1,28.3z"/>
</g>
<g>
	<path d="M109.7,64.6l-0.9-0.4c2.8-6,8.4-9.3,9.7-10v-6.1h1v6.7l-0.3,0.1C119.2,55,112.7,58.3,109.7,64.6z"/>
</g>
<g>
	<path d="M119.6,44.6l-0.8-0.6c0.9-1.3,1.9-2.5,3-3.6l0.7,0.7C121.4,42.2,120.4,43.3,119.6,44.6z"/>
</g>
<g>
	<path d="M160.7,91l-0.2-1c6-1.2,11.9-2.9,17.6-5l0.3,0.9C172.7,88.1,166.7,89.8,160.7,91z"/>
</g>
<g>
	<path d="M109.7,81.1c-0.4-0.8-0.8-1.6-1.1-2.5c-1-2.6-1.5-5.6-1.3-8.4l1,0.1c-0.2,2.7,0.3,5.5,1.3,8c0.3,0.8,0.7,1.6,1.1,2.4
		L109.7,81.1z"/>
</g>
<g>
	<path d="M135.9,93.1c-11.6-0.3-19.2-3-23.9-8.4l0.8-0.7c4.5,5.2,11.8,7.8,23.1,8.1V93.1z"/>
</g>
<g>
	<path d="M187.2,52.7c-1-2.3-1.6-4.7-1.7-7.2c0-2-0.7-4-2-5.5l0.8-0.6c1.4,1.7,2.2,3.9,2.2,6.2c0.1,2.4,0.7,4.7,1.6,6.9L187.2,52.7z
		"/>
</g>
<g>
	<path d="M180.3,37.1c-3.8-2.6-9.3-4.5-16.6-5.8l0.2-1c7.4,1.3,13.1,3.2,17,5.9L180.3,37.1z"/>
</g>
<g>
	<path d="M183.5,84l-0.4-0.9c6.3-2.7,10.9-5.3,12.7-7.4l0.8,0.6C194.7,78.5,190,81.2,183.5,84z"/>
</g>
<g>
	<path d="M196.1,71.7c-0.4-1.1-0.8-2.2-1.3-3.2l0.9-0.4c0.5,1.1,1,2.2,1.3,3.3L196.1,71.7z"/>
</g>
<g>
	<path d="M189.9,58.7c-0.4-0.8-0.8-1.5-1.1-2.3l0.9-0.4c0.4,0.8,0.7,1.5,1.1,2.3L189.9,58.7z"/>
</g>
<g>
	<path d="M125.8,38l-0.6-0.8c5.2-4.2,11.4-6.9,17.9-7.8l0.1,1C136.9,31.3,130.9,33.9,125.8,38z"/>
</g>
<g>
	<path d="M157.4,30.5c-2-0.2-4.2-0.4-6.4-0.5h-0.2v-1h0.2c2.3,0.1,4.4,0.3,6.5,0.5L157.4,30.5z"/>
</g>
<g>
	<circle cx="174.5" cy="90" r="13"/>
	<path d="M174.5,103.5c-7.4,0-13.5-6.1-13.5-13.5s6.1-13.5,13.5-13.5S188,82.6,188,90S181.9,103.5,174.5,103.5z M174.5,77.5
		c-6.9,0-12.5,5.6-12.5,12.5s5.6,12.5,12.5,12.5S187,96.9,187,90S181.4,77.5,174.5,77.5z"/>
</g>
<g>
	<circle cx="199.5" cy="47" r="9"/>
	<path d="M199.5,56.5c-5.2,0-9.5-4.3-9.5-9.5s4.3-9.5,9.5-9.5s9.5,4.3,9.5,9.5S204.7,56.5,199.5,56.5z M199.5,38.5
		c-4.7,0-8.5,3.8-8.5,8.5s3.8,8.5,8.5,8.5s8.5-3.8,8.5-8.5S204.2,38.5,199.5,38.5z"/>
</g>
<g>
	<circle cx="201.5" cy="63" r="9"/>
	<path d="M201.5,72.5c-5.2,0-9.5-4.3-9.5-9.5s4.3-9.5,9.5-9.5s9.5,4.3,9.5,9.5S206.7,72.5,201.5,72.5z M201.5,54.5
		c-4.7,0-8.5,3.8-8.5,8.5s3.8,8.5,8.5,8.5s8.5-3.8,8.5-8.5S206.2,54.5,201.5,54.5z"/>
</g>
<g>
	<path d="M118.5,51c-3,6-5.4,10-12,10s-12-4.5-12-10s5.4-10,12-10S121,46.1,118.5,51z"/>
	<path d="M106.5,61.5C99.6,61.5,94,56.8,94,51s5.6-10.5,12.5-10.5c4.8,0,10.1,2.5,12.1,5.8c1,1.6,1.1,3.3,0.3,4.9
		C115.8,57.4,113.3,61.5,106.5,61.5z M106.5,41.5c-6.3,0-11.5,4.3-11.5,9.5s5.2,9.5,11.5,9.5c6.2,0,8.5-3.7,11.6-9.7l0,0
		c0.6-1.3,0.6-2.6-0.3-4C116,43.9,110.9,41.5,106.5,41.5z"/>
</g>
<g>
	<path d="M123.5,53c8.5,3.9,17.7,5.9,27,6c15,0,31-8,31-8S165,61.5,151,61.5S123.5,53,123.5,53z"/>
</g>
<g>
	<path d="M121,62.5c0,0,14,8,28,8s33-8,33-8s-16,12-33,12C130,74.5,121,62.5,121,62.5z"/>
</g>
<g>
	<path d="M116.5,72c2.7,3,6,5.3,9.8,6.7c3.9,1.2,8,1.9,12.1,2c-4.1,1-8.3,0.9-12.4-0.2C120.4,78.9,116.5,72,116.5,72z"/>
</g>
</svg>
