<svg id="Calque_1" data-name="Calque 1" xmlns="http://www.w3.org/2000/svg" viewBox="0 0 195.6 118.25"><defs><style>.cls-1,.cls-2{stroke:#000;stroke-miterlimit:10;}.cls-2{fill:none;}</style></defs><title>waffle</title><path class="cls-1" d="M408.76,437.11a27.79,27.79,0,0,0-2.91-12.25c-8.5-17.94-28.09-28.06-49.74-33.26l-.36-.08c-25.73-6.12-54.28-5.33-70.52-2.49-27.16,4.75-52.05,18.63-63.41,35.35q-1,1.45-1.82,2.91h0v0c-.32.57-.62,1.14-.91,1.7l-.07,0c-3,4-15,41.44,21.83,59.84,21.38,10.69,40.56,15.28,64.69,15.28q3.45,0,7-.12c34.49-1.18,54.3-6.21,75.73-19.22C411,471,410.12,446.73,408.76,437.11Zm-3.5,4.13-4.9-3.56,5.35-2.12A20.16,20.16,0,0,1,405.26,441.24ZM314.9,471.54l29.88-11.84,16.55,13.17a215.82,215.82,0,0,1-35.55,7.91l.29-.23Zm-61.29,2.63c-10-3.16-19-7.36-25.41-12.74l22.46-8.21,18.22,14.63-15.31,6.23ZM247,450.3l-22,8.06a24.23,24.23,0,0,1-5.57-9.45l17.42-6.78Zm-19.23-21.72,17.68-6.81,10.76,8.5-18,7Zm44.66,42.14L284,480l-1.1.44a183.42,183.42,0,0,1-23.25-4.5Zm4-1.64,19.08-7.76,11.79,9.31-19.58,7.84Zm34.16,4.16,10.3,8.13c-3.1.33-6,.54-8.49.63a172.6,172.6,0,0,1-21.25-.67l-.32-.26Zm39.08-15.49,22-8.72,16.44,12.12a113.31,113.31,0,0,1-21.62,10Zm11-22.94,17.8-7.24L391.27,437l-17.8,7.12Zm16.43,12.06L395,439.8l8.5,6.32c-.28.56-.58,1.11-.91,1.66a37.65,37.65,0,0,1-10,10.39Zm26-20.72a28.41,28.41,0,0,1,1.93,5.36l-8.51,3.41-13-9.42,15.4-6.26A42.45,42.45,0,0,1,403.14,426.14ZM396.38,416l-16.59,6.75-15.32-11.14,18.24-6.67A56.42,56.42,0,0,1,396.38,416Zm-38.89-20.85-.09-.23A103.84,103.84,0,0,1,378,402.38l-17.46,6.38-13.29-9.66Zm-6.6-1.72-7.46,2.91-7.18-5.22C341.14,391.64,346.05,392.41,350.89,393.4Zm-84.73,3.73,8.92,7.1a36.4,36.4,0,0,1,3.44-3.15l-7.12-5.67A121.39,121.39,0,0,1,285.76,392c2.22-.39,4.67-.74,7.32-1L293,391l3.22,2.37a40.83,40.83,0,0,1,7.58-.38l-3.67-2.69c4.25-.3,8.82-.46,13.62-.46,2,0,4,0,6.09.09l-9.43,3.53q3.38.34,6.41.85l10.44-4,1.25.09,10.37,7.71-5.3,2.06a15.1,15.1,0,0,1,3.29,3l5.79-2.26,13,9.66-15,5.49c.47,1.21,1,2.44,1.59,3.68l17.27-6.32,15.28,11.36L356.95,432l-13.59-10c1.74,3.46,3.64,6.86,5,9.74l3.28,2.42-2,.81a6.38,6.38,0,0,1,.38,3,3.5,3.5,0,0,1-.85,1.52l6.23-2.54,12.68,9.35L346.31,455l-10-8c-1.57.66-3.24,1.31-5,1.94l10.07,8-29.75,11.91L300,459.51,313.62,454c-2.26.44-4.48.79-6.62,1-2.78.31-5.63.59-8.49.8l-2.91.17c-2.25.11-4.49.15-6.69.11l3,2.39-19,7.71-17.64-14.67,10.07-3.68a18.49,18.49,0,0,1-2.32-3.41l-11.3,4.13-10-8.35,18.11-7.05.83.65a16.45,16.45,0,0,1,1.57-5.88l-1,.38-10.59-8.54L272,411.56V408l.15-.22-24.79,9.27-7.73-6.24A105.46,105.46,0,0,1,266.17,397.13ZM235.58,414,242,419l-17.35,6.49A59.87,59.87,0,0,1,235.58,414Zm-17,28c.14-1.53.33-3,.54-4.25a30.06,30.06,0,0,1,2.33-6.69l1.06-.41,10.73,8.61-14.6,5.68A22.18,22.18,0,0,1,218.56,442Zm168.16,40.26c-20.93,12.71-40.36,17.62-74.27,18.78-27,.92-47.34-3.38-70.28-14.84-13.31-6.65-21.11-17-23.26-30.91,13.24,22.7,62.06,29.83,88.8,29.83,1.71,0,3.33,0,4.84-.08,19.38-.72,77.31-10.5,92.59-35.66a26.41,26.41,0,0,0,1.94-3.88C406.91,456.2,403.46,472.05,386.72,482.22Z" transform="translate(-214.24 -386.38)"/><path class="cls-2" d="M272,411.56V418s-6.6,3.31-9.73,9.92" transform="translate(-214.24 -386.38)"/><path class="cls-2" d="M275.08,404.23a28.35,28.35,0,0,0-2.93,3.55" transform="translate(-214.24 -386.38)"/><path class="cls-2" d="M313.62,454a120.35,120.35,0,0,0,17.7-5" transform="translate(-214.24 -386.38)"/><path class="cls-2" d="M260.7,433.8A19.2,19.2,0,0,0,262,442a20.42,20.42,0,0,0,1.1,2.41" transform="translate(-214.24 -386.38)"/><path class="cls-2" d="M265.42,447.82c5.24,6.08,13.95,8,23.49,8.25" transform="translate(-214.24 -386.38)"/><path class="cls-2" d="M340.64,416.05A20.46,20.46,0,0,1,339,409a9.25,9.25,0,0,0-2.13-5.84" transform="translate(-214.24 -386.38)"/><path class="cls-2" d="M333.58,400.15c-3.78-2.61-9.46-4.6-16.76-5.84" transform="translate(-214.24 -386.38)"/><path class="cls-2" d="M336.28,447c6.15-2.58,11-5.33,12.87-7.53" transform="translate(-214.24 -386.38)"/><path class="cls-2" d="M349.62,435a27.94,27.94,0,0,0-1.3-3.23" transform="translate(-214.24 -386.38)"/><path class="cls-2" d="M343.35,422c-.39-.77-.77-1.54-1.13-2.31" transform="translate(-214.24 -386.38)"/><path class="cls-2" d="M296.22,393.37a36.37,36.37,0,0,0-17.7,7.7" transform="translate(-214.24 -386.38)"/><path class="cls-2" d="M310.41,393.46q-3.06-.3-6.41-.46h-.2" transform="translate(-214.24 -386.38)"/><circle class="cls-1" cx="113.26" cy="67.12" r="13"/><circle class="cls-1" cx="138.26" cy="24.12" r="9"/><circle class="cls-1" cx="140.26" cy="40.12" r="9"/><path class="cls-1" d="M271.5,414.5c-3,6-5.37,10-12,10s-12-4.48-12-10,5.37-10,12-10S274,409.56,271.5,414.5Z" transform="translate(-214.24 -386.38)"/><path d="M276.5,416.5a66.85,66.85,0,0,0,27,6c15,0,31-8,31-8S318,425,304,425,276.5,416.5,276.5,416.5Z" transform="translate(-214.24 -386.38)"/><path d="M274,426s14,8,28,8,33-8,33-8-16,12-33,12C283,438,274,426,274,426Z" transform="translate(-214.24 -386.38)"/><path d="M269.5,435.5a24.62,24.62,0,0,0,9.79,6.71,42.55,42.55,0,0,0,12.07,2A24.44,24.44,0,0,1,279,444C273.38,442.41,269.5,435.5,269.5,435.5Z" transform="translate(-214.24 -386.38)"/></svg>